<svg width="130" height="169" viewBox="0 0 130 169" fill="none" xmlns="http://www.w3.org/2000/svg">
<path d="M35.0566 21.6596C34.9255 21.289 34.88 20.9457 34.9204 20.6298C34.9503 20.2993 35.0679 20.061 35.2732 19.9149C35.7719 19.56 36.199 19.3997 36.5547 19.4338C36.9103 19.468 37.2551 19.7197 37.5891 20.189C37.683 20.321 37.8464 20.768 38.0794 21.5301C38.6161 23.2469 39.3437 25.325 40.262 27.7644C40.4639 28.3276 40.6461 28.8166 40.8086 29.2312C40.9857 29.6353 41.1284 29.9756 41.2367 30.252C41.9596 32.0131 42.4604 33.3689 42.739 34.3194C42.8076 34.602 42.7788 34.8875 42.6527 35.1761C42.5162 35.4499 42.3233 35.6756 42.074 35.853C41.8247 36.0304 41.5388 36.1564 41.2164 36.2312C40.8983 36.2808 40.6357 36.2688 40.4287 36.1952C39.3375 35.6241 37.9067 34.8086 36.1363 33.7486C34.3701 32.6636 32.8915 31.6722 31.7004 30.7745C32.4295 33.7241 33.1965 36.5252 34.0015 39.1778C34.0514 39.3411 34.1044 39.5243 34.1606 39.7274C34.2209 39.9054 34.2792 40.0959 34.3353 40.299C34.3892 40.592 34.3677 40.8723 34.271 41.14C34.1638 41.393 33.9929 41.603 33.7582 41.7699C33.4942 41.9578 33.2011 42.0891 32.8787 42.1638C32.5459 42.2239 32.2833 42.2119 32.0909 42.1279C31.6707 41.9409 31.1106 41.5883 30.4105 41.0702C29.7252 40.5417 28.7734 39.794 27.5553 38.8271L25.6747 37.3485C24.4273 36.4025 23.2102 35.3907 22.0237 34.313C20.8371 33.2353 20.1552 32.5718 19.9778 32.3225C19.7586 32.0145 19.7404 31.6629 19.9232 31.2678C20.0955 30.858 20.3357 30.5435 20.6437 30.3244C20.8196 30.1991 21.0447 30.1274 21.3189 30.109C21.5826 30.076 21.8377 30.1707 22.0842 30.3929C24.549 32.7702 27.5688 35.4154 31.1437 38.3283C30.878 37.1477 30.5081 35.743 30.034 34.1142C29.5745 32.4749 29.1192 30.888 28.6679 29.3534L28.4183 28.5369C28.3204 28.2752 28.3471 28.0022 28.4983 27.7179C28.6537 27.4085 28.856 27.1651 29.1054 26.9877C29.428 26.7581 29.7494 26.6509 30.0695 26.6661C30.3896 26.6814 30.6469 26.7634 30.8412 26.9123C30.8976 26.9606 31.8118 27.6245 33.5839 28.9041C35.356 30.1838 37.2485 31.3998 39.2615 32.5522C38.9391 31.4782 38.3049 29.8418 37.3589 27.643L36.6558 25.9562C35.9456 24.1198 35.4125 22.6876 35.0566 21.6596Z" fill="#9A795A"/>
<path d="M35.0566 21.6596L35.5291 21.496L35.528 21.4928L35.0566 21.6596ZM34.9204 20.6298L35.4164 20.6932L35.4175 20.684L35.4183 20.6749L34.9204 20.6298ZM38.0794 21.5301L37.6012 21.6763L37.6022 21.6793L38.0794 21.5301ZM40.262 27.7644L40.7327 27.5956L40.7299 27.5882L40.262 27.7644ZM40.8086 29.2312L40.3431 29.4136L40.3467 29.4228L40.3506 29.4319L40.8086 29.2312ZM41.2367 30.252L40.7711 30.4344L40.7742 30.4419L41.2367 30.252ZM42.739 34.3194L43.225 34.2015L43.2222 34.19L43.2189 34.1787L42.739 34.3194ZM42.6527 35.1761L43.1002 35.3991L43.1059 35.3878L43.1109 35.3763L42.6527 35.1761ZM41.2164 36.2312L41.2935 36.7252L41.3116 36.7224L41.3294 36.7183L41.2164 36.2312ZM40.4287 36.1952L40.1968 36.6382L40.228 36.6545L40.2612 36.6663L40.4287 36.1952ZM36.1363 33.7486L35.8745 34.1747L35.8794 34.1776L36.1363 33.7486ZM31.7004 30.7745L32.0014 30.3752L30.8773 29.5279L31.2151 30.8945L31.7004 30.7745ZM34.0015 39.1778L33.523 39.323L33.5233 39.324L34.0015 39.1778ZM34.1606 39.7274L33.6786 39.8606L33.6825 39.8744L33.6871 39.888L34.1606 39.7274ZM34.3353 40.299L34.8271 40.2086L34.8231 40.1869L34.8172 40.1658L34.3353 40.299ZM34.271 41.14L34.7314 41.335L34.7366 41.3226L34.7412 41.31L34.271 41.14ZM32.8787 42.1638L32.9675 42.6559L32.9796 42.6537L32.9916 42.6509L32.8787 42.1638ZM32.0909 42.1279L31.8877 42.5847L31.8907 42.586L32.0909 42.1279ZM30.4105 41.0702L30.1051 41.4662L30.1131 41.4721L30.4105 41.0702ZM27.5553 38.8271L27.8661 38.4355L27.8643 38.4341L27.5553 38.8271ZM25.6747 37.3485L25.9838 36.9554L25.9769 36.9501L25.6747 37.3485ZM22.0237 34.313L21.6875 34.6831L21.6875 34.6831L22.0237 34.313ZM19.9232 31.2678L20.377 31.4777L20.3807 31.4697L20.3841 31.4616L19.9232 31.2678ZM21.3189 30.109L21.3522 30.6079L21.3666 30.607L21.3809 30.6052L21.3189 30.109ZM22.0842 30.3929L22.4313 30.033L22.4252 30.0272L22.419 30.0216L22.0842 30.3929ZM31.1437 38.3283L30.8279 38.7159L31.949 39.6295L31.6315 38.2185L31.1437 38.3283ZM30.034 34.1142L29.5525 34.2491L29.5539 34.2539L30.034 34.1142ZM28.6679 29.3534L29.1476 29.2124L29.1461 29.2073L28.6679 29.3534ZM28.4183 28.5369L28.8965 28.3907L28.892 28.3761L28.8866 28.3618L28.4183 28.5369ZM28.4983 27.7179L28.9399 27.9527L28.9451 27.9423L28.4983 27.7179ZM30.0695 26.6661L30.0933 26.1667L30.0933 26.1667L30.0695 26.6661ZM30.8412 26.9123L31.1661 26.5323L31.156 26.5236L31.1453 26.5155L30.8412 26.9123ZM33.5839 28.9041L33.8766 28.4988L33.8766 28.4988L33.5839 28.9041ZM39.2615 32.5522L39.013 32.9861L40.1006 33.6088L39.7403 32.4085L39.2615 32.5522ZM37.3589 27.643L36.8974 27.8354L36.8996 27.8406L37.3589 27.643ZM36.6558 25.9562L36.1893 26.1366L36.1943 26.1486L36.6558 25.9562ZM35.528 21.4928C35.4169 21.1789 35.388 20.9154 35.4164 20.6932L34.4244 20.5665C34.3721 20.9761 34.434 21.399 34.5853 21.8264L35.528 21.4928ZM35.4183 20.6749C35.4395 20.4406 35.5117 20.3588 35.5631 20.3223L34.9833 19.5075C34.6241 19.7631 34.461 20.1579 34.4224 20.5848L35.4183 20.6749ZM35.5631 20.3223C36.0277 19.9917 36.3311 19.9147 36.5069 19.9315L36.6024 18.9361C36.067 18.8847 35.516 19.1284 34.9833 19.5075L35.5631 20.3223ZM36.5069 19.9315C36.6497 19.9452 36.8813 20.0568 37.1817 20.4789L37.9965 19.8991C37.6289 19.3826 37.171 18.9907 36.6024 18.9361L36.5069 19.9315ZM37.1817 20.4789C37.1752 20.4698 37.1868 20.4852 37.2156 20.5501C37.2416 20.6085 37.2738 20.6891 37.3125 20.795C37.3898 21.0063 37.4859 21.299 37.6012 21.6763L38.5576 21.3839C38.4399 20.9992 38.3379 20.6872 38.2517 20.4516C38.1737 20.2382 38.0888 20.0289 37.9965 19.8991L37.1817 20.4789ZM37.6022 21.6793C38.1427 23.4082 38.8737 25.4958 39.7941 27.9406L40.7299 27.5882C39.8136 25.1542 39.0896 23.0856 38.5566 21.3809L37.6022 21.6793ZM39.7913 27.9331C39.9944 28.4995 40.1783 28.9932 40.3431 29.4136L41.2741 29.0487C41.1139 28.6399 40.9335 28.1557 40.7327 27.5956L39.7913 27.9331ZM40.3506 29.4319C40.5263 29.8326 40.6662 30.1663 40.7712 30.4344L41.7023 30.0696C41.5907 29.7849 41.4452 29.4381 41.2666 29.0305L40.3506 29.4319ZM40.7742 30.4419C41.4953 32.1986 41.9881 33.5351 42.2592 34.46L43.2189 34.1787C42.9327 33.2026 42.4239 31.8275 41.6993 30.0621L40.7742 30.4419ZM42.2531 34.4372C42.2937 34.6046 42.2807 34.7787 42.1946 34.9759L43.1109 35.3763C43.2769 34.9964 43.3214 34.5993 43.225 34.2015L42.2531 34.4372ZM42.2053 34.953C42.1054 35.1534 41.9666 35.3157 41.7841 35.4456L42.3639 36.2604C42.6801 36.0354 42.9271 35.7464 43.1002 35.3991L42.2053 34.953ZM41.7841 35.4456C41.5922 35.5821 41.3675 35.6829 41.1035 35.7441L41.3294 36.7183C41.7101 36.63 42.0571 36.4786 42.3639 36.2604L41.7841 35.4456ZM41.1394 35.7372C40.8678 35.7795 40.6968 35.7599 40.5962 35.7241L40.2612 36.6663C40.5746 36.7778 40.9287 36.7821 41.2935 36.7252L41.1394 35.7372ZM40.6605 35.7522C39.5815 35.1875 38.16 34.3775 36.3931 33.3196L35.8794 34.1776C37.6534 35.2397 39.0934 36.0607 40.1968 36.6382L40.6605 35.7522ZM36.398 33.3226C34.6406 32.243 33.176 31.2606 32.0014 30.3752L31.3995 31.1738C32.607 32.0839 34.0997 33.0843 35.8746 34.1747L36.398 33.3226ZM31.2151 30.8945C31.946 33.8518 32.7153 36.6613 33.523 39.323L34.48 39.0326C33.6778 36.3891 32.913 33.5965 32.1858 30.6545L31.2151 30.8945ZM33.5233 39.324C33.5717 39.4821 33.6234 39.6609 33.6786 39.8606L34.6425 39.5942C34.5854 39.3877 34.5312 39.2001 34.4797 39.0317L33.5233 39.324ZM33.6871 39.888C33.744 40.0559 33.7995 40.2372 33.8534 40.4322L34.8172 40.1658C34.7589 39.9546 34.6978 39.7548 34.6341 39.5668L33.6871 39.888ZM33.8435 40.3894C33.8822 40.5995 33.8659 40.7897 33.8008 40.97L34.7412 41.31C34.8695 40.955 34.8962 40.5845 34.8271 40.2086L33.8435 40.3894ZM33.8106 40.945C33.7413 41.1086 33.6314 41.2465 33.4684 41.3626L34.0481 42.1773C34.3544 41.9594 34.5863 41.6774 34.7314 41.335L33.8106 40.945ZM33.4684 41.3626C33.2587 41.5117 33.0259 41.6164 32.7658 41.6767L32.9916 42.6509C33.3762 42.5617 33.7298 42.4039 34.0481 42.1773L33.4684 41.3626ZM32.7899 41.6718C32.5002 41.7241 32.3526 41.6965 32.2911 41.6697L31.8907 42.586C32.214 42.7273 32.5915 42.7237 32.9675 42.6559L32.7899 41.6718ZM32.2942 41.671C31.9248 41.5067 31.3998 41.1803 30.708 40.6683L30.1131 41.4721C30.8213 41.9963 31.4166 42.3751 31.8877 42.5847L32.2942 41.671ZM30.7159 40.6743C30.0333 40.1478 29.0836 39.4018 27.8661 38.4355L27.2444 39.2188C28.4632 40.1861 29.4171 40.9355 30.1052 41.4661L30.7159 40.6743ZM27.8643 38.4341L25.9838 36.9555L25.3657 37.7416L27.2462 39.2202L27.8643 38.4341ZM25.9769 36.9501C24.7414 36.0133 23.5357 35.0109 22.3599 33.9429L21.6875 34.6831C22.8848 35.7705 24.1131 36.7918 25.3726 37.7469L25.9769 36.9501ZM22.3599 33.9429C21.7684 33.4057 21.306 32.9747 20.971 32.6488C20.6236 32.3108 20.443 32.1139 20.3851 32.0326L19.5704 32.6124C19.6899 32.7804 19.939 33.04 20.2736 33.3655C20.6205 33.703 21.0925 34.1427 21.6875 34.6831L22.3599 33.9429ZM20.3851 32.0326C20.2877 31.8956 20.2558 31.7396 20.377 31.4777L19.4694 31.0579C19.225 31.5863 19.2296 32.1334 19.5704 32.6124L20.3851 32.0326ZM20.3841 31.4616C20.5268 31.1222 20.7138 30.8881 20.9335 30.7318L20.3538 29.917C19.9576 30.1989 19.6642 30.5938 19.4623 31.074L20.3841 31.4616ZM20.9335 30.7318C21.0162 30.673 21.1456 30.6217 21.3522 30.6079L21.2855 29.6101C20.9438 29.633 20.6231 29.7253 20.3538 29.917L20.9335 30.7318ZM21.3809 30.6052C21.4658 30.5945 21.5817 30.6131 21.7494 30.7643L22.419 30.0216C22.0937 29.7282 21.6994 29.5575 21.2568 29.6129L21.3809 30.6052ZM21.7371 30.7528C24.2146 33.1425 27.2456 35.797 30.8279 38.7159L31.4595 37.9407C27.892 35.0338 24.8833 32.398 22.4313 30.033L21.7371 30.7528ZM31.6315 38.2185C31.3629 37.0248 30.99 35.6095 30.5141 33.9744L29.5539 34.2539C30.0262 35.8764 30.3932 37.2706 30.6559 38.4381L31.6315 38.2185ZM30.5154 33.9792C30.0555 32.3381 29.5995 30.7491 29.1476 29.2124L28.1882 29.4945C28.6389 31.0269 29.0936 32.6118 29.5525 34.2491L30.5154 33.9792ZM29.1461 29.2073L28.8965 28.3907L27.9402 28.6831L28.1898 29.4996L29.1461 29.2073ZM28.8866 28.3618C28.8468 28.2553 28.8445 28.1317 28.9397 27.9526L28.0568 27.4831C27.8497 27.8726 27.7941 28.2951 27.95 28.712L28.8866 28.3618ZM28.9451 27.9423C29.0687 27.6961 29.2207 27.5193 29.3952 27.3951L28.8155 26.5803C28.4914 26.8109 28.2386 27.1209 28.0515 27.4934L28.9451 27.9423ZM29.3952 27.3951C29.6487 27.2147 29.8619 27.1568 30.0458 27.1656L30.0933 26.1667C29.6369 26.145 29.2074 26.3014 28.8155 26.5803L29.3952 27.3951ZM30.0458 27.1656C30.2953 27.1774 30.4452 27.2388 30.5371 27.3092L31.1453 26.5155C30.8485 26.288 30.484 26.1853 30.0933 26.1667L30.0458 27.1656ZM30.5163 27.2924C30.5644 27.3335 30.8346 27.5309 31.2754 27.851C31.7331 28.1834 32.4051 28.6696 33.2912 29.3095L33.8766 28.4988C32.9907 27.859 32.3196 27.3735 31.863 27.0419C31.6346 26.8761 31.4605 26.7491 31.3401 26.6608C31.2071 26.5632 31.1618 26.5286 31.1661 26.5323L30.5163 27.2924ZM33.2912 29.3095C35.0784 30.6 36.9858 31.8255 39.013 32.9861L39.5099 32.1183C37.5113 30.9741 35.6336 29.7675 33.8766 28.4988L33.2912 29.3095ZM39.7403 32.4085C39.4092 31.3053 38.7653 29.6467 37.8182 27.4454L36.8996 27.8406C37.8445 30.0369 38.4689 31.6511 38.7826 32.696L39.7403 32.4085ZM37.8204 27.4506L37.1173 25.7638L36.1943 26.1486L36.8974 27.8354L37.8204 27.4506ZM37.1221 25.7759C36.4127 23.9414 35.8821 22.5156 35.5291 21.496L34.5841 21.8232C34.943 22.8596 35.4785 24.2983 36.1895 26.1366L37.1221 25.7759Z" fill="#9A795A"/>
<path d="M52.5186 15.6446C53.7122 15.4718 54.8208 15.4659 55.8444 15.6268C56.8655 15.77 57.729 16.0814 58.4351 16.5612C59.7044 17.4141 60.6495 18.414 61.2702 19.5608C61.9062 20.6873 62.3597 22.1858 62.6305 24.0563C62.6873 24.4482 62.6854 24.8122 62.625 25.1484C62.5823 25.4819 62.4902 25.9136 62.3487 26.4433C62.1614 27.0343 62.0643 27.4939 62.0573 27.8223C61.7913 28.4974 61.2899 29.1793 60.553 29.868C59.8339 30.5542 59.028 31.1437 58.1355 31.6367C57.2429 32.1297 56.4404 32.4278 55.7278 32.531C52.2896 33.0289 49.6699 32.2078 47.8687 30.0679C47.3635 29.4681 46.9435 28.8287 46.6088 28.1497C46.2918 27.468 46.0843 26.7888 45.9863 26.1118C45.7232 24.2948 45.8155 22.6718 46.2634 21.2429C46.7264 19.7935 47.4828 18.6109 48.5323 17.6951C49.1678 17.1847 49.8402 16.7418 50.5497 16.3662C51.2745 15.9703 51.9308 15.7297 52.5186 15.6446ZM48.7769 25.7896C48.9162 26.7515 49.2448 27.5133 49.7626 28.0749C50.2982 28.6339 51.0732 29.2128 52.0875 29.8116C52.877 29.9883 53.4118 30.1019 53.6919 30.1522C53.9694 30.1848 54.2774 30.1766 54.6159 30.1276C56.4151 29.867 57.7782 29.1695 58.7052 28.0349C59.6321 26.9004 59.9718 25.478 59.7242 23.7678C59.5281 22.414 59.2219 21.367 58.8056 20.6271C58.3892 19.8871 57.744 19.2621 56.8699 18.7521C56.4112 18.473 55.8495 18.2997 55.185 18.2322C54.5383 18.1622 53.8497 18.18 53.1194 18.2858C52.0149 18.4457 51.1095 18.9133 50.4033 19.6885C49.6946 20.4459 49.2012 21.3722 48.9233 22.4673C48.6632 23.5599 48.6144 24.6673 48.7769 25.7896Z" fill="#9A795A"/>
<path d="M55.8444 15.6268L55.7667 16.1208L55.775 16.122L55.8444 15.6268ZM58.4351 16.5612L58.154 16.9748L58.1562 16.9762L58.4351 16.5612ZM61.2702 19.5608L60.8304 19.7989L60.8348 19.8067L61.2702 19.5608ZM62.625 25.1484L62.1329 25.0599L62.1306 25.0724L62.129 25.085L62.625 25.1484ZM62.3487 26.4433L62.8253 26.5944L62.8288 26.5835L62.8317 26.5724L62.3487 26.4433ZM62.0573 27.8223L62.5225 28.0056L62.5553 27.9224L62.5572 27.833L62.0573 27.8223ZM60.553 29.868L60.2115 29.5027L60.2078 29.5063L60.553 29.868ZM47.8687 30.0679L48.2512 29.7459L48.2511 29.7458L47.8687 30.0679ZM46.6088 28.1497L46.1553 28.3605L46.1603 28.3708L46.6088 28.1497ZM46.2634 21.2429L45.7871 21.0907L45.7862 21.0933L46.2634 21.2429ZM48.5323 17.6951L48.2193 17.3052L48.2113 17.3116L48.2036 17.3183L48.5323 17.6951ZM50.5497 16.3662L50.7837 16.8082L50.7895 16.805L50.5497 16.3662ZM49.7626 28.0749L49.3949 28.4139L49.4016 28.4208L49.7626 28.0749ZM52.0875 29.8116L51.8333 30.2422L51.9013 30.2823L51.9783 30.2996L52.0875 29.8116ZM53.6919 30.1522L53.6034 30.6443L53.6184 30.6471L53.6336 30.6488L53.6919 30.1522ZM58.7052 28.0349L59.0924 28.3513L59.0924 28.3513L58.7052 28.0349ZM58.8056 20.6271L58.3698 20.8722L58.3698 20.8722L58.8056 20.6271ZM56.8699 18.7521L56.6099 19.1793L56.6179 19.184L56.8699 18.7521ZM55.185 18.2322L55.1312 18.7293L55.1345 18.7297L55.185 18.2322ZM50.4033 19.6885L50.7685 20.0302L50.773 20.0252L50.4033 19.6885ZM48.9233 22.4673L48.4386 22.3443L48.4369 22.3515L48.9233 22.4673ZM52.5903 16.1395C53.7422 15.9727 54.7999 15.9687 55.7668 16.1207L55.9221 15.1329C54.8417 14.963 53.6822 14.9709 52.447 15.1498L52.5903 16.1395ZM55.775 16.122C56.7358 16.2567 57.5232 16.5461 58.1541 16.9747L58.7161 16.1476C57.9349 15.6168 56.9952 15.2833 55.9138 15.1317L55.775 16.122ZM58.1562 16.9762C59.37 17.7918 60.2544 18.7345 60.8305 19.7989L61.7099 19.3228C61.0445 18.0935 60.0388 17.0364 58.7139 16.1462L58.1562 16.9762ZM60.8348 19.8067C61.4298 20.8605 61.87 22.293 62.1357 24.128L63.1254 23.9846C62.8494 22.0787 62.3826 20.5141 61.7056 19.315L60.8348 19.8067ZM62.1357 24.128C62.1859 24.475 62.1824 24.7843 62.1329 25.0599L63.1171 25.2369C63.1884 24.8402 63.1886 24.4214 63.1254 23.9846L62.1357 24.128ZM62.129 25.085C62.0904 25.387 62.0045 25.7945 61.8656 26.3143L62.8317 26.5724C62.9759 26.0327 63.0743 25.5769 63.1209 25.2118L62.129 25.085ZM61.872 26.2923C61.6808 26.896 61.566 27.4105 61.5574 27.8117L62.5572 27.833C62.5627 27.5774 62.6421 27.1725 62.8253 26.5944L61.872 26.2923ZM61.5921 27.639C61.3618 28.2235 60.9141 28.8462 60.2115 29.5027L60.8944 30.2333C61.6657 29.5125 62.2208 28.7713 62.5225 28.0056L61.5921 27.639ZM60.2078 29.5063C59.5206 30.162 58.7497 30.7263 57.8937 31.1991L58.3772 32.0744C59.3064 31.5612 60.1472 30.9463 60.8981 30.2298L60.2078 29.5063ZM57.8937 31.1991C57.0337 31.6741 56.2898 31.9444 55.6561 32.0362L55.7994 33.0259C56.5909 32.9112 57.4521 32.5854 58.3772 32.0744L57.8937 31.1991ZM55.6561 32.0362C52.3414 32.5162 49.9133 31.7205 48.2512 29.7459L47.4861 30.3899C49.4266 32.6952 52.2379 33.5416 55.7994 33.0259L55.6561 32.0362ZM48.2511 29.7458C47.771 29.1758 47.3735 28.5701 47.0572 27.9286L46.1603 28.3708C46.5135 29.0873 46.956 29.7604 47.4862 30.39L48.2511 29.7458ZM47.0621 27.9388C46.7637 27.297 46.5715 26.6644 46.4811 26.0402L45.4914 26.1835C45.5971 26.9131 45.8199 27.6391 46.1554 28.3605L47.0621 27.9388ZM46.4811 26.0402C46.2264 24.2808 46.3195 22.7355 46.7405 21.3924L45.7862 21.0933C45.3115 22.608 45.22 24.3087 45.4914 26.1835L46.4811 26.0402ZM46.7396 21.395C47.1776 20.0243 47.8865 18.9222 48.8611 18.0718L48.2036 17.3183C47.079 18.2997 46.2753 19.5627 45.7871 21.0907L46.7396 21.395ZM48.8454 18.0849C49.4566 17.5941 50.1026 17.1687 50.7836 16.8081L50.3158 15.9243C49.5779 16.3149 48.879 16.7754 48.2193 17.3052L48.8454 18.0849ZM50.7895 16.805C51.4808 16.4273 52.0794 16.2134 52.5903 16.1395L52.447 15.1498C51.7821 15.2461 51.0681 15.5133 50.31 15.9275L50.7895 16.805ZM48.2821 25.8612C48.4319 26.8959 48.7922 27.7601 49.395 28.4138L50.1302 27.736C49.6973 27.2665 49.4005 26.6072 49.2717 25.7179L48.2821 25.8612ZM49.4016 28.4208C49.9807 29.0252 50.7979 29.6309 51.8333 30.2422L52.3417 29.3811C51.3485 28.7947 50.6158 28.2426 50.1236 27.729L49.4016 28.4208ZM51.9783 30.2996C52.7665 30.476 53.3113 30.5918 53.6034 30.6443L53.7804 29.6601C53.5122 29.6119 52.9875 29.5007 52.1967 29.3237L51.9783 30.2996ZM53.6336 30.6488C53.9627 30.6874 54.3152 30.6763 54.6875 30.6224L54.5442 29.6327C54.2396 29.6768 53.9761 29.6822 53.7501 29.6556L53.6336 30.6488ZM54.6875 30.6224C56.5794 30.3484 58.0684 29.6046 59.0924 28.3513L58.318 27.7186C57.488 28.7344 56.2508 29.3856 54.5442 29.6327L54.6875 30.6224ZM59.0924 28.3513C60.124 27.0886 60.4828 25.5179 60.219 23.6962L59.2293 23.8395C59.4608 25.4381 59.1403 26.7121 58.318 27.7186L59.0924 28.3513ZM60.219 23.6962C60.0189 22.314 59.7007 21.1983 59.2413 20.3819L58.3698 20.8722C58.7431 21.5358 59.0374 22.5139 59.2293 23.8395L60.219 23.6962ZM59.2413 20.3819C58.7737 19.5508 58.0579 18.8664 57.1219 18.3202L56.6179 19.184C57.4301 19.6578 58.0048 20.2234 58.3698 20.8722L59.2413 20.3819ZM57.1298 18.325C56.5938 17.9988 55.9566 17.808 55.2355 17.7348L55.1345 18.7297C55.7425 18.7914 56.2285 18.9471 56.61 19.1793L57.1298 18.325ZM55.2388 17.7351C54.5452 17.66 53.8142 17.68 53.0477 17.791L53.191 18.7806C53.8853 18.6801 54.5314 18.6643 55.1312 18.7293L55.2388 17.7351ZM53.0477 17.791C51.8365 17.9663 50.8232 18.4852 50.0337 19.3518L50.773 20.0252C51.3959 19.3414 52.1932 18.9251 53.191 18.7806L53.0477 17.791ZM50.0383 19.3469C49.2668 20.1713 48.7354 21.1749 48.4387 22.3443L49.4079 22.5903C49.667 21.5695 50.1224 20.7205 50.7684 20.0302L50.0383 19.3469ZM48.4369 22.3515C48.162 23.5061 48.1106 24.6771 48.2821 25.8612L49.2717 25.7179C49.1182 24.6575 49.1644 23.6137 49.4097 22.5831L48.4369 22.3515Z" fill="#9A795A"/>
<path d="M75.9729 26.4168C76.4634 27.55 76.9686 28.5672 77.4887 29.4683C78.0289 30.3538 78.7416 31.4519 79.6268 32.7626C79.7358 32.9035 79.7801 33.0543 79.7596 33.215C79.7277 33.465 79.5575 33.661 79.249 33.8031C78.9584 33.9475 78.6166 33.9946 78.2238 33.9444C77.6703 33.8738 77.1018 33.5653 76.5183 33.019C75.9993 32.5354 75.56 31.9259 75.2002 31.1904C74.8405 30.4549 74.4355 29.505 73.9853 28.3406C73.6282 27.4422 73.4141 26.9158 73.3431 26.7616C72.6103 26.9584 71.4983 26.9979 70.0072 26.8801C69.9297 27.4872 69.8784 28.3154 69.8534 29.3646C69.8237 30.4496 69.7782 31.2332 69.7166 31.7153C69.6756 32.0366 69.4807 32.284 69.132 32.4572C68.8011 32.6327 68.4392 32.6954 68.0464 32.6452C67.5822 32.586 67.249 32.3529 67.0469 31.9461C66.8608 31.4142 66.7764 30.7955 66.7939 30.0901C66.8114 29.3846 66.8816 28.5498 67.0047 27.5856C67.1346 26.5679 67.3441 25.4242 67.6332 24.1546C67.9227 22.7399 68.1107 21.6932 68.1973 21.0147C68.268 20.4612 68.309 19.7134 68.3204 18.7713C68.3231 18.6083 68.3316 18.3281 68.3461 17.9307C68.3605 17.5334 68.3882 17.174 68.4292 16.8526C68.4612 16.6026 68.5778 16.3998 68.7791 16.244C69.0006 16.0727 69.223 15.965 69.4464 15.9209C70.9223 15.8734 72.3477 15.9374 73.7225 16.1129C76.0615 16.4115 77.943 17.0962 79.3668 18.1672C80.7907 19.2381 81.3887 20.6663 81.1607 22.4518C81.0901 23.0053 80.8967 23.525 80.5806 24.0109C80.2847 24.4812 79.9097 24.8598 79.4558 25.1466C78.2595 25.8468 77.0985 26.2702 75.9729 26.4168ZM78.3588 22.0125C78.4682 21.1554 78.1018 20.401 77.2596 19.7491C76.4196 19.0793 75.1604 18.6373 73.4821 18.4231C72.7321 18.3273 71.9798 18.322 71.2249 18.4071L71.0773 19.7765C70.977 20.5621 70.8523 21.3264 70.703 22.0695C70.5537 22.8126 70.4243 23.6126 70.3149 24.4697C70.6276 24.437 70.9547 24.4334 71.2962 24.4589C71.64 24.4665 71.8666 24.4682 71.976 24.464C72.7707 24.4928 73.3892 24.4811 73.8314 24.4286C74.6668 24.2812 75.3559 24.1424 75.8988 24.0121C76.4618 23.8662 76.9904 23.6343 77.4847 23.3163C77.9991 22.9827 78.2904 22.5481 78.3588 22.0125Z" fill="#9A795A"/>
<path d="M75.9729 26.4168L75.9083 25.921L75.2506 26.0067L75.514 26.6154L75.9729 26.4168ZM77.4887 29.4683L77.0555 29.7183L77.0619 29.7287L77.4887 29.4683ZM79.6268 32.7626L79.2124 33.0424L79.2214 33.0558L79.2313 33.0685L79.6268 32.7626ZM79.249 33.8031L79.0398 33.349L79.0331 33.352L79.0265 33.3553L79.249 33.8031ZM76.5183 33.019L76.86 32.654L76.8592 32.6532L76.5183 33.019ZM73.9853 28.3406L74.4517 28.1603L74.4499 28.1559L73.9853 28.3406ZM73.3431 26.7616L73.7972 26.5524L73.6208 26.1693L73.2134 26.2787L73.3431 26.7616ZM70.0072 26.8801L70.0466 26.3817L69.5716 26.3442L69.5112 26.8168L70.0072 26.8801ZM69.8534 29.3646L70.3532 29.3783L70.3532 29.3766L69.8534 29.3646ZM69.132 32.4572L68.9095 32.0092L68.8977 32.0155L69.132 32.4572ZM67.0469 31.9461L66.575 32.1112L66.5853 32.1406L66.5991 32.1685L67.0469 31.9461ZM66.7939 30.0901L67.2937 30.1025L67.2937 30.1025L66.7939 30.0901ZM67.6332 24.1546L68.1209 24.2656L68.1231 24.2548L67.6332 24.1546ZM68.3204 18.7713L67.8205 18.7631L67.8205 18.7652L68.3204 18.7713ZM68.3461 17.9307L68.8457 17.9489L68.8457 17.9489L68.3461 17.9307ZM68.7791 16.244L69.0851 16.6395L69.0851 16.6395L68.7791 16.244ZM69.4464 15.9209L69.4303 15.4212L69.3896 15.4225L69.3496 15.4304L69.4464 15.9209ZM79.3668 18.1672L79.6674 17.7676L79.6674 17.7676L79.3668 18.1672ZM80.5806 24.0109L80.1615 23.7382L80.1574 23.7446L80.5806 24.0109ZM79.4558 25.1466L79.7083 25.5781L79.7157 25.5738L79.7228 25.5693L79.4558 25.1466ZM77.2596 19.7491L76.9478 20.14L76.9535 20.1445L77.2596 19.7491ZM71.2249 18.4071L71.1689 17.9103L70.7707 17.9552L70.7278 18.3535L71.2249 18.4071ZM71.0773 19.7765L71.5734 19.8398L71.5745 19.83L71.0773 19.7765ZM70.703 22.0695L71.1932 22.168L71.1932 22.168L70.703 22.0695ZM70.3149 24.4697L69.8189 24.4064L69.739 25.0326L70.3669 24.967L70.3149 24.4697ZM71.2962 24.4589L71.259 24.9575L71.2721 24.9584L71.2851 24.9587L71.2962 24.4589ZM71.976 24.464L71.9942 23.9643L71.9755 23.9636L71.9569 23.9643L71.976 24.464ZM73.8314 24.4286L73.8903 24.9252L73.9044 24.9235L73.9183 24.921L73.8314 24.4286ZM75.8988 24.0121L76.0155 24.4983L76.0242 24.4961L75.8988 24.0121ZM77.4847 23.3163L77.7552 23.7368L77.7567 23.7358L77.4847 23.3163ZM75.514 26.6154C76.0107 27.7631 76.5244 28.7978 77.0557 29.7182L77.9218 29.2184C77.4128 28.3366 76.916 27.337 76.4318 26.2182L75.514 26.6154ZM77.0619 29.7287C77.6076 30.6233 78.3249 31.7283 79.2124 33.0424L80.0411 32.4827C79.1583 31.1755 78.4503 30.0844 77.9156 29.2079L77.0619 29.7287ZM79.2313 33.0685C79.2681 33.1161 79.2655 33.1363 79.2636 33.1517L80.2555 33.2783C80.2946 32.9723 80.2035 32.6909 80.0223 32.4566L79.2313 33.0685ZM79.2636 33.1517C79.2608 33.1734 79.2525 33.251 79.0398 33.349L79.4582 34.2572C79.8624 34.071 80.1945 33.7566 80.2555 33.2783L79.2636 33.1517ZM79.0265 33.3553C78.8421 33.4469 78.6038 33.4889 78.2871 33.4484L78.1605 34.4404C78.6295 34.5003 79.0746 34.448 79.4714 34.2509L79.0265 33.3553ZM78.2871 33.4484C77.8742 33.3957 77.3988 33.1584 76.86 32.654L76.1766 33.384C76.8049 33.9722 77.4664 34.3518 78.1605 34.4404L78.2871 33.4484ZM76.8592 32.6532C76.3913 32.2172 75.9864 31.6596 75.6494 30.9707L74.7511 31.4101C75.1336 32.1921 75.6074 32.8536 76.1774 33.3848L76.8592 32.6532ZM75.6494 30.9707C75.2983 30.2529 74.899 29.3175 74.4517 28.1603L73.5189 28.5209C73.9719 29.6925 74.3827 30.6569 74.7511 31.4101L75.6494 30.9707ZM74.4499 28.1559C74.0958 27.2649 73.8754 26.7221 73.7972 26.5524L72.8889 26.9708C72.9529 27.1096 73.1606 27.6195 73.5207 28.5253L74.4499 28.1559ZM73.2134 26.2787C72.5664 26.4524 71.525 26.4984 70.0466 26.3817L69.9678 27.3786C71.4717 27.4973 72.6542 27.4643 73.4728 27.2445L73.2134 26.2787ZM69.5112 26.8168C69.4306 27.4487 69.3787 28.2965 69.3535 29.3527L70.3532 29.3766C70.3781 28.3342 70.4289 27.5257 70.5032 26.9434L69.5112 26.8168ZM69.3536 29.351C69.324 30.4345 69.2788 31.1965 69.2207 31.6519L70.2126 31.7786C70.2775 31.2698 70.3235 30.4648 70.3532 29.3783L69.3536 29.351ZM69.2207 31.6519C69.2053 31.7724 69.1433 31.8933 68.9095 32.0094L69.3544 32.905C69.8182 32.6746 70.1459 32.3009 70.2126 31.7786L69.2207 31.6519ZM68.8977 32.0155C68.6634 32.1398 68.4063 32.1871 68.1097 32.1493L67.9831 33.1412C68.4721 33.2037 68.9388 33.1257 69.3663 32.8989L68.8977 32.0155ZM68.1097 32.1493C67.8053 32.1104 67.6198 31.9754 67.4947 31.7236L66.5991 32.1685C66.8783 32.7304 67.3591 33.0616 67.9831 33.1412L68.1097 32.1493ZM67.5188 31.7809C67.357 31.3184 67.2774 30.7622 67.2937 30.1025L66.294 30.0777C66.2754 30.8289 66.3646 31.51 66.575 32.1112L67.5188 31.7809ZM67.2937 30.1025C67.3107 29.419 67.379 28.602 67.5007 27.6489L66.5087 27.5223C66.3842 28.4976 66.3121 29.3502 66.294 30.0777L67.2937 30.1025ZM67.5007 27.6489C67.6281 26.6508 67.8343 25.5234 68.1207 24.2656L67.1457 24.0436C66.8539 25.325 66.6412 26.485 66.5087 27.5223L67.5007 27.6489ZM68.1231 24.2548C68.4129 22.8382 68.6042 21.7762 68.6933 21.0781L67.7014 20.9514C67.6173 21.6103 67.4325 22.6415 67.1434 24.0544L68.1231 24.2548ZM68.6933 21.0781C68.7675 20.497 68.8089 19.7275 68.8204 18.7773L67.8205 18.7652C67.8092 19.6993 67.7685 20.4254 67.7014 20.9514L68.6933 21.0781ZM68.8204 18.7794C68.8229 18.622 68.8313 18.3463 68.8457 17.9489L67.8464 17.9126C67.832 18.3099 67.8232 18.5946 67.8205 18.7631L68.8204 18.7794ZM68.8457 17.9489C68.8597 17.5634 68.8865 17.2194 68.9252 16.9159L67.9333 16.7893C67.89 17.1286 67.8613 17.5034 67.8464 17.9126L68.8457 17.9489ZM68.9252 16.9159C68.9401 16.799 68.9874 16.715 69.0851 16.6395L68.4732 15.8485C68.1682 16.0845 67.9822 16.4063 67.9333 16.7893L68.9252 16.9159ZM69.0851 16.6395C69.259 16.5049 69.4115 16.4374 69.5432 16.4114L69.3496 15.4304C69.0346 15.4925 68.7422 15.6404 68.4732 15.8485L69.0851 16.6395ZM69.4625 16.4206C70.9136 16.3739 72.3123 16.437 73.6592 16.6089L73.7858 15.6169C72.383 15.4379 70.931 15.3729 69.4303 15.4212L69.4625 16.4206ZM73.6592 16.6089C75.9391 16.8999 77.7307 17.5622 79.0663 18.5667L79.6674 17.7676C78.1552 16.6303 76.184 15.9231 73.7858 15.6169L73.6592 16.6089ZM79.0663 18.5667C80.3447 19.5283 80.8702 20.7789 80.6648 22.3885L81.6567 22.5151C81.9071 20.5537 81.2366 18.9478 79.6674 17.7676L79.0663 18.5667ZM80.6648 22.3885C80.604 22.8644 80.4382 23.3129 80.1615 23.7383L80.9998 24.2835C81.3552 23.7371 81.5761 23.1462 81.6567 22.5151L80.6648 22.3885ZM80.1574 23.7446C79.8998 24.154 79.5774 24.4783 79.1887 24.7239L79.7228 25.5693C80.2421 25.2412 80.6696 24.8084 81.0038 24.2772L80.1574 23.7446ZM79.2032 24.7151C78.0522 25.3887 76.9547 25.7847 75.9083 25.921L76.0375 26.9126C77.2424 26.7556 78.4668 26.3048 79.7083 25.5781L79.2032 24.7151ZM78.8548 22.0758C78.9921 21 78.5099 20.0846 77.5656 19.3537L76.9535 20.1445C77.6937 20.7173 77.9443 21.3108 77.8628 21.9492L78.8548 22.0758ZM77.5713 19.3581C76.6297 18.6073 75.267 18.1468 73.5454 17.9271L73.4187 18.919C75.0539 19.1278 76.2095 19.5513 76.9478 20.14L77.5713 19.3581ZM73.5454 17.9271C72.7557 17.8263 71.9632 17.8207 71.1689 17.9103L71.2809 18.904C71.9963 18.8233 72.7086 18.8284 73.4187 18.919L73.5454 17.9271ZM70.7278 18.3535L70.5802 19.7229L71.5745 19.83L71.722 18.4607L70.7278 18.3535ZM70.5814 19.7131C70.4825 20.4875 70.3596 21.2401 70.2128 21.971L71.1932 22.168C71.3449 21.4128 71.4716 20.6367 71.5733 19.8398L70.5814 19.7131ZM70.2128 21.971C70.0608 22.7272 69.9296 23.5391 69.8189 24.4064L70.8109 24.533C70.919 23.6862 71.0465 22.8979 71.1932 22.168L70.2128 21.971ZM70.3669 24.967C70.6474 24.9377 70.9446 24.934 71.259 24.9575L71.3333 23.9602C70.9647 23.9328 70.6077 23.9364 70.2629 23.9724L70.3669 24.967ZM71.2851 24.9587C71.6259 24.9663 71.8679 24.9685 71.9951 24.9636L71.9569 23.9643C71.8652 23.9678 71.6541 23.9666 71.3072 23.959L71.2851 24.9587ZM71.9579 24.9636C72.7617 24.9928 73.4101 24.9821 73.8903 24.9252L73.7725 23.9321C73.3683 23.98 72.7798 23.9928 71.9942 23.9643L71.9579 24.9636ZM73.9183 24.921C74.7591 24.7727 75.4591 24.6318 76.0155 24.4983L75.7821 23.5259C75.2528 23.6529 74.5745 23.7898 73.7445 23.9362L73.9183 24.921ZM76.0242 24.4961C76.6392 24.3367 77.2168 24.0832 77.7552 23.7368L77.2141 22.8958C76.7641 23.1853 76.2844 23.3956 75.7734 23.5281L76.0242 24.4961ZM77.7567 23.7358C78.3758 23.3343 78.7651 22.7781 78.8548 22.0758L77.8628 21.9492C77.8157 22.3182 77.6223 22.6311 77.2126 22.8968L77.7567 23.7358Z" fill="#9A795A"/>
<path d="M97.0205 39.5319C97.1424 39.692 97.212 39.8565 97.2293 40.0254C97.2628 40.2023 97.2201 40.4119 97.1011 40.6543C96.9504 40.9612 96.7062 41.1522 96.3687 41.2271C96.0552 41.2938 95.745 41.2518 95.438 41.101C95.0825 40.9265 94.7222 40.6393 94.357 40.2395C93.6505 39.3913 93.1267 38.2118 92.7857 36.7008C92.4688 35.1817 92.2081 33.0986 92.0037 30.4516C90.7337 30.7104 89.4713 30.9128 88.2166 31.0587C88.05 31.398 87.8637 31.7979 87.6577 32.2582C87.4759 32.7103 87.3334 33.0414 87.2303 33.2515C86.8025 34.2045 86.5132 34.8345 86.3625 35.1415C86.2277 35.4162 86.0079 35.6392 85.7032 35.8104C85.4065 35.9655 85.0804 35.9558 84.7249 35.7813C84.2079 35.5275 83.8759 35.2642 83.7291 34.9916C83.5901 34.7028 83.5757 34.3849 83.6859 34.038C83.9533 33.1666 84.2694 32.3593 84.6343 31.6161C85.0468 30.7758 85.7064 29.5957 86.6131 28.0758C87.488 26.6204 88.1119 25.513 88.4847 24.7536C88.6275 24.4627 88.8176 24.0347 89.055 23.4695C89.253 23.0253 89.4029 22.5975 89.5045 22.1863C89.6937 21.6375 89.8399 21.2581 89.943 21.048C90.1969 20.531 90.4924 20.2149 90.8297 20.0997C91.167 19.9846 91.5699 20.042 92.0385 20.2721C92.3939 20.4466 92.6332 20.6944 92.7563 21.0155C92.9035 21.3284 92.9099 21.6624 92.7756 22.0176C92.1822 23.4307 91.703 24.5088 91.3381 25.2521C91.1236 25.6481 90.8057 26.2139 90.3844 26.9495C89.9872 27.6769 89.7248 28.1296 89.5973 28.3077C90.2974 28.2704 91.8042 27.9173 94.1178 27.2484C96.4554 26.5713 98.1698 25.9793 99.2609 25.4723L99.7545 25.2634C100.18 25.051 100.513 24.9238 100.754 24.8818C100.995 24.8398 101.269 24.8942 101.576 25.0449C101.883 25.1956 102.106 25.4355 102.246 25.7645C102.409 26.0853 102.423 26.3831 102.288 26.6578C102.027 27.191 101.486 27.5974 100.667 27.8771C98.6437 28.6082 96.668 29.2424 94.7399 29.7797C94.8931 34.2463 95.6533 37.4971 97.0205 39.5319Z" fill="#9A795A"/>
<path d="M97.0205 39.5319L96.6055 39.8107L96.6137 39.823L96.6227 39.8348L97.0205 39.5319ZM97.2293 40.0254L96.732 40.0764L96.7341 40.0976L96.7381 40.1184L97.2293 40.0254ZM96.3687 41.2271L96.4727 41.7162L96.477 41.7152L96.3687 41.2271ZM94.357 40.2395L93.9728 40.5595L93.9801 40.5682L93.9878 40.5767L94.357 40.2395ZM92.7857 36.7008L92.2962 36.803L92.298 36.8109L92.7857 36.7008ZM92.0037 30.4516L92.5022 30.4131L92.4587 29.8486L91.9039 29.9617L92.0037 30.4516ZM88.2166 31.0587L88.1588 30.5621L87.8879 30.5936L87.7677 30.8384L88.2166 31.0587ZM87.6577 32.2582L87.2013 32.054L87.1974 32.0628L87.1939 32.0716L87.6577 32.2582ZM87.2303 33.2515L86.7814 33.0311L86.7776 33.0389L86.7741 33.0467L87.2303 33.2515ZM85.7032 35.8104L85.9349 36.2535L85.9416 36.25L85.9483 36.2463L85.7032 35.8104ZM83.7291 34.9916L83.2785 35.2084L83.2834 35.2187L83.2889 35.2287L83.7291 34.9916ZM83.6859 34.038L84.1625 34.1893L84.1639 34.1846L83.6859 34.038ZM86.6131 28.0758L86.1845 27.8181L86.1836 27.8196L86.6131 28.0758ZM89.055 23.4695L88.5982 23.2658L88.594 23.2759L89.055 23.4695ZM89.5045 22.1863L89.0318 22.0233L89.0245 22.0445L89.0191 22.0663L89.5045 22.1863ZM90.8297 20.0997L90.9913 20.5729L90.9913 20.5729L90.8297 20.0997ZM92.7563 21.0155L92.2894 21.1945L92.296 21.2117L92.3038 21.2283L92.7563 21.0155ZM92.7756 22.0176L93.2366 22.2112L93.2401 22.2029L93.2433 22.1944L92.7756 22.0176ZM91.3381 25.2521L91.7777 25.4902L91.7825 25.4814L91.7869 25.4724L91.3381 25.2521ZM90.3844 26.9495L89.9504 26.701L89.9455 26.7099L90.3844 26.9495ZM89.5973 28.3077L89.1908 28.0165L88.585 28.8623L89.6239 28.8069L89.5973 28.3077ZM94.1178 27.2484L94.2566 27.7288L94.2569 27.7287L94.1178 27.2484ZM99.2609 25.4723L99.0661 25.0118L99.0581 25.0152L99.0502 25.0188L99.2609 25.4723ZM99.7545 25.2634L99.9493 25.7239L99.9638 25.7177L99.9779 25.7107L99.7545 25.2634ZM100.754 24.8818L100.84 25.3744L100.84 25.3744L100.754 24.8818ZM102.246 25.7645L101.785 25.9594L101.792 25.9756L101.8 25.9914L102.246 25.7645ZM100.667 27.8771L100.505 27.4038L100.497 27.4068L100.667 27.8771ZM94.7399 29.7797L94.6057 29.298L94.2267 29.4036L94.2402 29.7968L94.7399 29.7797ZM96.6227 39.8348C96.6993 39.9354 96.7256 40.0148 96.732 40.0764L97.7267 39.9744C97.6984 39.6982 97.5855 39.4486 97.4183 39.229L96.6227 39.8348ZM96.7381 40.1184C96.7436 40.1476 96.7462 40.2425 96.6523 40.4339L97.5499 40.8746C97.6939 40.5813 97.7821 40.2569 97.7206 39.9324L96.7381 40.1184ZM96.6523 40.4339C96.5693 40.6028 96.4515 40.6966 96.2604 40.739L96.477 41.7152C96.9609 41.6078 97.3314 41.3197 97.5499 40.8746L96.6523 40.4339ZM96.2646 40.738C96.0684 40.7798 95.872 40.7571 95.6583 40.6522L95.2176 41.5499C95.6179 41.7464 96.042 41.8078 96.4727 41.7162L96.2646 40.738ZM95.6583 40.6522C95.3755 40.5134 95.0637 40.2718 94.7262 39.9023L93.9878 40.5767C94.3807 41.0068 94.7895 41.3397 95.2176 41.5499L95.6583 40.6522ZM94.7412 39.9195C94.1016 39.1516 93.6037 38.0537 93.2734 36.5907L92.298 36.8109C92.6498 38.3698 93.1995 39.631 93.9728 40.5595L94.7412 39.9195ZM93.2752 36.5987C92.9646 35.1101 92.706 33.0514 92.5022 30.4131L91.5052 30.4901C91.7103 33.1457 91.9729 35.2532 92.2962 36.8029L93.2752 36.5987ZM91.9039 29.9617C90.6474 30.2177 89.3991 30.4178 88.1588 30.5621L88.2743 31.5554C89.5436 31.4077 90.82 31.2031 92.1036 30.9415L91.9039 29.9617ZM87.7677 30.8384C87.5978 31.1844 87.409 31.5899 87.2013 32.054L88.1142 32.4624C88.3184 32.0058 88.5021 31.6116 88.6654 31.2791L87.7677 30.8384ZM87.1939 32.0716C87.0128 32.5218 86.876 32.8386 86.7814 33.0311L87.6791 33.4718C87.7908 33.2443 87.939 32.8989 88.1216 32.4448L87.1939 32.0716ZM86.7741 33.0467C86.3457 34.0012 86.06 34.6232 85.9137 34.9211L86.8113 35.3618C86.9665 35.0458 87.2593 34.4078 87.6864 33.4562L86.7741 33.0467ZM85.9137 34.9211C85.8295 35.0925 85.6877 35.2456 85.4582 35.3746L85.9483 36.2463C86.3281 36.0327 86.6258 35.7398 86.8113 35.3618L85.9137 34.9211ZM85.4716 35.3673C85.3429 35.4346 85.1874 35.4513 84.9453 35.3325L84.5046 36.2301C84.9734 36.4603 85.4701 36.4965 85.9349 36.2535L85.4716 35.3673ZM84.9453 35.3325C84.4525 35.0905 84.2396 34.8851 84.1692 34.7544L83.2889 35.2287C83.5122 35.6434 83.9633 35.9644 84.5046 36.2301L84.9453 35.3325ZM84.1796 34.7748C84.1036 34.6167 84.0852 34.4325 84.1624 34.1893L83.2094 33.8866C83.0662 34.3373 83.0767 34.7889 83.2785 35.2084L84.1796 34.7748ZM84.1639 34.1846C84.4243 33.3361 84.731 32.5537 85.0831 31.8364L84.1855 31.3957C83.8078 32.1649 83.4823 32.9971 83.2079 33.8913L84.1639 34.1846ZM85.0831 31.8364C85.4865 31.0148 86.1378 29.8485 87.0425 28.3319L86.1836 27.8196C85.275 29.343 84.6071 30.5369 84.1855 31.3957L85.0831 31.8364ZM87.0416 28.3334C87.9181 26.8754 88.551 25.7531 88.9335 24.9739L88.0359 24.5332C87.6728 25.2728 87.0579 26.3654 86.1845 27.8181L87.0416 28.3334ZM88.9335 24.9739C89.0829 24.6697 89.2775 24.2309 89.516 23.6631L88.594 23.2759C88.3577 23.8385 88.1721 24.2558 88.0359 24.5332L88.9335 24.9739ZM89.5117 23.6731C89.72 23.2058 89.8802 22.75 89.9899 22.3062L89.0191 22.0663C88.9255 22.4451 88.786 22.8448 88.5983 23.2659L89.5117 23.6731ZM89.9772 22.3492C90.1667 21.7998 90.304 21.4473 90.3919 21.2684L89.4942 20.8277C89.3758 21.0688 89.2208 21.4752 89.0318 22.0233L89.9772 22.3492ZM90.3919 21.2684C90.6218 20.8001 90.838 20.6252 90.9913 20.5729L90.6681 19.6265C90.1469 19.8045 89.772 20.2619 89.4942 20.8277L90.3919 21.2684ZM90.9913 20.5729C91.1549 20.517 91.4134 20.5222 91.8181 20.7209L92.2588 19.8232C91.7264 19.5618 91.1791 19.4521 90.6681 19.6265L90.9913 20.5729ZM91.8181 20.7209C92.0787 20.8488 92.2183 21.009 92.2894 21.1945L93.2232 20.8365C93.0481 20.3798 92.7092 20.0443 92.2588 19.8232L91.8181 20.7209ZM92.3038 21.2283C92.3875 21.4061 92.3996 21.5985 92.3079 21.8408L93.2433 22.1944C93.4203 21.7264 93.4195 21.2507 93.2087 20.8027L92.3038 21.2283ZM92.3147 21.824C91.7224 23.2342 91.2476 24.3017 90.8892 25.0317L91.7869 25.4724C92.1583 24.7159 92.642 23.6271 93.2366 22.2112L92.3147 21.824ZM90.8984 25.014C90.6868 25.4047 90.3712 25.9664 89.9505 26.701L90.8183 27.198C91.2401 26.4614 91.5604 25.8915 91.7777 25.4902L90.8984 25.014ZM89.9455 26.7099C89.5434 27.4463 89.2967 27.8686 89.1908 28.0165L90.0038 28.5988C90.1529 28.3906 90.4309 27.9075 90.8232 27.1892L89.9455 26.7099ZM89.6239 28.8069C90.3925 28.766 91.9581 28.3933 94.2566 27.7288L93.9789 26.7681C91.6503 27.4413 90.2022 27.7747 89.5707 27.8084L89.6239 28.8069ZM94.2569 27.7287C96.5995 27.0501 98.3443 26.4495 99.4716 25.9257L99.0502 25.0188C97.9953 25.509 96.3113 26.0925 93.9786 26.7682L94.2569 27.7287ZM99.4558 25.9327L99.9493 25.7239L99.5596 24.8029L99.0661 25.0118L99.4558 25.9327ZM99.9779 25.7107C100.392 25.5036 100.672 25.4035 100.84 25.3744L100.668 24.3892C100.353 24.4441 99.9668 24.5984 99.531 24.8161L99.9779 25.7107ZM100.84 25.3744C100.943 25.3565 101.107 25.3716 101.356 25.4937L101.797 24.5961C101.431 24.4168 101.048 24.3232 100.668 24.3892L100.84 25.3744ZM101.356 25.4937C101.55 25.5889 101.69 25.7357 101.785 25.9594L102.706 25.5697C102.522 25.1352 102.217 24.8023 101.797 24.5961L101.356 25.4937ZM101.8 25.9914C101.906 26.1999 101.892 26.33 101.839 26.4374L102.737 26.8781C102.954 26.4362 102.912 25.9707 102.691 25.5377L101.8 25.9914ZM101.839 26.4374C101.658 26.8064 101.256 27.1475 100.505 27.4039L100.829 28.3502C101.716 28.0473 102.395 27.5755 102.737 26.8781L101.839 26.4374ZM100.497 27.4068C98.4847 28.134 96.5209 28.7644 94.6057 29.298L94.8741 30.2613C96.8151 29.7205 98.8027 29.0824 100.837 28.3473L100.497 27.4068ZM94.2402 29.7968C94.3943 34.2909 95.1587 37.6574 96.6055 39.8107L97.4355 39.253C96.1479 37.3367 95.3919 34.2018 95.2396 29.7625L94.2402 29.7968Z" fill="#9A795A"/>
<path d="M114.194 31.9156C113.55 32.783 112.561 34.0163 111.225 35.6154C109.937 37.1502 108.978 38.3433 108.346 39.1946C108.179 39.4195 107.85 39.8972 107.358 40.6279C107.139 40.889 106.888 41.0263 106.604 41.0398C106.332 41.0373 106.075 40.9466 105.834 40.7679C105.577 40.5773 105.392 40.3402 105.279 40.0568C105.165 39.7734 105.162 39.5094 105.268 39.2649C106.053 37.8047 107.124 36.159 108.482 34.3278L111.295 30.5869C111.735 29.9926 112.165 29.5643 112.584 29.3021C113.03 29.0357 113.511 29.0932 114.025 29.4745C114.458 29.7962 114.672 30.1791 114.667 30.6231C114.673 31.0511 114.515 31.4819 114.194 31.9156ZM104.784 41.9315C105.877 42.7417 106.119 43.5564 105.511 44.3757C105.202 44.7933 104.779 45.0775 104.244 45.2284C103.737 45.3751 103.282 45.2995 102.881 45.0016C102.399 44.6441 102.112 44.2076 102.022 43.6921C101.943 43.1605 102.052 42.6939 102.35 42.2923C102.612 41.9389 102.979 41.713 103.451 41.6145C103.938 41.5279 104.383 41.6336 104.784 41.9315Z" fill="#9A795A"/>
<path d="M111.225 35.6154L111.608 35.9368L111.609 35.9359L111.225 35.6154ZM107.358 40.6279L107.741 40.9488L107.758 40.9288L107.772 40.9072L107.358 40.6279ZM106.604 41.0398L106.599 41.5398L106.613 41.54L106.627 41.5393L106.604 41.0398ZM105.279 40.0568L104.814 40.2427L104.814 40.2427L105.279 40.0568ZM105.268 39.2649L104.828 39.0283L104.818 39.0462L104.81 39.0649L105.268 39.2649ZM108.482 34.3278L108.083 34.0274L108.081 34.0299L108.482 34.3278ZM111.295 30.5869L111.694 30.8874L111.696 30.8848L111.295 30.5869ZM112.584 29.3021L112.328 28.8726L112.318 28.8784L112.584 29.3021ZM114.667 30.6231L114.167 30.6167L114.167 30.6304L114.667 30.6231ZM104.244 45.2284L104.108 44.7471L104.105 44.7481L104.244 45.2284ZM102.022 43.6921L101.527 43.7654L101.529 43.7787L102.022 43.6921ZM103.451 41.6145L103.363 41.1222L103.356 41.1235L103.348 41.1251L103.451 41.6145ZM113.792 31.6177C113.157 32.4733 112.175 33.6977 110.841 35.2948L111.609 35.9359C112.946 34.3348 113.943 33.0928 114.595 32.2135L113.792 31.6177ZM110.842 35.294C109.552 36.831 108.585 38.0332 107.944 38.8967L108.748 39.4925C109.37 38.6534 110.322 37.4694 111.608 35.9368L110.842 35.294ZM107.944 38.8967C107.77 39.1324 107.434 39.6198 106.943 40.3485L107.772 40.9072C108.266 40.1747 108.589 39.7066 108.748 39.4925L107.944 38.8967ZM106.974 40.3069C106.826 40.484 106.697 40.5348 106.58 40.5404L106.627 41.5393C107.078 41.5178 107.452 41.2941 107.741 40.9488L106.974 40.3069ZM106.608 40.5399C106.453 40.5384 106.297 40.4889 106.132 40.3663L105.536 41.1695C105.853 41.4044 106.21 41.5362 106.599 41.5398L106.608 40.5399ZM106.132 40.3663C105.946 40.228 105.82 40.0642 105.743 39.8709L104.814 40.2427C104.964 40.6163 105.209 40.9265 105.536 41.1695L106.132 40.3663ZM105.743 39.8709C105.671 39.6923 105.681 39.5688 105.727 39.4648L104.81 39.0649C104.642 39.4501 104.659 39.8546 104.814 40.2427L105.743 39.8709ZM105.709 39.5015C106.478 38.0689 107.535 36.4441 108.884 34.6257L108.081 34.0299C106.713 35.8739 105.627 37.5405 104.828 39.0283L105.709 39.5015ZM108.882 34.6283L111.694 30.8874L110.895 30.2865L108.083 34.0274L108.882 34.6283ZM111.696 30.8848C112.117 30.318 112.503 29.9428 112.849 29.7258L112.318 28.8784C111.827 29.1859 111.354 29.6672 110.893 30.289L111.696 30.8848ZM112.84 29.7315C112.976 29.6504 113.098 29.6273 113.22 29.6419C113.35 29.6575 113.518 29.721 113.727 29.8761L114.323 29.0729C114.018 28.8466 113.688 28.6908 113.338 28.649C112.98 28.6061 112.638 28.6874 112.328 28.8727L112.84 29.7315ZM113.727 29.8761C114.063 30.1254 114.17 30.3687 114.167 30.6167L115.167 30.6295C115.175 29.9894 114.854 29.467 114.323 29.0729L113.727 29.8761ZM114.167 30.6304C114.171 30.9227 114.066 31.2488 113.792 31.6177L114.595 32.2135C114.965 31.715 115.175 31.1795 115.167 30.6158L114.167 30.6304ZM104.487 42.333C104.994 42.7095 105.229 43.0348 105.306 43.2927C105.373 43.5183 105.341 43.7662 105.11 44.0778L105.913 44.6735C106.289 44.166 106.44 43.5968 106.265 43.0077C106.099 42.4509 105.667 41.9637 105.082 41.5299L104.487 42.333ZM105.11 44.0778C104.871 44.4002 104.545 44.6241 104.108 44.7471L104.379 45.7096C105.013 45.531 105.532 45.1864 105.913 44.6735L105.11 44.0778ZM104.105 44.7481C103.738 44.8542 103.447 44.799 103.179 44.6L102.583 45.4031C103.118 45.7999 103.735 45.8959 104.383 45.7087L104.105 44.7481ZM103.179 44.6C102.783 44.3067 102.579 43.9764 102.514 43.6054L101.529 43.7787C101.645 44.4388 102.014 44.9815 102.583 45.4031L103.179 44.6ZM102.516 43.6188C102.455 43.2075 102.539 42.8768 102.752 42.5902L101.949 41.9944C101.566 42.511 101.43 43.1135 101.527 43.7654L102.516 43.6188ZM102.752 42.5902C102.934 42.3448 103.189 42.18 103.553 42.1039L103.348 41.1251C102.769 41.246 102.291 41.5331 101.949 41.9944L102.752 42.5902ZM103.538 42.1068C103.889 42.0445 104.194 42.1162 104.487 42.333L105.082 41.5299C104.571 41.151 103.988 41.0113 103.363 41.1222L103.538 42.1068Z" fill="#9A795A"/>
<g filter="url(#filter0_d)">
<circle cx="65" cy="99.8212" r="61" fill="white"/>
<circle cx="65" cy="99.8212" r="58.5" stroke="#9A795A" stroke-width="5"/>
</g>
<path d="M65 74.8212V127.821" stroke="#9A795A" stroke-width="5" stroke-linecap="round" stroke-linejoin="round"/>
<path d="M76.5833 84.8212H58.4583C56.215 84.8212 54.0636 85.7167 52.4774 87.3108C50.8911 88.9048 50 91.0668 50 93.3212C50 95.5755 50.8911 97.7375 52.4774 99.3316C54.0636 100.926 56.215 101.821 58.4583 101.821H70.5417C72.785 101.821 74.9364 102.717 76.5226 104.311C78.1089 105.905 79 108.067 79 110.321C79 112.576 78.1089 114.738 76.5226 116.332C74.9364 117.926 72.785 118.821 70.5417 118.821H50" stroke="#9A795A" stroke-width="5" stroke-linecap="round" stroke-linejoin="round"/>
<g filter="url(#filter1_d)">
<circle cx="65" cy="99.821" r="61" fill="#848484" fill-opacity="0.65"/>
</g>
<defs>
<filter id="filter0_d" x="0" y="38.8212" width="130" height="130" filterUnits="userSpaceOnUse" color-interpolation-filters="sRGB">
<feFlood flood-opacity="0" result="BackgroundImageFix"/>
<feColorMatrix in="SourceAlpha" type="matrix" values="0 0 0 0 0 0 0 0 0 0 0 0 0 0 0 0 0 0 127 0"/>
<feOffset dy="4"/>
<feGaussianBlur stdDeviation="2"/>
<feColorMatrix type="matrix" values="0 0 0 0 0 0 0 0 0 0 0 0 0 0 0 0 0 0 0.25 0"/>
<feBlend mode="normal" in2="BackgroundImageFix" result="effect1_dropShadow"/>
<feBlend mode="normal" in="SourceGraphic" in2="effect1_dropShadow" result="shape"/>
</filter>
<filter id="filter1_d" x="0" y="38.821" width="130" height="130" filterUnits="userSpaceOnUse" color-interpolation-filters="sRGB">
<feFlood flood-opacity="0" result="BackgroundImageFix"/>
<feColorMatrix in="SourceAlpha" type="matrix" values="0 0 0 0 0 0 0 0 0 0 0 0 0 0 0 0 0 0 127 0"/>
<feOffset dy="4"/>
<feGaussianBlur stdDeviation="2"/>
<feColorMatrix type="matrix" values="0 0 0 0 0 0 0 0 0 0 0 0 0 0 0 0 0 0 0.25 0"/>
<feBlend mode="normal" in2="BackgroundImageFix" result="effect1_dropShadow"/>
<feBlend mode="normal" in="SourceGraphic" in2="effect1_dropShadow" result="shape"/>
</filter>
</defs>
</svg>
