<svg width="130" height="171" viewBox="0 0 130 171" fill="none" xmlns="http://www.w3.org/2000/svg">
<path d="M40.7585 33.3178C41.1666 34.0588 41.3449 34.7929 41.2933 35.52C41.2487 36.2227 40.9618 37.0075 40.4324 37.8745C40.0857 38.4764 39.609 39.0472 39.0021 39.587C38.3952 40.1267 37.737 40.592 37.0275 40.9828C36.3022 41.3823 35.2733 41.6407 33.9406 41.7583C32.9596 41.8054 32.0972 41.6947 31.3534 41.4262C30.6254 41.1491 30.092 40.7031 29.7534 40.0882C29.5189 39.6625 29.4441 39.3029 29.5291 39.0095C29.6054 38.7003 29.8564 38.4285 30.2821 38.194C30.5029 38.0725 30.7836 38.0411 31.1243 38.1001C31.4563 38.1433 31.6938 38.2385 31.8366 38.3859C32.4134 38.9108 33.0732 39.1947 33.8161 39.2376C34.5503 39.2647 35.3273 39.0525 36.1472 38.601C37.0932 38.0799 37.786 37.4723 38.2256 36.7781C38.681 36.0752 38.748 35.432 38.4267 34.8487C38.1141 34.2811 37.4893 33.9676 36.5525 33.9082C35.6156 33.8488 34.7367 33.9322 33.9159 34.1582C32.719 34.4475 31.61 34.6166 30.5888 34.6653C29.5273 34.7156 28.6267 34.5541 27.8868 34.1807C27.1468 33.8074 26.5945 33.2896 26.2298 32.6274C25.8911 32.0125 25.7609 31.2725 25.8393 30.4074C25.9089 29.5265 26.1573 28.7834 26.5843 28.1783C26.8128 27.847 27.2577 27.3862 27.919 26.7959C28.5873 26.1812 29.095 25.7783 29.4418 25.5873C29.8991 25.3354 30.434 25.1127 31.0466 24.9192C31.6592 24.7256 32.1954 24.6358 32.6552 24.6497C33.566 24.6618 34.2738 24.7343 34.7786 24.8672C35.2834 25.0002 35.666 25.3032 35.9266 25.7762C36.0829 26.06 36.1114 26.3731 36.0123 26.7154C35.9289 27.049 35.627 27.3591 35.1067 27.6457C34.9806 27.7151 34.8241 27.7294 34.6372 27.6885C34.4502 27.6476 34.2014 27.5689 33.8906 27.4524C33.456 27.2602 33.09 27.1741 32.7927 27.194C32.5128 27.2454 32.1182 27.3498 31.6089 27.507C31.1153 27.6555 30.6951 27.8253 30.3482 28.0164C29.9698 28.2248 29.6191 28.5207 29.296 28.9042C28.9729 29.2876 28.7519 29.7073 28.6331 30.1632C28.5214 30.5946 28.5697 30.9995 28.7782 31.3779C28.9518 31.6933 29.2457 31.891 29.6598 31.9712C30.0809 32.0269 30.5355 32.0129 31.0236 31.929C31.6008 31.8577 32.2044 31.741 32.8344 31.579C33.6813 31.4002 34.3854 31.2795 34.9468 31.2169C35.5154 31.1298 36.0942 31.0987 36.6833 31.1236C37.7077 31.1553 38.5279 31.32 39.144 31.6178C39.7514 31.8997 40.2895 32.4664 40.7585 33.3178Z" fill="#9A795A"/>
<path d="M41.2933 35.52L40.7945 35.4846L40.7943 35.4884L41.2933 35.52ZM40.4324 37.8745L40.0055 37.6138L39.9991 37.625L40.4324 37.8745ZM39.0021 39.587L39.3344 39.9606L39.0021 39.587ZM33.9406 41.7583L33.9646 42.2577L33.9746 42.2572L33.9845 42.2563L33.9406 41.7583ZM31.3534 41.4262L31.1755 41.8936L31.1837 41.8965L31.3534 41.4262ZM29.5291 39.0095L30.0094 39.1486L30.0122 39.139L30.0146 39.1293L29.5291 39.0095ZM31.1243 38.1001L31.0391 38.5928L31.0494 38.5945L31.0598 38.5959L31.1243 38.1001ZM31.8366 38.3859L31.4775 38.7339L31.4885 38.7451L31.5001 38.7557L31.8366 38.3859ZM33.8161 39.2376L33.7872 39.7369L33.7976 39.7372L33.8161 39.2376ZM38.2256 36.7781L37.8059 36.5062L37.8032 36.5106L38.2256 36.7781ZM36.5525 33.9082L36.5841 33.4092L36.5525 33.9082ZM33.9159 34.1582L34.0334 34.6442L34.0411 34.6423L34.0487 34.6402L33.9159 34.1582ZM30.5888 34.6653L30.6124 35.1647L30.6126 35.1647L30.5888 34.6653ZM27.8868 34.1807L27.6615 34.6271L27.6615 34.6271L27.8868 34.1807ZM25.8393 30.4074L26.3373 30.4524L26.3377 30.4468L25.8393 30.4074ZM26.5843 28.1783L26.9929 28.4667L26.996 28.4622L26.5843 28.1783ZM27.919 26.7959L28.252 27.169L28.2575 27.1639L27.919 26.7959ZM31.0466 24.9192L30.896 24.4424L30.896 24.4424L31.0466 24.9192ZM32.6552 24.6497L32.6401 25.1495L32.6486 25.1496L32.6552 24.6497ZM36.0123 26.7154L35.532 26.5762L35.5295 26.5851L35.5272 26.5941L36.0123 26.7154ZM34.6372 27.6885L34.5303 28.177L34.5303 28.177L34.6372 27.6885ZM33.8906 27.4524L33.6884 27.9097L33.7016 27.9155L33.7151 27.9206L33.8906 27.4524ZM32.7927 27.194L32.7594 26.6951L32.7307 26.697L32.7024 26.7022L32.7927 27.194ZM31.6089 27.507L31.753 27.9858L31.7563 27.9847L31.6089 27.507ZM29.296 28.9042L29.6783 29.2264L29.296 28.9042ZM28.6331 30.1632L28.1493 30.0371L28.1491 30.0378L28.6331 30.1632ZM29.6598 31.9712L29.5647 32.4621L29.5794 32.4649L29.5942 32.4669L29.6598 31.9712ZM31.0236 31.929L30.9623 31.4328L30.9506 31.4342L30.9389 31.4362L31.0236 31.929ZM32.8344 31.579L32.7312 31.0897L32.7205 31.092L32.7099 31.0947L32.8344 31.579ZM34.9468 31.2169L35.0023 31.7138L35.0124 31.7127L35.0225 31.7111L34.9468 31.2169ZM36.6833 31.1236L36.6622 31.6232L36.6678 31.6234L36.6833 31.1236ZM39.144 31.6178L38.9264 32.068L38.9334 32.0713L39.144 31.6178ZM40.3205 33.559C40.6898 34.2295 40.8383 34.8683 40.7945 35.4846L41.792 35.5554C41.8515 34.7175 41.6434 33.8882 41.1964 33.0766L40.3205 33.559ZM40.7943 35.4884C40.7566 36.0821 40.5102 36.7876 40.0056 37.6139L40.8591 38.1351C41.4133 37.2274 41.7408 36.3633 41.7923 35.5516L40.7943 35.4884ZM39.9991 37.625C39.6833 38.1732 39.2432 38.7034 38.6698 39.2134L39.3344 39.9606C39.9747 39.3911 40.4881 38.7795 40.8656 38.124L39.9991 37.625ZM38.6698 39.2134C38.0907 39.7284 37.463 40.1721 36.7863 40.5448L37.2687 41.4208C38.011 41.0119 38.6997 40.5251 39.3344 39.9606L38.6698 39.2134ZM36.7863 40.5448C36.148 40.8964 35.1977 41.1455 33.8967 41.2602L33.9845 42.2563C35.3488 42.136 36.4565 41.8681 37.2687 41.4208L36.7863 40.5448ZM33.9166 41.2588C32.9861 41.3035 32.1919 41.1973 31.5232 40.9559L31.1837 41.8965C32.0025 42.1921 32.9332 42.3072 33.9646 42.2577L33.9166 41.2588ZM31.5313 40.9589C30.901 40.719 30.4665 40.3465 30.1913 39.8469L29.3154 40.3294C29.7176 41.0596 30.3498 41.5792 31.1755 41.8935L31.5313 40.9589ZM30.1913 39.8469C29.9843 39.4712 29.978 39.2569 30.0094 39.1486L29.0489 38.8704C28.9103 39.3489 29.0534 39.8537 29.3154 40.3294L30.1913 39.8469ZM30.0146 39.1293C30.0432 39.0131 30.156 38.8343 30.5234 38.632L30.0409 37.7561C29.5569 38.0227 29.1676 38.3875 29.0437 38.8897L30.0146 39.1293ZM30.5234 38.632C30.6133 38.5825 30.769 38.546 31.0391 38.5928L31.2095 37.6074C30.7982 37.5362 30.3924 37.5625 30.0409 37.7561L30.5234 38.632ZM31.0598 38.5959C31.3452 38.633 31.4495 38.7049 31.4775 38.7339L32.1956 38.038C31.9381 37.7721 31.5674 37.6535 31.1888 37.6043L31.0598 38.5959ZM31.5001 38.7557C32.1572 39.3537 32.9242 39.6869 33.7872 39.7368L33.8449 38.7384C33.2222 38.7024 32.6696 38.4679 32.1731 38.0161L31.5001 38.7557ZM33.7976 39.7372C34.644 39.7686 35.5106 39.5224 36.3884 39.0389L35.9059 38.163C35.144 38.5827 34.4565 38.7609 33.8346 38.7379L33.7976 39.7372ZM36.3884 39.0389C37.3857 38.4896 38.1514 37.8299 38.648 37.0456L37.8032 36.5106C37.4206 37.1147 36.8006 37.6703 35.9059 38.163L36.3884 39.0389ZM38.6452 37.0499C39.1704 36.2394 39.2989 35.3959 38.8647 34.6074L37.9888 35.0899C38.1971 35.4682 38.1916 35.911 37.806 36.5062L38.6452 37.0499ZM38.8647 34.6074C38.4362 33.8295 37.6087 33.4741 36.5841 33.4092L36.5208 34.4072C37.37 34.461 37.792 34.7326 37.9888 35.0899L38.8647 34.6074ZM36.5841 33.4092C35.5975 33.3467 34.6627 33.4339 33.7832 33.6761L34.0487 34.6402C34.8108 34.4304 35.6336 34.351 36.5208 34.4072L36.5841 33.4092ZM33.7984 33.6722C32.6263 33.9556 31.5489 34.1189 30.5649 34.1659L30.6126 35.1647C31.671 35.1142 32.8118 34.9395 34.0334 34.6442L33.7984 33.6722ZM30.5651 34.1658C29.5661 34.2132 28.7561 34.0594 28.112 33.7343L27.6615 34.6271C28.4972 35.0488 29.4886 35.218 30.6124 35.1647L30.5651 34.1658ZM28.112 33.7343C27.453 33.4018 26.9792 32.9516 26.6677 32.3862L25.7918 32.8686C26.2098 33.6276 26.8407 34.213 27.6615 34.6271L28.112 33.7343ZM26.6677 32.3862C26.3875 31.8774 26.2657 31.242 26.3372 30.4524L25.3413 30.3623C25.2561 31.303 25.3947 32.1476 25.7918 32.8686L26.6677 32.3862ZM26.3377 30.4468C26.4017 29.638 26.6268 28.9853 26.9928 28.4666L26.1758 27.89C25.6878 28.5816 25.4162 29.4149 25.3408 30.3679L26.3377 30.4468ZM26.996 28.4622C27.188 28.1838 27.5936 27.7566 28.2519 27.1689L27.586 26.4229C26.9218 27.0158 26.4377 27.5102 26.1727 27.8945L26.996 28.4622ZM28.2575 27.1639C28.9243 26.5506 29.3937 26.1846 29.6831 26.0252L29.2006 25.1493C28.7963 25.372 28.2504 25.8118 27.5805 26.4279L28.2575 27.1639ZM29.6831 26.0252C30.1057 25.7924 30.6092 25.5818 31.1973 25.3959L30.896 24.4424C30.2588 24.6437 29.6924 24.8785 29.2006 25.1493L29.6831 26.0252ZM31.1973 25.3959C31.7759 25.2131 32.2539 25.1378 32.6401 25.1495L32.6703 24.1499C32.137 24.1338 31.5425 24.2381 30.896 24.4424L31.1973 25.3959ZM32.6486 25.1496C33.544 25.1615 34.2046 25.2331 34.6512 25.3507L34.906 24.3837C34.3431 24.2355 33.588 24.162 32.6618 24.1497L32.6486 25.1496ZM34.6512 25.3507C35.0186 25.4475 35.2915 25.6596 35.4886 26.0174L36.3645 25.535C36.0405 24.9468 35.5481 24.5529 34.906 24.3837L34.6512 25.3507ZM35.4886 26.0174C35.5742 26.1729 35.5983 26.3473 35.532 26.5762L36.4925 26.8545C36.6245 26.3988 36.5915 25.9471 36.3645 25.535L35.4886 26.0174ZM35.5272 26.5941C35.4952 26.7222 35.3474 26.9423 34.8655 27.2077L35.348 28.0836C35.9067 27.7759 36.3626 27.3758 36.4974 26.8366L35.5272 26.5941ZM34.8655 27.2077C34.8682 27.2062 34.8652 27.2091 34.8493 27.2105C34.8317 27.2122 34.798 27.2119 34.744 27.2001L34.5303 28.177C34.7961 28.2351 35.085 28.2284 35.348 28.0836L34.8655 27.2077ZM34.744 27.2001C34.5914 27.1667 34.3682 27.0975 34.0662 26.9842L33.7151 27.9206C34.0345 28.0403 34.3091 28.1286 34.5303 28.177L34.744 27.2001ZM34.0928 26.9951C33.6236 26.7877 33.1716 26.6675 32.7594 26.6951L32.8261 27.6929C33.0085 27.6807 33.2883 27.7328 33.6884 27.9097L34.0928 26.9951ZM32.7024 26.7022C32.3932 26.759 31.9763 26.8703 31.4614 27.0292L31.7563 27.9847C32.2601 27.8292 32.6324 27.7318 32.8831 27.6858L32.7024 26.7022ZM31.4648 27.0282C30.947 27.1841 30.4923 27.3662 30.107 27.5784L30.5894 28.4544C30.8978 28.2845 31.2836 28.127 31.753 27.9858L31.4648 27.0282ZM30.107 27.5784C29.6669 27.8208 29.27 28.1591 28.9136 28.582L29.6783 29.2264C29.9681 28.8824 30.2727 28.6288 30.5894 28.4544L30.107 27.5784ZM28.9136 28.582C28.5456 29.0187 28.2881 29.5045 28.1493 30.0371L29.117 30.2893C29.2158 29.9101 29.4001 29.5566 29.6783 29.2264L28.9136 28.582ZM28.1491 30.0378C28.0065 30.5885 28.0681 31.1251 28.3402 31.6192L29.2161 31.1367C29.0714 30.874 29.0363 30.6007 29.1171 30.2885L28.1491 30.0378ZM28.3402 31.6192C28.5981 32.0874 29.0327 32.3591 29.5647 32.4621L29.7548 31.4803C29.4587 31.423 29.3056 31.2992 29.2161 31.1367L28.3402 31.6192ZM29.5942 32.4669C30.0727 32.5302 30.5786 32.5128 31.1083 32.4218L30.9389 31.4362C30.4925 31.5129 30.0891 31.5237 29.7254 31.4755L29.5942 32.4669ZM31.0849 32.4252C31.6858 32.351 32.3106 32.23 32.959 32.0632L32.7099 31.0947C32.0983 31.252 31.5159 31.3644 30.9623 31.4328L31.0849 32.4252ZM32.9377 32.0682C33.7761 31.8912 34.4629 31.774 35.0023 31.7138L34.8914 30.72C34.3079 30.7851 33.5865 30.9092 32.7312 31.0897L32.9377 32.0682ZM35.0225 31.7111C35.5583 31.6291 36.1046 31.5996 36.6622 31.6232L36.7044 30.624C36.0837 30.5978 35.4725 30.6306 34.8711 30.7227L35.0225 31.7111ZM36.6678 31.6234C37.6538 31.6539 38.3969 31.812 38.9264 32.0679L39.3615 31.1676C38.6589 30.828 37.7615 30.6567 36.6987 30.6238L36.6678 31.6234ZM38.9334 32.0713C39.4096 32.2923 39.8806 32.7604 40.3205 33.559L41.1964 33.0766C40.6984 32.1724 40.0931 31.5071 39.3545 31.1642L38.9334 32.0713Z" fill="#9A795A"/>
<path d="M57.3027 24.8278C57.2233 24.5503 57.1217 24.1304 56.998 23.5678L56.7776 22.5657C56.6307 21.8977 56.5029 21.4005 56.3943 21.0743C56.2973 20.8007 56.1193 20.075 55.8602 18.8972C55.7675 18.4752 55.819 18.123 56.0148 17.8403C56.2244 17.5362 56.549 17.3358 56.9885 17.2391C57.551 17.1154 57.956 17.1554 58.2035 17.359C58.451 17.5625 58.6367 17.9456 58.7604 18.5082L58.9808 19.5102L59.5923 22.4167C59.6984 22.9831 59.8752 23.8289 60.1227 24.954L60.6246 27.1105C60.7156 27.4407 60.8268 27.9046 60.9583 28.5023C61.0627 28.977 61.2291 29.65 61.4576 30.5212C61.6706 31.3222 61.8215 31.9248 61.9105 32.3291C61.9839 32.6632 61.9549 32.9921 61.8234 33.3159C61.7094 33.6358 61.4942 33.8306 61.1778 33.9002C59.9472 34.1708 59.2411 33.893 59.0594 33.0667C58.9588 32.6097 58.8643 32.096 58.7757 31.5257C58.722 31.1136 58.6042 30.4945 58.4225 29.6682C58.2949 29.0881 58.0937 28.2569 57.8189 27.1747C57.0081 27.4267 55.5918 27.775 53.5701 28.2196C52.3044 28.498 51.3199 28.7145 50.6167 28.8691C49.9097 29.0062 49.3902 29.0744 49.0583 29.0737L49.6988 32.112C49.7413 32.3054 49.8993 32.8143 50.1728 33.6388C50.3844 34.182 50.5366 34.6646 50.6294 35.0865C50.6874 35.3502 50.5853 35.6399 50.323 35.9556C50.0744 36.2499 49.8182 36.426 49.5545 36.484C48.9216 36.6232 48.4581 36.5685 48.1638 36.3199C47.8657 36.0537 47.647 35.6042 47.5078 34.9713L47.0233 32.8939C46.9516 32.6516 46.8674 32.3108 46.7708 31.8713C46.6277 31.2208 46.4149 30.3369 46.1323 29.2195C45.8729 28.2076 45.693 27.4731 45.5924 27.0161C45.4417 26.3304 45.2485 25.3685 45.0131 24.1301C44.793 22.9621 44.6212 22.0969 44.4975 21.5343C44.3737 20.9717 44.4313 20.5628 44.67 20.3076C44.9088 20.0524 45.2039 19.8861 45.5555 19.8088C46.54 19.5923 47.1038 19.8092 47.2468 20.4597C47.502 21.62 47.7192 22.7333 47.8984 23.7997C48.1571 25.1435 48.3541 26.123 48.4894 26.7383C49.0263 26.7493 49.5799 26.7105 50.1502 26.6219C50.7204 26.5334 51.5154 26.377 52.535 26.1527C54.6095 25.6965 56.1987 25.2549 57.3027 24.8278Z" fill="#9A795A"/>
<path d="M57.3027 24.8278L57.4831 25.2941L57.9092 25.1293L57.7834 24.6901L57.3027 24.8278ZM56.3943 21.0743L56.8688 20.9163L56.8656 20.9071L56.3943 21.0743ZM56.0148 17.8403L56.4258 18.1251L56.4266 18.124L56.0148 17.8403ZM58.2035 17.359L57.8859 17.7451L57.8859 17.7451L58.2035 17.359ZM58.9808 19.5102L59.4701 19.4073L59.4691 19.4028L58.9808 19.5102ZM59.5923 22.4167L60.0839 22.3246L60.0816 22.3138L59.5923 22.4167ZM60.1227 24.954L59.6343 25.0614L59.6357 25.0674L60.1227 24.954ZM60.6246 27.1105L60.1376 27.2239L60.1399 27.2337L60.1426 27.2435L60.6246 27.1105ZM61.4576 30.5212L60.9739 30.648L60.9744 30.6497L61.4576 30.5212ZM61.8234 33.3159L61.3601 33.1277L61.356 33.1378L61.3524 33.1481L61.8234 33.3159ZM58.7757 31.5257L58.2798 31.5904L58.2817 31.6024L58.7757 31.5257ZM57.8189 27.1747L58.3035 27.0516L58.1737 26.5408L57.6704 26.6972L57.8189 27.1747ZM50.6167 28.8691L50.7119 29.3602L50.7241 29.3575L50.6167 28.8691ZM49.0583 29.0737L49.0594 28.5737L48.4416 28.5723L48.569 29.1768L49.0583 29.0737ZM49.6988 32.112L49.2096 32.2151L49.2105 32.2194L49.6988 32.112ZM50.1728 33.6388L49.6982 33.7962L49.7023 33.8084L49.7069 33.8203L50.1728 33.6388ZM50.323 35.9556L50.7049 36.2783L50.7075 36.2752L50.323 35.9556ZM48.1638 36.3199L47.8307 36.693L47.8411 36.7018L48.1638 36.3199ZM47.5078 34.9713L47.9962 34.8639L47.9948 34.8578L47.5078 34.9713ZM47.0233 32.8939L47.5103 32.7803L47.5069 32.766L47.5028 32.752L47.0233 32.8939ZM46.1323 29.2195L46.6171 29.0969L46.6167 29.0954L46.1323 29.2195ZM45.0131 24.1301L44.5217 24.2227L44.5219 24.2235L45.0131 24.1301ZM44.67 20.3076L44.3049 19.966L44.3049 19.966L44.67 20.3076ZM47.8984 23.7997L47.4052 23.8826L47.4074 23.8942L47.8984 23.7997ZM48.4894 26.7383L48.0011 26.8457L48.0856 27.2302L48.4792 27.2382L48.4894 26.7383ZM57.7834 24.6901C57.7084 24.4282 57.6095 24.0207 57.4863 23.4604L56.5097 23.6752C56.6339 24.24 56.7382 24.6724 56.822 24.9654L57.7834 24.6901ZM57.4863 23.4604L57.2659 22.4584L56.2893 22.6731L56.5097 23.6752L57.4863 23.4604ZM57.2659 22.4584C57.1182 21.7864 56.9859 21.2684 56.8687 20.9163L55.9199 21.2322C56.02 21.5327 56.1432 22.009 56.2893 22.6731L57.2659 22.4584ZM56.8656 20.9071C56.7814 20.6698 56.6103 19.9798 56.3486 18.7898L55.3719 19.0046C55.6283 20.1702 55.8132 20.9317 55.9231 21.2414L56.8656 20.9071ZM56.3486 18.7898C56.2775 18.4665 56.3285 18.2656 56.4258 18.1251L55.6039 17.5555C55.3095 17.9804 55.2574 18.484 55.3719 19.0046L56.3486 18.7898ZM56.4266 18.124C56.5493 17.9459 56.7516 17.8032 57.0958 17.7275L56.8811 16.7508C56.3463 16.8684 55.8996 17.1264 55.6031 17.5566L56.4266 18.124ZM57.0958 17.7275C57.622 17.6118 57.8243 17.6944 57.8859 17.7451L58.5212 16.9728C58.0878 16.6163 57.48 16.6191 56.8811 16.7508L57.0958 17.7275ZM57.8859 17.7451C58.001 17.8398 58.1554 18.0852 58.272 18.6156L59.2487 18.4008C59.1179 17.806 58.9011 17.2853 58.5212 16.9728L57.8859 17.7451ZM58.272 18.6156L58.4924 19.6176L59.4691 19.4028L59.2487 18.4008L58.272 18.6156ZM58.4915 19.6132L59.103 22.5197L60.0816 22.3138L59.47 19.4073L58.4915 19.6132ZM59.1009 22.5088C59.2085 23.0832 59.3866 23.9352 59.6343 25.0614L60.611 24.8466C60.3638 23.7226 60.1884 22.8831 60.0837 22.3246L59.1009 22.5088ZM59.6357 25.0674L60.1376 27.2239L61.1116 26.9972L60.6096 24.8407L59.6357 25.0674ZM60.1426 27.2435C60.2301 27.5611 60.3392 28.0151 60.47 28.6097L61.4466 28.395C61.3145 27.7942 61.2011 27.3203 61.1066 26.9776L60.1426 27.2435ZM60.47 28.6097C60.5765 29.0942 60.7449 29.7748 60.9739 30.648L61.9412 30.3944C61.7133 29.5251 61.5489 28.8598 61.4466 28.395L60.47 28.6097ZM60.9744 30.6497C61.187 31.4491 61.3356 32.0432 61.4221 32.4365L62.3988 32.2217C62.3075 31.8064 62.1542 31.1952 61.9408 30.3927L60.9744 30.6497ZM61.4221 32.4365C61.4734 32.6695 61.4545 32.8954 61.3601 33.1277L62.2866 33.504C62.4553 33.0887 62.4945 32.6568 62.3988 32.2217L61.4221 32.4365ZM61.3524 33.1481C61.2929 33.3152 61.2089 33.3814 61.0704 33.4118L61.2852 34.3885C61.7796 34.2798 62.126 33.9565 62.2944 33.4836L61.3524 33.1481ZM61.0704 33.4118C60.4944 33.5385 60.1262 33.5152 59.9083 33.4295C59.7301 33.3594 59.6076 33.2317 59.5477 32.9593L58.571 33.1741C58.6928 33.728 59.0143 34.1524 59.5422 34.3601C60.0305 34.5522 60.6306 34.5325 61.2852 34.3885L61.0704 33.4118ZM59.5477 32.9593C59.4498 32.5144 59.3571 32.0112 59.2698 31.449L58.2817 31.6024C58.3715 32.1807 58.4678 32.7049 58.571 33.1741L59.5477 32.9593ZM59.2715 31.461C59.2148 31.0265 59.0932 30.3899 58.9109 29.5608L57.9342 29.7756C58.1153 30.599 58.2291 31.2008 58.2799 31.5904L59.2715 31.461ZM58.9109 29.5608C58.7815 28.9727 58.5787 28.1353 58.3035 27.0516L57.3342 27.2978C57.6087 28.3784 57.8084 29.2034 57.9342 29.7756L58.9109 29.5608ZM57.6704 26.6972C56.8821 26.9423 55.4846 27.2867 53.4627 27.7313L53.6775 28.708C55.699 28.2634 57.134 27.9111 57.9673 27.6521L57.6704 26.6972ZM53.4627 27.7313C53.4603 27.7318 53.4578 27.7324 53.4553 27.7329C53.4529 27.7335 53.4504 27.734 53.4479 27.7346C53.4455 27.7351 53.443 27.7356 53.4405 27.7362C53.4381 27.7367 53.4356 27.7373 53.4331 27.7378C53.4307 27.7384 53.4282 27.7389 53.4257 27.7394C53.4233 27.74 53.4208 27.7405 53.4184 27.7411C53.4159 27.7416 53.4134 27.7421 53.411 27.7427C53.4085 27.7432 53.4061 27.7438 53.4036 27.7443C53.4012 27.7448 53.3987 27.7454 53.3963 27.7459C53.3938 27.7465 53.3914 27.747 53.3889 27.7475C53.3865 27.7481 53.384 27.7486 53.3816 27.7492C53.3791 27.7497 53.3767 27.7502 53.3742 27.7508C53.3718 27.7513 53.3693 27.7518 53.3669 27.7524C53.3644 27.7529 53.362 27.7535 53.3595 27.754C53.3571 27.7545 53.3547 27.7551 53.3522 27.7556C53.3498 27.7561 53.3473 27.7567 53.3449 27.7572C53.3425 27.7578 53.34 27.7583 53.3376 27.7588C53.3352 27.7594 53.3327 27.7599 53.3303 27.7604C53.3279 27.761 53.3254 27.7615 53.323 27.762C53.3206 27.7626 53.3181 27.7631 53.3157 27.7636C53.3133 27.7642 53.3108 27.7647 53.3084 27.7652C53.306 27.7658 53.3036 27.7663 53.3011 27.7668C53.2987 27.7674 53.2963 27.7679 53.2939 27.7684C53.2914 27.769 53.289 27.7695 53.2866 27.77C53.2842 27.7706 53.2818 27.7711 53.2793 27.7716C53.2769 27.7722 53.2745 27.7727 53.2721 27.7732C53.2697 27.7738 53.2673 27.7743 53.2648 27.7748C53.2624 27.7754 53.26 27.7759 53.2576 27.7764C53.2552 27.7769 53.2528 27.7775 53.2504 27.778C53.248 27.7785 53.2456 27.7791 53.2431 27.7796C53.2407 27.7801 53.2383 27.7807 53.2359 27.7812C53.2335 27.7817 53.2311 27.7822 53.2287 27.7828C53.2263 27.7833 53.2239 27.7838 53.2215 27.7844C53.2191 27.7849 53.2167 27.7854 53.2143 27.7859C53.2119 27.7865 53.2095 27.787 53.2071 27.7875C53.2047 27.788 53.2023 27.7886 53.1999 27.7891C53.1975 27.7896 53.1951 27.7902 53.1927 27.7907C53.1904 27.7912 53.188 27.7917 53.1856 27.7923C53.1832 27.7928 53.1808 27.7933 53.1784 27.7938C53.176 27.7944 53.1736 27.7949 53.1712 27.7954C53.1689 27.7959 53.1665 27.7965 53.1641 27.797C53.1617 27.7975 53.1593 27.798 53.1569 27.7986C53.1546 27.7991 53.1522 27.7996 53.1498 27.8001C53.1474 27.8006 53.145 27.8012 53.1427 27.8017C53.1403 27.8022 53.1379 27.8027 53.1355 27.8033C53.1331 27.8038 53.1308 27.8043 53.1284 27.8048C53.126 27.8054 53.1237 27.8059 53.1213 27.8064C53.1189 27.8069 53.1165 27.8074 53.1142 27.808C53.1118 27.8085 53.1094 27.809 53.1071 27.8095C53.1047 27.81 53.1023 27.8106 53.1 27.8111C53.0976 27.8116 53.0952 27.8121 53.0929 27.8126C53.0905 27.8132 53.0882 27.8137 53.0858 27.8142C53.0834 27.8147 53.0811 27.8152 53.0787 27.8158C53.0764 27.8163 53.074 27.8168 53.0716 27.8173C53.0693 27.8178 53.0669 27.8183 53.0646 27.8189C53.0622 27.8194 53.0599 27.8199 53.0575 27.8204C53.0552 27.8209 53.0528 27.8215 53.0505 27.822C53.0481 27.8225 53.0458 27.823 53.0434 27.8235C53.0411 27.824 53.0387 27.8246 53.0364 27.8251C53.034 27.8256 53.0317 27.8261 53.0293 27.8266C53.027 27.8271 53.0247 27.8276 53.0223 27.8282C53.02 27.8287 53.0176 27.8292 53.0153 27.8297C53.013 27.8302 53.0106 27.8307 53.0083 27.8312C53.0059 27.8318 53.0036 27.8323 53.0013 27.8328C52.9989 27.8333 52.9966 27.8338 52.9943 27.8343C52.9919 27.8348 52.9896 27.8354 52.9873 27.8359C52.9849 27.8364 52.9826 27.8369 52.9803 27.8374C52.978 27.8379 52.9756 27.8384 52.9733 27.8389C52.971 27.8394 52.9687 27.84 52.9663 27.8405C52.964 27.841 52.9617 27.8415 52.9594 27.842C52.957 27.8425 52.9547 27.843 52.9524 27.8435C52.9501 27.844 52.9478 27.8446 52.9454 27.8451C52.9431 27.8456 52.9408 27.8461 52.9385 27.8466C52.9362 27.8471 52.9339 27.8476 52.9316 27.8481C52.9292 27.8486 52.9269 27.8491 52.9246 27.8496C52.9223 27.8502 52.92 27.8507 52.9177 27.8512C52.9154 27.8517 52.9131 27.8522 52.9108 27.8527C52.9085 27.8532 52.9061 27.8537 52.9038 27.8542C52.9015 27.8547 52.8992 27.8552 52.8969 27.8557C52.8946 27.8562 52.8923 27.8567 52.89 27.8573C52.8877 27.8578 52.8854 27.8583 52.8831 27.8588C52.8808 27.8593 52.8785 27.8598 52.8762 27.8603C52.8739 27.8608 52.8716 27.8613 52.8694 27.8618C52.8671 27.8623 52.8648 27.8628 52.8625 27.8633C52.8602 27.8638 52.8579 27.8643 52.8556 27.8648C52.8533 27.8653 52.851 27.8658 52.8487 27.8663C52.8464 27.8668 52.8442 27.8673 52.8419 27.8678C52.8396 27.8683 52.8373 27.8688 52.835 27.8693C52.8327 27.8699 52.8305 27.8704 52.8282 27.8709C52.8259 27.8714 52.8236 27.8719 52.8213 27.8724C52.8191 27.8729 52.8168 27.8734 52.8145 27.8739C52.8122 27.8744 52.8099 27.8749 52.8077 27.8754C52.8054 27.8759 52.8031 27.8764 52.8009 27.8769C52.7986 27.8774 52.7963 27.8779 52.794 27.8784C52.7918 27.8789 52.7895 27.8794 52.7872 27.8799C52.785 27.8804 52.7827 27.8809 52.7804 27.8814C52.7782 27.8819 52.7759 27.8824 52.7736 27.8828C52.7714 27.8833 52.7691 27.8838 52.7668 27.8843C52.7646 27.8848 52.7623 27.8853 52.7601 27.8858C52.7578 27.8863 52.7555 27.8868 52.7533 27.8873C52.751 27.8878 52.7488 27.8883 52.7465 27.8888C52.7443 27.8893 52.742 27.8898 52.7398 27.8903C52.7375 27.8908 52.7352 27.8913 52.733 27.8918C52.7307 27.8923 52.7285 27.8928 52.7262 27.8933C52.724 27.8938 52.7217 27.8943 52.7195 27.8948C52.7173 27.8952 52.715 27.8957 52.7128 27.8962C52.7105 27.8967 52.7083 27.8972 52.706 27.8977C52.7038 27.8982 52.7016 27.8987 52.6993 27.8992C52.6971 27.8997 52.6948 27.9002 52.6926 27.9007C52.6904 27.9012 52.6881 27.9017 52.6859 27.9021C52.6836 27.9026 52.6814 27.9031 52.6792 27.9036C52.6769 27.9041 52.6747 27.9046 52.6725 27.9051C52.6702 27.9056 52.668 27.9061 52.6658 27.9066C52.6636 27.9071 52.6613 27.9075 52.6591 27.908C52.6569 27.9085 52.6546 27.909 52.6524 27.9095C52.6502 27.91 52.648 27.9105 52.6457 27.911C52.6435 27.9115 52.6413 27.912 52.6391 27.9124C52.6369 27.9129 52.6346 27.9134 52.6324 27.9139C52.6302 27.9144 52.628 27.9149 52.6258 27.9154C52.6235 27.9159 52.6213 27.9163 52.6191 27.9168C52.6169 27.9173 52.6147 27.9178 52.6125 27.9183C52.6103 27.9188 52.6081 27.9193 52.6058 27.9197C52.6036 27.9202 52.6014 27.9207 52.5992 27.9212C52.597 27.9217 52.5948 27.9222 52.5926 27.9227C52.5904 27.9231 52.5882 27.9236 52.586 27.9241C52.5838 27.9246 52.5816 27.9251 52.5794 27.9256C52.5772 27.9261 52.575 27.9265 52.5728 27.927C52.5706 27.9275 52.5684 27.928 52.5662 27.9285C52.564 27.929 52.5618 27.9294 52.5596 27.9299C52.5574 27.9304 52.5552 27.9309 52.553 27.9314C52.5508 27.9319 52.5486 27.9323 52.5464 27.9328C52.5442 27.9333 52.542 27.9338 52.5399 27.9343C52.5377 27.9347 52.5355 27.9352 52.5333 27.9357C52.5311 27.9362 52.5289 27.9367 52.5267 27.9371C52.5246 27.9376 52.5224 27.9381 52.5202 27.9386C52.518 27.9391 52.5158 27.9395 52.5136 27.94C52.5115 27.9405 52.5093 27.941 52.5071 27.9415C52.5049 27.9419 52.5027 27.9424 52.5006 27.9429C52.4984 27.9434 52.4962 27.9439 52.494 27.9443C52.4919 27.9448 52.4897 27.9453 52.4875 27.9458C52.4854 27.9462 52.4832 27.9467 52.481 27.9472C52.4788 27.9477 52.4767 27.9482 52.4745 27.9486C52.4723 27.9491 52.4702 27.9496 52.468 27.9501C52.4658 27.9505 52.4637 27.951 52.4615 27.9515C52.4594 27.952 52.4572 27.9524 52.455 27.9529C52.4529 27.9534 52.4507 27.9539 52.4486 27.9543C52.4464 27.9548 52.4442 27.9553 52.4421 27.9558C52.4399 27.9562 52.4378 27.9567 52.4356 27.9572C52.4335 27.9577 52.4313 27.9581 52.4292 27.9586C52.427 27.9591 52.4248 27.9596 52.4227 27.96C52.4205 27.9605 52.4184 27.961 52.4162 27.9614C52.4141 27.9619 52.412 27.9624 52.4098 27.9629C52.4077 27.9633 52.4055 27.9638 52.4034 27.9643C52.4012 27.9647 52.3991 27.9652 52.3969 27.9657C52.3948 27.9662 52.3927 27.9666 52.3905 27.9671C52.3884 27.9676 52.3862 27.968 52.3841 27.9685C52.382 27.969 52.3798 27.9695 52.3777 27.9699C52.3756 27.9704 52.3734 27.9709 52.3713 27.9713C52.3692 27.9718 52.367 27.9723 52.3649 27.9727C52.3628 27.9732 52.3606 27.9737 52.3585 27.9741C52.3564 27.9746 52.3543 27.9751 52.3521 27.9755C52.35 27.976 52.3479 27.9765 52.3458 27.9769C52.3436 27.9774 52.3415 27.9779 52.3394 27.9783C52.3373 27.9788 52.3351 27.9793 52.333 27.9797C52.3309 27.9802 52.3288 27.9807 52.3267 27.9811C52.3245 27.9816 52.3224 27.9821 52.3203 27.9825C52.3182 27.983 52.3161 27.9835 52.314 27.9839C52.3119 27.9844 52.3097 27.9849 52.3076 27.9853C52.3055 27.9858 52.3034 27.9863 52.3013 27.9867C52.2992 27.9872 52.2971 27.9877 52.295 27.9881C52.2929 27.9886 52.2908 27.989 52.2886 27.9895C52.2865 27.99 52.2844 27.9904 52.2823 27.9909C52.2802 27.9914 52.2781 27.9918 52.276 27.9923C52.2739 27.9927 52.2718 27.9932 52.2697 27.9937C52.2676 27.9941 52.2655 27.9946 52.2634 27.9951C52.2613 27.9955 52.2592 27.996 52.2572 27.9964C52.2551 27.9969 52.253 27.9974 52.2509 27.9978C52.2488 27.9983 52.2467 27.9987 52.2446 27.9992C52.2425 27.9997 52.2404 28.0001 52.2383 28.0006C52.2362 28.001 52.2342 28.0015 52.2321 28.0019C52.23 28.0024 52.2279 28.0029 52.2258 28.0033C52.2237 28.0038 52.2216 28.0042 52.2196 28.0047C52.2175 28.0052 52.2154 28.0056 52.2133 28.0061C52.2112 28.0065 52.2092 28.007 52.2071 28.0074C52.205 28.0079 52.2029 28.0084 52.2009 28.0088C52.1988 28.0093 52.1967 28.0097 52.1946 28.0102C52.1926 28.0106 52.1905 28.0111 52.1884 28.0115C52.1864 28.012 52.1843 28.0125 52.1822 28.0129C52.1801 28.0134 52.1781 28.0138 52.176 28.0143C52.1739 28.0147 52.1719 28.0152 52.1698 28.0156C52.1678 28.0161 52.1657 28.0165 52.1636 28.017C52.1616 28.0175 52.1595 28.0179 52.1574 28.0184C52.1554 28.0188 52.1533 28.0193 52.1513 28.0197C52.1492 28.0202 52.1471 28.0206 52.1451 28.0211C52.143 28.0215 52.141 28.022 52.1389 28.0224C52.1369 28.0229 52.1348 28.0233 52.1328 28.0238C52.1307 28.0242 52.1287 28.0247 52.1266 28.0251C52.1246 28.0256 52.1225 28.026 52.1205 28.0265C52.1184 28.0269 52.1164 28.0274 52.1143 28.0278C52.1123 28.0283 52.1102 28.0287 52.1082 28.0292C52.1062 28.0296 52.1041 28.0301 52.1021 28.0305C52.1 28.031 52.098 28.0314 52.096 28.0319C52.0939 28.0323 52.0919 28.0328 52.0898 28.0332C52.0878 28.0337 52.0858 28.0341 52.0837 28.0346C52.0817 28.035 52.0797 28.0355 52.0776 28.0359C52.0756 28.0364 52.0736 28.0368 52.0715 28.0373C52.0695 28.0377 52.0675 28.0381 52.0655 28.0386C52.0634 28.039 52.0614 28.0395 52.0594 28.0399C52.0574 28.0404 52.0553 28.0408 52.0533 28.0413C52.0513 28.0417 52.0493 28.0422 52.0472 28.0426C52.0452 28.043 52.0432 28.0435 52.0412 28.0439C52.0392 28.0444 52.0371 28.0448 52.0351 28.0453C52.0331 28.0457 52.0311 28.0462 52.0291 28.0466C52.0271 28.047 52.025 28.0475 52.023 28.0479C52.021 28.0484 52.019 28.0488 52.017 28.0492C52.015 28.0497 52.013 28.0501 52.011 28.0506C52.009 28.051 52.0069 28.0515 52.0049 28.0519C52.0029 28.0523 52.0009 28.0528 51.9989 28.0532C51.9969 28.0537 51.9949 28.0541 51.9929 28.0545C51.9909 28.055 51.9889 28.0554 51.9869 28.0559C51.9849 28.0563 51.9829 28.0567 51.9809 28.0572C51.9789 28.0576 51.9769 28.0581 51.9749 28.0585C51.9729 28.0589 51.9709 28.0594 51.9689 28.0598C51.9669 28.0603 51.965 28.0607 51.963 28.0611C51.961 28.0616 51.959 28.062 51.957 28.0624C51.955 28.0629 51.953 28.0633 51.951 28.0638C51.949 28.0642 51.9471 28.0646 51.9451 28.0651C51.9431 28.0655 51.9411 28.0659 51.9391 28.0664C51.9371 28.0668 51.9352 28.0672 51.9332 28.0677C51.9312 28.0681 51.9292 28.0686 51.9272 28.069C51.9253 28.0694 51.9233 28.0699 51.9213 28.0703C51.9193 28.0707 51.9173 28.0712 51.9154 28.0716C51.9134 28.072 51.9114 28.0725 51.9095 28.0729C51.9075 28.0733 51.9055 28.0738 51.9035 28.0742C51.9016 28.0746 51.8996 28.0751 51.8976 28.0755C51.8957 28.0759 51.8937 28.0764 51.8917 28.0768C51.8898 28.0772 51.8878 28.0777 51.8858 28.0781C51.8839 28.0785 51.8819 28.079 51.88 28.0794C51.878 28.0798 51.876 28.0803 51.8741 28.0807C51.8721 28.0811 51.8702 28.0815 51.8682 28.082C51.8662 28.0824 51.8643 28.0828 51.8623 28.0833C51.8604 28.0837 51.8584 28.0841 51.8565 28.0846C51.8545 28.085 51.8526 28.0854 51.8506 28.0858C51.8487 28.0863 51.8467 28.0867 51.8448 28.0871C51.8428 28.0876 51.8409 28.088 51.8389 28.0884C51.837 28.0888 51.835 28.0893 51.8331 28.0897C51.8311 28.0901 51.8292 28.0905 51.8273 28.091C51.8253 28.0914 51.8234 28.0918 51.8214 28.0923C51.8195 28.0927 51.8176 28.0931 51.8156 28.0935C51.8137 28.094 51.8117 28.0944 51.8098 28.0948C51.8079 28.0952 51.8059 28.0957 51.804 28.0961C51.8021 28.0965 51.8001 28.0969 51.7982 28.0974C51.7963 28.0978 51.7943 28.0982 51.7924 28.0986C51.7905 28.0991 51.7886 28.0995 51.7866 28.0999C51.7847 28.1003 51.7828 28.1008 51.7809 28.1012C51.7789 28.1016 51.777 28.102 51.7751 28.1025C51.7732 28.1029 51.7712 28.1033 51.7693 28.1037C51.7674 28.1041 51.7655 28.1046 51.7636 28.105C51.7616 28.1054 51.7597 28.1058 51.7578 28.1063C51.7559 28.1067 51.754 28.1071 51.7521 28.1075C51.7501 28.1079 51.7482 28.1084 51.7463 28.1088C51.7444 28.1092 51.7425 28.1096 51.7406 28.11C51.7387 28.1105 51.7368 28.1109 51.7349 28.1113C51.7329 28.1117 51.731 28.1121 51.7291 28.1126C51.7272 28.113 51.7253 28.1134 51.7234 28.1138C51.7215 28.1142 51.7196 28.1146 51.7177 28.1151C51.7158 28.1155 51.7139 28.1159 51.712 28.1163C51.7101 28.1167 51.7082 28.1172 51.7063 28.1176C51.7044 28.118 51.7025 28.1184 51.7006 28.1188C51.6987 28.1192 51.6968 28.1197 51.695 28.1201C51.6931 28.1205 51.6912 28.1209 51.6893 28.1213C51.6874 28.1217 51.6855 28.1222 51.6836 28.1226C51.6817 28.123 51.6798 28.1234 51.6779 28.1238C51.6761 28.1242 51.6742 28.1246 51.6723 28.1251C51.6704 28.1255 51.6685 28.1259 51.6666 28.1263C51.6648 28.1267 51.6629 28.1271 51.661 28.1275C51.6591 28.128 51.6572 28.1284 51.6554 28.1288C51.6535 28.1292 51.6516 28.1296 51.6497 28.13C51.6479 28.1304 51.646 28.1308 51.6441 28.1313C51.6422 28.1317 51.6404 28.1321 51.6385 28.1325C51.6366 28.1329 51.6347 28.1333 51.6329 28.1337C51.631 28.1341 51.6291 28.1345 51.6273 28.135C51.6254 28.1354 51.6235 28.1358 51.6217 28.1362C51.6198 28.1366 51.6179 28.137 51.6161 28.1374C51.6142 28.1378 51.6124 28.1382 51.6105 28.1386C51.6086 28.1391 51.6068 28.1395 51.6049 28.1399C51.6031 28.1403 51.6012 28.1407 51.5994 28.1411C51.5975 28.1415 51.5956 28.1419 51.5938 28.1423C51.5919 28.1427 51.5901 28.1431 51.5882 28.1435C51.5864 28.144 51.5845 28.1444 51.5827 28.1448C51.5808 28.1452 51.579 28.1456 51.5771 28.146C51.5753 28.1464 51.5734 28.1468 51.5716 28.1472C51.5697 28.1476 51.5679 28.148 51.5661 28.1484C51.5642 28.1488 51.5624 28.1492 51.5605 28.1496C51.5587 28.15 51.5568 28.1504 51.555 28.1508C51.5532 28.1513 51.5513 28.1517 51.5495 28.1521C51.5477 28.1525 51.5458 28.1529 51.544 28.1533C51.5422 28.1537 51.5403 28.1541 51.5385 28.1545C51.5367 28.1549 51.5348 28.1553 51.533 28.1557C51.5312 28.1561 51.5293 28.1565 51.5275 28.1569C51.5257 28.1573 51.5238 28.1577 51.522 28.1581C51.5202 28.1585 51.5184 28.1589 51.5165 28.1593C51.5147 28.1597 51.5129 28.1601 51.5111 28.1605C51.5093 28.1609 51.5074 28.1613 51.5056 28.1617C51.5038 28.1621 51.502 28.1625 51.5002 28.1629C51.4983 28.1633 51.4965 28.1637 51.4947 28.1641C51.4929 28.1645 51.4911 28.1649 51.4893 28.1653C51.4874 28.1657 51.4856 28.1661 51.4838 28.1665C51.482 28.1669 51.4802 28.1673 51.4784 28.1677C51.4766 28.1681 51.4748 28.1685 51.473 28.1689C51.4712 28.1693 51.4694 28.1697 51.4676 28.1701C51.4657 28.1705 51.4639 28.1709 51.4621 28.1713C51.4603 28.1717 51.4585 28.1721 51.4567 28.1725C51.4549 28.1729 51.4531 28.1733 51.4513 28.1736C51.4495 28.174 51.4477 28.1744 51.4459 28.1748C51.4442 28.1752 51.4424 28.1756 51.4406 28.176C51.4388 28.1764 51.437 28.1768 51.4352 28.1772C51.4334 28.1776 51.4316 28.178 51.4298 28.1784C51.428 28.1788 51.4262 28.1792 51.4244 28.1796C51.4227 28.18 51.4209 28.1803 51.4191 28.1807C51.4173 28.1811 51.4155 28.1815 51.4137 28.1819C51.4119 28.1823 51.4102 28.1827 51.4084 28.1831C51.4066 28.1835 51.4048 28.1839 51.403 28.1843C51.4013 28.1847 51.3995 28.1851 51.3977 28.1854C51.3959 28.1858 51.3942 28.1862 51.3924 28.1866C51.3906 28.187 51.3888 28.1874 51.3871 28.1878C51.3853 28.1882 51.3835 28.1886 51.3817 28.189C51.38 28.1893 51.3782 28.1897 51.3764 28.1901C51.3747 28.1905 51.3729 28.1909 51.3711 28.1913C51.3694 28.1917 51.3676 28.1921 51.3658 28.1925C51.3641 28.1928 51.3623 28.1932 51.3606 28.1936C51.3588 28.194 51.357 28.1944 51.3553 28.1948C51.3535 28.1952 51.3518 28.1955 51.35 28.1959C51.3482 28.1963 51.3465 28.1967 51.3447 28.1971C51.343 28.1975 51.3412 28.1979 51.3395 28.1983C51.3377 28.1986 51.336 28.199 51.3342 28.1994C51.3325 28.1998 51.3307 28.2002 51.329 28.2006C51.3272 28.2009 51.3255 28.2013 51.3237 28.2017C51.322 28.2021 51.3202 28.2025 51.3185 28.2029C51.3167 28.2033 51.315 28.2036 51.3132 28.204C51.3115 28.2044 51.3098 28.2048 51.308 28.2052C51.3063 28.2055 51.3045 28.2059 51.3028 28.2063C51.3011 28.2067 51.2993 28.2071 51.2976 28.2075C51.2959 28.2078 51.2941 28.2082 51.2924 28.2086C51.2907 28.209 51.2889 28.2094 51.2872 28.2097C51.2855 28.2101 51.2837 28.2105 51.282 28.2109C51.2803 28.2113 51.2785 28.2117 51.2768 28.212C51.2751 28.2124 51.2734 28.2128 51.2716 28.2132C51.2699 28.2135 51.2682 28.2139 51.2665 28.2143C51.2647 28.2147 51.263 28.2151 51.2613 28.2154C51.2596 28.2158 51.2579 28.2162 51.2561 28.2166C51.2544 28.217 51.2527 28.2173 51.251 28.2177C51.2493 28.2181 51.2475 28.2185 51.2458 28.2188C51.2441 28.2192 51.2424 28.2196 51.2407 28.22C51.239 28.2204 51.2373 28.2207 51.2356 28.2211C51.2338 28.2215 51.2321 28.2219 51.2304 28.2222C51.2287 28.2226 51.227 28.223 51.2253 28.2234C51.2236 28.2237 51.2219 28.2241 51.2202 28.2245C51.2185 28.2249 51.2168 28.2252 51.2151 28.2256C51.2134 28.226 51.2117 28.2264 51.21 28.2267C51.2083 28.2271 51.2066 28.2275 51.2049 28.2278C51.2032 28.2282 51.2015 28.2286 51.1998 28.229C51.1981 28.2293 51.1964 28.2297 51.1947 28.2301C51.193 28.2305 51.1913 28.2308 51.1896 28.2312C51.1879 28.2316 51.1863 28.2319 51.1846 28.2323C51.1829 28.2327 51.1812 28.2331 51.1795 28.2334C51.1778 28.2338 51.1761 28.2342 51.1744 28.2345C51.1728 28.2349 51.1711 28.2353 51.1694 28.2357C51.1677 28.236 51.166 28.2364 51.1644 28.2368C51.1627 28.2371 51.161 28.2375 51.1593 28.2379C51.1576 28.2382 51.156 28.2386 51.1543 28.239C51.1526 28.2393 51.1509 28.2397 51.1493 28.2401C51.1476 28.2405 51.1459 28.2408 51.1442 28.2412C51.1426 28.2416 51.1409 28.2419 51.1392 28.2423C51.1376 28.2427 51.1359 28.243 51.1342 28.2434C51.1326 28.2438 51.1309 28.2441 51.1292 28.2445C51.1276 28.2449 51.1259 28.2452 51.1242 28.2456C51.1226 28.246 51.1209 28.2463 51.1192 28.2467C51.1176 28.247 51.1159 28.2474 51.1143 28.2478C51.1126 28.2481 51.1109 28.2485 51.1093 28.2489C51.1076 28.2492 51.106 28.2496 51.1043 28.25C51.1027 28.2503 51.101 28.2507 51.0994 28.2511C51.0977 28.2514 51.0961 28.2518 51.0944 28.2521C51.0928 28.2525 51.0911 28.2529 51.0895 28.2532C51.0878 28.2536 51.0862 28.254 51.0845 28.2543C51.0829 28.2547 51.0812 28.255 51.0796 28.2554C51.0779 28.2558 51.0763 28.2561 51.0747 28.2565C51.073 28.2568 51.0714 28.2572 51.0697 28.2576C51.0681 28.2579 51.0665 28.2583 51.0648 28.2587C51.0632 28.259 51.0615 28.2594 51.0599 28.2597C51.0583 28.2601 51.0566 28.2605 51.055 28.2608C51.0534 28.2612 51.0517 28.2615 51.0501 28.2619C51.0485 28.2622 51.0469 28.2626 51.0452 28.263C51.0436 28.2633 51.042 28.2637 51.0403 28.264C51.0387 28.2644 51.0371 28.2648 51.0355 28.2651C51.0338 28.2655 51.0322 28.2658 51.0306 28.2662C51.029 28.2665 51.0274 28.2669 51.0257 28.2672C51.0241 28.2676 51.0225 28.268 51.0209 28.2683C51.0193 28.2687 51.0176 28.269 51.016 28.2694C51.0144 28.2697 51.0128 28.2701 51.0112 28.2704C51.0096 28.2708 51.008 28.2712 51.0063 28.2715C51.0047 28.2719 51.0031 28.2722 51.0015 28.2726C50.9999 28.2729 50.9983 28.2733 50.9967 28.2736C50.9951 28.274 50.9935 28.2743 50.9919 28.2747C50.9903 28.275 50.9887 28.2754 50.9871 28.2758C50.9854 28.2761 50.9838 28.2765 50.9822 28.2768C50.9806 28.2772 50.979 28.2775 50.9774 28.2779C50.9758 28.2782 50.9742 28.2786 50.9727 28.2789C50.9711 28.2793 50.9695 28.2796 50.9679 28.28C50.9663 28.2803 50.9647 28.2807 50.9631 28.281C50.9615 28.2814 50.9599 28.2817 50.9583 28.2821C50.9567 28.2824 50.9551 28.2828 50.9535 28.2831C50.952 28.2835 50.9504 28.2838 50.9488 28.2842C50.9472 28.2845 50.9456 28.2849 50.944 28.2852C50.9424 28.2856 50.9409 28.2859 50.9393 28.2863C50.9377 28.2866 50.9361 28.287 50.9345 28.2873C50.933 28.2877 50.9314 28.288 50.9298 28.2883C50.9282 28.2887 50.9267 28.289 50.9251 28.2894C50.9235 28.2897 50.9219 28.2901 50.9204 28.2904C50.9188 28.2908 50.9172 28.2911 50.9156 28.2915C50.9141 28.2918 50.9125 28.2922 50.9109 28.2925C50.9094 28.2928 50.9078 28.2932 50.9062 28.2935C50.9047 28.2939 50.9031 28.2942 50.9015 28.2946C50.9 28.2949 50.8984 28.2953 50.8968 28.2956C50.8953 28.2959 50.8937 28.2963 50.8922 28.2966C50.8906 28.297 50.889 28.2973 50.8875 28.2977C50.8859 28.298 50.8844 28.2983 50.8828 28.2987C50.8813 28.299 50.8797 28.2994 50.8781 28.2997C50.8766 28.3 50.875 28.3004 50.8735 28.3007C50.8719 28.3011 50.8704 28.3014 50.8688 28.3018C50.8673 28.3021 50.8657 28.3024 50.8642 28.3028C50.8626 28.3031 50.8611 28.3035 50.8596 28.3038C50.858 28.3041 50.8565 28.3045 50.8549 28.3048C50.8534 28.3052 50.8518 28.3055 50.8503 28.3058C50.8488 28.3062 50.8472 28.3065 50.8457 28.3068C50.8441 28.3072 50.8426 28.3075 50.8411 28.3079C50.8395 28.3082 50.838 28.3085 50.8365 28.3089C50.8349 28.3092 50.8334 28.3095 50.8319 28.3099C50.8303 28.3102 50.8288 28.3106 50.8273 28.3109C50.8257 28.3112 50.8242 28.3116 50.8227 28.3119C50.8211 28.3122 50.8196 28.3126 50.8181 28.3129C50.8166 28.3132 50.815 28.3136 50.8135 28.3139C50.812 28.3143 50.8105 28.3146 50.809 28.3149C50.8074 28.3153 50.8059 28.3156 50.8044 28.3159C50.8029 28.3163 50.8014 28.3166 50.7998 28.3169C50.7983 28.3173 50.7968 28.3176 50.7953 28.3179C50.7938 28.3183 50.7923 28.3186 50.7907 28.3189C50.7892 28.3193 50.7877 28.3196 50.7862 28.3199C50.7847 28.3203 50.7832 28.3206 50.7817 28.3209C50.7802 28.3213 50.7787 28.3216 50.7772 28.3219C50.7757 28.3222 50.7741 28.3226 50.7726 28.3229C50.7711 28.3232 50.7696 28.3236 50.7681 28.3239C50.7666 28.3242 50.7651 28.3246 50.7636 28.3249C50.7621 28.3252 50.7606 28.3255 50.7591 28.3259C50.7576 28.3262 50.7561 28.3265 50.7546 28.3269C50.7531 28.3272 50.7517 28.3275 50.7502 28.3279C50.7487 28.3282 50.7472 28.3285 50.7457 28.3288C50.7442 28.3292 50.7427 28.3295 50.7412 28.3298C50.7397 28.3301 50.7382 28.3305 50.7367 28.3308C50.7353 28.3311 50.7338 28.3315 50.7323 28.3318C50.7308 28.3321 50.7293 28.3324 50.7278 28.3328C50.7264 28.3331 50.7249 28.3334 50.7234 28.3337C50.7219 28.3341 50.7204 28.3344 50.7189 28.3347C50.7175 28.335 50.716 28.3354 50.7145 28.3357C50.713 28.336 50.7116 28.3363 50.7101 28.3367C50.7086 28.337 50.7071 28.3373 50.7057 28.3376C50.7042 28.338 50.7027 28.3383 50.7013 28.3386C50.6998 28.3389 50.6983 28.3393 50.6969 28.3396C50.6954 28.3399 50.6939 28.3402 50.6925 28.3405C50.691 28.3409 50.6895 28.3412 50.6881 28.3415C50.6866 28.3418 50.6851 28.3422 50.6837 28.3425C50.6822 28.3428 50.6807 28.3431 50.6793 28.3434C50.6778 28.3438 50.6764 28.3441 50.6749 28.3444C50.6735 28.3447 50.672 28.345 50.6705 28.3454C50.6691 28.3457 50.6676 28.346 50.6662 28.3463C50.6647 28.3466 50.6633 28.347 50.6618 28.3473C50.6604 28.3476 50.6589 28.3479 50.6575 28.3482C50.656 28.3486 50.6546 28.3489 50.6531 28.3492C50.6517 28.3495 50.6502 28.3498 50.6488 28.3501C50.6474 28.3505 50.6459 28.3508 50.6445 28.3511C50.643 28.3514 50.6416 28.3517 50.6401 28.352C50.6387 28.3524 50.6373 28.3527 50.6358 28.353C50.6344 28.3533 50.633 28.3536 50.6315 28.3539C50.6301 28.3543 50.6287 28.3546 50.6272 28.3549C50.6258 28.3552 50.6244 28.3555 50.6229 28.3558C50.6215 28.3561 50.6201 28.3565 50.6186 28.3568C50.6172 28.3571 50.6158 28.3574 50.6143 28.3577C50.6129 28.358 50.6115 28.3583 50.6101 28.3587C50.6086 28.359 50.6072 28.3593 50.6058 28.3596C50.6044 28.3599 50.603 28.3602 50.6015 28.3605C50.6001 28.3609 50.5987 28.3612 50.5973 28.3615C50.5959 28.3618 50.5944 28.3621 50.593 28.3624C50.5916 28.3627 50.5902 28.363 50.5888 28.3633C50.5874 28.3637 50.5859 28.364 50.5845 28.3643C50.5831 28.3646 50.5817 28.3649 50.5803 28.3652C50.5789 28.3655 50.5775 28.3658 50.5761 28.3661C50.5747 28.3664 50.5733 28.3668 50.5719 28.3671C50.5704 28.3674 50.569 28.3677 50.5676 28.368C50.5662 28.3683 50.5648 28.3686 50.5634 28.3689C50.562 28.3692 50.5606 28.3695 50.5592 28.3698C50.5578 28.3701 50.5564 28.3705 50.555 28.3708C50.5536 28.3711 50.5522 28.3714 50.5509 28.3717C50.5495 28.372 50.5481 28.3723 50.5467 28.3726C50.5453 28.3729 50.5439 28.3732 50.5425 28.3735C50.5411 28.3738 50.5397 28.3741 50.5383 28.3744C50.5369 28.3747 50.5355 28.375 50.5342 28.3754C50.5328 28.3757 50.5314 28.376 50.53 28.3763C50.5286 28.3766 50.5272 28.3769 50.5259 28.3772C50.5245 28.3775 50.5231 28.3778 50.5217 28.3781C50.5203 28.3784 50.519 28.3787 50.5176 28.379C50.5162 28.3793 50.5148 28.3796 50.5134 28.3799C50.5121 28.3802 50.5107 28.3805 50.5093 28.3808L50.7241 29.3575C50.7255 29.3572 50.7269 29.3569 50.7282 29.3566C50.7296 29.3563 50.731 29.356 50.7324 29.3557C50.7337 29.3554 50.7351 29.3551 50.7365 29.3548C50.7379 29.3544 50.7393 29.3541 50.7406 29.3538C50.742 29.3535 50.7434 29.3532 50.7448 29.3529C50.7462 29.3526 50.7476 29.3523 50.749 29.352C50.7503 29.3517 50.7517 29.3514 50.7531 29.3511C50.7545 29.3508 50.7559 29.3505 50.7573 29.3502C50.7587 29.3499 50.7601 29.3496 50.7615 29.3493C50.7628 29.349 50.7642 29.3487 50.7656 29.3483C50.767 29.348 50.7684 29.3477 50.7698 29.3474C50.7712 29.3471 50.7726 29.3468 50.774 29.3465C50.7754 29.3462 50.7768 29.3459 50.7782 29.3456C50.7796 29.3453 50.781 29.345 50.7824 29.3447C50.7838 29.3443 50.7852 29.344 50.7866 29.3437C50.788 29.3434 50.7895 29.3431 50.7909 29.3428C50.7923 29.3425 50.7937 29.3422 50.7951 29.3419C50.7965 29.3416 50.7979 29.3412 50.7993 29.3409C50.8007 29.3406 50.8021 29.3403 50.8036 29.34C50.805 29.3397 50.8064 29.3394 50.8078 29.3391C50.8092 29.3388 50.8106 29.3384 50.8121 29.3381C50.8135 29.3378 50.8149 29.3375 50.8163 29.3372C50.8177 29.3369 50.8192 29.3366 50.8206 29.3363C50.822 29.3359 50.8234 29.3356 50.8249 29.3353C50.8263 29.335 50.8277 29.3347 50.8291 29.3344C50.8306 29.3341 50.832 29.3338 50.8334 29.3334C50.8348 29.3331 50.8363 29.3328 50.8377 29.3325C50.8391 29.3322 50.8406 29.3319 50.842 29.3316C50.8434 29.3312 50.8449 29.3309 50.8463 29.3306C50.8477 29.3303 50.8492 29.33 50.8506 29.3297C50.8521 29.3293 50.8535 29.329 50.8549 29.3287C50.8564 29.3284 50.8578 29.3281 50.8593 29.3278C50.8607 29.3274 50.8621 29.3271 50.8636 29.3268C50.865 29.3265 50.8665 29.3262 50.8679 29.3258C50.8694 29.3255 50.8708 29.3252 50.8723 29.3249C50.8737 29.3246 50.8752 29.3243 50.8766 29.3239C50.8781 29.3236 50.8795 29.3233 50.881 29.323C50.8824 29.3227 50.8839 29.3223 50.8853 29.322C50.8868 29.3217 50.8882 29.3214 50.8897 29.3211C50.8912 29.3207 50.8926 29.3204 50.8941 29.3201C50.8955 29.3198 50.897 29.3195 50.8985 29.3191C50.8999 29.3188 50.9014 29.3185 50.9028 29.3182C50.9043 29.3178 50.9058 29.3175 50.9072 29.3172C50.9087 29.3169 50.9102 29.3166 50.9116 29.3162C50.9131 29.3159 50.9146 29.3156 50.916 29.3153C50.9175 29.3149 50.919 29.3146 50.9205 29.3143C50.9219 29.314 50.9234 29.3136 50.9249 29.3133C50.9264 29.313 50.9278 29.3127 50.9293 29.3124C50.9308 29.312 50.9323 29.3117 50.9337 29.3114C50.9352 29.3111 50.9367 29.3107 50.9382 29.3104C50.9397 29.3101 50.9411 29.3097 50.9426 29.3094C50.9441 29.3091 50.9456 29.3088 50.9471 29.3084C50.9486 29.3081 50.95 29.3078 50.9515 29.3075C50.953 29.3071 50.9545 29.3068 50.956 29.3065C50.9575 29.3062 50.959 29.3058 50.9605 29.3055C50.962 29.3052 50.9635 29.3048 50.9649 29.3045C50.9664 29.3042 50.9679 29.3039 50.9694 29.3035C50.9709 29.3032 50.9724 29.3029 50.9739 29.3025C50.9754 29.3022 50.9769 29.3019 50.9784 29.3016C50.9799 29.3012 50.9814 29.3009 50.9829 29.3006C50.9844 29.3002 50.9859 29.2999 50.9874 29.2996C50.9889 29.2992 50.9904 29.2989 50.9919 29.2986C50.9935 29.2982 50.995 29.2979 50.9965 29.2976C50.998 29.2972 50.9995 29.2969 51.001 29.2966C51.0025 29.2963 51.004 29.2959 51.0055 29.2956C51.007 29.2953 51.0086 29.2949 51.0101 29.2946C51.0116 29.2943 51.0131 29.2939 51.0146 29.2936C51.0161 29.2933 51.0177 29.2929 51.0192 29.2926C51.0207 29.2923 51.0222 29.2919 51.0237 29.2916C51.0253 29.2912 51.0268 29.2909 51.0283 29.2906C51.0298 29.2902 51.0314 29.2899 51.0329 29.2896C51.0344 29.2892 51.0359 29.2889 51.0375 29.2886C51.039 29.2882 51.0405 29.2879 51.042 29.2876C51.0436 29.2872 51.0451 29.2869 51.0466 29.2865C51.0482 29.2862 51.0497 29.2859 51.0512 29.2855C51.0528 29.2852 51.0543 29.2849 51.0558 29.2845C51.0574 29.2842 51.0589 29.2838 51.0605 29.2835C51.062 29.2832 51.0635 29.2828 51.0651 29.2825C51.0666 29.2822 51.0682 29.2818 51.0697 29.2815C51.0712 29.2811 51.0728 29.2808 51.0743 29.2805C51.0759 29.2801 51.0774 29.2798 51.079 29.2794C51.0805 29.2791 51.0821 29.2788 51.0836 29.2784C51.0852 29.2781 51.0867 29.2777 51.0883 29.2774C51.0898 29.277 51.0914 29.2767 51.0929 29.2764C51.0945 29.276 51.096 29.2757 51.0976 29.2753C51.0992 29.275 51.1007 29.2747 51.1023 29.2743C51.1038 29.274 51.1054 29.2736 51.1069 29.2733C51.1085 29.2729 51.1101 29.2726 51.1116 29.2723C51.1132 29.2719 51.1148 29.2716 51.1163 29.2712C51.1179 29.2709 51.1194 29.2705 51.121 29.2702C51.1226 29.2698 51.1241 29.2695 51.1257 29.2692C51.1273 29.2688 51.1289 29.2685 51.1304 29.2681C51.132 29.2678 51.1336 29.2674 51.1351 29.2671C51.1367 29.2667 51.1383 29.2664 51.1399 29.266C51.1414 29.2657 51.143 29.2654 51.1446 29.265C51.1462 29.2647 51.1477 29.2643 51.1493 29.264C51.1509 29.2636 51.1525 29.2633 51.1541 29.2629C51.1557 29.2626 51.1572 29.2622 51.1588 29.2619C51.1604 29.2615 51.162 29.2612 51.1636 29.2608C51.1652 29.2605 51.1667 29.2601 51.1683 29.2598C51.1699 29.2594 51.1715 29.2591 51.1731 29.2587C51.1747 29.2584 51.1763 29.258 51.1779 29.2577C51.1795 29.2573 51.1811 29.257 51.1827 29.2566C51.1842 29.2563 51.1858 29.2559 51.1874 29.2556C51.189 29.2552 51.1906 29.2549 51.1922 29.2545C51.1938 29.2542 51.1954 29.2538 51.197 29.2535C51.1986 29.2531 51.2002 29.2528 51.2018 29.2524C51.2034 29.2521 51.205 29.2517 51.2067 29.2514C51.2083 29.251 51.2099 29.2507 51.2115 29.2503C51.2131 29.2499 51.2147 29.2496 51.2163 29.2492C51.2179 29.2489 51.2195 29.2485 51.2211 29.2482C51.2227 29.2478 51.2244 29.2475 51.226 29.2471C51.2276 29.2468 51.2292 29.2464 51.2308 29.246C51.2324 29.2457 51.234 29.2453 51.2357 29.245C51.2373 29.2446 51.2389 29.2443 51.2405 29.2439C51.2421 29.2436 51.2438 29.2432 51.2454 29.2428C51.247 29.2425 51.2486 29.2421 51.2503 29.2418C51.2519 29.2414 51.2535 29.2411 51.2551 29.2407C51.2568 29.2403 51.2584 29.24 51.26 29.2396C51.2616 29.2393 51.2633 29.2389 51.2649 29.2385C51.2665 29.2382 51.2682 29.2378 51.2698 29.2375C51.2714 29.2371 51.2731 29.2368 51.2747 29.2364C51.2763 29.236 51.278 29.2357 51.2796 29.2353C51.2812 29.235 51.2829 29.2346 51.2845 29.2342C51.2862 29.2339 51.2878 29.2335 51.2894 29.2331C51.2911 29.2328 51.2927 29.2324 51.2944 29.2321C51.296 29.2317 51.2977 29.2313 51.2993 29.231C51.301 29.2306 51.3026 29.2303 51.3043 29.2299C51.3059 29.2295 51.3075 29.2292 51.3092 29.2288C51.3108 29.2284 51.3125 29.2281 51.3142 29.2277C51.3158 29.2274 51.3175 29.227 51.3191 29.2266C51.3208 29.2263 51.3224 29.2259 51.3241 29.2255C51.3257 29.2252 51.3274 29.2248 51.3291 29.2244C51.3307 29.2241 51.3324 29.2237 51.334 29.2233C51.3357 29.223 51.3374 29.2226 51.339 29.2222C51.3407 29.2219 51.3423 29.2215 51.344 29.2211C51.3457 29.2208 51.3473 29.2204 51.349 29.22C51.3507 29.2197 51.3523 29.2193 51.354 29.2189C51.3557 29.2186 51.3574 29.2182 51.359 29.2178C51.3607 29.2175 51.3624 29.2171 51.364 29.2167C51.3657 29.2164 51.3674 29.216 51.3691 29.2156C51.3707 29.2153 51.3724 29.2149 51.3741 29.2145C51.3758 29.2142 51.3775 29.2138 51.3791 29.2134C51.3808 29.2131 51.3825 29.2127 51.3842 29.2123C51.3859 29.2119 51.3875 29.2116 51.3892 29.2112C51.3909 29.2108 51.3926 29.2105 51.3943 29.2101C51.396 29.2097 51.3977 29.2093 51.3994 29.209C51.401 29.2086 51.4027 29.2082 51.4044 29.2079C51.4061 29.2075 51.4078 29.2071 51.4095 29.2067C51.4112 29.2064 51.4129 29.206 51.4146 29.2056C51.4163 29.2053 51.418 29.2049 51.4197 29.2045C51.4214 29.2041 51.4231 29.2038 51.4248 29.2034C51.4265 29.203 51.4282 29.2026 51.4299 29.2023C51.4316 29.2019 51.4333 29.2015 51.435 29.2011C51.4367 29.2008 51.4384 29.2004 51.4401 29.2C51.4418 29.1996 51.4435 29.1993 51.4452 29.1989C51.4469 29.1985 51.4486 29.1981 51.4503 29.1978C51.4521 29.1974 51.4538 29.197 51.4555 29.1966C51.4572 29.1963 51.4589 29.1959 51.4606 29.1955C51.4623 29.1951 51.464 29.1948 51.4658 29.1944C51.4675 29.194 51.4692 29.1936 51.4709 29.1932C51.4726 29.1929 51.4744 29.1925 51.4761 29.1921C51.4778 29.1917 51.4795 29.1913 51.4812 29.191C51.483 29.1906 51.4847 29.1902 51.4864 29.1898C51.4881 29.1895 51.4899 29.1891 51.4916 29.1887C51.4933 29.1883 51.4951 29.1879 51.4968 29.1876C51.4985 29.1872 51.5002 29.1868 51.502 29.1864C51.5037 29.186 51.5054 29.1856 51.5072 29.1853C51.5089 29.1849 51.5106 29.1845 51.5124 29.1841C51.5141 29.1837 51.5159 29.1834 51.5176 29.183C51.5193 29.1826 51.5211 29.1822 51.5228 29.1818C51.5245 29.1814 51.5263 29.1811 51.528 29.1807C51.5298 29.1803 51.5315 29.1799 51.5333 29.1795C51.535 29.1791 51.5368 29.1788 51.5385 29.1784C51.5402 29.178 51.542 29.1776 51.5437 29.1772C51.5455 29.1768 51.5472 29.1765 51.549 29.1761C51.5507 29.1757 51.5525 29.1753 51.5543 29.1749C51.556 29.1745 51.5578 29.1741 51.5595 29.1738C51.5613 29.1734 51.563 29.173 51.5648 29.1726C51.5665 29.1722 51.5683 29.1718 51.5701 29.1714C51.5718 29.171 51.5736 29.1707 51.5753 29.1703C51.5771 29.1699 51.5789 29.1695 51.5806 29.1691C51.5824 29.1687 51.5842 29.1683 51.5859 29.1679C51.5877 29.1676 51.5895 29.1672 51.5912 29.1668C51.593 29.1664 51.5948 29.166 51.5965 29.1656C51.5983 29.1652 51.6001 29.1648 51.6019 29.1644C51.6036 29.1641 51.6054 29.1637 51.6072 29.1633C51.6089 29.1629 51.6107 29.1625 51.6125 29.1621C51.6143 29.1617 51.6161 29.1613 51.6178 29.1609C51.6196 29.1605 51.6214 29.1601 51.6232 29.1598C51.625 29.1594 51.6267 29.159 51.6285 29.1586C51.6303 29.1582 51.6321 29.1578 51.6339 29.1574C51.6357 29.157 51.6374 29.1566 51.6392 29.1562C51.641 29.1558 51.6428 29.1554 51.6446 29.155C51.6464 29.1546 51.6482 29.1543 51.65 29.1539C51.6518 29.1535 51.6536 29.1531 51.6553 29.1527C51.6571 29.1523 51.6589 29.1519 51.6607 29.1515C51.6625 29.1511 51.6643 29.1507 51.6661 29.1503C51.6679 29.1499 51.6697 29.1495 51.6715 29.1491C51.6733 29.1487 51.6751 29.1483 51.6769 29.1479C51.6787 29.1475 51.6805 29.1471 51.6823 29.1467C51.6841 29.1463 51.686 29.1459 51.6878 29.1456C51.6896 29.1452 51.6914 29.1448 51.6932 29.1444C51.695 29.144 51.6968 29.1436 51.6986 29.1432C51.7004 29.1428 51.7022 29.1424 51.704 29.142C51.7059 29.1416 51.7077 29.1412 51.7095 29.1408C51.7113 29.1404 51.7131 29.14 51.7149 29.1396C51.7168 29.1392 51.7186 29.1388 51.7204 29.1384C51.7222 29.138 51.724 29.1376 51.7259 29.1372C51.7277 29.1368 51.7295 29.1364 51.7313 29.136C51.7332 29.1356 51.735 29.1352 51.7368 29.1348C51.7386 29.1344 51.7405 29.134 51.7423 29.1336C51.7441 29.1332 51.7459 29.1328 51.7478 29.1324C51.7496 29.132 51.7514 29.1315 51.7533 29.1311C51.7551 29.1307 51.7569 29.1303 51.7588 29.1299C51.7606 29.1295 51.7624 29.1291 51.7643 29.1287C51.7661 29.1283 51.768 29.1279 51.7698 29.1275C51.7716 29.1271 51.7735 29.1267 51.7753 29.1263C51.7772 29.1259 51.779 29.1255 51.7808 29.1251C51.7827 29.1247 51.7845 29.1243 51.7864 29.1239C51.7882 29.1235 51.7901 29.1231 51.7919 29.1226C51.7938 29.1222 51.7956 29.1218 51.7975 29.1214C51.7993 29.121 51.8012 29.1206 51.803 29.1202C51.8049 29.1198 51.8067 29.1194 51.8086 29.119C51.8104 29.1186 51.8123 29.1182 51.8141 29.1178C51.816 29.1174 51.8179 29.1169 51.8197 29.1165C51.8216 29.1161 51.8234 29.1157 51.8253 29.1153C51.8271 29.1149 51.829 29.1145 51.8309 29.1141C51.8327 29.1137 51.8346 29.1133 51.8365 29.1128C51.8383 29.1124 51.8402 29.112 51.8421 29.1116C51.8439 29.1112 51.8458 29.1108 51.8477 29.1104C51.8495 29.11 51.8514 29.1096 51.8533 29.1092C51.8551 29.1087 51.857 29.1083 51.8589 29.1079C51.8608 29.1075 51.8626 29.1071 51.8645 29.1067C51.8664 29.1063 51.8683 29.1059 51.8701 29.1054C51.872 29.105 51.8739 29.1046 51.8758 29.1042C51.8777 29.1038 51.8795 29.1034 51.8814 29.103C51.8833 29.1025 51.8852 29.1021 51.8871 29.1017C51.889 29.1013 51.8908 29.1009 51.8927 29.1005C51.8946 29.1001 51.8965 29.0996 51.8984 29.0992C51.9003 29.0988 51.9022 29.0984 51.9041 29.098C51.906 29.0976 51.9078 29.0971 51.9097 29.0967C51.9116 29.0963 51.9135 29.0959 51.9154 29.0955C51.9173 29.0951 51.9192 29.0947 51.9211 29.0942C51.923 29.0938 51.9249 29.0934 51.9268 29.093C51.9287 29.0926 51.9306 29.0921 51.9325 29.0917C51.9344 29.0913 51.9363 29.0909 51.9382 29.0905C51.9401 29.0901 51.942 29.0896 51.9439 29.0892C51.9458 29.0888 51.9477 29.0884 51.9496 29.088C51.9516 29.0875 51.9535 29.0871 51.9554 29.0867C51.9573 29.0863 51.9592 29.0859 51.9611 29.0854C51.963 29.085 51.9649 29.0846 51.9668 29.0842C51.9688 29.0838 51.9707 29.0833 51.9726 29.0829C51.9745 29.0825 51.9764 29.0821 51.9783 29.0816C51.9803 29.0812 51.9822 29.0808 51.9841 29.0804C51.986 29.08 51.9879 29.0795 51.9899 29.0791C51.9918 29.0787 51.9937 29.0783 51.9956 29.0778C51.9976 29.0774 51.9995 29.077 52.0014 29.0766C52.0033 29.0761 52.0053 29.0757 52.0072 29.0753C52.0091 29.0749 52.0111 29.0745 52.013 29.074C52.0149 29.0736 52.0169 29.0732 52.0188 29.0728C52.0207 29.0723 52.0227 29.0719 52.0246 29.0715C52.0265 29.071 52.0285 29.0706 52.0304 29.0702C52.0323 29.0698 52.0343 29.0693 52.0362 29.0689C52.0382 29.0685 52.0401 29.0681 52.042 29.0676C52.044 29.0672 52.0459 29.0668 52.0479 29.0664C52.0498 29.0659 52.0518 29.0655 52.0537 29.0651C52.0557 29.0646 52.0576 29.0642 52.0595 29.0638C52.0615 29.0634 52.0634 29.0629 52.0654 29.0625C52.0673 29.0621 52.0693 29.0616 52.0713 29.0612C52.0732 29.0608 52.0752 29.0604 52.0771 29.0599C52.0791 29.0595 52.081 29.0591 52.083 29.0586C52.0849 29.0582 52.0869 29.0578 52.0889 29.0573C52.0908 29.0569 52.0928 29.0565 52.0947 29.056C52.0967 29.0556 52.0987 29.0552 52.1006 29.0548C52.1026 29.0543 52.1046 29.0539 52.1065 29.0535C52.1085 29.053 52.1105 29.0526 52.1124 29.0522C52.1144 29.0517 52.1164 29.0513 52.1183 29.0509C52.1203 29.0504 52.1223 29.05 52.1242 29.0496C52.1262 29.0491 52.1282 29.0487 52.1302 29.0483C52.1321 29.0478 52.1341 29.0474 52.1361 29.047C52.1381 29.0465 52.14 29.0461 52.142 29.0457C52.144 29.0452 52.146 29.0448 52.148 29.0443C52.1499 29.0439 52.1519 29.0435 52.1539 29.043C52.1559 29.0426 52.1579 29.0422 52.1599 29.0417C52.1618 29.0413 52.1638 29.0409 52.1658 29.0404C52.1678 29.04 52.1698 29.0395 52.1718 29.0391C52.1738 29.0387 52.1758 29.0382 52.1778 29.0378C52.1797 29.0374 52.1817 29.0369 52.1837 29.0365C52.1857 29.036 52.1877 29.0356 52.1897 29.0352C52.1917 29.0347 52.1937 29.0343 52.1957 29.0338C52.1977 29.0334 52.1997 29.033 52.2017 29.0325C52.2037 29.0321 52.2057 29.0316 52.2077 29.0312C52.2097 29.0308 52.2117 29.0303 52.2137 29.0299C52.2157 29.0294 52.2177 29.029 52.2197 29.0286C52.2217 29.0281 52.2237 29.0277 52.2258 29.0272C52.2278 29.0268 52.2298 29.0264 52.2318 29.0259C52.2338 29.0255 52.2358 29.025 52.2378 29.0246C52.2398 29.0241 52.2418 29.0237 52.2439 29.0233C52.2459 29.0228 52.2479 29.0224 52.2499 29.0219C52.2519 29.0215 52.2539 29.021 52.256 29.0206C52.258 29.0201 52.26 29.0197 52.262 29.0193C52.264 29.0188 52.2661 29.0184 52.2681 29.0179C52.2701 29.0175 52.2721 29.017 52.2742 29.0166C52.2762 29.0161 52.2782 29.0157 52.2802 29.0153C52.2823 29.0148 52.2843 29.0144 52.2863 29.0139C52.2884 29.0135 52.2904 29.013 52.2924 29.0126C52.2945 29.0121 52.2965 29.0117 52.2985 29.0112C52.3006 29.0108 52.3026 29.0103 52.3046 29.0099C52.3067 29.0094 52.3087 29.009 52.3107 29.0085C52.3128 29.0081 52.3148 29.0076 52.3169 29.0072C52.3189 29.0067 52.3209 29.0063 52.323 29.0059C52.325 29.0054 52.3271 29.005 52.3291 29.0045C52.3312 29.0041 52.3332 29.0036 52.3353 29.0032C52.3373 29.0027 52.3394 29.0023 52.3414 29.0018C52.3435 29.0014 52.3455 29.0009 52.3476 29.0004C52.3496 29 52.3517 28.9995 52.3537 28.9991C52.3558 28.9986 52.3578 28.9982 52.3599 28.9977C52.3619 28.9973 52.364 28.9968 52.3661 28.9964C52.3681 28.9959 52.3702 28.9955 52.3722 28.995C52.3743 28.9946 52.3763 28.9941 52.3784 28.9937C52.3805 28.9932 52.3825 28.9928 52.3846 28.9923C52.3867 28.9918 52.3887 28.9914 52.3908 28.9909C52.3929 28.9905 52.3949 28.99 52.397 28.9896C52.3991 28.9891 52.4011 28.9887 52.4032 28.9882C52.4053 28.9878 52.4074 28.9873 52.4094 28.9868C52.4115 28.9864 52.4136 28.9859 52.4156 28.9855C52.4177 28.985 52.4198 28.9846 52.4219 28.9841C52.424 28.9836 52.426 28.9832 52.4281 28.9827C52.4302 28.9823 52.4323 28.9818 52.4344 28.9814C52.4364 28.9809 52.4385 28.9804 52.4406 28.98C52.4427 28.9795 52.4448 28.9791 52.4469 28.9786C52.4489 28.9782 52.451 28.9777 52.4531 28.9772C52.4552 28.9768 52.4573 28.9763 52.4594 28.9759C52.4615 28.9754 52.4636 28.9749 52.4657 28.9745C52.4678 28.974 52.4698 28.9736 52.4719 28.9731C52.474 28.9726 52.4761 28.9722 52.4782 28.9717C52.4803 28.9713 52.4824 28.9708 52.4845 28.9703C52.4866 28.9699 52.4887 28.9694 52.4908 28.9689C52.4929 28.9685 52.495 28.968 52.4971 28.9676C52.4992 28.9671 52.5013 28.9666 52.5034 28.9662C52.5055 28.9657 52.5076 28.9652 52.5098 28.9648C52.5119 28.9643 52.514 28.9639 52.5161 28.9634C52.5182 28.9629 52.5203 28.9625 52.5224 28.962C52.5245 28.9615 52.5266 28.9611 52.5288 28.9606C52.5309 28.9601 52.533 28.9597 52.5351 28.9592C52.5372 28.9587 52.5393 28.9583 52.5414 28.9578C52.5436 28.9573 52.5457 28.9569 52.5478 28.9564C52.5499 28.9559 52.552 28.9555 52.5542 28.955C52.5563 28.9545 52.5584 28.9541 52.5605 28.9536C52.5627 28.9531 52.5648 28.9527 52.5669 28.9522C52.569 28.9517 52.5712 28.9513 52.5733 28.9508C52.5754 28.9503 52.5776 28.9499 52.5797 28.9494C52.5818 28.9489 52.584 28.9485 52.5861 28.948C52.5882 28.9475 52.5904 28.9471 52.5925 28.9466C52.5946 28.9461 52.5968 28.9456 52.5989 28.9452C52.601 28.9447 52.6032 28.9442 52.6053 28.9438C52.6075 28.9433 52.6096 28.9428 52.6117 28.9424C52.6139 28.9419 52.616 28.9414 52.6182 28.9409C52.6203 28.9405 52.6225 28.94 52.6246 28.9395C52.6267 28.9391 52.6289 28.9386 52.631 28.9381C52.6332 28.9376 52.6353 28.9372 52.6375 28.9367C52.6396 28.9362 52.6418 28.9357 52.6439 28.9353C52.6461 28.9348 52.6482 28.9343 52.6504 28.9338C52.6526 28.9334 52.6547 28.9329 52.6569 28.9324C52.659 28.932 52.6612 28.9315 52.6633 28.931C52.6655 28.9305 52.6677 28.9301 52.6698 28.9296C52.672 28.9291 52.6741 28.9286 52.6763 28.9282C52.6785 28.9277 52.6806 28.9272 52.6828 28.9267C52.685 28.9262 52.6871 28.9258 52.6893 28.9253C52.6915 28.9248 52.6936 28.9243 52.6958 28.9239C52.698 28.9234 52.7001 28.9229 52.7023 28.9224C52.7045 28.922 52.7067 28.9215 52.7088 28.921C52.711 28.9205 52.7132 28.92 52.7154 28.9196C52.7175 28.9191 52.7197 28.9186 52.7219 28.9181C52.7241 28.9176 52.7262 28.9172 52.7284 28.9167C52.7306 28.9162 52.7328 28.9157 52.735 28.9152C52.7372 28.9148 52.7393 28.9143 52.7415 28.9138C52.7437 28.9133 52.7459 28.9128 52.7481 28.9124C52.7503 28.9119 52.7525 28.9114 52.7546 28.9109C52.7568 28.9104 52.759 28.91 52.7612 28.9095C52.7634 28.909 52.7656 28.9085 52.7678 28.908C52.77 28.9075 52.7722 28.9071 52.7744 28.9066C52.7766 28.9061 52.7788 28.9056 52.781 28.9051C52.7832 28.9047 52.7854 28.9042 52.7876 28.9037C52.7898 28.9032 52.792 28.9027 52.7942 28.9022C52.7964 28.9017 52.7986 28.9013 52.8008 28.9008C52.803 28.9003 52.8052 28.8998 52.8074 28.8993C52.8096 28.8988 52.8118 28.8984 52.814 28.8979C52.8162 28.8974 52.8184 28.8969 52.8206 28.8964C52.8228 28.8959 52.8251 28.8954 52.8273 28.895C52.8295 28.8945 52.8317 28.894 52.8339 28.8935C52.8361 28.893 52.8383 28.8925 52.8406 28.892C52.8428 28.8915 52.845 28.8911 52.8472 28.8906C52.8494 28.8901 52.8516 28.8896 52.8539 28.8891C52.8561 28.8886 52.8583 28.8881 52.8605 28.8876C52.8628 28.8871 52.865 28.8867 52.8672 28.8862C52.8694 28.8857 52.8717 28.8852 52.8739 28.8847C52.8761 28.8842 52.8783 28.8837 52.8806 28.8832C52.8828 28.8827 52.885 28.8822 52.8873 28.8818C52.8895 28.8813 52.8917 28.8808 52.894 28.8803C52.8962 28.8798 52.8984 28.8793 52.9007 28.8788C52.9029 28.8783 52.9051 28.8778 52.9074 28.8773C52.9096 28.8768 52.9119 28.8763 52.9141 28.8759C52.9163 28.8754 52.9186 28.8749 52.9208 28.8744C52.9231 28.8739 52.9253 28.8734 52.9276 28.8729C52.9298 28.8724 52.932 28.8719 52.9343 28.8714C52.9365 28.8709 52.9388 28.8704 52.941 28.8699C52.9433 28.8694 52.9455 28.8689 52.9478 28.8684C52.95 28.868 52.9523 28.8675 52.9545 28.867C52.9568 28.8665 52.959 28.866 52.9613 28.8655C52.9636 28.865 52.9658 28.8645 52.9681 28.864C52.9703 28.8635 52.9726 28.863 52.9748 28.8625C52.9771 28.862 52.9794 28.8615 52.9816 28.861C52.9839 28.8605 52.9862 28.86 52.9884 28.8595C52.9907 28.859 52.993 28.8585 52.9952 28.858C52.9975 28.8575 52.9997 28.857 53.002 28.8565C53.0043 28.856 53.0066 28.8555 53.0088 28.855C53.0111 28.8545 53.0134 28.854 53.0156 28.8535C53.0179 28.853 53.0202 28.8525 53.0225 28.852C53.0247 28.8515 53.027 28.851 53.0293 28.8505C53.0316 28.85 53.0338 28.8495 53.0361 28.849C53.0384 28.8485 53.0407 28.848 53.043 28.8475C53.0452 28.847 53.0475 28.8465 53.0498 28.846C53.0521 28.8455 53.0544 28.845 53.0567 28.8445C53.0589 28.844 53.0612 28.8435 53.0635 28.843C53.0658 28.8425 53.0681 28.842 53.0704 28.8415C53.0727 28.841 53.075 28.8405 53.0773 28.84C53.0796 28.8395 53.0818 28.839 53.0841 28.8385C53.0864 28.838 53.0887 28.8374 53.091 28.8369C53.0933 28.8364 53.0956 28.8359 53.0979 28.8354C53.1002 28.8349 53.1025 28.8344 53.1048 28.8339C53.1071 28.8334 53.1094 28.8329 53.1117 28.8324C53.114 28.8319 53.1163 28.8314 53.1186 28.8309C53.1209 28.8304 53.1232 28.8299 53.1255 28.8294C53.1279 28.8288 53.1302 28.8283 53.1325 28.8278C53.1348 28.8273 53.1371 28.8268 53.1394 28.8263C53.1417 28.8258 53.144 28.8253 53.1463 28.8248C53.1487 28.8243 53.151 28.8238 53.1533 28.8233C53.1556 28.8227 53.1579 28.8222 53.1602 28.8217C53.1626 28.8212 53.1649 28.8207 53.1672 28.8202C53.1695 28.8197 53.1718 28.8192 53.1742 28.8187C53.1765 28.8182 53.1788 28.8176 53.1811 28.8171C53.1834 28.8166 53.1858 28.8161 53.1881 28.8156C53.1904 28.8151 53.1928 28.8146 53.1951 28.8141C53.1974 28.8135 53.1997 28.813 53.2021 28.8125C53.2044 28.812 53.2067 28.8115 53.2091 28.811C53.2114 28.8105 53.2137 28.81 53.2161 28.8094C53.2184 28.8089 53.2207 28.8084 53.2231 28.8079C53.2254 28.8074 53.2277 28.8069 53.2301 28.8064C53.2324 28.8058 53.2348 28.8053 53.2371 28.8048C53.2394 28.8043 53.2418 28.8038 53.2441 28.8033C53.2465 28.8028 53.2488 28.8022 53.2512 28.8017C53.2535 28.8012 53.2559 28.8007 53.2582 28.8002C53.2606 28.7997 53.2629 28.7991 53.2653 28.7986C53.2676 28.7981 53.27 28.7976 53.2723 28.7971C53.2747 28.7966 53.277 28.796 53.2794 28.7955C53.2817 28.795 53.2841 28.7945 53.2864 28.794C53.2888 28.7935 53.2911 28.7929 53.2935 28.7924C53.2959 28.7919 53.2982 28.7914 53.3006 28.7909C53.3029 28.7903 53.3053 28.7898 53.3077 28.7893C53.31 28.7888 53.3124 28.7883 53.3148 28.7877C53.3171 28.7872 53.3195 28.7867 53.3219 28.7862C53.3242 28.7857 53.3266 28.7851 53.329 28.7846C53.3313 28.7841 53.3337 28.7836 53.3361 28.7831C53.3384 28.7825 53.3408 28.782 53.3432 28.7815C53.3456 28.781 53.3479 28.7804 53.3503 28.7799C53.3527 28.7794 53.3551 28.7789 53.3574 28.7784C53.3598 28.7778 53.3622 28.7773 53.3646 28.7768C53.367 28.7763 53.3693 28.7757 53.3717 28.7752C53.3741 28.7747 53.3765 28.7742 53.3789 28.7736C53.3813 28.7731 53.3836 28.7726 53.386 28.7721C53.3884 28.7715 53.3908 28.771 53.3932 28.7705C53.3956 28.77 53.398 28.7694 53.4004 28.7689C53.4027 28.7684 53.4051 28.7679 53.4075 28.7673C53.4099 28.7668 53.4123 28.7663 53.4147 28.7658C53.4171 28.7652 53.4195 28.7647 53.4219 28.7642C53.4243 28.7637 53.4267 28.7631 53.4291 28.7626C53.4315 28.7621 53.4339 28.7615 53.4363 28.761C53.4387 28.7605 53.4411 28.76 53.4435 28.7594C53.4459 28.7589 53.4483 28.7584 53.4507 28.7578C53.4531 28.7573 53.4555 28.7568 53.4579 28.7563C53.4603 28.7557 53.4628 28.7552 53.4652 28.7547C53.4676 28.7541 53.47 28.7536 53.4724 28.7531C53.4748 28.7525 53.4772 28.752 53.4796 28.7515C53.4821 28.751 53.4845 28.7504 53.4869 28.7499C53.4893 28.7494 53.4917 28.7488 53.4941 28.7483C53.4966 28.7478 53.499 28.7472 53.5014 28.7467C53.5038 28.7462 53.5062 28.7456 53.5087 28.7451C53.5111 28.7446 53.5135 28.744 53.5159 28.7435C53.5184 28.743 53.5208 28.7424 53.5232 28.7419C53.5256 28.7414 53.5281 28.7408 53.5305 28.7403C53.5329 28.7398 53.5354 28.7392 53.5378 28.7387C53.5402 28.7382 53.5426 28.7376 53.5451 28.7371C53.5475 28.7366 53.5499 28.736 53.5524 28.7355C53.5548 28.7349 53.5573 28.7344 53.5597 28.7339C53.5621 28.7333 53.5646 28.7328 53.567 28.7323C53.5695 28.7317 53.5719 28.7312 53.5743 28.7307C53.5768 28.7301 53.5792 28.7296 53.5817 28.729C53.5841 28.7285 53.5866 28.728 53.589 28.7274C53.5914 28.7269 53.5939 28.7264 53.5963 28.7258C53.5988 28.7253 53.6012 28.7247 53.6037 28.7242C53.6061 28.7237 53.6086 28.7231 53.611 28.7226C53.6135 28.722 53.616 28.7215 53.6184 28.721C53.6209 28.7204 53.6233 28.7199 53.6258 28.7193C53.6282 28.7188 53.6307 28.7183 53.6332 28.7177C53.6356 28.7172 53.6381 28.7166 53.6405 28.7161C53.643 28.7156 53.6455 28.715 53.6479 28.7145C53.6504 28.7139 53.6528 28.7134 53.6553 28.7128C53.6578 28.7123 53.6602 28.7118 53.6627 28.7112C53.6652 28.7107 53.6677 28.7101 53.6701 28.7096C53.6726 28.709 53.6751 28.7085 53.6775 28.708L53.4627 27.7313ZM50.5216 28.3783C49.8183 28.5146 49.3394 28.5743 49.0594 28.5737L49.0572 29.5737C49.441 29.5745 50.001 29.4978 50.7119 29.36L50.5216 28.3783ZM48.569 29.1768L49.2096 32.2151L50.1881 32.0088L49.5475 28.9705L48.569 29.1768ZM49.2105 32.2194C49.2599 32.4443 49.4283 32.9825 49.6982 33.7962L50.6474 33.4814C50.3704 32.6461 50.2228 32.1665 50.1871 32.0046L49.2105 32.2194ZM49.7069 33.8203C49.9122 34.3472 50.0554 34.8042 50.1411 35.1939L51.1178 34.9791C51.0179 34.525 50.8567 34.0169 50.6387 33.4573L49.7069 33.8203ZM50.1411 35.1939C50.1516 35.2416 50.1546 35.3758 49.9384 35.6361L50.7075 36.2752C51.0159 35.904 51.2233 35.4588 51.1178 34.9791L50.1411 35.1939ZM49.941 35.633C49.7339 35.8781 49.5663 35.9695 49.4471 35.9957L49.6619 36.9724C50.0701 36.8826 50.4148 36.6217 50.7049 36.2783L49.941 35.633ZM49.4471 35.9957C48.8643 36.1239 48.5999 36.0338 48.4865 35.938L47.8411 36.7018C48.3162 37.1032 48.979 37.1225 49.6619 36.9724L49.4471 35.9957ZM48.4968 35.9469C48.3123 35.7822 48.1256 35.4526 47.9962 34.8639L47.0195 35.0787C47.1684 35.7558 47.419 36.3253 47.8308 36.6929L48.4968 35.9469ZM47.9948 34.8578L47.5103 32.7803L46.5364 33.0075L47.0209 35.0849L47.9948 34.8578ZM47.5028 32.752C47.4361 32.5266 47.3548 32.1992 47.2591 31.7639L46.2824 31.9787C46.38 32.4223 46.4672 32.7767 46.5439 33.0358L47.5028 32.752ZM47.2591 31.7639C47.1144 31.106 46.9001 30.2163 46.6171 29.0969L45.6476 29.3421C45.9297 30.4575 46.141 31.3357 46.2824 31.9787L47.2591 31.7639ZM46.6167 29.0954C46.3574 28.084 46.1793 27.3567 46.0808 26.9087L45.1041 27.1234C45.2066 27.5896 45.3884 28.3313 45.648 29.3437L46.6167 29.0954ZM46.0808 26.9087C45.9315 26.23 45.7394 25.2734 45.5043 24.0367L44.5219 24.2235C44.7576 25.4635 44.9518 26.4309 45.1041 27.1234L46.0808 26.9087ZM45.5044 24.0376C45.2842 22.8687 45.1112 21.9972 44.9858 21.4269L44.0091 21.6417C44.1311 22.1965 44.3019 23.0556 44.5217 24.2227L45.5044 24.0376ZM44.9858 21.4269C44.8743 20.9198 44.9666 20.7225 45.0352 20.6492L44.3049 19.966C43.8959 20.4032 43.8732 21.0237 44.0091 21.6417L44.9858 21.4269ZM45.0352 20.6492C45.2026 20.4701 45.407 20.3534 45.6629 20.2971L45.4481 19.3204C45.0009 19.4188 44.6149 19.6346 44.3049 19.966L45.0352 20.6492ZM45.6629 20.2971C46.1169 20.1973 46.3894 20.2189 46.5371 20.2757C46.6442 20.317 46.7187 20.386 46.7585 20.5671L47.7352 20.3523C47.6319 19.8829 47.353 19.5182 46.8963 19.3425C46.4803 19.1824 45.9787 19.2038 45.4481 19.3204L45.6629 20.2971ZM46.7585 20.5671C47.012 21.72 47.2276 22.8251 47.4053 23.8826L48.3915 23.7168C48.2108 22.6415 47.9919 21.5199 47.7352 20.3523L46.7585 20.5671ZM47.4074 23.8942C47.6662 25.2385 47.8642 26.2236 48.0011 26.8457L48.9777 26.6309C48.8439 26.0225 48.648 25.0484 48.3894 23.7052L47.4074 23.8942ZM48.4792 27.2382C49.0472 27.2498 49.63 27.2087 50.2269 27.116L50.0734 26.1278C49.5298 26.2123 49.0053 26.2487 48.4996 26.2384L48.4792 27.2382ZM50.2269 27.116C50.8125 27.025 51.6193 26.866 52.6424 26.641L52.4276 25.6644C51.4115 25.8879 50.6284 26.0417 50.0734 26.1278L50.2269 27.116ZM52.6424 26.641C54.7255 26.1829 56.3437 25.7349 57.4831 25.2941L57.1223 24.3614C56.0537 24.7749 54.4934 25.2101 52.4276 25.6644L52.6424 26.641Z" fill="#9A795A"/>
<path d="M76.7147 17.4567C77.9052 17.6497 78.9646 17.9764 79.8929 18.4368C80.8241 18.8795 81.5545 19.4355 82.0843 20.1049C83.0395 21.2991 83.6413 22.5363 83.8897 23.8165C84.1588 25.0819 84.1421 26.6474 83.8397 28.513C83.7764 28.9039 83.6655 29.2506 83.507 29.5532C83.3664 29.8586 83.1491 30.2428 82.8553 30.7058C82.4995 31.2134 82.269 31.6228 82.1639 31.934C81.7077 32.4983 81.0249 32.9985 80.1154 33.4346C79.2237 33.8736 78.2782 34.1944 77.2789 34.3972C76.2796 34.5999 75.4246 34.6437 74.7138 34.5285C71.2846 33.9727 69.0315 32.4041 67.9546 29.8226C67.6525 29.0989 67.4435 28.363 67.3277 27.6148C67.2297 26.8696 67.2354 26.1593 67.3448 25.4841C67.6386 23.6718 68.2132 22.1511 69.0689 20.9222C69.9451 19.6784 71.0212 18.7769 72.2971 18.2178C73.0563 17.9214 73.8306 17.7005 74.6201 17.5549C75.4302 17.3944 76.1284 17.3617 76.7147 17.4567ZM70.1037 26.0133C69.9482 26.9728 70.0333 27.798 70.3589 28.489C70.7024 29.1829 71.2681 29.9675 72.0562 30.8429C72.7564 31.2481 73.2326 31.5168 73.4847 31.6488C73.7397 31.7631 74.036 31.8476 74.3736 31.9023C76.1682 32.1931 77.6777 31.9363 78.9022 31.1318C80.1266 30.3274 80.8771 29.0722 81.1536 27.3665C81.3724 26.0161 81.3942 24.9256 81.2188 24.0948C81.0434 23.2641 80.6153 22.4744 79.9343 21.7258C79.5803 21.322 79.0965 20.9883 78.4827 20.7247C77.8867 20.464 77.2245 20.2746 76.496 20.1565C75.3944 19.978 74.3905 20.1526 73.4844 20.6805C72.5812 21.1905 71.8328 21.9263 71.2394 22.8877C70.6637 23.8521 70.2851 24.8939 70.1037 26.0133Z" fill="#9A795A"/>
<path d="M79.8929 18.4368L79.6707 18.8848L79.6782 18.8884L79.8929 18.4368ZM82.0843 20.1049L81.6922 20.4152L81.6938 20.4172L82.0843 20.1049ZM83.8897 23.8165L83.3988 23.9118L83.4007 23.9205L83.8897 23.8165ZM83.507 29.5532L83.0641 29.3212L83.0582 29.3325L83.0529 29.344L83.507 29.5532ZM82.8553 30.7058L83.2647 30.9927L83.2713 30.9834L83.2774 30.9737L82.8553 30.7058ZM82.1639 31.934L82.5527 32.2483L82.6089 32.1787L82.6376 32.094L82.1639 31.934ZM80.1154 33.4346L79.8992 32.9837L79.8946 32.986L80.1154 33.4346ZM67.9546 29.8226L68.4161 29.6301L68.416 29.6299L67.9546 29.8226ZM67.3277 27.6148L66.8319 27.6801L66.8336 27.6913L67.3277 27.6148ZM69.0689 20.9222L68.6601 20.6342L68.6585 20.6365L69.0689 20.9222ZM72.2971 18.2178L72.1153 17.752L72.1058 17.7558L72.0964 17.7598L72.2971 18.2178ZM74.6201 17.5549L74.7107 18.0467L74.7172 18.0454L74.6201 17.5549ZM70.3589 28.489L69.9066 28.7022L69.9108 28.7108L70.3589 28.489ZM72.0562 30.8429L71.6846 31.1774L71.7375 31.2361L71.8058 31.2756L72.0562 30.8429ZM73.4847 31.6488L73.2527 32.0917L73.2663 32.0988L73.2802 32.1051L73.4847 31.6488ZM78.9022 31.1318L79.1767 31.5497L78.9022 31.1318ZM81.2188 24.0948L80.7296 24.1981L80.7296 24.1981L81.2188 24.0948ZM79.9343 21.7258L79.5582 22.0554L79.5644 22.0623L79.9343 21.7258ZM78.4827 20.7247L78.2823 21.1828L78.2854 21.1841L78.4827 20.7247ZM73.4844 20.6805L73.7303 21.1159L73.7361 21.1125L73.4844 20.6805ZM71.2394 22.8877L70.8139 22.6251L70.8101 22.6314L71.2394 22.8877ZM76.6348 17.9503C77.7837 18.1365 78.7939 18.4498 79.6707 18.8847L80.1151 17.9889C79.1353 17.5029 78.0267 17.1629 76.7947 16.9632L76.6348 17.9503ZM79.6782 18.8884C80.5544 19.3049 81.2189 19.8171 81.6922 20.4152L82.4763 19.7946C81.8902 19.0539 81.0937 18.4541 80.1076 17.9852L79.6782 18.8884ZM81.6938 20.4172C82.6073 21.5591 83.1684 22.7236 83.3989 23.9118L84.3806 23.7213C84.1143 22.349 83.4718 21.039 82.4747 19.7925L81.6938 20.4172ZM83.4007 23.9205C83.6523 25.1042 83.6428 26.6028 83.3462 28.433L84.3333 28.593C84.6414 26.6919 84.6652 25.0595 84.3788 23.7125L83.4007 23.9205ZM83.3462 28.433C83.2901 28.7792 83.194 29.0732 83.0641 29.3212L83.95 29.7851C84.137 29.4281 84.2627 29.0287 84.3333 28.593L83.3462 28.433ZM83.0529 29.344C82.9255 29.6206 82.7214 29.9836 82.4331 30.4378L83.2774 30.9737C83.5768 30.5021 83.8072 30.0967 83.9612 29.7624L83.0529 29.344ZM82.4458 30.4188C82.0823 30.9374 81.8186 31.3937 81.6902 31.7739L82.6376 32.094C82.7194 31.8518 82.9166 31.4894 83.2647 30.9927L82.4458 30.4188ZM81.775 31.6196C81.3801 32.1082 80.7662 32.568 79.8992 32.9837L80.3316 33.8854C81.2835 33.429 82.0353 32.8883 82.5527 32.2483L81.775 31.6196ZM79.8946 32.986C79.0424 33.4055 78.1378 33.7127 77.1795 33.9072L77.3783 34.8872C78.4186 34.6761 79.405 34.3416 80.3362 33.8832L79.8946 32.986ZM77.1795 33.9072C76.2166 34.1025 75.4258 34.1374 74.7938 34.035L74.6338 35.0221C75.4233 35.15 76.3425 35.0973 77.3783 34.8872L77.1795 33.9072ZM74.7938 34.035C71.4877 33.4991 69.4098 32.0121 68.4161 29.6301L67.4932 30.0151C68.6532 32.796 71.0815 34.4464 74.6338 35.0221L74.7938 34.035ZM68.416 29.6299C68.1289 28.9422 67.9313 28.2452 67.8219 27.5384L66.8336 27.6913C66.9558 28.4808 67.1761 29.2556 67.4932 30.0152L68.416 29.6299ZM67.8235 27.5496C67.7312 26.8479 67.7375 26.1868 67.8384 25.5641L66.8513 25.4041C66.7333 26.1319 66.7283 26.8913 66.832 27.68L67.8235 27.5496ZM67.8384 25.5641C68.1228 23.8093 68.6749 22.3631 69.4792 21.2079L68.6585 20.6365C67.7515 21.9392 67.1543 23.5342 66.8513 25.4041L67.8384 25.5641ZM69.4776 21.2102C70.3064 20.0338 71.3131 19.1949 72.4978 18.6758L72.0964 17.7598C70.7293 18.3589 69.5839 19.3229 68.6601 20.6342L69.4776 21.2102ZM72.4789 18.6836C73.2091 18.3986 73.9529 18.1864 74.7107 18.0466L74.5294 17.0632C73.7083 17.2146 72.9035 17.4443 72.1153 17.752L72.4789 18.6836ZM74.7172 18.0454C75.4901 17.8923 76.1252 17.8677 76.6348 17.9503L76.7947 16.9632C76.1316 16.8557 75.3703 16.8966 74.5229 17.0644L74.7172 18.0454ZM69.6102 25.9333C69.4429 26.9653 69.5276 27.8978 69.9066 28.7022L70.8112 28.2759C70.539 27.6982 70.4535 26.9803 70.5973 26.0933L69.6102 25.9333ZM69.9108 28.7108C70.2821 29.461 70.8801 30.2838 71.6846 31.1774L72.4278 30.5083C71.6561 29.6512 71.1226 28.9048 70.8071 28.2672L69.9108 28.7108ZM71.8058 31.2756C72.5048 31.6802 72.9898 31.954 73.2527 32.0917L73.7167 31.2059C73.4753 31.0795 73.008 30.816 72.3067 30.4101L71.8058 31.2756ZM73.2802 32.1051C73.5826 32.2406 73.9223 32.3356 74.2936 32.3958L74.4536 31.4087C74.1497 31.3595 73.8968 31.2855 73.6892 31.1925L73.2802 32.1051ZM74.2936 32.3958C76.1806 32.7016 77.8241 32.4384 79.1767 31.5497L78.6276 30.7139C77.5313 31.4342 76.1558 31.6846 74.4536 31.4087L74.2936 32.3958ZM79.1767 31.5497C80.5395 30.6544 81.3526 29.2635 81.6471 27.4465L80.66 27.2865C80.4016 28.881 79.7138 30.0003 78.6276 30.7139L79.1767 31.5497ZM81.6471 27.4465C81.8705 26.0679 81.9015 24.9081 81.708 23.9915L80.7296 24.1981C80.8868 24.943 80.8743 25.9644 80.66 27.2865L81.6471 27.4465ZM81.708 23.9915C81.5111 23.0585 81.0334 22.191 80.3041 21.3893L79.5644 22.0623C80.1971 22.7578 80.5758 23.4696 80.7296 24.1981L81.708 23.9915ZM80.3103 21.3962C79.8967 20.9244 79.346 20.5513 78.68 20.2653L78.2854 21.1841C78.8469 21.4253 79.2639 21.7196 79.5582 22.0554L80.3103 21.3962ZM78.6831 20.2666C78.0439 19.987 77.3405 19.7869 76.576 19.663L76.416 20.6501C77.1085 20.7623 77.7296 20.941 78.2823 21.1828L78.6831 20.2666ZM76.576 19.663C75.368 19.4672 74.2457 19.6584 73.2327 20.2484L73.7361 21.1125C74.5354 20.6469 75.4208 20.4888 76.416 20.6501L76.576 19.663ZM73.2385 20.2451C72.2554 20.8003 71.4476 21.5984 70.8139 22.6251L71.6648 23.1504C72.218 22.2542 72.907 21.5808 73.7303 21.1159L73.2385 20.2451ZM70.8101 22.6314C70.2017 23.6505 69.8016 24.7523 69.6102 25.9333L70.5973 26.0933C70.7687 25.0356 71.1257 24.0536 71.6687 23.144L70.8101 22.6314Z" fill="#9A795A"/>
<path d="M94.6735 35.1157C94.0391 34.8151 93.5101 34.5444 93.0863 34.3037C92.6865 34.0545 92.1601 33.7153 91.5069 33.2862L90.2683 35.8365C90.0439 36.2679 89.7389 36.8903 89.3535 37.7036C89.153 38.1265 88.873 38.4021 88.5134 38.5304C88.1777 38.6502 87.8635 38.6407 87.5707 38.5019C87.034 38.2475 86.6663 37.9936 86.4677 37.7401C86.2769 37.4704 86.2662 37.1566 86.4358 36.7988C86.6594 36.3271 87.0162 35.6794 87.5061 34.8559C88.5639 33.0865 89.5553 31.2258 90.4804 29.2739C91.3439 27.4522 92.1003 25.7092 92.7497 24.045C92.8738 23.825 93.1111 23.6187 93.4613 23.4261C93.8278 23.2413 94.1895 23.2135 94.5465 23.3429C94.9206 23.5202 95.5451 23.7365 96.4201 23.9919C97.3276 24.2626 98.0009 24.5021 98.44 24.7103C99.7738 25.3424 100.745 25.9621 101.354 26.5693C101.978 27.1841 102.522 27.9698 102.985 28.9262C103.197 30.5804 103.18 31.6678 102.933 32.1883C102.417 33.278 101.738 34.1418 100.898 34.7794C100.058 35.4171 99.1036 35.7713 98.0342 35.8421C96.9648 35.9129 95.8446 35.6708 94.6735 35.1157ZM97.8475 26.9691C97.327 26.7224 96.8561 26.5391 96.4349 26.4191C96.0377 26.2906 95.5399 26.1642 94.9414 26.0399C94.2972 27.5672 93.8132 28.6724 93.4894 29.3555C93.1579 30.055 92.856 30.629 92.5836 31.0775C93.2137 31.5554 93.7204 31.9151 94.1039 32.1567C94.4952 32.3819 94.9429 32.6141 95.4471 32.853C96.6508 33.4235 97.643 33.5154 98.424 33.1286C99.2289 32.7332 99.8279 32.1207 100.221 31.2912C100.337 31.0472 100.406 30.7116 100.429 30.2844C100.453 29.8572 100.434 29.5596 100.374 29.3918C100.12 28.7933 99.8125 28.3288 99.4513 27.9982C99.114 27.6591 98.5794 27.316 97.8475 26.9691Z" fill="#9A795A"/>
<path d="M93.0863 34.3037L92.8218 34.728L92.8305 34.7334L92.8394 34.7385L93.0863 34.3037ZM91.5069 33.2862L91.7814 32.8683L91.3058 32.5558L91.0571 33.0678L91.5069 33.2862ZM90.2683 35.8365L90.712 36.0673L90.718 36.0549L90.2683 35.8365ZM88.5134 38.5304L88.3453 38.0595L88.5134 38.5304ZM86.4677 37.7401L86.0596 38.0289L86.0666 38.0389L86.0741 38.0485L86.4677 37.7401ZM87.5061 34.8559L87.0769 34.5994L87.0764 34.6003L87.5061 34.8559ZM92.7497 24.045L92.3142 23.7992L92.2968 23.8301L92.2839 23.8632L92.7497 24.045ZM93.4613 23.4261L93.2361 22.9797L93.2282 22.9837L93.2204 22.988L93.4613 23.4261ZM94.5465 23.3429L94.7606 22.8911L94.7392 22.8809L94.7168 22.8728L94.5465 23.3429ZM96.4201 23.9919L96.563 23.5127L96.5602 23.5119L96.4201 23.9919ZM101.354 26.5693L101 26.9232L101.003 26.9256L101.354 26.5693ZM102.985 28.9262L103.481 28.8627L103.471 28.7818L103.435 28.7084L102.985 28.9262ZM100.898 34.7794L100.596 34.3812L100.898 34.7794ZM98.0342 35.8421L98.0012 35.3432L98.0342 35.8421ZM96.4349 26.4191L96.281 26.8949L96.2894 26.8976L96.298 26.9L96.4349 26.4191ZM94.9414 26.0399L95.0431 25.5504L94.6405 25.4668L94.4807 25.8456L94.9414 26.0399ZM92.5836 31.0775L92.1562 30.818L91.9222 31.2034L92.2815 31.4759L92.5836 31.0775ZM94.1039 32.1567L93.8375 32.5797L93.8459 32.585L93.8544 32.59L94.1039 32.1567ZM98.424 33.1286L98.2035 32.6798L98.202 32.6805L98.424 33.1286ZM100.374 29.3918L100.845 29.2238L100.84 29.2099L100.835 29.1964L100.374 29.3918ZM99.4513 27.9982L99.0968 28.3508L99.105 28.3591L99.1137 28.3671L99.4513 27.9982ZM94.8876 34.6639C94.26 34.3664 93.7428 34.1015 93.3332 33.8689L92.8394 34.7385C93.2774 34.9872 93.8182 35.2637 94.4593 35.5675L94.8876 34.6639ZM93.3508 33.8794C92.9559 33.6332 92.4331 33.2964 91.7814 32.8683L91.2324 33.7041C91.887 34.1342 92.4172 34.4758 92.8218 34.728L93.3508 33.8794ZM91.0571 33.0678L89.8185 35.618L90.718 36.0549L91.9567 33.5046L91.0571 33.0678ZM89.8247 35.6057C89.596 36.0454 89.2879 36.6744 88.9016 37.4894L89.8053 37.9177C90.1899 37.1062 90.4917 36.4904 90.7119 36.0672L89.8247 35.6057ZM88.9016 37.4894C88.7444 37.8212 88.553 37.9854 88.3453 38.0595L88.6814 39.0013C89.193 38.8188 89.5617 38.4317 89.8053 37.9177L88.9016 37.4894ZM88.3453 38.0595C88.1208 38.1396 87.9453 38.1262 87.7849 38.0501L87.3566 38.9538C87.7817 39.1553 88.2346 39.1608 88.6814 39.0013L88.3453 38.0595ZM87.7849 38.0501C87.2686 37.8054 86.9869 37.592 86.8613 37.4318L86.0741 38.0485C86.3457 38.3952 86.7994 38.6897 87.3566 38.9538L87.7849 38.0501ZM86.8759 37.4513C86.8118 37.3608 86.7772 37.246 86.8877 37.0129L85.984 36.5846C85.7553 37.0672 85.7419 37.58 86.0596 38.0289L86.8759 37.4513ZM86.8877 37.0129C87.1011 36.5625 87.4484 35.9307 87.9358 35.1116L87.0764 34.6003C86.5839 35.4282 86.2177 36.0916 85.984 36.5846L86.8877 37.0129ZM87.9352 35.1125C89.0016 33.3286 90.0006 31.4538 90.9323 29.4881L90.0286 29.0598C89.11 30.9978 88.1261 32.8443 87.0769 34.5994L87.9352 35.1125ZM90.9323 29.4881C91.8001 27.657 92.5613 25.9032 93.2154 24.2267L92.2839 23.8632C91.6393 25.5152 90.8876 27.2474 90.0286 29.0598L90.9323 29.4881ZM93.1851 24.2908C93.2442 24.186 93.3902 24.0358 93.7022 23.8643L93.2204 22.988C92.8319 23.2016 92.5035 23.4639 92.3142 23.7992L93.1851 24.2908ZM93.6864 23.8725C93.9411 23.7441 94.1599 23.7346 94.3761 23.813L94.7168 22.8728C94.2191 22.6925 93.7144 22.7384 93.2361 22.9797L93.6864 23.8725ZM94.3323 23.7947C94.745 23.9903 95.4024 24.2157 96.28 24.4719L96.5602 23.5119C95.6879 23.2573 95.0962 23.0501 94.7606 22.8911L94.3323 23.7947ZM96.2771 24.471C97.1785 24.7399 97.8222 24.9707 98.2259 25.1621L98.6542 24.2584C98.1796 24.0335 97.4766 23.7853 96.563 23.5128L96.2771 24.471ZM98.2259 25.1621C99.5396 25.7847 100.451 26.3752 101 26.9232L101.707 26.2153C101.039 25.5489 100.008 24.9001 98.6542 24.2584L98.2259 25.1621ZM101.003 26.9256C101.579 27.4929 102.092 28.2286 102.535 29.1441L103.435 28.7084C102.953 27.711 102.378 26.8754 101.704 26.2129L101.003 26.9256ZM102.489 28.9898C102.594 29.8042 102.639 30.4637 102.631 30.9744C102.623 31.499 102.558 31.813 102.481 31.9741L103.385 32.4024C103.555 32.043 103.622 31.5531 103.631 30.9904C103.64 30.4137 103.589 29.7024 103.481 28.8627L102.489 28.9898ZM102.481 31.9741C101.994 33.0019 101.364 33.7985 100.596 34.3812L101.201 35.1777C102.113 34.485 102.839 33.5542 103.385 32.4024L102.481 31.9741ZM100.596 34.3812C99.8353 34.9586 98.9745 35.2787 98.0012 35.3432L98.0672 36.341C99.2326 36.2639 100.281 35.8755 101.201 35.1777L100.596 34.3812ZM98.0012 35.3432C97.033 35.4073 95.9977 35.1901 94.8876 34.6639L94.4593 35.5675C95.6914 36.1515 96.8967 36.4185 98.0672 36.341L98.0012 35.3432ZM98.0616 26.5173C97.5235 26.2623 97.0263 26.0677 96.5719 25.9383L96.298 26.9C96.6859 27.0105 97.1304 27.1826 97.6333 27.4209L98.0616 26.5173ZM96.5888 25.9434C96.1686 25.8074 95.6519 25.6768 95.0431 25.5504L94.8397 26.5295C95.4278 26.6516 95.9068 26.7738 96.281 26.8949L96.5888 25.9434ZM94.4807 25.8456C93.8368 27.3721 93.3564 28.4688 93.0376 29.1414L93.9413 29.5697C94.27 28.876 94.7576 27.7623 95.4021 26.2342L94.4807 25.8456ZM93.0376 29.1414C92.7104 29.8318 92.4166 30.3892 92.1562 30.818L93.011 31.337C93.2954 30.8687 93.6055 30.2781 93.9413 29.5697L93.0376 29.1414ZM92.2815 31.4759C92.9159 31.9571 93.436 32.3269 93.8375 32.5797L94.3704 31.7336C94.0049 31.5034 93.5114 31.1537 92.8858 30.6792L92.2815 31.4759ZM93.8544 32.59C94.2595 32.8232 94.7194 33.0614 95.233 33.3049L95.6613 32.4012C95.1664 32.1667 94.7308 31.9407 94.3534 31.7234L93.8544 32.59ZM95.233 33.3049C96.5004 33.9056 97.6679 34.061 98.6459 33.5766L98.202 32.6805C97.6182 32.9697 96.8011 32.9415 95.6613 32.4012L95.233 33.3049ZM98.6444 33.5773C99.5533 33.1309 100.233 32.4344 100.673 31.5054L99.7693 31.0771C99.4232 31.8071 98.9044 32.3355 98.2035 32.6798L98.6444 33.5773ZM100.673 31.5054C100.828 31.1785 100.904 30.77 100.929 30.3115L99.9301 30.2573C99.9086 30.6532 99.8456 30.9159 99.7693 31.0771L100.673 31.5054ZM100.929 30.3115C100.952 29.8856 100.942 29.4961 100.845 29.2238L99.9034 29.5599C99.926 29.6231 99.9534 29.8287 99.9301 30.2573L100.929 30.3115ZM100.835 29.1964C100.561 28.5525 100.217 28.0214 99.7888 27.6293L99.1137 28.3671C99.4078 28.6362 99.6792 29.0341 99.9141 29.5872L100.835 29.1964ZM99.8058 27.6456C99.4092 27.2468 98.8148 26.8743 98.0616 26.5173L97.6333 27.4209C98.3441 27.7578 98.8189 28.0713 99.0968 28.3508L99.8058 27.6456Z" fill="#9A795A"/>
<path d="M113.729 33.185C113.057 34.0303 112.026 35.2295 110.637 36.7826C109.298 38.2732 108.299 39.4333 107.639 40.2628C107.465 40.482 107.12 40.9483 106.603 41.662C106.376 41.9156 106.12 42.0444 105.836 42.0483C105.564 42.0366 105.311 41.9373 105.076 41.7506C104.825 41.5514 104.648 41.3083 104.544 41.0212C104.441 40.7341 104.446 40.4702 104.561 40.2293C105.394 38.7964 106.52 37.1878 107.939 35.4034L110.876 31.7594C111.337 31.1802 111.781 30.7667 112.208 30.5187C112.663 30.2676 113.141 30.3412 113.642 30.7396C114.065 31.0757 114.266 31.4656 114.245 31.9092C114.237 32.3371 114.065 32.7624 113.729 33.185ZM103.987 42.8781C105.052 43.7247 105.266 44.5471 104.632 45.3454C104.308 45.7524 103.876 46.0222 103.336 46.1549C102.824 46.2844 102.373 46.1936 101.981 45.8823C101.512 45.5088 101.24 45.0629 101.167 44.5446C101.106 44.0107 101.231 43.5481 101.543 43.1567C101.816 42.8124 102.191 42.5989 102.665 42.5164C103.155 42.4463 103.596 42.5669 103.987 42.8781Z" fill="#9A795A"/>
<path d="M110.637 36.7826L111.009 37.1168L111.01 37.1159L110.637 36.7826ZM106.603 41.662L106.975 41.9956L106.993 41.9762L107.008 41.9551L106.603 41.662ZM105.836 42.0483L105.814 42.5478L105.828 42.5485L105.843 42.5483L105.836 42.0483ZM104.544 41.0212L104.074 41.1913L104.074 41.1913L104.544 41.0212ZM104.561 40.2293L104.129 39.978L104.118 39.9957L104.11 40.0141L104.561 40.2293ZM107.939 35.4034L107.55 35.0896L107.548 35.0922L107.939 35.4034ZM110.876 31.7594L111.265 32.0731L111.267 32.0706L110.876 31.7594ZM112.208 30.5187L111.966 30.0808L111.957 30.0863L112.208 30.5187ZM114.245 31.9092L113.746 31.886L113.745 31.8997L114.245 31.9092ZM103.336 46.1549L103.217 45.6694L103.213 45.6702L103.336 46.1549ZM101.167 44.5446L100.67 44.6013L100.672 44.6146L101.167 44.5446ZM102.665 42.5164L102.594 42.0214L102.587 42.0225L102.579 42.0238L102.665 42.5164ZM113.337 32.8738C112.674 33.7075 111.652 34.8981 110.265 36.4494L111.01 37.1159C112.4 35.5608 113.439 34.3531 114.12 33.4963L113.337 32.8738ZM110.265 36.4485C108.925 37.9412 107.917 39.1101 107.248 39.9516L108.031 40.5741C108.681 39.7564 109.672 38.6052 111.009 37.1168L110.265 36.4485ZM107.248 39.9516C107.065 40.1812 106.713 40.657 106.198 41.3688L107.008 41.9551C107.526 41.2396 107.865 40.7827 108.031 40.5741L107.248 39.9516ZM106.231 41.3283C106.077 41.5002 105.946 41.5467 105.829 41.5483L105.843 42.5483C106.294 42.542 106.675 42.331 106.975 41.9956L106.231 41.3283ZM105.857 41.5488C105.702 41.5421 105.548 41.4874 105.387 41.3593L104.765 42.1419C105.073 42.3873 105.426 42.5311 105.814 42.5478L105.857 41.5488ZM105.387 41.3593C105.205 41.2148 105.085 41.0468 105.015 40.851L104.074 41.1913C104.211 41.5697 104.445 41.888 104.765 42.1419L105.387 41.3593ZM105.015 40.851C104.949 40.6701 104.963 40.547 105.012 40.4446L104.11 40.0141C103.929 40.3934 103.932 40.7982 104.074 41.1913L105.015 40.851ZM104.993 40.4806C105.81 39.0748 106.921 37.4866 108.331 35.7147L107.548 35.0922C106.119 36.889 104.977 38.5181 104.129 39.978L104.993 40.4806ZM108.329 35.7172L111.265 32.0731L110.487 31.4456L107.55 35.0897L108.329 35.7172ZM111.267 32.0706C111.707 31.5183 112.106 31.1563 112.459 30.9512L111.957 30.0863C111.456 30.3771 110.967 30.8422 110.485 31.4481L111.267 32.0706ZM112.449 30.9565C112.588 30.8801 112.71 30.8611 112.832 30.8798C112.962 30.8997 113.127 30.9689 113.331 31.1309L113.954 30.3483C113.656 30.1119 113.333 29.9451 112.984 29.8914C112.627 29.8365 112.283 29.9063 111.966 30.0809L112.449 30.9565ZM113.331 31.1309C113.659 31.3914 113.757 31.6382 113.746 31.886L114.745 31.9324C114.774 31.293 114.471 30.76 113.954 30.3483L113.331 31.1309ZM113.745 31.8997C113.74 32.1919 113.623 32.5143 113.337 32.8738L114.12 33.4963C114.506 33.0105 114.734 32.4824 114.745 31.9187L113.745 31.8997ZM103.676 43.2694C104.171 43.6628 104.395 43.9958 104.463 44.2562C104.522 44.4839 104.482 44.7305 104.24 45.0342L105.023 45.6567C105.416 45.162 105.586 44.5983 105.431 44.0036C105.284 43.4415 104.868 42.94 104.299 42.4868L103.676 43.2694ZM104.24 45.0342C103.99 45.3483 103.657 45.5611 103.217 45.6694L103.455 46.6405C104.095 46.4833 104.625 46.1564 105.023 45.6567L104.24 45.0342ZM103.213 45.6702C102.843 45.7639 102.554 45.6989 102.292 45.491L101.67 46.2736C102.191 46.6882 102.805 46.8049 103.459 46.6396L103.213 45.6702ZM102.292 45.491C101.907 45.1846 101.715 44.8476 101.662 44.4746L100.672 44.6146C100.766 45.2782 101.116 45.833 101.67 46.2736L102.292 45.491ZM101.664 44.488C101.617 44.0749 101.712 43.7472 101.934 43.468L101.151 42.8455C100.751 43.3489 100.595 43.9464 100.67 44.6012L101.664 44.488ZM101.934 43.468C102.124 43.2288 102.385 43.0727 102.751 43.009L102.579 42.0238C101.997 42.1252 101.509 42.3959 101.151 42.8455L101.934 43.468ZM102.736 43.0114C103.088 42.9609 103.391 43.0429 103.676 43.2694L104.299 42.4868C103.801 42.0909 103.222 41.9316 102.594 42.0214L102.736 43.0114Z" fill="#9A795A"/>
<g filter="url(#filter0_d)">
<circle cx="65" cy="101.459" r="61" fill="#9A795A"/>
<circle cx="65" cy="101.459" r="58.5" stroke="white" stroke-width="5"/>
</g>
<path d="M45 89.459H87" stroke="white" stroke-width="5" stroke-linecap="round" stroke-linejoin="round"/>
<path d="M75 99.459C75 101.846 73.9991 104.135 72.2175 105.823C70.4359 107.511 68.0196 108.459 65.5 108.459C62.9804 108.459 60.5641 107.511 58.7825 105.823C57.0009 104.135 56 101.846 56 99.459" stroke="white" stroke-width="5" stroke-linecap="round" stroke-linejoin="round"/>
<path d="M52 78.459L45 87.859V120.759C45 122.006 45.4917 123.201 46.3668 124.082C47.242 124.964 48.429 125.459 49.6667 125.459H82.3333C83.571 125.459 84.758 124.964 85.6332 124.082C86.5083 123.201 87 122.006 87 120.759V87.859L80 78.459H52Z" stroke="white" stroke-width="5" stroke-linecap="round" stroke-linejoin="round"/>
<g filter="url(#filter1_d)">
<circle cx="65" cy="102" r="61" fill="#848484" fill-opacity="0.65"/>
</g>
<defs>
<filter id="filter0_d" x="0" y="40.459" width="130" height="130" filterUnits="userSpaceOnUse" color-interpolation-filters="sRGB">
<feFlood flood-opacity="0" result="BackgroundImageFix"/>
<feColorMatrix in="SourceAlpha" type="matrix" values="0 0 0 0 0 0 0 0 0 0 0 0 0 0 0 0 0 0 127 0"/>
<feOffset dy="4"/>
<feGaussianBlur stdDeviation="2"/>
<feColorMatrix type="matrix" values="0 0 0 0 0 0 0 0 0 0 0 0 0 0 0 0 0 0 0.25 0"/>
<feBlend mode="normal" in2="BackgroundImageFix" result="effect1_dropShadow"/>
<feBlend mode="normal" in="SourceGraphic" in2="effect1_dropShadow" result="shape"/>
</filter>
<filter id="filter1_d" x="0" y="41" width="130" height="130" filterUnits="userSpaceOnUse" color-interpolation-filters="sRGB">
<feFlood flood-opacity="0" result="BackgroundImageFix"/>
<feColorMatrix in="SourceAlpha" type="matrix" values="0 0 0 0 0 0 0 0 0 0 0 0 0 0 0 0 0 0 127 0"/>
<feOffset dy="4"/>
<feGaussianBlur stdDeviation="2"/>
<feColorMatrix type="matrix" values="0 0 0 0 0 0 0 0 0 0 0 0 0 0 0 0 0 0 0.25 0"/>
<feBlend mode="normal" in2="BackgroundImageFix" result="effect1_dropShadow"/>
<feBlend mode="normal" in="SourceGraphic" in2="effect1_dropShadow" result="shape"/>
</filter>
</defs>
</svg>
