<svg width="130" height="171" viewBox="0 0 130 171" fill="none" xmlns="http://www.w3.org/2000/svg">
<path d="M40.7592 33.8588C41.1673 34.5998 41.3456 35.3339 41.294 36.061C41.2495 36.7637 40.9625 37.5485 40.4331 38.4155C40.0865 39.0174 39.6097 39.5882 39.0028 40.128C38.3959 40.6678 37.7377 41.133 37.0282 41.5238C36.303 41.9233 35.274 42.1818 33.9413 42.2993C32.9604 42.3464 32.098 42.2357 31.3542 41.9672C30.6261 41.6901 30.0928 41.2441 29.7541 40.6292C29.5196 40.2035 29.4449 39.8439 29.5299 39.5505C29.6062 39.2413 29.8572 38.9695 30.2829 38.735C30.5036 38.6135 30.7843 38.5822 31.125 38.6411C31.4571 38.6843 31.6945 38.7795 31.8373 38.9269C32.4141 39.4518 33.0739 39.7357 33.8168 39.7786C34.551 39.8058 35.328 39.5936 36.1479 39.142C37.0939 38.621 37.7867 38.0133 38.2263 37.3191C38.6817 36.6162 38.7488 35.973 38.4274 35.3897C38.1148 34.8221 37.4901 34.5086 36.5532 34.4492C35.6163 34.3898 34.7375 34.4732 33.9167 34.6992C32.7198 34.9886 31.6107 35.1576 30.5895 35.2063C29.5281 35.2566 28.6274 35.0951 27.8875 34.7218C27.1476 34.3484 26.5952 33.8306 26.2305 33.1684C25.8918 32.5535 25.7617 31.8135 25.84 30.9484C25.9097 30.0675 26.158 29.3245 26.5851 28.7194C26.8136 28.388 27.2584 27.9272 27.9197 27.3369C28.5881 26.7222 29.0957 26.3193 29.4426 26.1283C29.8998 25.8765 30.4347 25.6538 31.0473 25.4602C31.66 25.2666 32.1962 25.1768 32.6559 25.1907C33.5667 25.2028 34.2746 25.2753 34.7793 25.4083C35.2841 25.5412 35.6668 25.8442 35.9273 26.3172C36.0836 26.601 36.1122 26.9141 36.013 27.2564C35.9296 27.59 35.6278 27.9001 35.1075 28.1867C34.9813 28.2561 34.8248 28.2704 34.6379 28.2295C34.451 28.1886 34.2021 28.1099 33.8914 27.9934C33.4567 27.8013 33.0908 27.7151 32.7935 27.735C32.5136 27.7864 32.1189 27.8908 31.6096 28.048C31.116 28.1966 30.6958 28.3664 30.3489 28.5574C29.9705 28.7658 29.6198 29.0618 29.2967 29.4452C28.9736 29.8287 28.7526 30.2483 28.6338 30.7042C28.5221 31.1356 28.5705 31.5405 28.7789 31.9189C28.9526 32.2343 29.2464 32.432 29.6605 32.5122C30.0816 32.568 30.5363 32.5539 31.0243 32.47C31.6016 32.3987 32.2052 32.282 32.8351 32.12C33.682 31.9412 34.3861 31.8206 34.9476 31.7579C35.5161 31.6708 36.0949 31.6397 36.684 31.6646C37.7084 31.6963 38.5286 31.861 39.1447 32.1588C39.7521 32.4407 40.2903 33.0074 40.7592 33.8588Z" fill="#9A795A"/>
<path d="M41.294 36.061L40.7952 36.0256L40.795 36.0294L41.294 36.061ZM40.4331 38.4155L40.0062 38.1548L39.9998 38.166L40.4331 38.4155ZM39.0028 40.128L39.3351 40.5016L39.0028 40.128ZM33.9413 42.2993L33.9653 42.7987L33.9753 42.7982L33.9853 42.7973L33.9413 42.2993ZM31.3542 41.9672L31.1762 42.4346L31.1844 42.4376L31.3542 41.9672ZM29.5299 39.5505L30.0101 39.6896L30.0129 39.68L30.0153 39.6703L29.5299 39.5505ZM31.125 38.6411L31.0398 39.1338L31.0502 39.1356L31.0606 39.1369L31.125 38.6411ZM31.8373 38.9269L31.4783 39.2749L31.4892 39.2862L31.5008 39.2967L31.8373 38.9269ZM33.8168 39.7786L33.788 40.2779L33.7983 40.2783L33.8168 39.7786ZM38.2263 37.3191L37.8067 37.0472L37.8039 37.0516L38.2263 37.3191ZM36.5532 34.4492L36.5848 33.9502L36.5848 33.9502L36.5532 34.4492ZM33.9167 34.6992L34.0342 35.1852L34.0418 35.1834L34.0494 35.1813L33.9167 34.6992ZM30.5895 35.2063L30.6132 35.7057L30.6133 35.7057L30.5895 35.2063ZM27.8875 34.7218L27.6622 35.1681L27.6622 35.1681L27.8875 34.7218ZM25.84 30.9484L26.338 30.9935L26.3384 30.9878L25.84 30.9484ZM26.5851 28.7194L26.9936 29.0077L26.9967 29.0032L26.5851 28.7194ZM27.9197 27.3369L28.2527 27.71L28.2582 27.705L27.9197 27.3369ZM31.0473 25.4602L30.8967 24.9834L30.8967 24.9834L31.0473 25.4602ZM32.6559 25.1907L32.6408 25.6905L32.6493 25.6907L32.6559 25.1907ZM36.013 27.2564L35.5328 27.1173L35.5302 27.1262L35.5279 27.1351L36.013 27.2564ZM34.6379 28.2295L34.531 28.718L34.531 28.718L34.6379 28.2295ZM33.8914 27.9934L33.6892 28.4507L33.7023 28.4565L33.7158 28.4616L33.8914 27.9934ZM32.7935 27.735L32.7601 27.2361L32.7314 27.2381L32.7031 27.2432L32.7935 27.735ZM31.6096 28.048L31.7537 28.5268L31.7571 28.5258L31.6096 28.048ZM29.2967 29.4452L29.6791 29.7674L29.6791 29.7674L29.2967 29.4452ZM28.6338 30.7042L28.15 30.5781L28.1498 30.5789L28.6338 30.7042ZM29.6605 32.5122L29.5654 33.0031L29.5801 33.0059L29.5949 33.0079L29.6605 32.5122ZM31.0243 32.47L30.963 31.9738L30.9513 31.9752L30.9397 31.9772L31.0243 32.47ZM32.8351 32.12L32.7319 31.6307L32.7212 31.633L32.7106 31.6357L32.8351 32.12ZM34.9476 31.7579L35.003 32.2548L35.0132 32.2537L35.0233 32.2522L34.9476 31.7579ZM36.684 31.6646L36.6629 32.1642L36.6685 32.1644L36.684 31.6646ZM39.1447 32.1588L38.9271 32.609L38.9342 32.6123L39.1447 32.1588ZM40.3212 34.1C40.6905 34.7705 40.839 35.4093 40.7953 36.0256L41.7927 36.0964C41.8522 35.2585 41.6442 34.4292 41.1972 33.6176L40.3212 34.1ZM40.795 36.0294C40.7574 36.6231 40.5109 37.3286 40.0064 38.1549L40.8598 38.6761C41.4141 37.7684 41.7416 36.9043 41.793 36.0926L40.795 36.0294ZM39.9998 38.166C39.6841 38.7142 39.2439 39.2444 38.6705 39.7544L39.3351 40.5016C39.9755 39.9321 40.4889 39.3205 40.8664 38.665L39.9998 38.166ZM38.6705 39.7544C38.0914 40.2694 37.4638 40.7131 36.787 41.0858L37.2694 41.9618C38.0117 41.553 38.7004 41.0661 39.3351 40.5016L38.6705 39.7544ZM36.787 41.0858C36.1487 41.4374 35.1984 41.6865 33.8974 41.8012L33.9853 42.7973C35.3496 42.677 36.4572 42.4091 37.2694 41.9618L36.787 41.0858ZM33.9174 41.7998C32.9868 41.8445 32.1926 41.7383 31.5239 41.4969L31.1844 42.4376C32.0033 42.7331 32.9339 42.8482 33.9653 42.7987L33.9174 41.7998ZM31.532 41.5C30.9017 41.26 30.4672 40.8875 30.192 40.388L29.3161 40.8704C29.7183 41.6007 30.3505 42.1202 31.1763 42.4345L31.532 41.5ZM30.192 40.388C29.9851 40.0122 29.9788 39.7979 30.0101 39.6896L29.0496 39.4114C28.911 39.8899 29.0541 40.3948 29.3161 40.8704L30.192 40.388ZM30.0153 39.6703C30.044 39.5541 30.1567 39.3754 30.5241 39.173L30.0417 38.2971C29.5576 38.5637 29.1684 38.9285 29.0444 39.4307L30.0153 39.6703ZM30.5241 39.173C30.6141 39.1235 30.7697 39.0871 31.0398 39.1338L31.2103 38.1484C30.7989 38.0773 30.3932 38.1035 30.0417 38.2971L30.5241 39.173ZM31.0606 39.1369C31.346 39.174 31.4502 39.2459 31.4783 39.2749L32.1964 38.579C31.9388 38.3132 31.5682 38.1945 31.1895 38.1453L31.0606 39.1369ZM31.5008 39.2967C32.1579 39.8947 32.9249 40.2279 33.788 40.2778L33.8456 39.2794C33.2229 39.2435 32.6703 39.0089 32.1738 38.5571L31.5008 39.2967ZM33.7983 40.2783C34.6447 40.3096 35.5113 40.0634 36.3891 39.58L35.9067 38.704C35.1448 39.1237 34.4573 39.302 33.8353 39.2789L33.7983 40.2783ZM36.3891 39.58C37.3865 39.0306 38.1521 38.3709 38.6488 37.5866L37.8039 37.0516C37.4213 37.6557 36.8013 38.2113 35.9067 38.704L36.3891 39.58ZM38.646 37.591C39.1711 36.7804 39.2997 35.9369 38.8654 35.1485L37.9895 35.6309C38.1979 36.0092 38.1923 36.452 37.8067 37.0472L38.646 37.591ZM38.8654 35.1485C38.4369 34.3705 37.6094 34.0151 36.5848 33.9502L36.5216 34.9482C37.3707 35.002 37.7927 35.2736 37.9895 35.6309L38.8654 35.1485ZM36.5848 33.9502C35.5982 33.8877 34.6634 33.975 33.7839 34.2172L34.0494 35.1813C34.8115 34.9714 35.6344 34.892 36.5216 34.9482L36.5848 33.9502ZM33.7992 34.2132C32.627 34.4966 31.5497 34.6599 30.5657 34.7069L30.6133 35.7057C31.6717 35.6552 32.8125 35.4805 34.0342 35.1852L33.7992 34.2132ZM30.5658 34.7069C29.5668 34.7542 28.7569 34.6004 28.1127 34.2754L27.6622 35.1681C28.498 35.5898 29.4894 35.759 30.6132 35.7057L30.5658 34.7069ZM28.1127 34.2754C27.4537 33.9428 26.9799 33.4927 26.6685 32.9272L25.7925 33.4096C26.2106 34.1686 26.8414 34.754 27.6622 35.1681L28.1127 34.2754ZM26.6685 32.9272C26.3882 32.4184 26.2665 31.783 26.338 30.9935L25.342 30.9033C25.2569 31.844 25.3954 32.6887 25.7925 33.4096L26.6685 32.9272ZM26.3384 30.9878C26.4024 30.179 26.6275 29.5263 26.9936 29.0077L26.1766 28.4311C25.6885 29.1226 25.4169 29.9559 25.3416 30.909L26.3384 30.9878ZM26.9967 29.0032C27.1887 28.7248 27.5944 28.2976 28.2527 27.71L27.5868 26.9639C26.9225 27.5568 26.4384 28.0512 26.1734 28.4355L26.9967 29.0032ZM28.2582 27.705C28.925 27.0916 29.3944 26.7256 29.6838 26.5663L29.2013 25.6903C28.797 25.913 28.2511 26.3528 27.5812 26.9689L28.2582 27.705ZM29.6838 26.5663C30.1065 26.3334 30.6099 26.1228 31.198 25.9369L30.8967 24.9834C30.2596 25.1847 29.6931 25.4195 29.2013 25.6903L29.6838 26.5663ZM31.198 25.9369C31.7767 25.7541 32.2546 25.6788 32.6408 25.6905L32.671 24.6909C32.1377 24.6748 31.5433 24.7791 30.8967 24.9834L31.198 25.9369ZM32.6493 25.6907C33.5448 25.7025 34.2053 25.7741 34.652 25.8918L34.9067 24.9248C34.3438 24.7765 33.5887 24.703 32.6625 24.6907L32.6493 25.6907ZM34.652 25.8918C35.0194 25.9885 35.2923 26.2006 35.4893 26.5584L36.3652 26.076C36.0413 25.4878 35.5489 25.0939 34.9067 24.9248L34.652 25.8918ZM35.4893 26.5584C35.575 26.7139 35.5991 26.8883 35.5328 27.1173L36.4933 27.3955C36.6253 26.9398 36.5922 26.4881 36.3652 26.076L35.4893 26.5584ZM35.5279 27.1351C35.4959 27.2632 35.3481 27.4833 34.8663 27.7487L35.3487 28.6246C35.9074 28.3169 36.3633 27.9168 36.4981 27.3776L35.5279 27.1351ZM34.8663 27.7487C34.869 27.7472 34.8659 27.7501 34.85 27.7516C34.8324 27.7532 34.7987 27.7529 34.7448 27.7411L34.531 28.718C34.7968 28.7761 35.0858 28.7695 35.3487 28.6246L34.8663 27.7487ZM34.7448 27.7411C34.5921 27.7077 34.369 27.6385 34.0669 27.5252L33.7158 28.4616C34.0353 28.5814 34.3099 28.6696 34.531 28.718L34.7448 27.7411ZM34.0935 27.5361C33.6244 27.3287 33.1723 27.2085 32.7601 27.2361L32.8269 28.2339C33.0092 28.2217 33.2891 28.2738 33.6892 28.4507L34.0935 27.5361ZM32.7031 27.2432C32.3939 27.3001 31.977 27.4113 31.4621 27.5703L31.7571 28.5258C32.2608 28.3703 32.6332 28.2728 32.8838 28.2268L32.7031 27.2432ZM31.4655 27.5692C30.9477 27.7251 30.493 27.9072 30.1077 28.1194L30.5902 28.9954C30.8986 28.8255 31.2843 28.6681 31.7537 28.5268L31.4655 27.5692ZM30.1077 28.1194C29.6677 28.3618 29.2707 28.7001 28.9143 29.123L29.6791 29.7674C29.9689 29.4234 30.2734 29.1698 30.5902 28.9954L30.1077 28.1194ZM28.9143 29.123C28.5464 29.5597 28.2888 30.0455 28.15 30.5781L29.1177 30.8303C29.2165 30.4511 29.4008 30.0976 29.6791 29.7674L28.9143 29.123ZM28.1498 30.5789C28.0072 31.1295 28.0688 31.6661 28.3409 32.1602L29.2168 31.6777C29.0721 31.415 29.037 31.1417 29.1179 30.8295L28.1498 30.5789ZM28.3409 32.1602C28.5988 32.6284 29.0335 32.9001 29.5654 33.0031L29.7556 32.0213C29.4594 31.964 29.3063 31.8402 29.2168 31.6777L28.3409 32.1602ZM29.5949 33.0079C30.0735 33.0712 30.5793 33.0538 31.109 32.9628L30.9397 31.9772C30.4932 32.054 30.0898 32.0647 29.7261 32.0166L29.5949 33.0079ZM31.0857 32.9662C31.6865 32.892 32.3113 32.771 32.9597 32.6042L32.7106 31.6357C32.099 31.793 31.5166 31.9054 30.963 31.9738L31.0857 32.9662ZM32.9384 32.6092C33.7768 32.4322 34.4637 32.315 35.003 32.2548L34.8921 31.261C34.3086 31.3261 33.5872 31.4502 32.7319 31.6307L32.9384 32.6092ZM35.0233 32.2522C35.559 32.1701 36.1054 32.1406 36.6629 32.1642L36.7051 31.1651C36.0845 31.1388 35.4732 31.1716 34.8719 31.2637L35.0233 32.2522ZM36.6685 32.1644C37.6546 32.1949 38.3976 32.3531 38.9272 32.609L39.3623 31.7086C38.6596 31.369 37.7622 31.1978 36.6995 31.1649L36.6685 32.1644ZM38.9342 32.6123C39.4103 32.8333 39.8814 33.3014 40.3212 34.1L41.1972 33.6176C40.6992 32.7134 40.0939 32.0481 39.3552 31.7052L38.9342 32.6123Z" fill="#9A795A"/>
<path d="M57.303 25.3688C57.2235 25.0914 57.122 24.6714 56.9982 24.1088L56.7779 23.1068C56.6309 22.4387 56.5032 21.9416 56.3946 21.6153C56.2975 21.3417 56.1195 20.616 55.8605 19.4382C55.7677 19.0163 55.8192 18.664 56.0151 18.3813C56.2247 18.0772 56.5492 17.8768 56.9887 17.7802C57.5513 17.6564 57.9563 17.6964 58.2038 17.9C58.4513 18.1036 58.6369 18.4866 58.7606 19.0492L58.981 20.0512L59.5925 22.9577C59.6987 23.5241 59.8755 24.3699 60.1229 25.495L60.6248 27.6516C60.7158 27.9817 60.8271 28.4456 60.9585 29.0434C61.0629 29.518 61.2294 30.191 61.4578 31.0622C61.6708 31.8632 61.8218 32.4658 61.9107 32.8702C61.9842 33.2042 61.9551 33.5331 61.8236 33.8569C61.7097 34.1768 61.4945 34.3716 61.1781 34.4412C59.9475 34.7118 59.2413 34.434 59.0596 33.6078C58.9591 33.1507 58.8645 32.637 58.776 32.0667C58.7222 31.6546 58.6045 31.0355 58.4228 30.2092C58.2952 29.6291 58.094 28.7979 57.8191 27.7157C57.0083 27.9677 55.5921 28.316 53.5704 28.7606C52.3046 29.039 51.3202 29.2555 50.617 29.4102C49.9099 29.5472 49.3904 29.6154 49.0585 29.6147L49.6991 32.653C49.7416 32.8464 49.8996 33.3553 50.1731 34.1798C50.3847 34.7231 50.5369 35.2056 50.6297 35.6275C50.6877 35.8912 50.5855 36.1809 50.3232 36.4967C50.0746 36.7909 49.8185 36.967 49.5548 37.025C48.9219 37.1642 48.4583 37.1095 48.164 36.8609C47.8659 36.5947 47.6473 36.1452 47.5081 35.5123L47.0236 33.4349C46.9519 33.1927 46.8677 32.8518 46.771 32.4123C46.628 31.7618 46.4152 30.8779 46.1326 29.7605C45.8732 28.7486 45.6932 28.0141 45.5927 27.5571C45.4419 26.8715 45.2488 25.9095 45.0133 24.6712C44.7933 23.5031 44.6214 22.6379 44.4977 22.0753C44.374 21.5128 44.4315 21.1039 44.6703 20.8486C44.909 20.5934 45.2042 20.4271 45.5558 20.3498C46.5403 20.1333 47.104 20.3502 47.2471 21.0007C47.5022 22.161 47.7194 23.2743 47.8987 24.3407C48.1573 25.6845 48.3543 26.6641 48.4896 27.2794C49.0265 27.2903 49.5801 27.2515 50.1504 27.1629C50.7207 27.0744 51.5156 26.918 52.5353 26.6937C54.6097 26.2375 56.1989 25.7959 57.303 25.3688Z" fill="#9A795A"/>
<path d="M57.303 25.3688L57.4834 25.8351L57.9094 25.6703L57.7836 25.2311L57.303 25.3688ZM56.3946 21.6153L56.8691 21.4573L56.8658 21.4481L56.3946 21.6153ZM56.0151 18.3813L56.4261 18.6661L56.4268 18.665L56.0151 18.3813ZM58.2038 17.9L57.8862 18.2861L57.8862 18.2861L58.2038 17.9ZM58.981 20.0512L59.4703 19.9483L59.4693 19.9439L58.981 20.0512ZM59.5925 22.9577L60.0841 22.8656L60.0818 22.8548L59.5925 22.9577ZM60.1229 25.495L59.6345 25.6024L59.6359 25.6084L60.1229 25.495ZM60.6248 27.6516L60.1378 27.7649L60.1401 27.7747L60.1428 27.7845L60.6248 27.6516ZM61.4578 31.0622L60.9742 31.1891L60.9746 31.1907L61.4578 31.0622ZM61.8236 33.8569L61.3604 33.6687L61.3563 33.6789L61.3526 33.6892L61.8236 33.8569ZM58.776 32.0667L58.28 32.1314L58.2819 32.1434L58.776 32.0667ZM57.8191 27.7157L58.3037 27.5926L58.174 27.0818L57.6707 27.2382L57.8191 27.7157ZM50.617 29.4102L50.7121 29.9012L50.7244 29.8985L50.617 29.4102ZM49.0585 29.6147L49.0596 29.1147L48.4418 29.1133L48.5693 29.7178L49.0585 29.6147ZM49.6991 32.653L49.2098 32.7561L49.2107 32.7604L49.6991 32.653ZM50.1731 34.1798L49.6985 34.3372L49.7025 34.3494L49.7072 34.3613L50.1731 34.1798ZM50.3232 36.4967L50.7052 36.8193L50.7078 36.8162L50.3232 36.4967ZM48.164 36.8609L47.8309 37.234L47.8414 37.2429L48.164 36.8609ZM47.5081 35.5123L47.9964 35.4049L47.995 35.3988L47.5081 35.5123ZM47.0236 33.4349L47.5105 33.3213L47.5072 33.3071L47.503 33.293L47.0236 33.4349ZM46.1326 29.7605L46.6173 29.6379L46.6169 29.6364L46.1326 29.7605ZM45.0133 24.6712L44.5219 24.7637L44.5221 24.7646L45.0133 24.6712ZM44.6703 20.8486L44.3051 20.5071L44.3051 20.5071L44.6703 20.8486ZM47.8987 24.3407L47.4054 24.4236L47.4077 24.4352L47.8987 24.3407ZM48.4896 27.2794L48.0013 27.3867L48.0859 27.7712L48.4795 27.7792L48.4896 27.2794ZM57.7836 25.2311C57.7087 24.9693 57.6098 24.5617 57.4866 24.0014L56.5099 24.2162C56.6341 24.781 56.7384 25.2135 56.8223 25.5064L57.7836 25.2311ZM57.4866 24.0014L57.2662 22.9994L56.2895 23.2142L56.5099 24.2162L57.4866 24.0014ZM57.2662 22.9994C57.1184 22.3275 56.9862 21.8094 56.869 21.4574L55.9202 21.7732C56.0202 22.0737 56.1435 22.55 56.2895 23.2142L57.2662 22.9994ZM56.8658 21.4481C56.7816 21.2108 56.6105 20.5208 56.3488 19.3308L55.3722 19.5456C55.6285 20.7112 55.8135 21.4727 55.9233 21.7824L56.8658 21.4481ZM56.3488 19.3308C56.2777 19.0075 56.3287 18.8066 56.4261 18.6661L55.6041 18.0965C55.3097 18.5214 55.2577 19.025 55.3722 19.5456L56.3488 19.3308ZM56.4268 18.665C56.5495 18.487 56.7518 18.3442 57.0961 18.2685L56.8813 17.2918C56.3466 17.4094 55.8998 17.6674 55.6034 18.0976L56.4268 18.665ZM57.0961 18.2685C57.6222 18.1528 57.8246 18.2354 57.8862 18.2861L58.5214 17.5138C58.088 17.1573 57.4803 17.1601 56.8813 17.2918L57.0961 18.2685ZM57.8862 18.2861C58.0013 18.3808 58.1557 18.6262 58.2723 19.1566L59.249 18.9418C59.1182 18.347 58.9013 17.8263 58.5214 17.5138L57.8862 18.2861ZM58.2723 19.1566L58.4927 20.1586L59.4693 19.9439L59.249 18.9418L58.2723 19.1566ZM58.4917 20.1542L59.1033 23.0607L60.0818 22.8548L59.4703 19.9483L58.4917 20.1542ZM59.1011 23.0498C59.2087 23.6242 59.3869 24.4762 59.6346 25.6024L60.6112 25.3876C60.364 24.2637 60.1886 23.4241 60.084 22.8656L59.1011 23.0498ZM59.6359 25.6084L60.1378 27.7649L61.1118 27.5382L60.6099 25.3817L59.6359 25.6084ZM60.1428 27.7845C60.2304 28.1021 60.3394 28.5561 60.4702 29.1508L61.4469 28.936C61.3148 28.3352 61.2013 27.8613 61.1068 27.5186L60.1428 27.7845ZM60.4702 29.1508C60.5768 29.6352 60.7452 30.3158 60.9742 31.1891L61.9415 30.9354C61.7135 30.0662 61.5491 29.4008 61.4469 28.936L60.4702 29.1508ZM60.9746 31.1907C61.1872 31.9901 61.3359 32.5842 61.4224 32.9776L62.399 32.7628C62.3077 32.3474 62.1544 31.7362 61.941 30.9337L60.9746 31.1907ZM61.4224 32.9776C61.4736 33.2105 61.4547 33.4365 61.3604 33.6687L62.2869 34.0451C62.4556 33.6297 62.4947 33.1979 62.399 32.7628L61.4224 32.9776ZM61.3526 33.6892C61.2931 33.8562 61.2091 33.9224 61.0707 33.9529L61.2854 34.9295C61.7799 34.8208 62.1262 34.4975 62.2946 34.0246L61.3526 33.6892ZM61.0707 33.9529C60.4946 34.0795 60.1264 34.0562 59.9085 33.9705C59.7303 33.9004 59.6078 33.7727 59.5479 33.5004L58.5713 33.7152C58.6931 34.2691 59.0145 34.6934 59.5424 34.9011C60.0307 35.0932 60.6309 35.0735 61.2854 34.9295L61.0707 33.9529ZM59.5479 33.5004C59.4501 33.0555 59.3574 32.5523 59.2701 31.99L58.2819 32.1434C58.3717 32.7217 58.4681 33.2459 58.5713 33.7152L59.5479 33.5004ZM59.2718 32.002C59.2151 31.5675 59.0934 30.9309 58.9111 30.1018L57.9344 30.3166C58.1155 31.14 58.2294 31.7418 58.2802 32.1314L59.2718 32.002ZM58.9111 30.1018C58.7818 29.5137 58.579 28.6764 58.3037 27.5926L57.3345 27.8388C57.609 28.9194 57.8086 29.7444 57.9344 30.3166L58.9111 30.1018ZM57.6707 27.2382C56.8824 27.4833 55.4849 27.8277 53.463 28.2723L53.6778 29.249C55.6993 28.8044 57.1343 28.4522 57.9675 28.1931L57.6707 27.2382ZM53.463 28.2723C53.4605 28.2729 53.458 28.2734 53.4556 28.2739C53.4531 28.2745 53.4506 28.275 53.4482 28.2756C53.4457 28.2761 53.4432 28.2767 53.4408 28.2772C53.4383 28.2777 53.4358 28.2783 53.4334 28.2788C53.4309 28.2794 53.4285 28.2799 53.426 28.2805C53.4235 28.281 53.4211 28.2815 53.4186 28.2821C53.4161 28.2826 53.4137 28.2832 53.4112 28.2837C53.4088 28.2842 53.4063 28.2848 53.4039 28.2853C53.4014 28.2859 53.399 28.2864 53.3965 28.2869C53.3941 28.2875 53.3916 28.288 53.3891 28.2886C53.3867 28.2891 53.3842 28.2896 53.3818 28.2902C53.3794 28.2907 53.3769 28.2912 53.3745 28.2918C53.372 28.2923 53.3696 28.2929 53.3671 28.2934C53.3647 28.2939 53.3622 28.2945 53.3598 28.295C53.3573 28.2955 53.3549 28.2961 53.3525 28.2966C53.35 28.2972 53.3476 28.2977 53.3452 28.2982C53.3427 28.2988 53.3403 28.2993 53.3378 28.2998C53.3354 28.3004 53.333 28.3009 53.3305 28.3014C53.3281 28.302 53.3257 28.3025 53.3232 28.303C53.3208 28.3036 53.3184 28.3041 53.3159 28.3047C53.3135 28.3052 53.3111 28.3057 53.3087 28.3063C53.3062 28.3068 53.3038 28.3073 53.3014 28.3079C53.299 28.3084 53.2965 28.3089 53.2941 28.3095C53.2917 28.31 53.2893 28.3105 53.2868 28.3111C53.2844 28.3116 53.282 28.3121 53.2796 28.3126C53.2772 28.3132 53.2748 28.3137 53.2723 28.3142C53.2699 28.3148 53.2675 28.3153 53.2651 28.3158C53.2627 28.3164 53.2603 28.3169 53.2579 28.3174C53.2554 28.318 53.253 28.3185 53.2506 28.319C53.2482 28.3195 53.2458 28.3201 53.2434 28.3206C53.241 28.3211 53.2386 28.3217 53.2362 28.3222C53.2338 28.3227 53.2314 28.3233 53.229 28.3238C53.2266 28.3243 53.2242 28.3248 53.2218 28.3254C53.2194 28.3259 53.217 28.3264 53.2146 28.327C53.2122 28.3275 53.2098 28.328 53.2074 28.3285C53.205 28.3291 53.2026 28.3296 53.2002 28.3301C53.1978 28.3306 53.1954 28.3312 53.193 28.3317C53.1906 28.3322 53.1882 28.3327 53.1858 28.3333C53.1834 28.3338 53.181 28.3343 53.1786 28.3348C53.1763 28.3354 53.1739 28.3359 53.1715 28.3364C53.1691 28.3369 53.1667 28.3375 53.1643 28.338C53.1619 28.3385 53.1596 28.339 53.1572 28.3396C53.1548 28.3401 53.1524 28.3406 53.15 28.3411C53.1477 28.3417 53.1453 28.3422 53.1429 28.3427C53.1405 28.3432 53.1381 28.3438 53.1358 28.3443C53.1334 28.3448 53.131 28.3453 53.1286 28.3458C53.1263 28.3464 53.1239 28.3469 53.1215 28.3474C53.1192 28.3479 53.1168 28.3485 53.1144 28.349C53.112 28.3495 53.1097 28.35 53.1073 28.3505C53.1049 28.3511 53.1026 28.3516 53.1002 28.3521C53.0978 28.3526 53.0955 28.3531 53.0931 28.3537C53.0908 28.3542 53.0884 28.3547 53.086 28.3552C53.0837 28.3557 53.0813 28.3563 53.079 28.3568C53.0766 28.3573 53.0742 28.3578 53.0719 28.3583C53.0695 28.3588 53.0672 28.3594 53.0648 28.3599C53.0625 28.3604 53.0601 28.3609 53.0578 28.3614C53.0554 28.362 53.0531 28.3625 53.0507 28.363C53.0484 28.3635 53.046 28.364 53.0437 28.3645C53.0413 28.365 53.039 28.3656 53.0366 28.3661C53.0343 28.3666 53.0319 28.3671 53.0296 28.3676C53.0272 28.3681 53.0249 28.3687 53.0226 28.3692C53.0202 28.3697 53.0179 28.3702 53.0155 28.3707C53.0132 28.3712 53.0109 28.3717 53.0085 28.3723C53.0062 28.3728 53.0039 28.3733 53.0015 28.3738C52.9992 28.3743 52.9969 28.3748 52.9945 28.3753C52.9922 28.3759 52.9899 28.3764 52.9875 28.3769C52.9852 28.3774 52.9829 28.3779 52.9805 28.3784C52.9782 28.3789 52.9759 28.3794 52.9736 28.38C52.9712 28.3805 52.9689 28.381 52.9666 28.3815C52.9643 28.382 52.9619 28.3825 52.9596 28.383C52.9573 28.3835 52.955 28.384 52.9526 28.3846C52.9503 28.3851 52.948 28.3856 52.9457 28.3861C52.9434 28.3866 52.9411 28.3871 52.9387 28.3876C52.9364 28.3881 52.9341 28.3886 52.9318 28.3891C52.9295 28.3896 52.9272 28.3902 52.9249 28.3907C52.9225 28.3912 52.9202 28.3917 52.9179 28.3922C52.9156 28.3927 52.9133 28.3932 52.911 28.3937C52.9087 28.3942 52.9064 28.3947 52.9041 28.3952C52.9018 28.3957 52.8995 28.3962 52.8972 28.3967C52.8949 28.3973 52.8926 28.3978 52.8903 28.3983C52.888 28.3988 52.8857 28.3993 52.8834 28.3998C52.8811 28.4003 52.8788 28.4008 52.8765 28.4013C52.8742 28.4018 52.8719 28.4023 52.8696 28.4028C52.8673 28.4033 52.865 28.4038 52.8627 28.4043C52.8604 28.4048 52.8581 28.4053 52.8558 28.4058C52.8536 28.4063 52.8513 28.4068 52.849 28.4073C52.8467 28.4079 52.8444 28.4084 52.8421 28.4089C52.8398 28.4094 52.8375 28.4099 52.8353 28.4104C52.833 28.4109 52.8307 28.4114 52.8284 28.4119C52.8261 28.4124 52.8239 28.4129 52.8216 28.4134C52.8193 28.4139 52.817 28.4144 52.8147 28.4149C52.8125 28.4154 52.8102 28.4159 52.8079 28.4164C52.8056 28.4169 52.8034 28.4174 52.8011 28.4179C52.7988 28.4184 52.7966 28.4189 52.7943 28.4194C52.792 28.4199 52.7897 28.4204 52.7875 28.4209C52.7852 28.4214 52.7829 28.4219 52.7807 28.4224C52.7784 28.4229 52.7761 28.4234 52.7739 28.4239C52.7716 28.4244 52.7694 28.4249 52.7671 28.4254C52.7648 28.4259 52.7626 28.4264 52.7603 28.4268C52.758 28.4273 52.7558 28.4278 52.7535 28.4283C52.7513 28.4288 52.749 28.4293 52.7468 28.4298C52.7445 28.4303 52.7423 28.4308 52.74 28.4313C52.7377 28.4318 52.7355 28.4323 52.7332 28.4328C52.731 28.4333 52.7287 28.4338 52.7265 28.4343C52.7242 28.4348 52.722 28.4353 52.7197 28.4358C52.7175 28.4363 52.7153 28.4368 52.713 28.4373C52.7108 28.4377 52.7085 28.4382 52.7063 28.4387C52.704 28.4392 52.7018 28.4397 52.6996 28.4402C52.6973 28.4407 52.6951 28.4412 52.6928 28.4417C52.6906 28.4422 52.6884 28.4427 52.6861 28.4432C52.6839 28.4437 52.6817 28.4441 52.6794 28.4446C52.6772 28.4451 52.675 28.4456 52.6727 28.4461C52.6705 28.4466 52.6683 28.4471 52.666 28.4476C52.6638 28.4481 52.6616 28.4486 52.6593 28.4491C52.6571 28.4495 52.6549 28.45 52.6527 28.4505C52.6504 28.451 52.6482 28.4515 52.646 28.452C52.6438 28.4525 52.6415 28.453 52.6393 28.4535C52.6371 28.4539 52.6349 28.4544 52.6327 28.4549C52.6304 28.4554 52.6282 28.4559 52.626 28.4564C52.6238 28.4569 52.6216 28.4574 52.6194 28.4578C52.6171 28.4583 52.6149 28.4588 52.6127 28.4593C52.6105 28.4598 52.6083 28.4603 52.6061 28.4608C52.6039 28.4613 52.6017 28.4617 52.5995 28.4622C52.5973 28.4627 52.595 28.4632 52.5928 28.4637C52.5906 28.4642 52.5884 28.4646 52.5862 28.4651C52.584 28.4656 52.5818 28.4661 52.5796 28.4666C52.5774 28.4671 52.5752 28.4676 52.573 28.468C52.5708 28.4685 52.5686 28.469 52.5664 28.4695C52.5642 28.47 52.562 28.4705 52.5598 28.4709C52.5576 28.4714 52.5554 28.4719 52.5532 28.4724C52.5511 28.4729 52.5489 28.4734 52.5467 28.4738C52.5445 28.4743 52.5423 28.4748 52.5401 28.4753C52.5379 28.4758 52.5357 28.4762 52.5335 28.4767C52.5313 28.4772 52.5292 28.4777 52.527 28.4782C52.5248 28.4786 52.5226 28.4791 52.5204 28.4796C52.5182 28.4801 52.5161 28.4806 52.5139 28.481C52.5117 28.4815 52.5095 28.482 52.5073 28.4825C52.5052 28.483 52.503 28.4834 52.5008 28.4839C52.4986 28.4844 52.4965 28.4849 52.4943 28.4854C52.4921 28.4858 52.4899 28.4863 52.4878 28.4868C52.4856 28.4873 52.4834 28.4877 52.4813 28.4882C52.4791 28.4887 52.4769 28.4892 52.4748 28.4896C52.4726 28.4901 52.4704 28.4906 52.4683 28.4911C52.4661 28.4916 52.4639 28.492 52.4618 28.4925C52.4596 28.493 52.4574 28.4935 52.4553 28.4939C52.4531 28.4944 52.451 28.4949 52.4488 28.4954C52.4466 28.4958 52.4445 28.4963 52.4423 28.4968C52.4402 28.4973 52.438 28.4977 52.4359 28.4982C52.4337 28.4987 52.4315 28.4992 52.4294 28.4996C52.4272 28.5001 52.4251 28.5006 52.4229 28.501C52.4208 28.5015 52.4186 28.502 52.4165 28.5025C52.4143 28.5029 52.4122 28.5034 52.4101 28.5039C52.4079 28.5043 52.4058 28.5048 52.4036 28.5053C52.4015 28.5058 52.3993 28.5062 52.3972 28.5067C52.395 28.5072 52.3929 28.5076 52.3908 28.5081C52.3886 28.5086 52.3865 28.5091 52.3844 28.5095C52.3822 28.51 52.3801 28.5105 52.3779 28.5109C52.3758 28.5114 52.3737 28.5119 52.3715 28.5123C52.3694 28.5128 52.3673 28.5133 52.3651 28.5138C52.363 28.5142 52.3609 28.5147 52.3588 28.5152C52.3566 28.5156 52.3545 28.5161 52.3524 28.5166C52.3502 28.517 52.3481 28.5175 52.346 28.518C52.3439 28.5184 52.3417 28.5189 52.3396 28.5194C52.3375 28.5198 52.3354 28.5203 52.3333 28.5208C52.3311 28.5212 52.329 28.5217 52.3269 28.5222C52.3248 28.5226 52.3227 28.5231 52.3206 28.5236C52.3184 28.524 52.3163 28.5245 52.3142 28.525C52.3121 28.5254 52.31 28.5259 52.3079 28.5263C52.3058 28.5268 52.3036 28.5273 52.3015 28.5277C52.2994 28.5282 52.2973 28.5287 52.2952 28.5291C52.2931 28.5296 52.291 28.5301 52.2889 28.5305C52.2868 28.531 52.2847 28.5314 52.2826 28.5319C52.2805 28.5324 52.2784 28.5328 52.2763 28.5333C52.2742 28.5338 52.2721 28.5342 52.27 28.5347C52.2679 28.5351 52.2658 28.5356 52.2637 28.5361C52.2616 28.5365 52.2595 28.537 52.2574 28.5374C52.2553 28.5379 52.2532 28.5384 52.2511 28.5388C52.249 28.5393 52.2469 28.5398 52.2448 28.5402C52.2428 28.5407 52.2407 28.5411 52.2386 28.5416C52.2365 28.542 52.2344 28.5425 52.2323 28.543C52.2302 28.5434 52.2281 28.5439 52.2261 28.5443C52.224 28.5448 52.2219 28.5453 52.2198 28.5457C52.2177 28.5462 52.2156 28.5466 52.2136 28.5471C52.2115 28.5475 52.2094 28.548 52.2073 28.5485C52.2053 28.5489 52.2032 28.5494 52.2011 28.5498C52.199 28.5503 52.197 28.5507 52.1949 28.5512C52.1928 28.5517 52.1907 28.5521 52.1887 28.5526C52.1866 28.553 52.1845 28.5535 52.1825 28.5539C52.1804 28.5544 52.1783 28.5548 52.1763 28.5553C52.1742 28.5557 52.1721 28.5562 52.1701 28.5567C52.168 28.5571 52.1659 28.5576 52.1639 28.558C52.1618 28.5585 52.1597 28.5589 52.1577 28.5594C52.1556 28.5598 52.1536 28.5603 52.1515 28.5607C52.1495 28.5612 52.1474 28.5616 52.1453 28.5621C52.1433 28.5625 52.1412 28.563 52.1392 28.5634C52.1371 28.5639 52.1351 28.5644 52.133 28.5648C52.131 28.5653 52.1289 28.5657 52.1269 28.5662C52.1248 28.5666 52.1228 28.5671 52.1207 28.5675C52.1187 28.568 52.1166 28.5684 52.1146 28.5689C52.1125 28.5693 52.1105 28.5698 52.1084 28.5702C52.1064 28.5707 52.1044 28.5711 52.1023 28.5716C52.1003 28.572 52.0982 28.5725 52.0962 28.5729C52.0942 28.5733 52.0921 28.5738 52.0901 28.5742C52.0881 28.5747 52.086 28.5751 52.084 28.5756C52.0819 28.576 52.0799 28.5765 52.0779 28.5769C52.0759 28.5774 52.0738 28.5778 52.0718 28.5783C52.0698 28.5787 52.0677 28.5792 52.0657 28.5796C52.0637 28.5801 52.0616 28.5805 52.0596 28.5809C52.0576 28.5814 52.0556 28.5818 52.0535 28.5823C52.0515 28.5827 52.0495 28.5832 52.0475 28.5836C52.0455 28.5841 52.0434 28.5845 52.0414 28.5849C52.0394 28.5854 52.0374 28.5858 52.0354 28.5863C52.0333 28.5867 52.0313 28.5872 52.0293 28.5876C52.0273 28.5881 52.0253 28.5885 52.0233 28.5889C52.0213 28.5894 52.0192 28.5898 52.0172 28.5903C52.0152 28.5907 52.0132 28.5911 52.0112 28.5916C52.0092 28.592 52.0072 28.5925 52.0052 28.5929C52.0032 28.5934 52.0012 28.5938 51.9992 28.5942C51.9972 28.5947 51.9952 28.5951 51.9932 28.5956C51.9912 28.596 51.9892 28.5964 51.9872 28.5969C51.9852 28.5973 51.9832 28.5978 51.9812 28.5982C51.9792 28.5986 51.9772 28.5991 51.9752 28.5995C51.9732 28.6 51.9712 28.6004 51.9692 28.6008C51.9672 28.6013 51.9652 28.6017 51.9632 28.6021C51.9612 28.6026 51.9592 28.603 51.9572 28.6035C51.9552 28.6039 51.9533 28.6043 51.9513 28.6048C51.9493 28.6052 51.9473 28.6056 51.9453 28.6061C51.9433 28.6065 51.9413 28.607 51.9394 28.6074C51.9374 28.6078 51.9354 28.6083 51.9334 28.6087C51.9314 28.6091 51.9295 28.6096 51.9275 28.61C51.9255 28.6104 51.9235 28.6109 51.9215 28.6113C51.9196 28.6117 51.9176 28.6122 51.9156 28.6126C51.9136 28.613 51.9117 28.6135 51.9097 28.6139C51.9077 28.6143 51.9058 28.6148 51.9038 28.6152C51.9018 28.6156 51.8998 28.6161 51.8979 28.6165C51.8959 28.6169 51.8939 28.6174 51.892 28.6178C51.89 28.6182 51.888 28.6187 51.8861 28.6191C51.8841 28.6195 51.8822 28.62 51.8802 28.6204C51.8782 28.6208 51.8763 28.6213 51.8743 28.6217C51.8724 28.6221 51.8704 28.6226 51.8684 28.623C51.8665 28.6234 51.8645 28.6238 51.8626 28.6243C51.8606 28.6247 51.8587 28.6251 51.8567 28.6256C51.8548 28.626 51.8528 28.6264 51.8509 28.6269C51.8489 28.6273 51.847 28.6277 51.845 28.6281C51.8431 28.6286 51.8411 28.629 51.8392 28.6294C51.8372 28.6299 51.8353 28.6303 51.8333 28.6307C51.8314 28.6311 51.8294 28.6316 51.8275 28.632C51.8256 28.6324 51.8236 28.6328 51.8217 28.6333C51.8197 28.6337 51.8178 28.6341 51.8159 28.6346C51.8139 28.635 51.812 28.6354 51.81 28.6358C51.8081 28.6363 51.8062 28.6367 51.8042 28.6371C51.8023 28.6375 51.8004 28.638 51.7984 28.6384C51.7965 28.6388 51.7946 28.6392 51.7927 28.6397C51.7907 28.6401 51.7888 28.6405 51.7869 28.6409C51.7849 28.6414 51.783 28.6418 51.7811 28.6422C51.7792 28.6426 51.7772 28.643 51.7753 28.6435C51.7734 28.6439 51.7715 28.6443 51.7696 28.6447C51.7676 28.6452 51.7657 28.6456 51.7638 28.646C51.7619 28.6464 51.76 28.6468 51.758 28.6473C51.7561 28.6477 51.7542 28.6481 51.7523 28.6485C51.7504 28.649 51.7485 28.6494 51.7466 28.6498C51.7446 28.6502 51.7427 28.6506 51.7408 28.6511C51.7389 28.6515 51.737 28.6519 51.7351 28.6523C51.7332 28.6527 51.7313 28.6532 51.7294 28.6536C51.7275 28.654 51.7256 28.6544 51.7237 28.6548C51.7218 28.6552 51.7199 28.6557 51.718 28.6561C51.7161 28.6565 51.7142 28.6569 51.7123 28.6573C51.7104 28.6578 51.7085 28.6582 51.7066 28.6586C51.7047 28.659 51.7028 28.6594 51.7009 28.6598C51.699 28.6603 51.6971 28.6607 51.6952 28.6611C51.6933 28.6615 51.6914 28.6619 51.6895 28.6623C51.6876 28.6628 51.6857 28.6632 51.6839 28.6636C51.682 28.664 51.6801 28.6644 51.6782 28.6648C51.6763 28.6652 51.6744 28.6657 51.6725 28.6661C51.6707 28.6665 51.6688 28.6669 51.6669 28.6673C51.665 28.6677 51.6631 28.6681 51.6612 28.6686C51.6594 28.669 51.6575 28.6694 51.6556 28.6698C51.6537 28.6702 51.6519 28.6706 51.65 28.671C51.6481 28.6714 51.6462 28.6719 51.6444 28.6723C51.6425 28.6727 51.6406 28.6731 51.6387 28.6735C51.6369 28.6739 51.635 28.6743 51.6331 28.6747C51.6313 28.6752 51.6294 28.6756 51.6275 28.676C51.6257 28.6764 51.6238 28.6768 51.6219 28.6772C51.6201 28.6776 51.6182 28.678 51.6163 28.6784C51.6145 28.6788 51.6126 28.6793 51.6107 28.6797C51.6089 28.6801 51.607 28.6805 51.6052 28.6809C51.6033 28.6813 51.6015 28.6817 51.5996 28.6821C51.5977 28.6825 51.5959 28.6829 51.594 28.6833C51.5922 28.6837 51.5903 28.6842 51.5885 28.6846C51.5866 28.685 51.5848 28.6854 51.5829 28.6858C51.5811 28.6862 51.5792 28.6866 51.5774 28.687C51.5755 28.6874 51.5737 28.6878 51.5718 28.6882C51.57 28.6886 51.5681 28.689 51.5663 28.6894C51.5645 28.6898 51.5626 28.6902 51.5608 28.6907C51.5589 28.6911 51.5571 28.6915 51.5553 28.6919C51.5534 28.6923 51.5516 28.6927 51.5497 28.6931C51.5479 28.6935 51.5461 28.6939 51.5442 28.6943C51.5424 28.6947 51.5406 28.6951 51.5387 28.6955C51.5369 28.6959 51.5351 28.6963 51.5332 28.6967C51.5314 28.6971 51.5296 28.6975 51.5277 28.6979C51.5259 28.6983 51.5241 28.6987 51.5223 28.6991C51.5204 28.6995 51.5186 28.6999 51.5168 28.7003C51.515 28.7007 51.5131 28.7011 51.5113 28.7015C51.5095 28.7019 51.5077 28.7023 51.5059 28.7027C51.504 28.7031 51.5022 28.7035 51.5004 28.7039C51.4986 28.7043 51.4968 28.7047 51.4949 28.7051C51.4931 28.7055 51.4913 28.7059 51.4895 28.7063C51.4877 28.7067 51.4859 28.7071 51.4841 28.7075C51.4823 28.7079 51.4804 28.7083 51.4786 28.7087C51.4768 28.7091 51.475 28.7095 51.4732 28.7099C51.4714 28.7103 51.4696 28.7107 51.4678 28.7111C51.466 28.7115 51.4642 28.7119 51.4624 28.7123C51.4606 28.7127 51.4588 28.7131 51.457 28.7135C51.4552 28.7139 51.4534 28.7143 51.4516 28.7147C51.4498 28.7151 51.448 28.7155 51.4462 28.7158C51.4444 28.7162 51.4426 28.7166 51.4408 28.717C51.439 28.7174 51.4372 28.7178 51.4354 28.7182C51.4336 28.7186 51.4318 28.719 51.4301 28.7194C51.4283 28.7198 51.4265 28.7202 51.4247 28.7206C51.4229 28.721 51.4211 28.7214 51.4193 28.7218C51.4175 28.7222 51.4158 28.7225 51.414 28.7229C51.4122 28.7233 51.4104 28.7237 51.4086 28.7241C51.4068 28.7245 51.4051 28.7249 51.4033 28.7253C51.4015 28.7257 51.3997 28.7261 51.398 28.7265C51.3962 28.7268 51.3944 28.7272 51.3926 28.7276C51.3909 28.728 51.3891 28.7284 51.3873 28.7288C51.3855 28.7292 51.3838 28.7296 51.382 28.73C51.3802 28.7304 51.3785 28.7307 51.3767 28.7311C51.3749 28.7315 51.3731 28.7319 51.3714 28.7323C51.3696 28.7327 51.3679 28.7331 51.3661 28.7335C51.3643 28.7339 51.3626 28.7342 51.3608 28.7346C51.359 28.735 51.3573 28.7354 51.3555 28.7358C51.3538 28.7362 51.352 28.7366 51.3502 28.737C51.3485 28.7373 51.3467 28.7377 51.345 28.7381C51.3432 28.7385 51.3415 28.7389 51.3397 28.7393C51.338 28.7397 51.3362 28.74 51.3345 28.7404C51.3327 28.7408 51.331 28.7412 51.3292 28.7416C51.3275 28.742 51.3257 28.7423 51.324 28.7427C51.3222 28.7431 51.3205 28.7435 51.3187 28.7439C51.317 28.7443 51.3152 28.7447 51.3135 28.745C51.3117 28.7454 51.31 28.7458 51.3083 28.7462C51.3065 28.7466 51.3048 28.7469 51.303 28.7473C51.3013 28.7477 51.2996 28.7481 51.2978 28.7485C51.2961 28.7489 51.2944 28.7492 51.2926 28.7496C51.2909 28.75 51.2892 28.7504 51.2874 28.7508C51.2857 28.7511 51.284 28.7515 51.2822 28.7519C51.2805 28.7523 51.2788 28.7527 51.2771 28.753C51.2753 28.7534 51.2736 28.7538 51.2719 28.7542C51.2701 28.7546 51.2684 28.7549 51.2667 28.7553C51.265 28.7557 51.2633 28.7561 51.2615 28.7565C51.2598 28.7568 51.2581 28.7572 51.2564 28.7576C51.2547 28.758 51.2529 28.7584 51.2512 28.7587C51.2495 28.7591 51.2478 28.7595 51.2461 28.7599C51.2444 28.7602 51.2426 28.7606 51.2409 28.761C51.2392 28.7614 51.2375 28.7617 51.2358 28.7621C51.2341 28.7625 51.2324 28.7629 51.2307 28.7632C51.229 28.7636 51.2273 28.764 51.2256 28.7644C51.2238 28.7647 51.2221 28.7651 51.2204 28.7655C51.2187 28.7659 51.217 28.7662 51.2153 28.7666C51.2136 28.767 51.2119 28.7674 51.2102 28.7677C51.2085 28.7681 51.2068 28.7685 51.2051 28.7689C51.2034 28.7692 51.2017 28.7696 51.2 28.77C51.1983 28.7704 51.1967 28.7707 51.195 28.7711C51.1933 28.7715 51.1916 28.7718 51.1899 28.7722C51.1882 28.7726 51.1865 28.773 51.1848 28.7733C51.1831 28.7737 51.1814 28.7741 51.1797 28.7744C51.1781 28.7748 51.1764 28.7752 51.1747 28.7756C51.173 28.7759 51.1713 28.7763 51.1696 28.7767C51.168 28.777 51.1663 28.7774 51.1646 28.7778C51.1629 28.7781 51.1612 28.7785 51.1596 28.7789C51.1579 28.7793 51.1562 28.7796 51.1545 28.78C51.1529 28.7804 51.1512 28.7807 51.1495 28.7811C51.1478 28.7815 51.1462 28.7818 51.1445 28.7822C51.1428 28.7826 51.1411 28.7829 51.1395 28.7833C51.1378 28.7837 51.1361 28.784 51.1345 28.7844C51.1328 28.7848 51.1311 28.7851 51.1295 28.7855C51.1278 28.7859 51.1261 28.7862 51.1245 28.7866C51.1228 28.787 51.1211 28.7873 51.1195 28.7877C51.1178 28.7881 51.1162 28.7884 51.1145 28.7888C51.1129 28.7892 51.1112 28.7895 51.1095 28.7899C51.1079 28.7903 51.1062 28.7906 51.1046 28.791C51.1029 28.7913 51.1013 28.7917 51.0996 28.7921C51.098 28.7924 51.0963 28.7928 51.0947 28.7932C51.093 28.7935 51.0914 28.7939 51.0897 28.7942C51.0881 28.7946 51.0864 28.795 51.0848 28.7953C51.0831 28.7957 51.0815 28.7961 51.0798 28.7964C51.0782 28.7968 51.0765 28.7971 51.0749 28.7975C51.0733 28.7979 51.0716 28.7982 51.07 28.7986C51.0683 28.7989 51.0667 28.7993 51.0651 28.7997C51.0634 28.8 51.0618 28.8004 51.0602 28.8007C51.0585 28.8011 51.0569 28.8015 51.0553 28.8018C51.0536 28.8022 51.052 28.8025 51.0504 28.8029C51.0487 28.8033 51.0471 28.8036 51.0455 28.804C51.0438 28.8043 51.0422 28.8047 51.0406 28.8051C51.039 28.8054 51.0373 28.8058 51.0357 28.8061C51.0341 28.8065 51.0325 28.8068 51.0308 28.8072C51.0292 28.8076 51.0276 28.8079 51.026 28.8083C51.0244 28.8086 51.0227 28.809 51.0211 28.8093C51.0195 28.8097 51.0179 28.81 51.0163 28.8104C51.0146 28.8108 51.013 28.8111 51.0114 28.8115C51.0098 28.8118 51.0082 28.8122 51.0066 28.8125C51.005 28.8129 51.0034 28.8132 51.0018 28.8136C51.0001 28.8139 50.9985 28.8143 50.9969 28.8147C50.9953 28.815 50.9937 28.8154 50.9921 28.8157C50.9905 28.8161 50.9889 28.8164 50.9873 28.8168C50.9857 28.8171 50.9841 28.8175 50.9825 28.8178C50.9809 28.8182 50.9793 28.8185 50.9777 28.8189C50.9761 28.8192 50.9745 28.8196 50.9729 28.8199C50.9713 28.8203 50.9697 28.8206 50.9681 28.821C50.9665 28.8213 50.9649 28.8217 50.9633 28.822C50.9617 28.8224 50.9601 28.8227 50.9586 28.8231C50.957 28.8234 50.9554 28.8238 50.9538 28.8241C50.9522 28.8245 50.9506 28.8248 50.949 28.8252C50.9474 28.8255 50.9459 28.8259 50.9443 28.8262C50.9427 28.8266 50.9411 28.8269 50.9395 28.8273C50.9379 28.8276 50.9364 28.828 50.9348 28.8283C50.9332 28.8287 50.9316 28.829 50.93 28.8294C50.9285 28.8297 50.9269 28.8301 50.9253 28.8304C50.9237 28.8307 50.9222 28.8311 50.9206 28.8314C50.919 28.8318 50.9175 28.8321 50.9159 28.8325C50.9143 28.8328 50.9127 28.8332 50.9112 28.8335C50.9096 28.8339 50.908 28.8342 50.9065 28.8345C50.9049 28.8349 50.9033 28.8352 50.9018 28.8356C50.9002 28.8359 50.8986 28.8363 50.8971 28.8366C50.8955 28.837 50.894 28.8373 50.8924 28.8376C50.8908 28.838 50.8893 28.8383 50.8877 28.8387C50.8862 28.839 50.8846 28.8394 50.8831 28.8397C50.8815 28.84 50.8799 28.8404 50.8784 28.8407C50.8768 28.8411 50.8753 28.8414 50.8737 28.8417C50.8722 28.8421 50.8706 28.8424 50.8691 28.8428C50.8675 28.8431 50.866 28.8435 50.8644 28.8438C50.8629 28.8441 50.8613 28.8445 50.8598 28.8448C50.8582 28.8452 50.8567 28.8455 50.8552 28.8458C50.8536 28.8462 50.8521 28.8465 50.8505 28.8468C50.849 28.8472 50.8475 28.8475 50.8459 28.8479C50.8444 28.8482 50.8428 28.8485 50.8413 28.8489C50.8398 28.8492 50.8382 28.8496 50.8367 28.8499C50.8352 28.8502 50.8336 28.8506 50.8321 28.8509C50.8306 28.8512 50.829 28.8516 50.8275 28.8519C50.826 28.8522 50.8244 28.8526 50.8229 28.8529C50.8214 28.8533 50.8199 28.8536 50.8183 28.8539C50.8168 28.8543 50.8153 28.8546 50.8138 28.8549C50.8122 28.8553 50.8107 28.8556 50.8092 28.8559C50.8077 28.8563 50.8062 28.8566 50.8046 28.8569C50.8031 28.8573 50.8016 28.8576 50.8001 28.8579C50.7986 28.8583 50.797 28.8586 50.7955 28.8589C50.794 28.8593 50.7925 28.8596 50.791 28.8599C50.7895 28.8603 50.788 28.8606 50.7865 28.8609C50.7849 28.8613 50.7834 28.8616 50.7819 28.8619C50.7804 28.8623 50.7789 28.8626 50.7774 28.8629C50.7759 28.8633 50.7744 28.8636 50.7729 28.8639C50.7714 28.8643 50.7699 28.8646 50.7684 28.8649C50.7669 28.8652 50.7654 28.8656 50.7639 28.8659C50.7624 28.8662 50.7609 28.8666 50.7594 28.8669C50.7579 28.8672 50.7564 28.8676 50.7549 28.8679C50.7534 28.8682 50.7519 28.8685 50.7504 28.8689C50.7489 28.8692 50.7474 28.8695 50.7459 28.8699C50.7444 28.8702 50.7429 28.8705 50.7415 28.8708C50.74 28.8712 50.7385 28.8715 50.737 28.8718C50.7355 28.8721 50.734 28.8725 50.7325 28.8728C50.731 28.8731 50.7296 28.8735 50.7281 28.8738C50.7266 28.8741 50.7251 28.8744 50.7236 28.8748C50.7222 28.8751 50.7207 28.8754 50.7192 28.8757C50.7177 28.8761 50.7162 28.8764 50.7148 28.8767C50.7133 28.877 50.7118 28.8774 50.7103 28.8777C50.7089 28.878 50.7074 28.8783 50.7059 28.8787C50.7044 28.879 50.703 28.8793 50.7015 28.8796C50.7 28.8799 50.6986 28.8803 50.6971 28.8806C50.6956 28.8809 50.6942 28.8812 50.6927 28.8816C50.6912 28.8819 50.6898 28.8822 50.6883 28.8825C50.6868 28.8828 50.6854 28.8832 50.6839 28.8835C50.6825 28.8838 50.681 28.8841 50.6795 28.8845C50.6781 28.8848 50.6766 28.8851 50.6752 28.8854C50.6737 28.8857 50.6722 28.8861 50.6708 28.8864C50.6693 28.8867 50.6679 28.887 50.6664 28.8873C50.665 28.8877 50.6635 28.888 50.6621 28.8883C50.6606 28.8886 50.6592 28.8889 50.6577 28.8893C50.6563 28.8896 50.6548 28.8899 50.6534 28.8902C50.6519 28.8905 50.6505 28.8908 50.649 28.8912C50.6476 28.8915 50.6462 28.8918 50.6447 28.8921C50.6433 28.8924 50.6418 28.8927 50.6404 28.8931C50.639 28.8934 50.6375 28.8937 50.6361 28.894C50.6346 28.8943 50.6332 28.8946 50.6318 28.895C50.6303 28.8953 50.6289 28.8956 50.6275 28.8959C50.626 28.8962 50.6246 28.8965 50.6232 28.8969C50.6217 28.8972 50.6203 28.8975 50.6189 28.8978C50.6174 28.8981 50.616 28.8984 50.6146 28.8987C50.6132 28.8991 50.6117 28.8994 50.6103 28.8997C50.6089 28.9 50.6075 28.9003 50.606 28.9006C50.6046 28.9009 50.6032 28.9012 50.6018 28.9016C50.6004 28.9019 50.5989 28.9022 50.5975 28.9025C50.5961 28.9028 50.5947 28.9031 50.5933 28.9034C50.5918 28.9037 50.5904 28.904 50.589 28.9044C50.5876 28.9047 50.5862 28.905 50.5848 28.9053C50.5834 28.9056 50.582 28.9059 50.5805 28.9062C50.5791 28.9065 50.5777 28.9068 50.5763 28.9072C50.5749 28.9075 50.5735 28.9078 50.5721 28.9081C50.5707 28.9084 50.5693 28.9087 50.5679 28.909C50.5665 28.9093 50.5651 28.9096 50.5637 28.9099C50.5623 28.9102 50.5609 28.9105 50.5595 28.9109C50.5581 28.9112 50.5567 28.9115 50.5553 28.9118C50.5539 28.9121 50.5525 28.9124 50.5511 28.9127C50.5497 28.913 50.5483 28.9133 50.5469 28.9136C50.5455 28.9139 50.5441 28.9142 50.5427 28.9145C50.5413 28.9148 50.54 28.9151 50.5386 28.9155C50.5372 28.9158 50.5358 28.9161 50.5344 28.9164C50.533 28.9167 50.5316 28.917 50.5303 28.9173C50.5289 28.9176 50.5275 28.9179 50.5261 28.9182C50.5247 28.9185 50.5233 28.9188 50.522 28.9191C50.5206 28.9194 50.5192 28.9197 50.5178 28.92C50.5164 28.9203 50.5151 28.9206 50.5137 28.9209C50.5123 28.9212 50.5109 28.9215 50.5096 28.9218L50.7244 29.8985C50.7257 29.8982 50.7271 29.8979 50.7285 29.8976C50.7299 29.8973 50.7312 29.897 50.7326 29.8967C50.734 29.8964 50.7354 29.8961 50.7367 29.8958C50.7381 29.8955 50.7395 29.8952 50.7409 29.8949C50.7423 29.8946 50.7437 29.8942 50.745 29.8939C50.7464 29.8936 50.7478 29.8933 50.7492 29.893C50.7506 29.8927 50.752 29.8924 50.7534 29.8921C50.7547 29.8918 50.7561 29.8915 50.7575 29.8912C50.7589 29.8909 50.7603 29.8906 50.7617 29.8903C50.7631 29.89 50.7645 29.8897 50.7659 29.8894C50.7673 29.8891 50.7687 29.8887 50.7701 29.8884C50.7715 29.8881 50.7729 29.8878 50.7743 29.8875C50.7757 29.8872 50.7771 29.8869 50.7785 29.8866C50.7799 29.8863 50.7813 29.886 50.7827 29.8857C50.7841 29.8854 50.7855 29.8851 50.7869 29.8847C50.7883 29.8844 50.7897 29.8841 50.7911 29.8838C50.7925 29.8835 50.7939 29.8832 50.7953 29.8829C50.7967 29.8826 50.7982 29.8823 50.7996 29.882C50.801 29.8816 50.8024 29.8813 50.8038 29.881C50.8052 29.8807 50.8066 29.8804 50.8081 29.8801C50.8095 29.8798 50.8109 29.8795 50.8123 29.8792C50.8137 29.8788 50.8151 29.8785 50.8166 29.8782C50.818 29.8779 50.8194 29.8776 50.8208 29.8773C50.8222 29.877 50.8237 29.8767 50.8251 29.8763C50.8265 29.876 50.8279 29.8757 50.8294 29.8754C50.8308 29.8751 50.8322 29.8748 50.8337 29.8745C50.8351 29.8741 50.8365 29.8738 50.838 29.8735C50.8394 29.8732 50.8408 29.8729 50.8422 29.8726C50.8437 29.8723 50.8451 29.8719 50.8466 29.8716C50.848 29.8713 50.8494 29.871 50.8509 29.8707C50.8523 29.8704 50.8537 29.87 50.8552 29.8697C50.8566 29.8694 50.8581 29.8691 50.8595 29.8688C50.8609 29.8685 50.8624 29.8681 50.8638 29.8678C50.8653 29.8675 50.8667 29.8672 50.8682 29.8669C50.8696 29.8665 50.8711 29.8662 50.8725 29.8659C50.874 29.8656 50.8754 29.8653 50.8769 29.865C50.8783 29.8646 50.8798 29.8643 50.8812 29.864C50.8827 29.8637 50.8841 29.8634 50.8856 29.863C50.887 29.8627 50.8885 29.8624 50.8899 29.8621C50.8914 29.8618 50.8929 29.8614 50.8943 29.8611C50.8958 29.8608 50.8972 29.8605 50.8987 29.8602C50.9002 29.8598 50.9016 29.8595 50.9031 29.8592C50.9046 29.8589 50.906 29.8585 50.9075 29.8582C50.9089 29.8579 50.9104 29.8576 50.9119 29.8573C50.9134 29.8569 50.9148 29.8566 50.9163 29.8563C50.9178 29.856 50.9192 29.8556 50.9207 29.8553C50.9222 29.855 50.9236 29.8547 50.9251 29.8543C50.9266 29.854 50.9281 29.8537 50.9295 29.8534C50.931 29.853 50.9325 29.8527 50.934 29.8524C50.9355 29.8521 50.9369 29.8517 50.9384 29.8514C50.9399 29.8511 50.9414 29.8508 50.9429 29.8504C50.9443 29.8501 50.9458 29.8498 50.9473 29.8495C50.9488 29.8491 50.9503 29.8488 50.9518 29.8485C50.9533 29.8482 50.9548 29.8478 50.9562 29.8475C50.9577 29.8472 50.9592 29.8468 50.9607 29.8465C50.9622 29.8462 50.9637 29.8459 50.9652 29.8455C50.9667 29.8452 50.9682 29.8449 50.9697 29.8445C50.9712 29.8442 50.9727 29.8439 50.9742 29.8436C50.9757 29.8432 50.9772 29.8429 50.9787 29.8426C50.9802 29.8422 50.9817 29.8419 50.9832 29.8416C50.9847 29.8412 50.9862 29.8409 50.9877 29.8406C50.9892 29.8403 50.9907 29.8399 50.9922 29.8396C50.9937 29.8393 50.9952 29.8389 50.9967 29.8386C50.9982 29.8383 50.9997 29.8379 51.0012 29.8376C51.0028 29.8373 51.0043 29.8369 51.0058 29.8366C51.0073 29.8363 51.0088 29.8359 51.0103 29.8356C51.0118 29.8353 51.0133 29.8349 51.0149 29.8346C51.0164 29.8343 51.0179 29.8339 51.0194 29.8336C51.0209 29.8333 51.0225 29.8329 51.024 29.8326C51.0255 29.8323 51.027 29.8319 51.0286 29.8316C51.0301 29.8313 51.0316 29.8309 51.0331 29.8306C51.0347 29.8303 51.0362 29.8299 51.0377 29.8296C51.0392 29.8292 51.0408 29.8289 51.0423 29.8286C51.0438 29.8282 51.0454 29.8279 51.0469 29.8276C51.0484 29.8272 51.05 29.8269 51.0515 29.8266C51.053 29.8262 51.0546 29.8259 51.0561 29.8255C51.0576 29.8252 51.0592 29.8249 51.0607 29.8245C51.0622 29.8242 51.0638 29.8238 51.0653 29.8235C51.0669 29.8232 51.0684 29.8228 51.0699 29.8225C51.0715 29.8222 51.073 29.8218 51.0746 29.8215C51.0761 29.8211 51.0777 29.8208 51.0792 29.8205C51.0808 29.8201 51.0823 29.8198 51.0839 29.8194C51.0854 29.8191 51.087 29.8187 51.0885 29.8184C51.0901 29.8181 51.0916 29.8177 51.0932 29.8174C51.0947 29.817 51.0963 29.8167 51.0978 29.8164C51.0994 29.816 51.101 29.8157 51.1025 29.8153C51.1041 29.815 51.1056 29.8146 51.1072 29.8143C51.1087 29.814 51.1103 29.8136 51.1119 29.8133C51.1134 29.8129 51.115 29.8126 51.1166 29.8122C51.1181 29.8119 51.1197 29.8116 51.1213 29.8112C51.1228 29.8109 51.1244 29.8105 51.126 29.8102C51.1275 29.8098 51.1291 29.8095 51.1307 29.8091C51.1322 29.8088 51.1338 29.8084 51.1354 29.8081C51.137 29.8078 51.1385 29.8074 51.1401 29.8071C51.1417 29.8067 51.1433 29.8064 51.1448 29.806C51.1464 29.8057 51.148 29.8053 51.1496 29.805C51.1512 29.8046 51.1527 29.8043 51.1543 29.8039C51.1559 29.8036 51.1575 29.8032 51.1591 29.8029C51.1606 29.8025 51.1622 29.8022 51.1638 29.8018C51.1654 29.8015 51.167 29.8011 51.1686 29.8008C51.1702 29.8005 51.1718 29.8001 51.1733 29.7998C51.1749 29.7994 51.1765 29.7991 51.1781 29.7987C51.1797 29.7984 51.1813 29.798 51.1829 29.7977C51.1845 29.7973 51.1861 29.7969 51.1877 29.7966C51.1893 29.7962 51.1909 29.7959 51.1925 29.7955C51.1941 29.7952 51.1957 29.7948 51.1973 29.7945C51.1989 29.7941 51.2005 29.7938 51.2021 29.7934C51.2037 29.7931 51.2053 29.7927 51.2069 29.7924C51.2085 29.792 51.2101 29.7917 51.2117 29.7913C51.2133 29.791 51.2149 29.7906 51.2165 29.7903C51.2181 29.7899 51.2198 29.7895 51.2214 29.7892C51.223 29.7888 51.2246 29.7885 51.2262 29.7881C51.2278 29.7878 51.2294 29.7874 51.2311 29.7871C51.2327 29.7867 51.2343 29.7863 51.2359 29.786C51.2375 29.7856 51.2391 29.7853 51.2408 29.7849C51.2424 29.7846 51.244 29.7842 51.2456 29.7839C51.2472 29.7835 51.2489 29.7831 51.2505 29.7828C51.2521 29.7824 51.2537 29.7821 51.2554 29.7817C51.257 29.7814 51.2586 29.781 51.2603 29.7806C51.2619 29.7803 51.2635 29.7799 51.2651 29.7796C51.2668 29.7792 51.2684 29.7788 51.27 29.7785C51.2717 29.7781 51.2733 29.7778 51.2749 29.7774C51.2766 29.777 51.2782 29.7767 51.2799 29.7763C51.2815 29.776 51.2831 29.7756 51.2848 29.7752C51.2864 29.7749 51.288 29.7745 51.2897 29.7742C51.2913 29.7738 51.293 29.7734 51.2946 29.7731C51.2963 29.7727 51.2979 29.7724 51.2996 29.772C51.3012 29.7716 51.3028 29.7713 51.3045 29.7709C51.3061 29.7705 51.3078 29.7702 51.3094 29.7698C51.3111 29.7695 51.3127 29.7691 51.3144 29.7687C51.316 29.7684 51.3177 29.768 51.3194 29.7676C51.321 29.7673 51.3227 29.7669 51.3243 29.7665C51.326 29.7662 51.3276 29.7658 51.3293 29.7655C51.331 29.7651 51.3326 29.7647 51.3343 29.7644C51.3359 29.764 51.3376 29.7636 51.3393 29.7633C51.3409 29.7629 51.3426 29.7625 51.3443 29.7622C51.3459 29.7618 51.3476 29.7614 51.3493 29.7611C51.3509 29.7607 51.3526 29.7603 51.3543 29.76C51.3559 29.7596 51.3576 29.7592 51.3593 29.7589C51.3609 29.7585 51.3626 29.7581 51.3643 29.7578C51.366 29.7574 51.3676 29.757 51.3693 29.7567C51.371 29.7563 51.3727 29.7559 51.3743 29.7555C51.376 29.7552 51.3777 29.7548 51.3794 29.7544C51.3811 29.7541 51.3827 29.7537 51.3844 29.7533C51.3861 29.753 51.3878 29.7526 51.3895 29.7522C51.3912 29.7518 51.3928 29.7515 51.3945 29.7511C51.3962 29.7507 51.3979 29.7504 51.3996 29.75C51.4013 29.7496 51.403 29.7493 51.4047 29.7489C51.4064 29.7485 51.4081 29.7481 51.4097 29.7478C51.4114 29.7474 51.4131 29.747 51.4148 29.7466C51.4165 29.7463 51.4182 29.7459 51.4199 29.7455C51.4216 29.7452 51.4233 29.7448 51.425 29.7444C51.4267 29.744 51.4284 29.7437 51.4301 29.7433C51.4318 29.7429 51.4335 29.7425 51.4352 29.7422C51.4369 29.7418 51.4386 29.7414 51.4403 29.741C51.442 29.7407 51.4438 29.7403 51.4455 29.7399C51.4472 29.7395 51.4489 29.7392 51.4506 29.7388C51.4523 29.7384 51.454 29.738 51.4557 29.7377C51.4574 29.7373 51.4591 29.7369 51.4609 29.7365C51.4626 29.7361 51.4643 29.7358 51.466 29.7354C51.4677 29.735 51.4694 29.7346 51.4712 29.7343C51.4729 29.7339 51.4746 29.7335 51.4763 29.7331C51.478 29.7327 51.4798 29.7324 51.4815 29.732C51.4832 29.7316 51.4849 29.7312 51.4867 29.7308C51.4884 29.7305 51.4901 29.7301 51.4918 29.7297C51.4936 29.7293 51.4953 29.7289 51.497 29.7286C51.4988 29.7282 51.5005 29.7278 51.5022 29.7274C51.504 29.727 51.5057 29.7267 51.5074 29.7263C51.5092 29.7259 51.5109 29.7255 51.5126 29.7251C51.5144 29.7248 51.5161 29.7244 51.5178 29.724C51.5196 29.7236 51.5213 29.7232 51.5231 29.7228C51.5248 29.7225 51.5265 29.7221 51.5283 29.7217C51.53 29.7213 51.5318 29.7209 51.5335 29.7205C51.5353 29.7202 51.537 29.7198 51.5387 29.7194C51.5405 29.719 51.5422 29.7186 51.544 29.7182C51.5457 29.7179 51.5475 29.7175 51.5492 29.7171C51.551 29.7167 51.5527 29.7163 51.5545 29.7159C51.5562 29.7155 51.558 29.7152 51.5598 29.7148C51.5615 29.7144 51.5633 29.714 51.565 29.7136C51.5668 29.7132 51.5685 29.7128 51.5703 29.7125C51.5721 29.7121 51.5738 29.7117 51.5756 29.7113C51.5773 29.7109 51.5791 29.7105 51.5809 29.7101C51.5826 29.7097 51.5844 29.7094 51.5862 29.709C51.5879 29.7086 51.5897 29.7082 51.5915 29.7078C51.5932 29.7074 51.595 29.707 51.5968 29.7066C51.5986 29.7062 51.6003 29.7059 51.6021 29.7055C51.6039 29.7051 51.6056 29.7047 51.6074 29.7043C51.6092 29.7039 51.611 29.7035 51.6127 29.7031C51.6145 29.7027 51.6163 29.7023 51.6181 29.7019C51.6199 29.7016 51.6216 29.7012 51.6234 29.7008C51.6252 29.7004 51.627 29.7 51.6288 29.6996C51.6305 29.6992 51.6323 29.6988 51.6341 29.6984C51.6359 29.698 51.6377 29.6976 51.6395 29.6972C51.6413 29.6968 51.6431 29.6965 51.6448 29.6961C51.6466 29.6957 51.6484 29.6953 51.6502 29.6949C51.652 29.6945 51.6538 29.6941 51.6556 29.6937C51.6574 29.6933 51.6592 29.6929 51.661 29.6925C51.6628 29.6921 51.6646 29.6917 51.6664 29.6913C51.6682 29.6909 51.67 29.6905 51.6718 29.6901C51.6736 29.6897 51.6754 29.6893 51.6772 29.6889C51.679 29.6886 51.6808 29.6882 51.6826 29.6878C51.6844 29.6874 51.6862 29.687 51.688 29.6866C51.6898 29.6862 51.6916 29.6858 51.6934 29.6854C51.6952 29.685 51.697 29.6846 51.6989 29.6842C51.7007 29.6838 51.7025 29.6834 51.7043 29.683C51.7061 29.6826 51.7079 29.6822 51.7097 29.6818C51.7116 29.6814 51.7134 29.681 51.7152 29.6806C51.717 29.6802 51.7188 29.6798 51.7206 29.6794C51.7225 29.679 51.7243 29.6786 51.7261 29.6782C51.7279 29.6778 51.7298 29.6774 51.7316 29.677C51.7334 29.6766 51.7352 29.6762 51.7371 29.6758C51.7389 29.6754 51.7407 29.675 51.7425 29.6746C51.7444 29.6742 51.7462 29.6738 51.748 29.6734C51.7499 29.673 51.7517 29.6726 51.7535 29.6722C51.7553 29.6718 51.7572 29.6714 51.759 29.671C51.7609 29.6705 51.7627 29.6701 51.7645 29.6697C51.7664 29.6693 51.7682 29.6689 51.77 29.6685C51.7719 29.6681 51.7737 29.6677 51.7756 29.6673C51.7774 29.6669 51.7792 29.6665 51.7811 29.6661C51.7829 29.6657 51.7848 29.6653 51.7866 29.6649C51.7885 29.6645 51.7903 29.6641 51.7922 29.6637C51.794 29.6633 51.7959 29.6628 51.7977 29.6624C51.7996 29.662 51.8014 29.6616 51.8033 29.6612C51.8051 29.6608 51.807 29.6604 51.8088 29.66C51.8107 29.6596 51.8125 29.6592 51.8144 29.6588C51.8162 29.6584 51.8181 29.658 51.82 29.6575C51.8218 29.6571 51.8237 29.6567 51.8255 29.6563C51.8274 29.6559 51.8293 29.6555 51.8311 29.6551C51.833 29.6547 51.8348 29.6543 51.8367 29.6539C51.8386 29.6535 51.8404 29.653 51.8423 29.6526C51.8442 29.6522 51.846 29.6518 51.8479 29.6514C51.8498 29.651 51.8517 29.6506 51.8535 29.6502C51.8554 29.6498 51.8573 29.6493 51.8591 29.6489C51.861 29.6485 51.8629 29.6481 51.8648 29.6477C51.8666 29.6473 51.8685 29.6469 51.8704 29.6465C51.8723 29.646 51.8741 29.6456 51.876 29.6452C51.8779 29.6448 51.8798 29.6444 51.8817 29.644C51.8836 29.6436 51.8854 29.6431 51.8873 29.6427C51.8892 29.6423 51.8911 29.6419 51.893 29.6415C51.8949 29.6411 51.8968 29.6407 51.8986 29.6402C51.9005 29.6398 51.9024 29.6394 51.9043 29.639C51.9062 29.6386 51.9081 29.6382 51.91 29.6377C51.9119 29.6373 51.9138 29.6369 51.9157 29.6365C51.9176 29.6361 51.9195 29.6357 51.9214 29.6352C51.9232 29.6348 51.9251 29.6344 51.927 29.634C51.9289 29.6336 51.9308 29.6332 51.9327 29.6327C51.9346 29.6323 51.9366 29.6319 51.9385 29.6315C51.9404 29.6311 51.9423 29.6307 51.9442 29.6302C51.9461 29.6298 51.948 29.6294 51.9499 29.629C51.9518 29.6286 51.9537 29.6281 51.9556 29.6277C51.9575 29.6273 51.9594 29.6269 51.9613 29.6265C51.9633 29.626 51.9652 29.6256 51.9671 29.6252C51.969 29.6248 51.9709 29.6243 51.9728 29.6239C51.9748 29.6235 51.9767 29.6231 51.9786 29.6227C51.9805 29.6222 51.9824 29.6218 51.9843 29.6214C51.9863 29.621 51.9882 29.6206 51.9901 29.6201C51.992 29.6197 51.994 29.6193 51.9959 29.6189C51.9978 29.6184 51.9997 29.618 52.0017 29.6176C52.0036 29.6172 52.0055 29.6167 52.0074 29.6163C52.0094 29.6159 52.0113 29.6155 52.0132 29.615C52.0152 29.6146 52.0171 29.6142 52.019 29.6138C52.021 29.6133 52.0229 29.6129 52.0248 29.6125C52.0268 29.6121 52.0287 29.6116 52.0306 29.6112C52.0326 29.6108 52.0345 29.6104 52.0365 29.6099C52.0384 29.6095 52.0403 29.6091 52.0423 29.6087C52.0442 29.6082 52.0462 29.6078 52.0481 29.6074C52.0501 29.6069 52.052 29.6065 52.054 29.6061C52.0559 29.6057 52.0578 29.6052 52.0598 29.6048C52.0617 29.6044 52.0637 29.6039 52.0656 29.6035C52.0676 29.6031 52.0695 29.6027 52.0715 29.6022C52.0735 29.6018 52.0754 29.6014 52.0774 29.6009C52.0793 29.6005 52.0813 29.6001 52.0832 29.5996C52.0852 29.5992 52.0871 29.5988 52.0891 29.5984C52.0911 29.5979 52.093 29.5975 52.095 29.5971C52.0969 29.5966 52.0989 29.5962 52.1009 29.5958C52.1028 29.5953 52.1048 29.5949 52.1068 29.5945C52.1087 29.594 52.1107 29.5936 52.1127 29.5932C52.1146 29.5927 52.1166 29.5923 52.1186 29.5919C52.1205 29.5914 52.1225 29.591 52.1245 29.5906C52.1265 29.5901 52.1284 29.5897 52.1304 29.5893C52.1324 29.5888 52.1344 29.5884 52.1363 29.588C52.1383 29.5875 52.1403 29.5871 52.1423 29.5867C52.1442 29.5862 52.1462 29.5858 52.1482 29.5854C52.1502 29.5849 52.1522 29.5845 52.1541 29.5841C52.1561 29.5836 52.1581 29.5832 52.1601 29.5827C52.1621 29.5823 52.1641 29.5819 52.1661 29.5814C52.168 29.581 52.17 29.5806 52.172 29.5801C52.174 29.5797 52.176 29.5792 52.178 29.5788C52.18 29.5784 52.182 29.5779 52.184 29.5775C52.186 29.5771 52.188 29.5766 52.19 29.5762C52.192 29.5757 52.1939 29.5753 52.1959 29.5749C52.1979 29.5744 52.1999 29.574 52.2019 29.5735C52.2039 29.5731 52.2059 29.5727 52.2079 29.5722C52.2099 29.5718 52.212 29.5713 52.214 29.5709C52.216 29.5705 52.218 29.57 52.22 29.5696C52.222 29.5691 52.224 29.5687 52.226 29.5683C52.228 29.5678 52.23 29.5674 52.232 29.5669C52.234 29.5665 52.236 29.566 52.2381 29.5656C52.2401 29.5652 52.2421 29.5647 52.2441 29.5643C52.2461 29.5638 52.2481 29.5634 52.2502 29.5629C52.2522 29.5625 52.2542 29.5621 52.2562 29.5616C52.2582 29.5612 52.2602 29.5607 52.2623 29.5603C52.2643 29.5598 52.2663 29.5594 52.2683 29.5589C52.2704 29.5585 52.2724 29.5581 52.2744 29.5576C52.2764 29.5572 52.2785 29.5567 52.2805 29.5563C52.2825 29.5558 52.2845 29.5554 52.2866 29.5549C52.2886 29.5545 52.2906 29.554 52.2927 29.5536C52.2947 29.5531 52.2967 29.5527 52.2988 29.5522C52.3008 29.5518 52.3028 29.5514 52.3049 29.5509C52.3069 29.5505 52.309 29.55 52.311 29.5496C52.313 29.5491 52.3151 29.5487 52.3171 29.5482C52.3192 29.5478 52.3212 29.5473 52.3232 29.5469C52.3253 29.5464 52.3273 29.546 52.3294 29.5455C52.3314 29.5451 52.3335 29.5446 52.3355 29.5442C52.3376 29.5437 52.3396 29.5433 52.3417 29.5428C52.3437 29.5424 52.3458 29.5419 52.3478 29.5415C52.3499 29.541 52.3519 29.5406 52.354 29.5401C52.356 29.5397 52.3581 29.5392 52.3601 29.5388C52.3622 29.5383 52.3642 29.5378 52.3663 29.5374C52.3684 29.5369 52.3704 29.5365 52.3725 29.536C52.3745 29.5356 52.3766 29.5351 52.3787 29.5347C52.3807 29.5342 52.3828 29.5338 52.3848 29.5333C52.3869 29.5329 52.389 29.5324 52.391 29.532C52.3931 29.5315 52.3952 29.531 52.3972 29.5306C52.3993 29.5301 52.4014 29.5297 52.4035 29.5292C52.4055 29.5288 52.4076 29.5283 52.4097 29.5279C52.4117 29.5274 52.4138 29.5269 52.4159 29.5265C52.418 29.526 52.42 29.5256 52.4221 29.5251C52.4242 29.5247 52.4263 29.5242 52.4284 29.5237C52.4304 29.5233 52.4325 29.5228 52.4346 29.5224C52.4367 29.5219 52.4388 29.5215 52.4408 29.521C52.4429 29.5205 52.445 29.5201 52.4471 29.5196C52.4492 29.5192 52.4513 29.5187 52.4534 29.5182C52.4555 29.5178 52.4575 29.5173 52.4596 29.5169C52.4617 29.5164 52.4638 29.516 52.4659 29.5155C52.468 29.515 52.4701 29.5146 52.4722 29.5141C52.4743 29.5136 52.4764 29.5132 52.4785 29.5127C52.4806 29.5123 52.4827 29.5118 52.4848 29.5113C52.4869 29.5109 52.489 29.5104 52.4911 29.51C52.4932 29.5095 52.4953 29.509 52.4974 29.5086C52.4995 29.5081 52.5016 29.5076 52.5037 29.5072C52.5058 29.5067 52.5079 29.5063 52.51 29.5058C52.5121 29.5053 52.5142 29.5049 52.5163 29.5044C52.5184 29.5039 52.5205 29.5035 52.5227 29.503C52.5248 29.5025 52.5269 29.5021 52.529 29.5016C52.5311 29.5012 52.5332 29.5007 52.5353 29.5002C52.5375 29.4998 52.5396 29.4993 52.5417 29.4988C52.5438 29.4984 52.5459 29.4979 52.548 29.4974C52.5502 29.497 52.5523 29.4965 52.5544 29.496C52.5565 29.4956 52.5587 29.4951 52.5608 29.4946C52.5629 29.4942 52.565 29.4937 52.5672 29.4932C52.5693 29.4928 52.5714 29.4923 52.5735 29.4918C52.5757 29.4914 52.5778 29.4909 52.5799 29.4904C52.5821 29.4899 52.5842 29.4895 52.5863 29.489C52.5885 29.4885 52.5906 29.4881 52.5927 29.4876C52.5949 29.4871 52.597 29.4867 52.5991 29.4862C52.6013 29.4857 52.6034 29.4852 52.6056 29.4848C52.6077 29.4843 52.6098 29.4838 52.612 29.4834C52.6141 29.4829 52.6163 29.4824 52.6184 29.482C52.6205 29.4815 52.6227 29.481 52.6248 29.4805C52.627 29.4801 52.6291 29.4796 52.6313 29.4791C52.6334 29.4786 52.6356 29.4782 52.6377 29.4777C52.6399 29.4772 52.642 29.4768 52.6442 29.4763C52.6463 29.4758 52.6485 29.4753 52.6506 29.4749C52.6528 29.4744 52.655 29.4739 52.6571 29.4734C52.6593 29.473 52.6614 29.4725 52.6636 29.472C52.6657 29.4715 52.6679 29.4711 52.6701 29.4706C52.6722 29.4701 52.6744 29.4696 52.6765 29.4692C52.6787 29.4687 52.6809 29.4682 52.683 29.4677C52.6852 29.4673 52.6874 29.4668 52.6895 29.4663C52.6917 29.4658 52.6939 29.4654 52.696 29.4649C52.6982 29.4644 52.7004 29.4639 52.7026 29.4634C52.7047 29.463 52.7069 29.4625 52.7091 29.462C52.7113 29.4615 52.7134 29.4611 52.7156 29.4606C52.7178 29.4601 52.72 29.4596 52.7221 29.4591C52.7243 29.4587 52.7265 29.4582 52.7287 29.4577C52.7309 29.4572 52.733 29.4567 52.7352 29.4563C52.7374 29.4558 52.7396 29.4553 52.7418 29.4548C52.744 29.4543 52.7461 29.4539 52.7483 29.4534C52.7505 29.4529 52.7527 29.4524 52.7549 29.4519C52.7571 29.4515 52.7593 29.451 52.7615 29.4505C52.7636 29.45 52.7658 29.4495 52.768 29.449C52.7702 29.4486 52.7724 29.4481 52.7746 29.4476C52.7768 29.4471 52.779 29.4466 52.7812 29.4462C52.7834 29.4457 52.7856 29.4452 52.7878 29.4447C52.79 29.4442 52.7922 29.4437 52.7944 29.4432C52.7966 29.4428 52.7988 29.4423 52.801 29.4418C52.8032 29.4413 52.8054 29.4408 52.8076 29.4403C52.8098 29.4399 52.812 29.4394 52.8142 29.4389C52.8165 29.4384 52.8187 29.4379 52.8209 29.4374C52.8231 29.4369 52.8253 29.4365 52.8275 29.436C52.8297 29.4355 52.8319 29.435 52.8342 29.4345C52.8364 29.434 52.8386 29.4335 52.8408 29.433C52.843 29.4326 52.8452 29.4321 52.8475 29.4316C52.8497 29.4311 52.8519 29.4306 52.8541 29.4301C52.8563 29.4296 52.8586 29.4291 52.8608 29.4287C52.863 29.4282 52.8652 29.4277 52.8675 29.4272C52.8697 29.4267 52.8719 29.4262 52.8741 29.4257C52.8764 29.4252 52.8786 29.4247 52.8808 29.4242C52.883 29.4238 52.8853 29.4233 52.8875 29.4228C52.8897 29.4223 52.892 29.4218 52.8942 29.4213C52.8964 29.4208 52.8987 29.4203 52.9009 29.4198C52.9031 29.4193 52.9054 29.4188 52.9076 29.4183C52.9099 29.4179 52.9121 29.4174 52.9143 29.4169C52.9166 29.4164 52.9188 29.4159 52.9211 29.4154C52.9233 29.4149 52.9256 29.4144 52.9278 29.4139C52.93 29.4134 52.9323 29.4129 52.9345 29.4124C52.9368 29.4119 52.939 29.4114 52.9413 29.4109C52.9435 29.4105 52.9458 29.41 52.948 29.4095C52.9503 29.409 52.9525 29.4085 52.9548 29.408C52.957 29.4075 52.9593 29.407 52.9615 29.4065C52.9638 29.406 52.9661 29.4055 52.9683 29.405C52.9706 29.4045 52.9728 29.404 52.9751 29.4035C52.9774 29.403 52.9796 29.4025 52.9819 29.402C52.9841 29.4015 52.9864 29.401 52.9887 29.4005C52.9909 29.4 52.9932 29.3995 52.9955 29.399C52.9977 29.3985 53 29.398 53.0023 29.3975C53.0045 29.397 53.0068 29.3965 53.0091 29.396C53.0113 29.3955 53.0136 29.395 53.0159 29.3945C53.0182 29.394 53.0204 29.3935 53.0227 29.393C53.025 29.3925 53.0273 29.392 53.0295 29.3915C53.0318 29.391 53.0341 29.3905 53.0364 29.39C53.0386 29.3895 53.0409 29.389 53.0432 29.3885C53.0455 29.388 53.0478 29.3875 53.0501 29.387C53.0523 29.3865 53.0546 29.386 53.0569 29.3855C53.0592 29.385 53.0615 29.3845 53.0638 29.384C53.0661 29.3835 53.0683 29.383 53.0706 29.3825C53.0729 29.382 53.0752 29.3815 53.0775 29.381C53.0798 29.3805 53.0821 29.38 53.0844 29.3795C53.0867 29.379 53.089 29.3785 53.0913 29.378C53.0936 29.3775 53.0959 29.377 53.0982 29.3764C53.1005 29.3759 53.1028 29.3754 53.1051 29.3749C53.1074 29.3744 53.1097 29.3739 53.112 29.3734C53.1143 29.3729 53.1166 29.3724 53.1189 29.3719C53.1212 29.3714 53.1235 29.3709 53.1258 29.3704C53.1281 29.3699 53.1304 29.3694 53.1327 29.3688C53.135 29.3683 53.1373 29.3678 53.1396 29.3673C53.142 29.3668 53.1443 29.3663 53.1466 29.3658C53.1489 29.3653 53.1512 29.3648 53.1535 29.3643C53.1558 29.3638 53.1582 29.3633 53.1605 29.3627C53.1628 29.3622 53.1651 29.3617 53.1674 29.3612C53.1698 29.3607 53.1721 29.3602 53.1744 29.3597C53.1767 29.3592 53.179 29.3587 53.1814 29.3581C53.1837 29.3576 53.186 29.3571 53.1883 29.3566C53.1907 29.3561 53.193 29.3556 53.1953 29.3551C53.1977 29.3546 53.2 29.3541 53.2023 29.3535C53.2046 29.353 53.207 29.3525 53.2093 29.352C53.2116 29.3515 53.214 29.351 53.2163 29.3505C53.2186 29.3499 53.221 29.3494 53.2233 29.3489C53.2257 29.3484 53.228 29.3479 53.2303 29.3474C53.2327 29.3469 53.235 29.3463 53.2374 29.3458C53.2397 29.3453 53.242 29.3448 53.2444 29.3443C53.2467 29.3438 53.2491 29.3433 53.2514 29.3427C53.2538 29.3422 53.2561 29.3417 53.2585 29.3412C53.2608 29.3407 53.2631 29.3402 53.2655 29.3396C53.2678 29.3391 53.2702 29.3386 53.2725 29.3381C53.2749 29.3376 53.2773 29.3371 53.2796 29.3365C53.282 29.336 53.2843 29.3355 53.2867 29.335C53.289 29.3345 53.2914 29.334 53.2937 29.3334C53.2961 29.3329 53.2985 29.3324 53.3008 29.3319C53.3032 29.3314 53.3055 29.3308 53.3079 29.3303C53.3103 29.3298 53.3126 29.3293 53.315 29.3288C53.3174 29.3282 53.3197 29.3277 53.3221 29.3272C53.3245 29.3267 53.3268 29.3262 53.3292 29.3256C53.3316 29.3251 53.3339 29.3246 53.3363 29.3241C53.3387 29.3235 53.3411 29.323 53.3434 29.3225C53.3458 29.322 53.3482 29.3215 53.3506 29.3209C53.3529 29.3204 53.3553 29.3199 53.3577 29.3194C53.3601 29.3188 53.3624 29.3183 53.3648 29.3178C53.3672 29.3173 53.3696 29.3168 53.372 29.3162C53.3743 29.3157 53.3767 29.3152 53.3791 29.3147C53.3815 29.3141 53.3839 29.3136 53.3863 29.3131C53.3887 29.3126 53.391 29.312 53.3934 29.3115C53.3958 29.311 53.3982 29.3105 53.4006 29.3099C53.403 29.3094 53.4054 29.3089 53.4078 29.3084C53.4102 29.3078 53.4126 29.3073 53.415 29.3068C53.4174 29.3062 53.4197 29.3057 53.4221 29.3052C53.4245 29.3047 53.4269 29.3041 53.4293 29.3036C53.4317 29.3031 53.4341 29.3026 53.4365 29.302C53.4389 29.3015 53.4413 29.301 53.4437 29.3004C53.4462 29.2999 53.4486 29.2994 53.451 29.2989C53.4534 29.2983 53.4558 29.2978 53.4582 29.2973C53.4606 29.2967 53.463 29.2962 53.4654 29.2957C53.4678 29.2952 53.4702 29.2946 53.4726 29.2941C53.4751 29.2936 53.4775 29.293 53.4799 29.2925C53.4823 29.292 53.4847 29.2914 53.4871 29.2909C53.4895 29.2904 53.492 29.2898 53.4944 29.2893C53.4968 29.2888 53.4992 29.2882 53.5016 29.2877C53.5041 29.2872 53.5065 29.2866 53.5089 29.2861C53.5113 29.2856 53.5137 29.285 53.5162 29.2845C53.5186 29.284 53.521 29.2834 53.5235 29.2829C53.5259 29.2824 53.5283 29.2818 53.5307 29.2813C53.5332 29.2808 53.5356 29.2802 53.538 29.2797C53.5405 29.2792 53.5429 29.2786 53.5453 29.2781C53.5478 29.2776 53.5502 29.277 53.5526 29.2765C53.5551 29.276 53.5575 29.2754 53.5599 29.2749C53.5624 29.2744 53.5648 29.2738 53.5673 29.2733C53.5697 29.2727 53.5721 29.2722 53.5746 29.2717C53.577 29.2711 53.5795 29.2706 53.5819 29.2701C53.5844 29.2695 53.5868 29.269 53.5892 29.2684C53.5917 29.2679 53.5941 29.2674 53.5966 29.2668C53.599 29.2663 53.6015 29.2658 53.6039 29.2652C53.6064 29.2647 53.6088 29.2641 53.6113 29.2636C53.6137 29.2631 53.6162 29.2625 53.6187 29.262C53.6211 29.2614 53.6236 29.2609 53.626 29.2604C53.6285 29.2598 53.6309 29.2593 53.6334 29.2587C53.6359 29.2582 53.6383 29.2577 53.6408 29.2571C53.6432 29.2566 53.6457 29.256 53.6482 29.2555C53.6506 29.2549 53.6531 29.2544 53.6556 29.2539C53.658 29.2533 53.6605 29.2528 53.663 29.2522C53.6654 29.2517 53.6679 29.2511 53.6704 29.2506C53.6728 29.2501 53.6753 29.2495 53.6778 29.249L53.463 28.2723ZM50.5218 28.9193C49.8186 29.0556 49.3396 29.1153 49.0596 29.1147L49.0574 30.1147C49.4412 30.1155 50.0013 30.0388 50.7121 29.901L50.5218 28.9193ZM48.5693 29.7178L49.2098 32.7561L50.1883 32.5499L49.5478 29.5115L48.5693 29.7178ZM49.2107 32.7604C49.2602 32.9853 49.4286 33.5235 49.6985 34.3372L50.6476 34.0224C50.3706 33.1872 50.223 32.7075 50.1874 32.5456L49.2107 32.7604ZM49.7072 34.3613C49.9124 34.8882 50.0556 35.3452 50.1413 35.7349L51.118 35.5201C51.0181 35.066 50.857 34.5579 50.639 33.9983L49.7072 34.3613ZM50.1413 35.7349C50.1518 35.7826 50.1549 35.9168 49.9386 36.1771L50.7078 36.8162C51.0161 36.445 51.2235 35.9998 51.118 35.5201L50.1413 35.7349ZM49.9413 36.174C49.7341 36.4191 49.5666 36.5105 49.4474 36.5367L49.6621 37.5134C50.0703 37.4236 50.4151 37.1627 50.7051 36.8193L49.9413 36.174ZM49.4474 36.5367C48.8645 36.6649 48.6001 36.5748 48.4867 36.479L47.8414 37.2429C48.3165 37.6442 48.9792 37.6636 49.6621 37.5134L49.4474 36.5367ZM48.497 36.4879C48.3125 36.3232 48.1259 35.9936 47.9964 35.4049L47.0197 35.6197C47.1686 36.2968 47.4193 36.8663 47.831 37.2339L48.497 36.4879ZM47.995 35.3988L47.5105 33.3213L46.5366 33.5485L47.0211 35.6259L47.995 35.3988ZM47.503 33.293C47.4363 33.0677 47.3551 32.7402 47.2594 32.3049L46.2827 32.5197C46.3803 32.9633 46.4674 33.3177 46.5441 33.5768L47.503 33.293ZM47.2594 32.3049C47.1147 31.647 46.9004 30.7573 46.6173 29.6379L45.6478 29.8831C45.9299 30.9985 46.1413 31.8767 46.2827 32.5197L47.2594 32.3049ZM46.6169 29.6364C46.3576 28.625 46.1795 27.8977 46.081 27.4497L45.1043 27.6645C45.2069 28.1306 45.3887 28.8723 45.6482 29.8847L46.6169 29.6364ZM46.081 27.4497C45.9318 26.771 45.7397 25.8144 45.5045 24.5778L44.5221 24.7646C44.7579 26.0045 44.952 26.9719 45.1043 27.6645L46.081 27.4497ZM45.5047 24.5786C45.2845 23.4097 45.1115 22.5382 44.986 21.9679L44.0094 22.1827C44.1314 22.7375 44.3021 23.5966 44.5219 24.7637L45.5047 24.5786ZM44.986 21.9679C44.8745 21.4608 44.9668 21.2635 45.0354 21.1902L44.3051 20.5071C43.8962 20.9442 43.8735 21.5647 44.0094 22.1827L44.986 21.9679ZM45.0354 21.1902C45.2029 21.0111 45.4072 20.8944 45.6632 20.8381L45.4484 19.8614C45.0012 19.9598 44.6151 20.1756 44.3051 20.5071L45.0354 21.1902ZM45.6632 20.8381C46.1171 20.7383 46.3896 20.7599 46.5374 20.8168C46.6445 20.858 46.7189 20.927 46.7587 21.1081L47.7354 20.8933C47.6322 20.4239 47.3532 20.0593 46.8966 19.8835C46.4805 19.7234 45.9789 19.7448 45.4484 19.8614L45.6632 20.8381ZM46.7587 21.1081C47.0123 22.261 47.2279 23.3661 47.4056 24.4236L48.3917 24.2578C48.211 23.1825 47.9922 22.0609 47.7354 20.8933L46.7587 21.1081ZM47.4077 24.4352C47.6665 25.7796 47.8645 26.7646 48.0013 27.3867L48.978 27.172C48.8442 26.5635 48.6482 25.5895 48.3897 24.2462L47.4077 24.4352ZM48.4795 27.7792C49.0475 27.7908 49.6302 27.7497 50.2271 27.657L50.0737 26.6688C49.53 26.7533 49.0056 26.7898 48.4998 26.7795L48.4795 27.7792ZM50.2271 27.657C50.8128 27.5661 51.6196 27.4071 52.6427 27.1821L52.4279 26.2054C51.4117 26.4289 50.6286 26.5827 50.0737 26.6688L50.2271 27.657ZM52.6427 27.1821C54.7258 26.724 56.344 26.2759 57.4834 25.8351L57.1226 24.9024C56.0539 25.3159 54.4937 25.7511 52.4279 26.2054L52.6427 27.1821Z" fill="#9A795A"/>
<path d="M76.7151 17.9978C77.9056 18.1907 78.965 18.5174 79.8933 18.9778C80.8244 19.4205 81.5549 19.9765 82.0846 20.6459C83.0399 21.8401 83.6417 23.0773 83.8901 24.3575C84.1591 25.6229 84.1425 27.1884 83.8401 29.054C83.7767 29.4449 83.6658 29.7916 83.5074 30.0942C83.3667 30.3996 83.1495 30.7838 82.8556 31.2468C82.4998 31.7544 82.2694 32.1638 82.1642 32.475C81.7081 33.0393 81.0253 33.5395 80.1158 33.9756C79.2241 34.4146 78.2785 34.7355 77.2792 34.9382C76.2799 35.1409 75.4249 35.1847 74.7142 35.0695C71.2849 34.5138 69.0319 32.9451 67.955 30.3636C67.6529 29.6399 67.4439 28.904 67.3281 28.1559C67.2301 27.4106 67.2358 26.7003 67.3452 26.0252C67.6389 24.2128 68.2136 22.6921 69.0692 21.4632C69.9455 20.2194 71.0216 19.3179 72.2975 18.7588C73.0567 18.4625 73.831 18.2415 74.6204 18.0959C75.4305 17.9355 76.1288 17.9027 76.7151 17.9978ZM70.1041 26.5543C69.9486 27.5138 70.0337 28.3391 70.3593 29.03C70.7027 29.7239 71.2685 30.5085 72.0566 31.3839C72.7568 31.7891 73.2329 32.0578 73.4851 32.1898C73.7401 32.3041 74.0364 32.3886 74.374 32.4433C76.1685 32.7341 77.6781 32.4773 78.9025 31.6728C80.127 30.8684 80.8775 29.6133 81.1539 27.9075C81.3728 26.5571 81.3945 25.4666 81.2192 24.6358C81.0438 23.8051 80.6156 23.0154 79.9346 22.2668C79.5807 21.863 79.0968 21.5293 78.4831 21.2657C77.8871 21.005 77.2249 20.8156 76.4964 20.6975C75.3948 20.519 74.3909 20.6937 73.4848 21.2215C72.5815 21.7316 71.8332 22.4673 71.2397 23.4288C70.6641 24.3931 70.2855 25.4349 70.1041 26.5543Z" fill="#9A795A"/>
<path d="M79.8933 18.9778L79.6711 19.4258L79.6786 19.4294L79.8933 18.9778ZM82.0846 20.6459L81.6925 20.9562L81.6942 20.9582L82.0846 20.6459ZM83.8901 24.3575L83.3992 24.4528L83.401 24.4615L83.8901 24.3575ZM83.5074 30.0942L83.0645 29.8622L83.0586 29.8735L83.0533 29.885L83.5074 30.0942ZM82.8556 31.2468L83.2651 31.5338L83.2716 31.5244L83.2778 31.5147L82.8556 31.2468ZM82.1642 32.475L82.5531 32.7893L82.6093 32.7198L82.6379 32.635L82.1642 32.475ZM80.1158 33.9756L79.8996 33.5247L79.8949 33.527L80.1158 33.9756ZM67.955 30.3636L68.4165 30.1711L68.4164 30.171L67.955 30.3636ZM67.3281 28.1559L66.8323 28.2211L66.834 28.2323L67.3281 28.1559ZM69.0692 21.4632L68.6605 21.1752L68.6589 21.1775L69.0692 21.4632ZM72.2975 18.7588L72.1156 18.2931L72.1061 18.2968L72.0968 18.3009L72.2975 18.7588ZM74.6204 18.0959L74.7111 18.5877L74.7176 18.5864L74.6204 18.0959ZM70.3593 29.03L69.9069 29.2432L69.9112 29.2518L70.3593 29.03ZM72.0566 31.3839L71.685 31.7185L71.7378 31.7771L71.8061 31.8167L72.0566 31.3839ZM73.4851 32.1898L73.2531 32.6327L73.2666 32.6398L73.2806 32.6461L73.4851 32.1898ZM78.9025 31.6728L79.1771 32.0907L79.1771 32.0907L78.9025 31.6728ZM81.2192 24.6358L80.7299 24.7391L80.7299 24.7391L81.2192 24.6358ZM79.9346 22.2668L79.5585 22.5964L79.5648 22.6033L79.9346 22.2668ZM78.4831 21.2657L78.2827 21.7238L78.2858 21.7251L78.4831 21.2657ZM73.4848 21.2215L73.7307 21.6569L73.7365 21.6535L73.4848 21.2215ZM71.2397 23.4288L70.8142 23.1661L70.8104 23.1725L71.2397 23.4288ZM76.6351 18.4913C77.7841 18.6775 78.7943 18.9909 79.6711 19.4258L80.1154 18.5299C79.1356 18.0439 78.0271 17.7039 76.7951 17.5042L76.6351 18.4913ZM79.6786 19.4294C80.5548 19.8459 81.2192 20.3581 81.6926 20.9562L82.4767 20.3356C81.8906 19.595 81.0941 18.9951 80.1079 18.5263L79.6786 19.4294ZM81.6942 20.9582C82.6076 22.1002 83.1687 23.2646 83.3992 24.4528L84.3809 24.2623C84.1147 22.89 83.4721 21.58 82.4751 20.3336L81.6942 20.9582ZM83.401 24.4615C83.6527 25.6453 83.6432 27.1438 83.3465 28.974L84.3337 29.134C84.6418 27.2329 84.6655 25.6005 84.3792 24.2535L83.401 24.4615ZM83.3465 28.974C83.2904 29.3202 83.1944 29.6142 83.0645 29.8622L83.9503 30.3262C84.1373 29.9691 84.263 29.5697 84.3337 29.134L83.3465 28.974ZM83.0533 29.885C82.9259 30.1616 82.7218 30.5246 82.4335 30.9788L83.2778 31.5147C83.5771 31.0431 83.8076 30.6377 83.9615 30.3034L83.0533 29.885ZM82.4462 30.9598C82.0827 31.4784 81.819 31.9348 81.6905 32.3149L82.6379 32.635C82.7197 32.3928 82.917 32.0304 83.2651 31.5338L82.4462 30.9598ZM81.7754 32.1607C81.3804 32.6492 80.7666 33.109 79.8996 33.5247L80.332 34.4264C81.2839 33.97 82.0357 33.4293 82.5531 32.7893L81.7754 32.1607ZM79.8949 33.527C79.0427 33.9466 78.1381 34.2538 77.1798 34.4482L77.3787 35.4282C78.4189 35.2172 79.4054 34.8826 80.3366 34.4242L79.8949 33.527ZM77.1798 34.4482C76.217 34.6435 75.4262 34.6784 74.7942 34.576L74.6342 35.5631C75.4237 35.691 76.3429 35.6384 77.3787 35.4282L77.1798 34.4482ZM74.7942 34.576C71.488 34.0402 69.4101 32.5532 68.4165 30.1711L67.4935 30.5561C68.6536 33.3371 71.0818 34.9874 74.6342 35.5631L74.7942 34.576ZM68.4164 30.171C68.1293 29.4832 67.9316 28.7862 67.8222 28.0794L66.834 28.2323C66.9562 29.0218 67.1765 29.7966 67.4936 30.5562L68.4164 30.171ZM67.8238 28.0907C67.7315 27.3889 67.7379 26.7278 67.8388 26.1051L66.8516 25.9452C66.7337 26.6729 66.7286 27.4323 66.8324 28.2211L67.8238 28.0907ZM67.8388 26.1051C68.1232 24.3503 68.6753 22.9041 69.4796 21.7489L68.6589 21.1775C67.7519 22.4802 67.1547 24.0753 66.8516 25.9452L67.8388 26.1051ZM69.478 21.7512C70.3067 20.5748 71.3135 19.7359 72.4981 19.2168L72.0968 18.3009C70.7297 18.8999 69.5843 19.8639 68.6605 21.1752L69.478 21.7512ZM72.4793 19.2246C73.2094 18.9396 73.9533 18.7274 74.7111 18.5876L74.5298 17.6042C73.7087 17.7556 72.9039 17.9854 72.1156 18.2931L72.4793 19.2246ZM74.7176 18.5864C75.4904 18.4333 76.1256 18.4087 76.6351 18.4913L76.7951 17.5042C76.132 17.3967 75.3707 17.4376 74.5233 17.6054L74.7176 18.5864ZM69.6105 26.4743C69.4433 27.5063 69.5279 28.4389 69.907 29.2432L70.8116 28.8169C70.5394 28.2392 70.4539 27.5213 70.5976 26.6343L69.6105 26.4743ZM69.9112 29.2518C70.2825 30.002 70.8805 30.8249 71.685 31.7185L72.4282 31.0494C71.6565 30.1922 71.123 29.4459 70.8074 28.8083L69.9112 29.2518ZM71.8061 31.8167C72.5052 32.2212 72.9902 32.4951 73.2531 32.6327L73.717 31.7469C73.4757 31.6205 73.0084 31.3571 72.307 30.9512L71.8061 31.8167ZM73.2806 32.6461C73.583 32.7816 73.9226 32.8767 74.294 32.9368L74.4539 31.9497C74.1501 31.9005 73.8971 31.8266 73.6895 31.7335L73.2806 32.6461ZM74.294 32.9368C76.181 33.2427 77.8244 32.9794 79.1771 32.0907L78.628 31.255C77.5317 31.9752 76.1561 32.2256 74.4539 31.9497L74.294 32.9368ZM79.1771 32.0907C80.5398 31.1954 81.353 29.8045 81.6475 27.9875L80.6604 27.8275C80.4019 29.422 79.7142 30.5413 78.628 31.255L79.1771 32.0907ZM81.6475 27.9875C81.8709 26.6089 81.9019 25.4492 81.7084 24.5326L80.7299 24.7391C80.8872 25.484 80.8746 26.5054 80.6604 27.8275L81.6475 27.9875ZM81.7084 24.5326C81.5114 23.5995 81.0338 22.732 80.3045 21.9303L79.5648 22.6033C80.1975 23.2988 80.5762 24.0107 80.7299 24.7391L81.7084 24.5326ZM80.3106 21.9372C79.897 21.4654 79.3463 21.0923 78.6804 20.8063L78.2858 21.7251C78.8473 21.9663 79.2643 22.2606 79.5586 22.5964L80.3106 21.9372ZM78.6835 20.8076C78.0443 20.528 77.3409 20.3279 76.5764 20.204L76.4164 21.1911C77.1089 21.3033 77.73 21.482 78.2827 21.7238L78.6835 20.8076ZM76.5764 20.204C75.3683 20.0082 74.246 20.1994 73.2331 20.7895L73.7365 21.6535C74.5358 21.1879 75.4212 21.0298 76.4164 21.1911L76.5764 20.204ZM73.2389 20.7861C72.2557 21.3413 71.448 22.1394 70.8143 23.1661L71.6652 23.6914C72.2184 22.7952 72.9073 22.1218 73.7306 21.6569L73.2389 20.7861ZM70.8104 23.1725C70.2021 24.1915 69.8019 25.2933 69.6105 26.4743L70.5976 26.6343C70.7691 25.5766 71.126 24.5947 71.6691 23.6851L70.8104 23.1725Z" fill="#9A795A"/>
<path d="M94.6743 35.6566C94.04 35.356 93.5109 35.0853 93.0872 34.8446C92.6874 34.5954 92.1609 34.2562 91.5078 33.8271L90.2691 36.3773C90.0447 36.8088 89.7398 37.4312 89.3543 38.2444C89.1539 38.6674 88.8738 38.943 88.5142 39.0713C88.1786 39.1911 87.8644 39.1816 87.5716 39.0428C87.0348 38.7884 86.6672 38.5345 86.4686 38.281C86.2777 38.0113 86.2671 37.6975 86.4367 37.3397C86.6603 36.868 87.017 36.2203 87.5069 35.3968C88.5647 33.6274 89.5562 31.7667 90.4813 29.8148C91.3447 27.9931 92.1011 26.2501 92.7505 24.5859C92.8747 24.3659 93.1119 24.1596 93.4621 23.967C93.8286 23.7822 94.1904 23.7544 94.5473 23.8838C94.9215 24.0611 95.546 24.2774 96.4209 24.5328C97.3284 24.8035 98.0017 25.043 98.4409 25.2511C99.7747 25.8833 100.746 26.503 101.354 27.1101C101.979 27.725 102.523 28.5107 102.986 29.4671C103.198 31.1213 103.181 32.2086 102.934 32.7291C102.418 33.8189 101.739 34.6827 100.899 35.3203C100.059 35.958 99.1044 36.3122 98.0351 36.383C96.9657 36.4538 95.8454 36.2117 94.6743 35.6566ZM97.8483 27.51C97.3278 27.2633 96.857 27.08 96.4358 26.96C96.0385 26.8315 95.5407 26.7051 94.9423 26.5808C94.2981 28.1081 93.8141 29.2133 93.4903 29.8964C93.1588 30.5959 92.8569 31.1699 92.5845 31.6184C93.2145 32.0963 93.7213 32.456 94.1048 32.6976C94.496 32.9228 94.9437 33.1549 95.448 33.3939C96.6516 33.9644 97.6439 34.0563 98.4248 33.6695C99.2297 33.2741 99.8287 32.6616 100.222 31.8321C100.338 31.5881 100.407 31.2525 100.43 30.8253C100.453 30.3981 100.435 30.1005 100.375 29.9327C100.121 29.3342 99.8134 28.8696 99.4521 28.5391C99.1149 28.2 98.5803 27.8569 97.8483 27.51Z" fill="#9A795A"/>
<path d="M93.0872 34.8446L92.8226 35.2689L92.8313 35.2743L92.8402 35.2794L93.0872 34.8446ZM91.5078 33.8271L91.7823 33.4092L91.3066 33.0967L91.058 33.6087L91.5078 33.8271ZM90.2691 36.3773L90.7129 36.6082L90.7189 36.5958L90.2691 36.3773ZM88.5142 39.0713L88.3462 38.6004L88.3462 38.6004L88.5142 39.0713ZM86.4686 38.281L86.0604 38.5698L86.0675 38.5798L86.075 38.5894L86.4686 38.281ZM87.5069 35.3968L87.0778 35.1403L87.0772 35.1412L87.5069 35.3968ZM92.7505 24.5859L92.3151 24.3401L92.2976 24.371L92.2847 24.4041L92.7505 24.5859ZM93.4621 23.967L93.237 23.5206L93.229 23.5246L93.2212 23.5289L93.4621 23.967ZM94.5473 23.8838L94.7615 23.432L94.74 23.4218L94.7177 23.4137L94.5473 23.8838ZM96.4209 24.5328L96.5639 24.0536L96.561 24.0528L96.4209 24.5328ZM101.354 27.1101L101.001 27.4641L101.004 27.4665L101.354 27.1101ZM102.986 29.4671L103.482 29.4036L103.472 29.3227L103.436 29.2493L102.986 29.4671ZM100.899 35.3203L100.597 34.922L100.597 34.922L100.899 35.3203ZM98.0351 36.383L98.002 35.8841L98.002 35.8841L98.0351 36.383ZM96.4358 26.96L96.2819 27.4357L96.2903 27.4385L96.2988 27.4409L96.4358 26.96ZM94.9423 26.5808L95.0439 26.0913L94.6414 26.0077L94.4816 26.3865L94.9423 26.5808ZM92.5845 31.6184L92.1571 31.3589L91.9231 31.7443L92.2823 32.0168L92.5845 31.6184ZM94.1048 32.6976L93.8383 33.1206L93.8467 33.1259L93.8553 33.1309L94.1048 32.6976ZM98.4248 33.6695L98.2044 33.2207L98.2029 33.2214L98.4248 33.6695ZM100.375 29.9327L100.846 29.7647L100.841 29.7508L100.835 29.7373L100.375 29.9327ZM99.4521 28.5391L99.0976 28.8917L99.1059 28.9L99.1146 28.9079L99.4521 28.5391ZM94.8885 35.2048C94.2609 34.9073 93.7436 34.6424 93.3341 34.4098L92.8402 35.2794C93.2782 35.5281 93.8191 35.8046 94.4602 36.1084L94.8885 35.2048ZM93.3517 34.4203C92.9567 34.1741 92.434 33.8373 91.7823 33.4092L91.2332 34.245C91.8879 34.675 92.418 35.0166 92.8226 35.2689L93.3517 34.4203ZM91.058 33.6087L89.8194 36.1589L90.7189 36.5958L91.9575 34.0455L91.058 33.6087ZM89.8256 36.1466C89.5968 36.5863 89.2888 37.2153 88.9025 38.0303L89.8061 38.4586C90.1908 37.6471 90.4926 37.0313 90.7127 36.6081L89.8256 36.1466ZM88.9025 38.0303C88.7452 38.3621 88.5538 38.5263 88.3462 38.6004L88.6823 39.5422C89.1939 39.3596 89.5625 38.9726 89.8061 38.4586L88.9025 38.0303ZM88.3462 38.6004C88.1217 38.6805 87.9461 38.667 87.7857 38.591L87.3574 39.4947C87.7826 39.6962 88.2355 39.7017 88.6823 39.5422L88.3462 38.6004ZM87.7857 38.591C87.2694 38.3463 86.9877 38.1329 86.8622 37.9727L86.075 38.5894C86.3466 38.9361 86.8002 39.2306 87.3574 39.4947L87.7857 38.591ZM86.8767 37.9922C86.8127 37.9017 86.778 37.7869 86.8885 37.5538L85.9849 37.1255C85.7561 37.6081 85.7428 38.1209 86.0604 38.5698L86.8767 37.9922ZM86.8885 37.5538C87.102 37.1034 87.4493 36.4716 87.9366 35.6525L87.0772 35.1412C86.5847 35.9691 86.2185 36.6325 85.9849 37.1255L86.8885 37.5538ZM87.9361 35.6534C89.0025 33.8695 90.0014 31.9946 90.9331 30.029L90.0295 29.6007C89.1109 31.5387 88.1269 33.3852 87.0778 35.1403L87.9361 35.6534ZM90.9331 30.029C91.801 28.1979 92.5622 26.4441 93.2163 24.7676L92.2847 24.4041C91.6401 26.0561 90.8885 27.7883 90.0295 29.6007L90.9331 30.029ZM93.1859 24.8317C93.2451 24.7269 93.391 24.5767 93.703 24.4052L93.2212 23.5289C92.8328 23.7424 92.5043 24.0048 92.3151 24.3401L93.1859 24.8317ZM93.6873 24.4134C93.9419 24.285 94.1607 24.2755 94.377 24.3539L94.7177 23.4137C94.22 23.2333 93.7153 23.2793 93.237 23.5206L93.6873 24.4134ZM94.3332 24.3356C94.7459 24.5312 95.4032 24.7566 96.2809 25.0128L96.561 24.0528C95.6887 23.7982 95.0971 23.591 94.7615 23.432L94.3332 24.3356ZM96.278 25.0119C97.1794 25.2808 97.8231 25.5116 98.2268 25.703L98.655 24.7993C98.1804 24.5744 97.4775 24.3262 96.5639 24.0536L96.278 25.0119ZM98.2268 25.703C99.5404 26.3256 100.452 26.9161 101.001 27.4641L101.708 26.7562C101.04 26.0898 100.009 25.441 98.655 24.7993L98.2268 25.703ZM101.004 27.4665C101.58 28.0338 102.093 28.7695 102.536 29.685L103.436 29.2493C102.953 28.2519 102.378 27.4163 101.705 26.7538L101.004 27.4665ZM102.49 29.5307C102.595 30.3451 102.64 31.0046 102.632 31.5153C102.624 32.0399 102.559 32.3539 102.482 32.515L103.386 32.9433C103.556 32.5839 103.623 32.094 103.632 31.5313C103.641 30.9546 103.59 30.2433 103.482 29.4036L102.49 29.5307ZM102.482 32.515C101.995 33.5428 101.364 34.3394 100.597 34.922L101.202 35.7186C102.114 35.0259 102.84 34.0951 103.386 32.9433L102.482 32.515ZM100.597 34.922C99.8361 35.4995 98.9754 35.8196 98.002 35.8841L98.0681 36.8819C99.2335 36.8047 100.282 36.4164 101.202 35.7186L100.597 34.922ZM98.002 35.8841C97.0338 35.9482 95.9986 35.731 94.8885 35.2048L94.4602 36.1084C95.6923 36.6924 96.8975 36.9594 98.0681 36.8819L98.002 35.8841ZM98.0625 27.0582C97.5244 26.8032 97.0272 26.6086 96.5727 26.4791L96.2988 27.4409C96.6868 27.5514 97.1313 27.7235 97.6342 27.9618L98.0625 27.0582ZM96.5897 26.4843C96.1694 26.3483 95.6527 26.2177 95.0439 26.0913L94.8406 27.0704C95.4287 27.1925 95.9076 27.3147 96.2819 27.4357L96.5897 26.4843ZM94.4816 26.3865C93.8377 27.913 93.3573 29.0097 93.0385 29.6823L93.9421 30.1106C94.2709 29.4169 94.7585 28.3032 95.403 26.7751L94.4816 26.3865ZM93.0385 29.6823C92.7112 30.3727 92.4174 30.9301 92.1571 31.3589L93.0119 31.8779C93.2963 31.4096 93.6063 30.819 93.9421 30.1106L93.0385 29.6823ZM92.2823 32.0168C92.9168 32.498 93.4368 32.8678 93.8383 33.1206L94.3713 32.2745C94.0058 32.0443 93.5123 31.6946 92.8867 31.2201L92.2823 32.0168ZM93.8553 33.1309C94.2604 33.3641 94.7202 33.6023 95.2338 33.8458L95.6621 32.9421C95.1672 32.7076 94.7317 32.4815 94.3543 32.2643L93.8553 33.1309ZM95.2338 33.8458C96.5013 34.4465 97.6688 34.6019 98.6467 34.1175L98.2029 33.2214C97.619 33.5106 96.802 33.4824 95.6621 32.9421L95.2338 33.8458ZM98.6453 34.1182C99.5542 33.6718 100.233 32.9753 100.674 32.0462L99.7701 31.618C99.4241 32.348 98.9053 32.8764 98.2044 33.2207L98.6453 34.1182ZM100.674 32.0462C100.829 31.7194 100.905 31.3109 100.929 30.8524L99.9309 30.7982C99.9094 31.1941 99.8465 31.4568 99.7701 31.618L100.674 32.0462ZM100.929 30.8524C100.953 30.4265 100.943 30.037 100.846 29.7647L99.9043 30.1008C99.9269 30.164 99.9542 30.3696 99.9309 30.7982L100.929 30.8524ZM100.835 29.7373C100.562 29.0934 100.218 28.5623 99.7897 28.1702L99.1146 28.9079C99.4086 29.177 99.6801 29.575 99.915 30.1281L100.835 29.7373ZM99.8067 28.1865C99.41 27.7877 98.8156 27.4152 98.0625 27.0582L97.6342 27.9618C98.3449 28.2987 98.8197 28.6122 99.0976 28.8917L99.8067 28.1865Z" fill="#9A795A"/>
<path d="M113.729 33.7262C113.057 34.5714 112.027 35.7706 110.638 37.3238C109.299 38.8143 108.3 39.9744 107.64 40.804C107.466 41.0231 107.12 41.4895 106.604 42.2031C106.376 42.4567 106.121 42.5855 105.836 42.5894C105.565 42.5777 105.311 42.4785 105.077 42.2917C104.826 42.0925 104.649 41.8494 104.545 41.5623C104.441 41.2753 104.447 41.0113 104.562 40.7705C105.395 39.3376 106.521 37.7289 107.94 35.9445L110.877 32.3005C111.337 31.7214 111.781 31.3078 112.209 31.0599C112.664 30.8087 113.142 30.8823 113.643 31.2807C114.066 31.6169 114.267 32.0067 114.246 32.4503C114.238 32.8783 114.066 33.3036 113.729 33.7262ZM103.988 43.4192C105.052 44.2658 105.267 45.0883 104.632 45.8865C104.308 46.2935 103.877 46.5633 103.337 46.6961C102.825 46.8256 102.373 46.7347 101.982 46.4234C101.512 46.0499 101.241 45.6041 101.168 45.0858C101.107 44.5518 101.232 44.0892 101.543 43.6979C101.817 43.3535 102.191 43.1401 102.666 43.0575C103.156 42.9874 103.597 43.108 103.988 43.4192Z" fill="#9A795A"/>
<path d="M110.638 37.3238L111.01 37.6579L111.011 37.657L110.638 37.3238ZM106.604 42.2031L106.976 42.5368L106.993 42.5174L107.009 42.4962L106.604 42.2031ZM105.836 42.5894L105.815 43.089L105.829 43.0896L105.843 43.0894L105.836 42.5894ZM104.545 41.5623L104.075 41.7325L104.075 41.7325L104.545 41.5623ZM104.562 40.7705L104.129 40.5192L104.119 40.5368L104.11 40.5552L104.562 40.7705ZM107.94 35.9445L107.551 35.6308L107.549 35.6333L107.94 35.9445ZM110.877 32.3005L111.266 32.6143L111.268 32.6118L110.877 32.3005ZM112.209 31.0599L111.967 30.622L111.958 30.6274L112.209 31.0599ZM114.246 32.4503L113.746 32.4271L113.746 32.4408L114.246 32.4503ZM103.337 46.6961L103.217 46.2105L103.214 46.2113L103.337 46.6961ZM101.168 45.0858L100.671 45.1424L100.672 45.1558L101.168 45.0858ZM102.666 43.0575L102.595 42.5626L102.588 42.5636L102.58 42.5649L102.666 43.0575ZM113.338 33.4149C112.675 34.2486 111.652 35.4392 110.265 36.9905L111.011 37.657C112.401 36.102 113.439 34.8942 114.121 34.0374L113.338 33.4149ZM110.266 36.9896C108.925 38.4823 107.918 39.6512 107.249 40.4927L108.031 41.1152C108.682 40.2975 109.673 39.1463 111.01 37.6579L110.266 36.9896ZM107.249 40.4927C107.066 40.7223 106.714 41.1982 106.199 41.9099L107.009 42.4962C107.527 41.7808 107.865 41.3239 108.031 41.1152L107.249 40.4927ZM106.231 41.8694C106.077 42.0414 105.947 42.0879 105.829 42.0895L105.843 43.0894C106.295 43.0832 106.676 42.8721 106.976 42.5368L106.231 41.8694ZM105.858 42.0899C105.703 42.0832 105.549 42.0285 105.388 41.9004L104.765 42.683C105.074 42.9285 105.427 43.0722 105.815 43.089L105.858 42.0899ZM105.388 41.9004C105.206 41.7559 105.086 41.588 105.015 41.3922L104.075 41.7325C104.212 42.1108 104.446 42.4291 104.765 42.683L105.388 41.9004ZM105.015 41.3922C104.95 41.2112 104.964 41.0881 105.013 40.9858L104.11 40.5552C103.929 40.9345 103.933 41.3393 104.075 41.7325L105.015 41.3922ZM104.994 41.0218C105.811 39.6159 106.922 38.0277 108.331 36.2558L107.549 35.6333C106.12 37.4301 104.978 39.0592 104.129 40.5192L104.994 41.0218ZM108.329 36.2583L111.266 32.6143L110.487 31.9868L107.551 35.6308L108.329 36.2583ZM111.268 32.6118C111.707 32.0595 112.106 31.6975 112.46 31.4923L111.958 30.6274C111.457 30.9182 110.967 31.3833 110.485 31.9893L111.268 32.6118ZM112.45 31.4977C112.589 31.4212 112.711 31.4022 112.833 31.4209C112.962 31.4409 113.128 31.5101 113.332 31.672L113.954 30.8894C113.657 30.653 113.333 30.4862 112.985 30.4325C112.628 30.3776 112.284 30.4474 111.967 30.6221L112.45 31.4977ZM113.332 31.672C113.659 31.9326 113.758 32.1793 113.746 32.4271L114.745 32.4735C114.775 31.8342 114.472 31.3012 113.954 30.8894L113.332 31.672ZM113.746 32.4408C113.74 32.733 113.624 33.0554 113.338 33.4149L114.121 34.0374C114.507 33.5517 114.735 33.0235 114.746 32.4599L113.746 32.4408ZM103.677 43.8106C104.171 44.2039 104.396 44.5369 104.464 44.7973C104.523 45.025 104.482 45.2716 104.241 45.5753L105.023 46.1978C105.417 45.7032 105.586 45.1395 105.431 44.5447C105.284 43.9827 104.869 43.4812 104.299 43.0279L103.677 43.8106ZM104.241 45.5753C103.991 45.8895 103.658 46.1022 103.217 46.2105L103.456 47.1816C104.095 47.0244 104.626 46.6976 105.023 46.1978L104.241 45.5753ZM103.214 46.2113C102.844 46.3051 102.555 46.2401 102.293 46.0321L101.671 46.8148C102.192 47.2293 102.806 47.3461 103.459 47.1808L103.214 46.2113ZM102.293 46.0321C101.908 45.7257 101.715 45.3887 101.663 45.0157L100.672 45.1558C100.766 45.8194 101.117 46.3742 101.671 46.8148L102.293 46.0321ZM101.664 45.0291C101.617 44.6161 101.712 44.2884 101.934 44.0091L101.152 43.3866C100.751 43.89 100.596 44.4876 100.671 45.1424L101.664 45.0291ZM101.934 44.0091C102.125 43.77 102.385 43.6138 102.751 43.5501L102.58 42.5649C101.997 42.6663 101.509 42.9371 101.152 43.3866L101.934 44.0091ZM102.737 43.5525C103.089 43.5021 103.392 43.584 103.677 43.8106L104.299 43.0279C103.801 42.632 103.223 42.4728 102.595 42.5626L102.737 43.5525Z" fill="#9A795A"/>
<g filter="url(#filter0_d)">
<circle cx="65" cy="102" r="61" fill="#9A795A"/>
<circle cx="65" cy="102" r="58.5" stroke="white" stroke-width="5"/>
</g>
<path d="M45 90.0001H87" stroke="white" stroke-width="5" stroke-linecap="round" stroke-linejoin="round"/>
<path d="M75 100C75 102.387 73.9991 104.676 72.2175 106.364C70.4359 108.052 68.0196 109 65.5 109C62.9804 109 60.5641 108.052 58.7825 106.364C57.0009 104.676 56 102.387 56 100" stroke="white" stroke-width="5" stroke-linecap="round" stroke-linejoin="round"/>
<path d="M52 79.0001L45 88.4001V121.3C45 122.547 45.4917 123.742 46.3668 124.624C47.242 125.505 48.429 126 49.6667 126H82.3333C83.571 126 84.758 125.505 85.6332 124.624C86.5083 123.742 87 122.547 87 121.3V88.4001L80 79.0001H52Z" stroke="white" stroke-width="5" stroke-linecap="round" stroke-linejoin="round"/>
<defs>
<filter id="filter0_d" x="0" y="41.0001" width="130" height="130" filterUnits="userSpaceOnUse" color-interpolation-filters="sRGB">
<feFlood flood-opacity="0" result="BackgroundImageFix"/>
<feColorMatrix in="SourceAlpha" type="matrix" values="0 0 0 0 0 0 0 0 0 0 0 0 0 0 0 0 0 0 127 0"/>
<feOffset dy="4"/>
<feGaussianBlur stdDeviation="2"/>
<feColorMatrix type="matrix" values="0 0 0 0 0 0 0 0 0 0 0 0 0 0 0 0 0 0 0.25 0"/>
<feBlend mode="normal" in2="BackgroundImageFix" result="effect1_dropShadow"/>
<feBlend mode="normal" in="SourceGraphic" in2="effect1_dropShadow" result="shape"/>
</filter>
</defs>
</svg>
