<svg width="810" height="644" viewBox="0 0 810 644" fill="none" xmlns="http://www.w3.org/2000/svg">
<path d="M183.5 240L412 607L44 598.888V167.5L183.5 240Z" fill="#77D572"/>
<path d="M438.5 233.5L667 600.5L299 592.388L97 298L299 161L438.5 233.5Z" fill="#77D572"/>
<path d="M630 287L734.5 436V600.5H420V319.5L630 287Z" fill="#77D572"/>
<path d="M576 323.5L741.5 177.5L733 601.25H166.5L576 323.5Z" fill="#77D572"/>
<path d="M488.5 317L627 570H160V317H488.5Z" fill="#77D572"/>
<path d="M44.8891 2.1109C42.7412 -0.0369872 39.2588 -0.0369874 37.1109 2.1109L2.10915 37.1127C-0.0387325 39.2606 -0.0387326 42.743 2.10915 44.8909C4.25704 47.0388 7.73944 47.0388 9.88733 44.8909L41 13.7782L72.1127 44.8909C74.2606 47.0388 77.743 47.0388 79.8909 44.8909C82.0388 42.743 82.0388 39.2606 79.8909 37.1127L44.8891 2.1109ZM46.5 608L46.5 6L35.5 6L35.5 608L46.5 608Z" fill="#9A795A"/>
<path d="M807.889 606.889C810.037 604.741 810.037 601.259 807.889 599.111L772.887 564.109C770.739 561.961 767.257 561.961 765.109 564.109C762.961 566.257 762.961 569.739 765.109 571.887L796.222 603L765.109 634.113C762.961 636.261 762.961 639.743 765.109 641.891C767.257 644.039 770.739 644.039 772.887 641.891L807.889 606.889ZM37 608.5H804V597.5H37V608.5Z" fill="#9A795A"/>
<rect x="228" y="463" width="311" height="97" rx="28" fill="white"/>
<path d="M355.843 513.28C357.315 513.28 358.051 514.112 358.051 515.776C358.051 516.64 357.747 517.264 357.139 517.648C356.563 518.032 355.843 518.224 354.979 518.224C354.723 518.224 354.451 518.208 354.163 518.176C353.875 518.144 353.571 518.112 353.251 518.08C352.291 517.92 351.427 517.84 350.659 517.84C350.115 517.84 349.299 517.904 348.211 518.032C347.059 518.16 346.179 518.224 345.571 518.224C344.707 518.224 343.939 518.064 343.267 517.744C342.595 517.392 342.259 516.816 342.259 516.016C342.259 514.896 342.675 514.176 343.507 513.856C344.339 513.504 345.507 513.328 347.011 513.328L348.595 513.376C349.363 513.44 349.955 513.472 350.371 513.472L353.875 513.376L355.843 513.28ZM374.869 500.56C373.781 500.976 372.853 501.52 372.085 502.192C371.317 502.832 370.629 503.616 370.021 504.544L369.253 505.744C368.677 506.608 368.245 507.312 367.957 507.856C367.669 508.4 367.477 508.976 367.381 509.584C368.949 507.984 371.189 507.184 374.101 507.184C375.349 507.184 376.661 507.536 378.037 508.24C379.445 508.944 380.581 509.76 381.445 510.688C381.989 511.296 382.437 512.224 382.789 513.472C383.173 514.72 383.365 516.048 383.365 517.456C383.365 518.576 383.029 519.728 382.357 520.912C381.685 522.064 380.853 523.072 379.861 523.936C378.901 524.8 378.005 525.344 377.173 525.568C375.893 525.888 374.789 526.048 373.861 526.048C371.749 526.048 369.797 525.472 368.005 524.32C366.213 523.168 364.789 521.632 363.733 519.712C362.677 517.76 362.149 515.648 362.149 513.376C362.149 510.24 362.901 507.248 364.405 504.4C365.941 501.52 367.957 499.184 370.453 497.392C370.869 497.104 371.605 496.8 372.661 496.48C373.749 496.128 374.709 495.952 375.541 495.952C377.109 495.952 377.893 496.576 377.893 497.824C377.893 498.56 377.621 499.136 377.077 499.552C376.565 499.968 375.829 500.304 374.869 500.56ZM372.949 521.632C373.685 521.632 374.309 521.6 374.821 521.536C375.333 521.44 375.797 521.264 376.213 521.008C376.853 520.56 377.413 520.032 377.893 519.424C378.405 518.784 378.661 518.176 378.661 517.6C378.661 515.392 378.117 513.84 377.029 512.944C375.973 512.048 374.725 511.584 373.285 511.552C372.549 511.552 371.701 511.76 370.741 512.176C369.813 512.56 369.013 513.072 368.341 513.712C367.701 514.352 367.381 514.976 367.381 515.584C367.381 516.96 367.669 518.112 368.245 519.04C368.853 519.936 369.589 520.592 370.453 521.008C371.317 521.424 372.149 521.632 372.949 521.632ZM394.419 523.36C394.419 524.16 394.099 524.912 393.459 525.616C392.819 526.288 392.115 526.624 391.347 526.624C390.451 526.624 389.635 526.384 388.899 525.904C388.163 525.392 387.795 524.752 387.795 523.984C387.795 522.768 388.019 521.872 388.467 521.296C388.947 520.72 389.651 520.432 390.579 520.432C391.667 520.432 392.579 520.704 393.315 521.248C394.051 521.76 394.419 522.464 394.419 523.36ZM415.352 510.112C417.304 510.88 418.872 511.904 420.056 513.184C421.24 514.464 421.832 515.936 421.832 517.6C421.832 518.08 421.72 518.688 421.496 519.424C421.304 520.128 421.032 520.736 420.68 521.248C418.568 524.512 414.84 526.144 409.496 526.144C406.712 526.144 404.296 525.584 402.248 524.464C400.2 523.312 399.176 521.6 399.176 519.328C399.176 516.096 401.4 513.328 405.848 511.024C401.688 509.488 399.608 507.216 399.608 504.208C399.608 502.384 400.12 500.848 401.144 499.6C402.168 498.352 403.512 497.424 405.176 496.816C406.872 496.208 408.712 495.904 410.696 495.904C412.168 495.904 413.672 496.256 415.208 496.96C416.744 497.632 417.8 498.512 418.376 499.6C418.952 500.816 419.24 501.952 419.24 503.008C419.24 504.384 418.952 505.648 418.376 506.8C417.832 507.952 416.824 509.056 415.352 510.112ZM410.36 508.672C411.384 508 412.168 507.456 412.712 507.04C413.288 506.592 413.768 506.064 414.152 505.456C414.568 504.816 414.776 504.08 414.776 503.248C414.776 502.288 414.392 501.488 413.624 500.848C412.856 500.208 411.928 499.888 410.84 499.888C408.504 499.888 406.872 500.288 405.944 501.088C405.048 501.888 404.6 502.832 404.6 503.92C404.6 504.784 404.888 505.52 405.464 506.128C406.04 506.704 406.68 507.168 407.384 507.52C408.12 507.84 409.112 508.224 410.36 508.672ZM416.744 517.264C416.744 516.72 416.392 516.144 415.688 515.536C415.016 514.928 414.216 514.4 413.288 513.952C412.36 513.472 411.576 513.152 410.936 512.992C409.848 513.44 408.648 514.16 407.336 515.152C406.024 516.112 405.224 516.816 404.936 517.264C404.616 517.712 404.392 518.096 404.264 518.416C404.168 518.704 404.12 519.056 404.12 519.472C404.12 519.952 404.408 520.416 404.984 520.864C405.56 521.28 406.248 521.616 407.048 521.872C407.848 522.128 408.536 522.256 409.112 522.256C411.384 522.256 413.224 521.808 414.632 520.912C416.04 519.984 416.744 518.768 416.744 517.264ZM432.481 521.008C433.569 521.072 434.289 521.104 434.641 521.104C435.729 521.104 436.689 521.088 437.521 521.056C438.385 521.024 439.121 520.992 439.729 520.96C441.297 520.864 442.705 520.816 443.953 520.816C445.169 520.816 446.065 521.136 446.641 521.776C447.217 522.416 447.505 523.264 447.505 524.32C447.505 524.832 447.169 525.248 446.497 525.568C445.825 525.856 445.137 526 444.433 526C443.825 526 442.561 525.936 440.641 525.808C438.337 525.616 436.529 525.52 435.217 525.52C434.513 525.52 433.681 525.568 432.721 525.664C432.337 525.696 431.873 525.728 431.329 525.76C430.785 525.792 430.177 525.808 429.505 525.808C428.225 525.808 427.249 525.632 426.577 525.28C425.905 524.928 425.569 524.288 425.569 523.36C425.569 522.56 425.889 521.744 426.529 520.912C427.169 520.08 428.065 519.088 429.217 517.936L430.368 516.784C430.881 516.24 431.825 515.312 433.201 514C435.473 511.952 437.233 510.144 438.481 508.576C439.761 507.008 440.401 505.456 440.401 503.92C440.401 502.928 439.921 502.128 438.961 501.52C438.033 500.88 436.961 500.56 435.745 500.56C433.889 500.56 432.545 500.976 431.713 501.808C430.913 502.608 430.513 503.776 430.513 505.312C430.513 505.696 430.289 506.048 429.841 506.368C429.425 506.656 428.897 506.8 428.257 506.8C427.361 506.8 426.737 506.48 426.385 505.84C426.033 505.2 425.857 504.416 425.857 503.488C425.857 502.016 426.305 500.72 427.201 499.6C428.097 498.448 429.313 497.552 430.849 496.912C432.417 496.272 434.145 495.952 436.033 495.952C437.377 495.952 438.769 496.288 440.209 496.96C441.681 497.6 442.897 498.48 443.857 499.6C444.849 500.688 445.345 501.888 445.345 503.2C445.345 505.184 444.849 507.072 443.857 508.864C442.865 510.656 441.697 512.256 440.353 513.664C439.041 515.04 437.329 516.672 435.217 518.56C434.193 519.424 433.281 520.24 432.481 521.008ZM476.418 495.184C476.866 495.184 477.202 495.36 477.426 495.712C477.65 496.064 477.762 496.464 477.762 496.912C477.762 497.52 477.506 498.128 476.994 498.736L475.122 501.136C471.474 505.904 468.546 509.856 466.338 512.992C464.13 516.128 462.002 519.568 459.954 523.312C458.962 525.232 457.826 526.192 456.546 526.192C455.97 526.192 455.458 526.048 455.01 525.76C454.562 525.44 454.338 524.912 454.338 524.176C454.338 523.696 454.482 523.296 454.77 522.976C455.826 521.472 457.714 518.672 460.434 514.576C462.994 510.768 465.106 507.664 466.77 505.264C468.466 502.832 470.114 500.624 471.714 498.64C471.842 498.48 472.146 498.08 472.626 497.44C473.138 496.8 473.714 496.272 474.354 495.856C474.994 495.408 475.682 495.184 476.418 495.184ZM457.41 495.712C458.37 495.712 459.346 495.936 460.338 496.384C461.362 496.832 462.21 497.472 462.882 498.304C463.554 499.104 463.89 500 463.89 500.992C463.89 502.4 463.586 503.68 462.978 504.832C462.37 505.984 461.538 506.896 460.482 507.568C459.426 508.208 458.258 508.528 456.978 508.528C454.962 508.528 453.346 507.936 452.13 506.752C450.914 505.536 450.306 503.952 450.306 502C450.306 499.952 450.93 498.4 452.178 497.344C453.458 496.256 455.202 495.712 457.41 495.712ZM456.354 504.88C458.658 504.88 459.81 503.648 459.81 501.184C459.81 500.576 459.586 500.128 459.138 499.84C458.722 499.552 458.05 499.408 457.122 499.408C456.098 499.408 455.314 499.68 454.77 500.224C454.258 500.736 454.002 501.328 454.002 502C454.002 502.736 454.226 503.408 454.674 504.016C455.122 504.592 455.682 504.88 456.354 504.88ZM480.738 519.28C480.738 520.528 480.386 521.648 479.682 522.64C479.01 523.6 478.098 524.352 476.946 524.896C475.826 525.44 474.642 525.712 473.394 525.712C472.338 525.712 471.346 525.456 470.418 524.944C469.49 524.4 468.738 523.664 468.162 522.736C467.618 521.808 467.346 520.768 467.346 519.616C467.346 518.432 467.634 517.312 468.21 516.256C468.818 515.2 469.682 514.352 470.802 513.712C471.922 513.04 473.234 512.704 474.738 512.704C476.69 512.704 478.178 513.28 479.202 514.432C480.226 515.552 480.738 517.168 480.738 519.28ZM474.354 516.352C473.426 516.352 472.674 516.592 472.098 517.072C471.554 517.552 471.282 518.304 471.282 519.328C471.282 520.224 471.506 520.912 471.954 521.392C472.402 521.872 472.882 522.112 473.394 522.112C475.858 522.112 477.09 521.008 477.09 518.8C477.09 518.064 476.85 517.472 476.37 517.024C475.89 516.576 475.218 516.352 474.354 516.352Z" fill="#77D572"/>
<g clip-path="url(#clip0)">
<path d="M316.125 495.25L288.812 522.562L274.438 508.188L252.875 529.75" stroke="#77D572" stroke-width="6" stroke-linecap="round" stroke-linejoin="round"/>
<path d="M298.875 495.25H316.125V512.5" stroke="#77D572" stroke-width="6" stroke-linecap="round" stroke-linejoin="round"/>
</g>
<defs>
<clipPath id="clip0">
<rect width="69" height="69" fill="white" transform="matrix(1 0 0 -1 250 547)"/>
</clipPath>
</defs>
</svg>
