<svg width="810" height="644" viewBox="0 0 810 644" fill="none" xmlns="http://www.w3.org/2000/svg">
<path d="M183.5 240L412 607L44 598.888V387.5L183.5 240Z" fill="#F06868"/>
<path d="M630 287L734.5 436V600.5H420V319.5L630 287Z" fill="#F06868"/>
<path d="M456.394 26L573.788 601.25H107L456.394 26Z" fill="#F06868"/>
<path d="M333.5 100.5L574 601H107L333.5 100.5Z" fill="#F06868"/>
<path d="M44.8891 2.11091C42.7412 -0.0369708 39.2588 -0.036971 37.1109 2.11091L2.10915 37.1127C-0.0387317 39.2606 -0.0387319 42.743 2.10915 44.8909C4.25704 47.0388 7.73944 47.0388 9.88733 44.8909L41 13.7782L72.1127 44.8909C74.2606 47.0388 77.743 47.0388 79.8909 44.8909C82.0388 42.743 82.0388 39.2606 79.8909 37.1127L44.8891 2.11091ZM46.5 608L46.5 6L35.5 6L35.5 608L46.5 608Z" fill="#9A795A"/>
<path d="M807.889 606.889C810.037 604.741 810.037 601.259 807.889 599.111L772.887 564.109C770.739 561.961 767.257 561.961 765.109 564.109C762.961 566.257 762.961 569.739 765.109 571.887L796.222 603L765.109 634.113C762.961 636.261 762.961 639.743 765.109 641.891C767.257 644.039 770.739 644.039 772.887 641.891L807.889 606.889ZM37 608.5H804V597.5H37V608.5Z" fill="#9A795A"/>
<rect x="228" y="463" width="311" height="97" rx="28" fill="white"/>
<path d="M354.226 513.28C355.698 513.28 356.434 514.112 356.434 515.776C356.434 516.64 356.13 517.264 355.522 517.648C354.946 518.032 354.226 518.224 353.362 518.224C353.106 518.224 352.834 518.208 352.546 518.176C352.258 518.144 351.954 518.112 351.634 518.08C350.674 517.92 349.81 517.84 349.042 517.84C348.498 517.84 347.682 517.904 346.594 518.032C345.442 518.16 344.562 518.224 343.954 518.224C343.09 518.224 342.322 518.064 341.65 517.744C340.978 517.392 340.642 516.816 340.642 516.016C340.642 514.896 341.058 514.176 341.89 513.856C342.722 513.504 343.89 513.328 345.394 513.328L346.978 513.376C347.746 513.44 348.338 513.472 348.754 513.472L352.258 513.376L354.226 513.28ZM373.3 506.8C375.924 507.376 378.1 508.512 379.828 510.208C381.556 511.904 382.42 513.872 382.42 516.112C382.42 517.456 382.1 518.768 381.46 520.048C380.436 522.096 378.9 523.632 376.852 524.656C374.836 525.68 372.5 526.192 369.844 526.192C368.18 526.192 366.692 525.888 365.38 525.28C364.068 524.64 362.772 523.792 361.492 522.736C361.012 522.288 360.58 521.648 360.196 520.816C359.844 519.984 359.668 519.296 359.668 518.752C359.668 518.048 359.86 517.488 360.244 517.072C360.66 516.624 361.204 516.4 361.876 516.4C362.548 516.4 363.076 516.56 363.46 516.88C363.844 517.2 364.308 517.712 364.852 518.416C365.364 519.088 365.828 519.632 366.244 520.048C366.66 520.432 367.22 520.768 367.924 521.056C368.628 521.344 369.508 521.488 370.564 521.488C372.708 521.488 374.388 520.96 375.604 519.904C376.82 518.848 377.428 517.36 377.428 515.44C377.428 514.704 377.028 513.968 376.228 513.232C375.428 512.464 374.676 511.92 373.972 511.6C373.556 511.376 372.788 511.152 371.668 510.928C370.164 510.544 369.028 510.176 368.26 509.824C367.524 509.44 367.156 508.848 367.156 508.048C367.156 507.504 367.396 506.976 367.876 506.464C368.356 505.92 369.076 505.248 370.036 504.448C370.996 503.648 371.716 502.992 372.196 502.48C372.676 501.936 372.916 501.392 372.916 500.848C372.308 500.688 371.396 500.608 370.18 500.608C369.636 500.608 368.82 500.64 367.732 500.704C366.772 500.768 366.036 500.8 365.524 500.8C364.372 500.8 363.38 500.608 362.548 500.224C361.748 499.84 361.348 499.344 361.348 498.736C361.348 498.064 361.412 497.536 361.54 497.152C361.668 496.736 361.908 496.48 362.26 496.384C362.484 496.288 362.884 496.24 363.46 496.24C365.028 496.24 366.388 496.288 367.54 496.384C368.82 496.448 369.796 496.48 370.468 496.48L374.452 496.432C377.716 496.432 379.348 497.216 379.348 498.784C379.348 499.968 378.74 501.312 377.524 502.816C376.34 504.288 374.932 505.616 373.3 506.8ZM393.552 523.36C393.552 524.16 393.232 524.912 392.592 525.616C391.952 526.288 391.248 526.624 390.48 526.624C389.584 526.624 388.768 526.384 388.032 525.904C387.296 525.392 386.928 524.752 386.928 523.984C386.928 522.768 387.152 521.872 387.6 521.296C388.08 520.72 388.784 520.432 389.712 520.432C390.8 520.432 391.712 520.704 392.448 521.248C393.184 521.76 393.552 522.464 393.552 523.36ZM407.476 497.2C407.476 498.768 407.188 500.592 406.612 502.672C406.068 504.72 405.268 507.248 404.212 510.256L403.108 513.568C403.652 513.664 404.212 513.712 404.788 513.712C405.78 513.712 407.268 513.616 409.252 513.424C411.236 513.232 412.66 513.136 413.524 513.136L413.476 507.856C413.412 504.208 413.38 501.52 413.38 499.792C413.38 497.52 414.132 496.384 415.636 496.384C416.82 496.384 417.572 496.688 417.892 497.296C418.244 497.904 418.42 498.816 418.42 500.032C418.42 501.28 418.324 503.216 418.132 505.84C418.1 506.352 418.052 507.2 417.988 508.384C417.924 509.568 417.892 510.592 417.892 511.456L417.94 512.992L418.9 512.944C419.668 512.88 420.26 512.848 420.676 512.848C421.444 512.848 422.18 513.104 422.884 513.616C423.588 514.096 423.94 514.672 423.94 515.344C423.94 516.144 423.812 516.768 423.556 517.216C423.332 517.664 423.06 517.888 422.74 517.888C422.196 517.888 421.508 517.824 420.676 517.696C420.484 517.696 420.196 517.68 419.812 517.648C419.428 517.584 419.06 517.552 418.708 517.552L417.892 517.6L417.94 524.08C417.94 524.752 417.716 525.264 417.268 525.616C416.82 525.968 416.308 526.144 415.732 526.144C415.028 526.144 414.404 525.92 413.86 525.472C413.316 525.024 413.044 524.464 413.044 523.792C413.044 521.648 413.076 519.968 413.14 518.752C413.172 518.464 413.188 518.112 413.188 517.696C412.228 517.664 410.564 517.776 408.196 518.032C405.956 518.288 404.26 518.416 403.108 518.416C401.636 518.416 400.388 518.208 399.364 517.792C398.372 517.376 397.876 516.72 397.876 515.824C397.876 514.96 398.052 513.904 398.404 512.656C398.756 511.408 399.284 509.728 399.988 507.616C400.308 506.784 400.548 506.096 400.708 505.552C401.284 503.92 401.716 502.544 402.004 501.424C402.292 500.272 402.612 498.88 402.964 497.248C403.092 496.736 403.364 496.352 403.78 496.096C404.196 495.84 404.676 495.712 405.22 495.712C405.796 495.712 406.308 495.856 406.756 496.144C407.236 496.4 407.476 496.752 407.476 497.2ZM434.097 500.848C433.873 501.744 433.729 502.928 433.665 504.4C433.601 505.68 433.505 506.64 433.377 507.28C434.305 506.896 435.185 506.656 436.017 506.56C436.849 506.432 437.905 506.368 439.185 506.368C441.169 506.368 442.897 506.832 444.369 507.76C445.841 508.656 446.961 509.872 447.729 511.408C448.497 512.912 448.881 514.528 448.881 516.256C448.881 516.928 448.657 517.84 448.209 518.992C447.761 520.112 447.297 520.976 446.817 521.584C445.697 523.056 444.401 524.192 442.929 524.992C441.457 525.76 439.857 526.144 438.129 526.144C436.817 526.144 435.617 525.968 434.529 525.616C433.473 525.232 432.337 524.72 431.121 524.08C429.873 523.408 428.961 522.72 428.385 522.016C427.841 521.28 427.569 520.368 427.569 519.28C427.569 518.704 427.809 518.24 428.289 517.888C428.801 517.504 429.281 517.312 429.729 517.312C430.017 517.312 430.273 517.392 430.497 517.552C430.721 517.712 431.089 518.032 431.601 518.512L432.801 519.664C433.569 520.304 434.321 520.784 435.057 521.104C435.825 521.424 436.753 521.584 437.841 521.584C438.833 521.584 439.633 521.456 440.241 521.2C441.457 520.72 442.401 520.096 443.073 519.328C443.777 518.56 444.129 517.328 444.129 515.632C444.129 514 443.585 512.736 442.497 511.84C441.409 510.912 439.569 510.448 436.977 510.448C436.625 510.448 436.113 510.544 435.441 510.736C434.769 510.928 434.113 511.136 433.473 511.36C431.937 511.872 430.993 512.128 430.641 512.128C430.193 512.128 429.745 511.936 429.297 511.552C428.849 511.168 428.625 510.656 428.625 510.016C429.201 506.144 429.489 502.928 429.489 500.368L429.441 499.168C429.377 498.592 429.345 498.112 429.345 497.728C429.345 497.152 429.649 496.72 430.257 496.432C430.897 496.112 431.553 495.952 432.225 495.952C432.801 495.952 434.049 496.048 435.969 496.24L438.273 496.432C438.561 496.464 438.993 496.48 439.569 496.48L441.345 496.432C441.697 496.4 442.209 496.384 442.881 496.384C443.841 496.384 444.641 496.528 445.281 496.816C445.921 497.104 446.241 497.568 446.241 498.208C446.241 499.2 446.081 499.92 445.761 500.368C445.441 500.816 445.073 501.04 444.657 501.04C444.273 501.04 443.633 500.976 442.737 500.848C441.553 500.72 440.161 500.656 438.561 500.656C437.441 500.656 435.953 500.72 434.097 500.848ZM478.035 495.184C478.483 495.184 478.819 495.36 479.043 495.712C479.267 496.064 479.379 496.464 479.379 496.912C479.379 497.52 479.123 498.128 478.611 498.736L476.739 501.136C473.091 505.904 470.163 509.856 467.955 512.992C465.747 516.128 463.619 519.568 461.571 523.312C460.579 525.232 459.443 526.192 458.163 526.192C457.587 526.192 457.075 526.048 456.627 525.76C456.179 525.44 455.955 524.912 455.955 524.176C455.955 523.696 456.099 523.296 456.387 522.976C457.443 521.472 459.331 518.672 462.051 514.576C464.611 510.768 466.723 507.664 468.387 505.264C470.083 502.832 471.731 500.624 473.331 498.64C473.459 498.48 473.763 498.08 474.243 497.44C474.755 496.8 475.331 496.272 475.971 495.856C476.611 495.408 477.299 495.184 478.035 495.184ZM459.027 495.712C459.987 495.712 460.963 495.936 461.955 496.384C462.979 496.832 463.827 497.472 464.499 498.304C465.171 499.104 465.507 500 465.507 500.992C465.507 502.4 465.203 503.68 464.595 504.832C463.987 505.984 463.155 506.896 462.099 507.568C461.043 508.208 459.875 508.528 458.595 508.528C456.579 508.528 454.963 507.936 453.747 506.752C452.531 505.536 451.923 503.952 451.923 502C451.923 499.952 452.547 498.4 453.795 497.344C455.075 496.256 456.819 495.712 459.027 495.712ZM457.971 504.88C460.275 504.88 461.427 503.648 461.427 501.184C461.427 500.576 461.203 500.128 460.755 499.84C460.339 499.552 459.667 499.408 458.739 499.408C457.715 499.408 456.931 499.68 456.387 500.224C455.875 500.736 455.619 501.328 455.619 502C455.619 502.736 455.843 503.408 456.291 504.016C456.739 504.592 457.299 504.88 457.971 504.88ZM482.355 519.28C482.355 520.528 482.003 521.648 481.299 522.64C480.627 523.6 479.715 524.352 478.563 524.896C477.443 525.44 476.259 525.712 475.011 525.712C473.955 525.712 472.963 525.456 472.035 524.944C471.107 524.4 470.355 523.664 469.779 522.736C469.235 521.808 468.963 520.768 468.963 519.616C468.963 518.432 469.251 517.312 469.827 516.256C470.435 515.2 471.299 514.352 472.419 513.712C473.539 513.04 474.851 512.704 476.355 512.704C478.307 512.704 479.795 513.28 480.819 514.432C481.843 515.552 482.355 517.168 482.355 519.28ZM475.971 516.352C475.043 516.352 474.291 516.592 473.715 517.072C473.171 517.552 472.899 518.304 472.899 519.328C472.899 520.224 473.123 520.912 473.571 521.392C474.019 521.872 474.499 522.112 475.011 522.112C477.475 522.112 478.707 521.008 478.707 518.8C478.707 518.064 478.467 517.472 477.987 517.024C477.507 516.576 476.835 516.352 475.971 516.352Z" fill="#F06868"/>
<g clip-path="url(#clip0)">
<path d="M316.125 529.75L288.812 502.438L274.438 516.812L252.875 495.25" stroke="#F06868" stroke-width="6" stroke-linecap="round" stroke-linejoin="round"/>
<path d="M298.875 529.75H316.125V512.5" stroke="#F06868" stroke-width="6" stroke-linecap="round" stroke-linejoin="round"/>
</g>
<defs>
<clipPath id="clip0">
<rect width="69" height="69" fill="white" transform="translate(250 478)"/>
</clipPath>
</defs>
</svg>
