<svg width="130" height="169" viewBox="0 0 130 169" fill="none" xmlns="http://www.w3.org/2000/svg">
<path d="M35.0566 21.8385C34.9255 21.4679 34.88 21.1247 34.9204 20.8088C34.9503 20.4782 35.0679 20.2399 35.2732 20.0938C35.7719 19.739 36.199 19.5787 36.5547 19.6128C36.9103 19.6469 37.2551 19.8986 37.5891 20.368C37.683 20.5 37.8464 20.947 38.0794 21.7091C38.6161 23.4259 39.3437 25.504 40.262 27.9433C40.4639 28.5066 40.6461 28.9955 40.8086 29.4101C40.9857 29.8143 41.1284 30.1546 41.2367 30.431C41.9596 32.192 42.4604 33.5478 42.739 34.4983C42.8076 34.7809 42.7788 35.0665 42.6527 35.355C42.5162 35.6289 42.3233 35.8545 42.074 36.0319C41.8247 36.2093 41.5388 36.3354 41.2164 36.4101C40.8983 36.4598 40.6357 36.4478 40.4287 36.3742C39.3375 35.803 37.9067 34.9875 36.1363 33.9276C34.3701 32.8426 32.8915 31.8512 31.7004 30.9535C32.4295 33.9031 33.1965 36.7042 34.0015 39.3568C34.0514 39.5201 34.1044 39.7033 34.1606 39.9063C34.2209 40.0843 34.2792 40.2748 34.3353 40.4779C34.3892 40.7709 34.3677 41.0513 34.271 41.319C34.1638 41.572 33.9929 41.7819 33.7582 41.9489C33.4942 42.1367 33.2011 42.268 32.8787 42.3428C32.5459 42.4029 32.2833 42.3909 32.0909 42.3068C31.6707 42.1198 31.1106 41.7673 30.4105 41.2492C29.7252 40.7206 28.7734 39.9729 27.5553 39.0061L25.6747 37.5275C24.4273 36.5815 23.2102 35.5697 22.0237 34.492C20.8371 33.4143 20.1552 32.7508 19.9778 32.5015C19.7586 32.1935 19.7404 31.8419 19.9232 31.4468C20.0955 31.037 20.3357 30.7225 20.6437 30.5033C20.8196 30.3781 21.0447 30.3063 21.3189 30.288C21.5826 30.255 21.8377 30.3496 22.0842 30.5719C24.549 32.9492 27.5688 35.5943 31.1437 38.5073C30.878 37.3266 30.5081 35.9219 30.034 34.2931C29.5745 32.6539 29.1192 31.067 28.6679 29.5324L28.4183 28.7159C28.3204 28.4541 28.3471 28.1811 28.4983 27.8968C28.6537 27.5874 28.856 27.344 29.1054 27.1666C29.428 26.937 29.7494 26.8299 30.0695 26.8451C30.3896 26.8603 30.6469 26.9424 30.8412 27.0913C30.8976 27.1395 31.8118 27.8035 33.5839 29.0831C35.356 30.3627 37.2485 31.5787 39.2615 32.7312C38.9391 31.6571 38.3049 30.0207 37.3589 27.8219L36.6558 26.1352C35.9456 24.2988 35.4125 22.8666 35.0566 21.8385Z" fill="#9A795A"/>
<path d="M35.0566 21.8385L35.5291 21.6749L35.528 21.6717L35.0566 21.8385ZM34.9204 20.8088L35.4164 20.8721L35.4175 20.863L35.4183 20.8538L34.9204 20.8088ZM38.0794 21.7091L37.6012 21.8552L37.6022 21.8583L38.0794 21.7091ZM40.262 27.9433L40.7327 27.7746L40.7299 27.7672L40.262 27.9433ZM40.8086 29.4101L40.3431 29.5925L40.3467 29.6017L40.3506 29.6108L40.8086 29.4101ZM41.2367 30.431L40.7711 30.6134L40.7742 30.6208L41.2367 30.431ZM42.739 34.4983L43.225 34.3805L43.2222 34.369L43.2189 34.3576L42.739 34.4983ZM42.6527 35.355L43.1002 35.5781L43.1059 35.5668L43.1109 35.5552L42.6527 35.355ZM41.2164 36.4101L41.2935 36.9042L41.3116 36.9013L41.3294 36.8972L41.2164 36.4101ZM40.4287 36.3742L40.1968 36.8172L40.228 36.8335L40.2612 36.8453L40.4287 36.3742ZM36.1363 33.9276L35.8745 34.3537L35.8794 34.3566L36.1363 33.9276ZM31.7004 30.9535L32.0014 30.5542L30.8773 29.7069L31.2151 31.0734L31.7004 30.9535ZM34.0015 39.3568L33.523 39.502L33.5233 39.503L34.0015 39.3568ZM34.1606 39.9063L33.6786 40.0395L33.6825 40.0534L33.6871 40.0669L34.1606 39.9063ZM34.3353 40.4779L34.8271 40.3875L34.8231 40.3659L34.8172 40.3447L34.3353 40.4779ZM34.271 41.319L34.7314 41.514L34.7366 41.5016L34.7412 41.4889L34.271 41.319ZM32.8787 42.3428L32.9675 42.8348L32.9796 42.8326L32.9916 42.8299L32.8787 42.3428ZM32.0909 42.3068L31.8877 42.7636L31.8907 42.765L32.0909 42.3068ZM30.4105 41.2492L30.1051 41.6452L30.1131 41.6511L30.4105 41.2492ZM27.5553 39.0061L27.8661 38.6144L27.8643 38.613L27.5553 39.0061ZM25.6747 37.5275L25.9838 37.1343L25.9769 37.1291L25.6747 37.5275ZM22.0237 34.492L21.6875 34.8621L21.6875 34.8621L22.0237 34.492ZM19.9232 31.4468L20.377 31.6567L20.3807 31.6487L20.3841 31.6406L19.9232 31.4468ZM21.3189 30.288L21.3522 30.7869L21.3666 30.7859L21.3809 30.7841L21.3189 30.288ZM22.0842 30.5719L22.4313 30.212L22.4252 30.2061L22.419 30.2005L22.0842 30.5719ZM31.1437 38.5073L30.8279 38.8949L31.949 39.8084L31.6315 38.3975L31.1437 38.5073ZM30.034 34.2931L29.5525 34.4281L29.5539 34.4329L30.034 34.2931ZM28.6679 29.5324L29.1476 29.3913L29.1461 29.3862L28.6679 29.5324ZM28.4183 28.7159L28.8965 28.5697L28.892 28.5551L28.8866 28.5408L28.4183 28.7159ZM28.4983 27.8968L28.9399 28.1316L28.9451 28.1212L28.4983 27.8968ZM30.0695 26.8451L30.0933 26.3456L30.0933 26.3456L30.0695 26.8451ZM30.8412 27.0913L31.1661 26.7113L31.156 26.7026L31.1453 26.6944L30.8412 27.0913ZM33.5839 29.0831L33.8766 28.6777L33.8766 28.6777L33.5839 29.0831ZM39.2615 32.7312L39.013 33.1651L40.1006 33.7877L39.7403 32.5874L39.2615 32.7312ZM37.3589 27.8219L36.8974 28.0143L36.8996 28.0195L37.3589 27.8219ZM36.6558 26.1352L36.1893 26.3156L36.1943 26.3276L36.6558 26.1352ZM35.528 21.6717C35.4169 21.3579 35.388 21.0944 35.4164 20.8721L34.4244 20.7455C34.3721 21.155 34.434 21.578 34.5853 22.0053L35.528 21.6717ZM35.4183 20.8538C35.4395 20.6196 35.5117 20.5378 35.5631 20.5012L34.9833 19.6864C34.6241 19.942 34.461 20.3369 34.4224 20.7638L35.4183 20.8538ZM35.5631 20.5012C36.0277 20.1706 36.3311 20.0936 36.5069 20.1105L36.6024 19.1151C36.067 19.0637 35.516 19.3074 34.9833 19.6864L35.5631 20.5012ZM36.5069 20.1105C36.6497 20.1242 36.8813 20.2357 37.1817 20.6578L37.9965 20.0781C37.6289 19.5616 37.171 19.1696 36.6024 19.1151L36.5069 20.1105ZM37.1817 20.6578C37.1752 20.6488 37.1868 20.6642 37.2156 20.7291C37.2416 20.7874 37.2738 20.8681 37.3125 20.9739C37.3898 21.1853 37.4859 21.4779 37.6012 21.8552L38.5576 21.5629C38.4399 21.1782 38.3379 20.8662 38.2517 20.6305C38.1737 20.4171 38.0888 20.2079 37.9965 20.0781L37.1817 20.6578ZM37.6022 21.8583C38.1427 23.5872 38.8737 25.6748 39.7941 28.1195L40.7299 27.7672C39.8136 25.3331 39.0896 23.2646 38.5566 21.5599L37.6022 21.8583ZM39.7913 28.1121C39.9944 28.6785 40.1783 29.1722 40.3431 29.5925L41.2741 29.2277C41.1139 28.8189 40.9335 28.3347 40.7327 27.7746L39.7913 28.1121ZM40.3506 29.6108C40.5263 30.0115 40.6662 30.3453 40.7712 30.6134L41.7023 30.2486C41.5907 29.9638 41.4452 29.617 41.2666 29.2094L40.3506 29.6108ZM40.7742 30.6208C41.4953 32.3776 41.9881 33.7141 42.2592 34.639L43.2189 34.3576C42.9327 33.3816 42.4239 32.0065 41.6993 30.2411L40.7742 30.6208ZM42.2531 34.6161C42.2937 34.7836 42.2807 34.9576 42.1946 35.1548L43.1109 35.5552C43.2769 35.1753 43.3214 34.7782 43.225 34.3805L42.2531 34.6161ZM42.2053 35.132C42.1054 35.3324 41.9666 35.4947 41.7841 35.6245L42.3639 36.4393C42.6801 36.2143 42.9271 35.9254 43.1002 35.5781L42.2053 35.132ZM41.7841 35.6245C41.5922 35.7611 41.3675 35.8619 41.1035 35.9231L41.3294 36.8972C41.7101 36.8089 42.0571 36.6576 42.3639 36.4393L41.7841 35.6245ZM41.1394 35.9161C40.8678 35.9585 40.6968 35.9388 40.5962 35.9031L40.2612 36.8453C40.5746 36.9567 40.9287 36.9611 41.2935 36.9042L41.1394 35.9161ZM40.6605 35.9312C39.5815 35.3664 38.16 34.5564 36.3931 33.4986L35.8794 34.3566C37.6534 35.4186 39.0934 36.2397 40.1968 36.8172L40.6605 35.9312ZM36.398 33.5016C34.6406 32.4219 33.176 31.4395 32.0014 30.5542L31.3995 31.3527C32.607 32.2629 34.0997 33.2632 35.8746 34.3536L36.398 33.5016ZM31.2151 31.0734C31.946 34.0307 32.7153 36.8403 33.523 39.502L34.48 39.2116C33.6778 36.5681 32.913 33.7754 32.1858 30.8335L31.2151 31.0734ZM33.5233 39.503C33.5717 39.6611 33.6234 39.8399 33.6786 40.0395L34.6425 39.7731C34.5854 39.5667 34.5312 39.3791 34.4797 39.2106L33.5233 39.503ZM33.6871 40.0669C33.744 40.2349 33.7995 40.4162 33.8534 40.6111L34.8172 40.3447C34.7589 40.1335 34.6978 39.9338 34.6341 39.7458L33.6871 40.0669ZM33.8435 40.5683C33.8822 40.7785 33.8659 40.9687 33.8008 41.149L34.7412 41.4889C34.8695 41.1339 34.8962 40.7634 34.8271 40.3875L33.8435 40.5683ZM33.8106 41.1239C33.7413 41.2875 33.6314 41.4255 33.4684 41.5415L34.0481 42.3563C34.3544 42.1384 34.5863 41.8564 34.7314 41.514L33.8106 41.1239ZM33.4684 41.5415C33.2587 41.6907 33.0259 41.7954 32.7658 41.8557L32.9916 42.8299C33.3762 42.7407 33.7298 42.5828 34.0481 42.3563L33.4684 41.5415ZM32.7899 41.8507C32.5002 41.903 32.3526 41.8755 32.2911 41.8486L31.8907 42.765C32.214 42.9062 32.5915 42.9027 32.9675 42.8348L32.7899 41.8507ZM32.2942 41.85C31.9248 41.6856 31.3998 41.3593 30.708 40.8473L30.1131 41.6511C30.8213 42.1753 31.4166 42.554 31.8877 42.7636L32.2942 41.85ZM30.7159 40.8532C30.0333 40.3268 29.0836 39.5808 27.8661 38.6144L27.2444 39.3977C28.4632 40.3651 29.4171 41.1144 30.1052 41.6451L30.7159 40.8532ZM27.8643 38.613L25.9838 37.1344L25.3657 37.9205L27.2462 39.3991L27.8643 38.613ZM25.9769 37.1291C24.7414 36.1922 23.5357 35.1898 22.3599 34.1219L21.6875 34.8621C22.8848 35.9495 24.1131 36.9708 25.3726 37.9259L25.9769 37.1291ZM22.3599 34.1219C21.7684 33.5846 21.306 33.1537 20.971 32.8277C20.6236 32.4897 20.443 32.2929 20.3851 32.2116L19.5704 32.7913C19.6899 32.9594 19.939 33.2189 20.2736 33.5445C20.6205 33.882 21.0925 34.3216 21.6875 34.8621L22.3599 34.1219ZM20.3851 32.2116C20.2877 32.0746 20.2558 31.9186 20.377 31.6567L19.4694 31.2369C19.225 31.7652 19.2296 32.3124 19.5704 32.7913L20.3851 32.2116ZM20.3841 31.6406C20.5268 31.3012 20.7138 31.0671 20.9335 30.9107L20.3538 30.0959C19.9576 30.3779 19.6642 30.7727 19.4623 31.2529L20.3841 31.6406ZM20.9335 30.9107C21.0162 30.8519 21.1456 30.8007 21.3522 30.7869L21.2855 29.7891C20.9438 29.8119 20.6231 29.9043 20.3538 30.0959L20.9335 30.9107ZM21.3809 30.7841C21.4658 30.7735 21.5817 30.792 21.7494 30.9432L22.419 30.2005C22.0937 29.9072 21.6994 29.7365 21.2568 29.7919L21.3809 30.7841ZM21.7371 30.9317C24.2146 33.3214 27.2456 35.9759 30.8279 38.8949L31.4595 38.1197C27.892 35.2127 24.8833 32.577 22.4313 30.212L21.7371 30.9317ZM31.6315 38.3975C31.3629 37.2037 30.99 35.7885 30.5141 34.1534L29.5539 34.4329C30.0262 36.0554 30.3932 37.4496 30.6559 38.617L31.6315 38.3975ZM30.5154 34.1582C30.0555 32.517 29.5995 30.9281 29.1476 29.3913L28.1882 29.6734C28.6389 31.2059 29.0936 32.7908 29.5525 34.4281L30.5154 34.1582ZM29.1461 29.3862L28.8965 28.5697L27.9402 28.862L28.1898 29.6786L29.1461 29.3862ZM28.8866 28.5408C28.8468 28.4342 28.8445 28.3107 28.9397 28.1316L28.0568 27.6621C27.8497 28.0515 27.7941 28.474 27.95 28.891L28.8866 28.5408ZM28.9451 28.1212C29.0687 27.875 29.2207 27.6982 29.3952 27.574L28.8155 26.7592C28.4914 26.9898 28.2386 27.2998 28.0515 27.6724L28.9451 28.1212ZM29.3952 27.574C29.6487 27.3937 29.8619 27.3358 30.0458 27.3445L30.0933 26.3456C29.6369 26.3239 29.2074 26.4804 28.8155 26.7592L29.3952 27.574ZM30.0458 27.3445C30.2953 27.3564 30.4452 27.4178 30.5371 27.4882L31.1453 26.6944C30.8485 26.467 30.484 26.3642 30.0933 26.3456L30.0458 27.3445ZM30.5163 27.4713C30.5644 27.5125 30.8346 27.7099 31.2754 28.03C31.7331 28.3624 32.4051 28.8486 33.2912 29.4884L33.8766 28.6777C32.9907 28.038 32.3196 27.5524 31.863 27.2208C31.6346 27.055 31.4605 26.9281 31.3401 26.8398C31.2071 26.7422 31.1618 26.7076 31.1661 26.7113L30.5163 27.4713ZM33.2912 29.4884C35.0784 30.779 36.9858 32.0045 39.013 33.1651L39.5099 32.2972C37.5113 31.153 35.6336 29.9465 33.8766 28.6777L33.2912 29.4884ZM39.7403 32.5874C39.4092 31.4842 38.7653 29.8257 37.8182 27.6243L36.8996 28.0195C37.8445 30.2158 38.4689 31.8301 38.7826 32.8749L39.7403 32.5874ZM37.8204 27.6295L37.1173 25.9428L36.1943 26.3276L36.8974 28.0143L37.8204 27.6295ZM37.1221 25.9548C36.4127 24.1203 35.8821 22.6946 35.5291 21.6749L34.5841 22.0021C34.943 23.0386 35.4785 24.4773 36.1895 26.3155L37.1221 25.9548Z" fill="#9A795A"/>
<path d="M52.5186 15.8236C53.7122 15.6507 54.8208 15.6448 55.8444 15.8058C56.8655 15.9489 57.729 16.2604 58.4351 16.7401C59.7044 17.593 60.6495 18.5929 61.2702 19.7398C61.9062 20.8663 62.3597 22.3648 62.6305 24.2353C62.6873 24.6272 62.6854 24.9912 62.625 25.3273C62.5823 25.6609 62.4902 26.0925 62.3487 26.6223C62.1614 27.2132 62.0643 27.6729 62.0573 28.0013C61.7913 28.6764 61.2899 29.3583 60.553 30.047C59.8339 30.7331 59.028 31.3227 58.1355 31.8157C57.2429 32.3087 56.4404 32.6068 55.7278 32.71C52.2896 33.2078 49.6699 32.3868 47.8687 30.2469C47.3635 29.6471 46.9435 29.0076 46.6088 28.3286C46.2918 27.647 46.0843 26.9677 45.9863 26.2908C45.7232 24.4737 45.8155 22.8507 46.2634 21.4218C46.7264 19.9725 47.4828 18.7899 48.5323 17.874C49.1678 17.3637 49.8402 16.9208 50.5497 16.5452C51.2745 16.1492 51.9308 15.9087 52.5186 15.8236ZM48.7769 25.9685C48.9162 26.9305 49.2448 27.6923 49.7626 28.2539C50.2982 28.8129 51.0732 29.3918 52.0875 29.9906C52.877 30.1673 53.4118 30.2808 53.6919 30.3312C53.9694 30.3638 54.2774 30.3555 54.6159 30.3065C56.4151 30.046 57.7782 29.3484 58.7052 28.2139C59.6321 27.0793 59.9718 25.657 59.7242 23.9468C59.5281 22.5929 59.2219 21.546 58.8056 20.806C58.3892 20.066 57.744 19.4411 56.8699 18.9311C56.4112 18.6519 55.8495 18.4786 55.185 18.4112C54.5383 18.3411 53.8497 18.359 53.1194 18.4648C52.0149 18.6247 51.1095 19.0923 50.4033 19.8675C49.6946 20.6249 49.2012 21.5511 48.9233 22.6463C48.6632 23.7388 48.6144 24.8462 48.7769 25.9685Z" fill="#9A795A"/>
<path d="M55.8444 15.8058L55.7667 16.2998L55.775 16.3009L55.8444 15.8058ZM58.4351 16.7401L58.154 17.1537L58.1562 17.1552L58.4351 16.7401ZM61.2702 19.7398L60.8304 19.9778L60.8348 19.9856L61.2702 19.7398ZM62.625 25.3273L62.1329 25.2388L62.1306 25.2513L62.129 25.2639L62.625 25.3273ZM62.3487 26.6223L62.8253 26.7733L62.8288 26.7624L62.8317 26.7514L62.3487 26.6223ZM62.0573 28.0013L62.5225 28.1846L62.5553 28.1014L62.5572 28.012L62.0573 28.0013ZM60.553 30.047L60.2115 29.6817L60.2078 29.6852L60.553 30.047ZM47.8687 30.2469L48.2512 29.9249L48.2511 29.9248L47.8687 30.2469ZM46.6088 28.3286L46.1553 28.5395L46.1603 28.5497L46.6088 28.3286ZM46.2634 21.4218L45.7871 21.2696L45.7862 21.2723L46.2634 21.4218ZM48.5323 17.874L48.2193 17.4842L48.2113 17.4906L48.2036 17.4973L48.5323 17.874ZM50.5497 16.5452L50.7837 16.9871L50.7895 16.984L50.5497 16.5452ZM49.7626 28.2539L49.3949 28.5929L49.4016 28.5998L49.7626 28.2539ZM52.0875 29.9906L51.8333 30.4212L51.9013 30.4613L51.9783 30.4785L52.0875 29.9906ZM53.6919 30.3312L53.6034 30.8233L53.6184 30.826L53.6336 30.8278L53.6919 30.3312ZM58.7052 28.2139L59.0924 28.5302L59.0924 28.5302L58.7052 28.2139ZM58.8056 20.806L58.3698 21.0512L58.3698 21.0512L58.8056 20.806ZM56.8699 18.9311L56.6099 19.3583L56.6179 19.3629L56.8699 18.9311ZM55.185 18.4112L55.1312 18.9083L55.1345 18.9086L55.185 18.4112ZM50.4033 19.8675L50.7685 20.2091L50.773 20.2042L50.4033 19.8675ZM48.9233 22.6463L48.4386 22.5233L48.4369 22.5305L48.9233 22.6463ZM52.5903 16.3184C53.7422 16.1516 54.7999 16.1477 55.7668 16.2997L55.9221 15.3118C54.8417 15.142 53.6822 15.1499 52.447 15.3287L52.5903 16.3184ZM55.775 16.3009C56.7358 16.4356 57.5232 16.725 58.1541 17.1537L58.7161 16.3266C57.9349 15.7957 56.9952 15.4622 55.9138 15.3106L55.775 16.3009ZM58.1562 17.1552C59.37 17.9707 60.2544 18.9134 60.8305 19.9778L61.7099 19.5018C61.0445 18.2724 60.0388 17.2154 58.7139 16.3251L58.1562 17.1552ZM60.8348 19.9856C61.4298 21.0395 61.87 22.4719 62.1357 24.3069L63.1254 24.1636C62.8494 22.2576 62.3826 20.6931 61.7056 19.494L60.8348 19.9856ZM62.1357 24.3069C62.1859 24.6539 62.1824 24.9633 62.1329 25.2388L63.1171 25.4158C63.1884 25.0191 63.1886 24.6004 63.1254 24.1636L62.1357 24.3069ZM62.129 25.2639C62.0904 25.566 62.0045 25.9734 61.8656 26.4932L62.8317 26.7514C62.9759 26.2116 63.0743 25.7558 63.1209 25.3907L62.129 25.2639ZM61.872 26.4713C61.6808 27.0749 61.566 27.5894 61.5574 27.9906L62.5572 28.012C62.5627 27.7564 62.6421 27.3515 62.8253 26.7733L61.872 26.4713ZM61.5921 27.818C61.3618 28.4025 60.9141 29.0251 60.2115 29.6817L60.8944 30.4123C61.6657 29.6914 62.2208 28.9503 62.5225 28.1846L61.5921 27.818ZM60.2078 29.6852C59.5206 30.341 58.7497 30.9052 57.8937 31.378L58.3772 32.2534C59.3064 31.7401 60.1472 31.1253 60.8981 30.4087L60.2078 29.6852ZM57.8937 31.378C57.0337 31.853 56.2898 32.1234 55.6561 32.2151L55.7994 33.2048C56.5909 33.0902 57.4521 32.7644 58.3772 32.2534L57.8937 31.378ZM55.6561 32.2151C52.3414 32.6951 49.9133 31.8995 48.2512 29.9249L47.4861 30.5688C49.4266 32.8741 52.2379 33.7206 55.7994 33.2048L55.6561 32.2151ZM48.2511 29.9248C47.771 29.3547 47.3735 28.7491 47.0572 28.1075L46.1603 28.5497C46.5135 29.2662 46.956 29.9394 47.4862 30.569L48.2511 29.9248ZM47.0621 28.1178C46.7637 27.476 46.5715 26.8434 46.4811 26.2191L45.4914 26.3624C45.5971 27.092 45.8199 27.818 46.1554 28.5394L47.0621 28.1178ZM46.4811 26.2191C46.2264 24.4598 46.3195 22.9145 46.7405 21.5714L45.7862 21.2723C45.3115 22.787 45.22 24.4877 45.4914 26.3624L46.4811 26.2191ZM46.7396 21.574C47.1776 20.2033 47.8865 19.1012 48.8611 18.2508L48.2036 17.4973C47.079 18.4786 46.2753 19.7417 45.7871 21.2696L46.7396 21.574ZM48.8454 18.2639C49.4566 17.7731 50.1026 17.3476 50.7836 16.9871L50.3158 16.1033C49.5779 16.4939 48.879 16.9543 48.2193 17.4842L48.8454 18.2639ZM50.7895 16.984C51.4808 16.6062 52.0794 16.3924 52.5903 16.3184L52.447 15.3287C51.7821 15.425 51.0681 15.6922 50.31 16.1064L50.7895 16.984ZM48.2821 26.0402C48.4319 27.0749 48.7922 27.9391 49.395 28.5928L50.1302 27.9149C49.6973 27.4455 49.4005 26.7861 49.2717 25.8969L48.2821 26.0402ZM49.4016 28.5998C49.9807 29.2041 50.7979 29.8099 51.8333 30.4212L52.3417 29.56C51.3485 28.9737 50.6158 28.4216 50.1236 27.9079L49.4016 28.5998ZM51.9783 30.4785C52.7665 30.6549 53.3113 30.7708 53.6034 30.8233L53.7804 29.8391C53.5122 29.7909 52.9875 29.6796 52.1967 29.5027L51.9783 30.4785ZM53.6336 30.8278C53.9627 30.8664 54.3152 30.8553 54.6875 30.8014L54.5442 29.8117C54.2396 29.8558 53.9761 29.8611 53.7501 29.8346L53.6336 30.8278ZM54.6875 30.8014C56.5794 30.5274 58.0684 29.7836 59.0924 28.5302L58.318 27.8975C57.488 28.9133 56.2508 29.5646 54.5442 29.8117L54.6875 30.8014ZM59.0924 28.5302C60.124 27.2676 60.4828 25.6968 60.219 23.8751L59.2293 24.0185C59.4608 25.6171 59.1403 26.8911 58.318 27.8975L59.0924 28.5302ZM60.219 23.8751C60.0189 22.493 59.7007 21.3773 59.2413 20.5608L58.3698 21.0512C58.7431 21.7147 59.0374 22.6929 59.2293 24.0185L60.219 23.8751ZM59.2413 20.5608C58.7737 19.7297 58.0579 19.0454 57.1219 18.4992L56.6179 19.3629C57.4301 19.8368 58.0048 20.4024 58.3698 21.0512L59.2413 20.5608ZM57.1298 18.5039C56.5938 18.1778 55.9566 17.9869 55.2355 17.9137L55.1345 18.9086C55.7425 18.9703 56.2285 19.1261 56.61 19.3582L57.1298 18.5039ZM55.2388 17.9141C54.5452 17.839 53.8142 17.8589 53.0477 17.9699L53.191 18.9596C53.8853 18.8591 54.5314 18.8433 55.1312 18.9083L55.2388 17.9141ZM53.0477 17.9699C51.8365 18.1453 50.8232 18.6642 50.0337 19.5308L50.773 20.2042C51.3959 19.5204 52.1932 19.1041 53.191 18.9596L53.0477 17.9699ZM50.0383 19.5258C49.2668 20.3502 48.7354 21.3538 48.4387 22.5233L49.4079 22.7692C49.667 21.7484 50.1224 20.8995 50.7684 20.2091L50.0383 19.5258ZM48.4369 22.5305C48.162 23.685 48.1106 24.8561 48.2821 26.0402L49.2717 25.8969C49.1182 24.8364 49.1644 23.7926 49.4097 22.7621L48.4369 22.5305Z" fill="#9A795A"/>
<path d="M75.9729 26.5958C76.4634 27.729 76.9686 28.7462 77.4887 29.6473C78.0289 30.5328 78.7416 31.6309 79.6268 32.9415C79.7358 33.0825 79.7801 33.2333 79.7596 33.394C79.7277 33.6439 79.5575 33.84 79.249 33.982C78.9584 34.1264 78.6166 34.1735 78.2238 34.1234C77.6703 34.0527 77.1018 33.7442 76.5183 33.198C75.9993 32.7144 75.56 32.1048 75.2002 31.3693C74.8405 30.6339 74.4355 29.6839 73.9853 28.5196C73.6282 27.6211 73.4141 27.0948 73.3431 26.9405C72.6103 27.1373 71.4983 27.1768 70.0072 27.0591C69.9297 27.6662 69.8784 28.4943 69.8534 29.5436C69.8237 30.6286 69.7782 31.4121 69.7166 31.8942C69.6756 32.2156 69.4807 32.4629 69.132 32.6361C68.8011 32.8117 68.4392 32.8743 68.0464 32.8242C67.5822 32.7649 67.249 32.5319 67.0469 32.125C66.8608 31.5932 66.7764 30.9745 66.7939 30.269C66.8114 29.5636 66.8816 28.7287 67.0047 27.7646C67.1346 26.7468 67.3441 25.6032 67.6332 24.3335C67.9227 22.9188 68.1107 21.8722 68.1973 21.1937C68.268 20.6402 68.309 19.8924 68.3204 18.9502C68.3231 18.7872 68.3316 18.5071 68.3461 18.1097C68.3605 17.7123 68.3882 17.353 68.4292 17.0316C68.4612 16.7816 68.5778 16.5787 68.7791 16.423C69.0006 16.2516 69.223 16.1439 69.4464 16.0999C70.9223 16.0524 72.3477 16.1164 73.7225 16.2919C76.0615 16.5904 77.943 17.2752 79.3668 18.3461C80.7907 19.417 81.3887 20.8452 81.1607 22.6308C81.0901 23.1843 80.8967 23.704 80.5806 24.1898C80.2847 24.6602 79.9097 25.0387 79.4558 25.3256C78.2595 26.0257 77.0985 26.4491 75.9729 26.5958ZM78.3588 22.1914C78.4682 21.3344 78.1018 20.5799 77.2596 19.928C76.4196 19.2583 75.1604 18.8163 73.4821 18.602C72.7321 18.5063 71.9798 18.501 71.2249 18.5861L71.0773 19.9554C70.977 20.741 70.8523 21.5054 70.703 22.2485C70.5537 22.9915 70.4243 23.7916 70.3149 24.6486C70.6276 24.616 70.9547 24.6124 71.2962 24.6378C71.64 24.6454 71.8666 24.6471 71.976 24.6429C72.7707 24.6718 73.3892 24.66 73.8314 24.6076C74.6668 24.4602 75.3559 24.3213 75.8988 24.191C76.4618 24.0451 76.9904 23.8132 77.4847 23.4952C77.9991 23.1617 78.2904 22.7271 78.3588 22.1914Z" fill="#9A795A"/>
<path d="M75.9729 26.5958L75.9083 26.0999L75.2506 26.1856L75.514 26.7944L75.9729 26.5958ZM77.4887 29.6473L77.0555 29.8973L77.0619 29.9077L77.4887 29.6473ZM79.6268 32.9415L79.2124 33.2214L79.2214 33.2347L79.2313 33.2475L79.6268 32.9415ZM79.249 33.982L79.0398 33.5279L79.0331 33.531L79.0265 33.5343L79.249 33.982ZM76.5183 33.198L76.86 32.833L76.8592 32.8322L76.5183 33.198ZM73.9853 28.5196L74.4517 28.3392L74.4499 28.3349L73.9853 28.5196ZM73.3431 26.9405L73.7972 26.7314L73.6208 26.3482L73.2134 26.4576L73.3431 26.9405ZM70.0072 27.0591L70.0466 26.5606L69.5716 26.5231L69.5112 26.9958L70.0072 27.0591ZM69.8534 29.5436L70.3532 29.5572L70.3532 29.5555L69.8534 29.5436ZM69.132 32.6361L68.9095 32.1882L68.8977 32.1944L69.132 32.6361ZM67.0469 32.125L66.575 32.2902L66.5853 32.3196L66.5991 32.3475L67.0469 32.125ZM66.7939 30.269L67.2937 30.2814L67.2937 30.2814L66.7939 30.269ZM67.6332 24.3335L68.1209 24.4446L68.1231 24.4338L67.6332 24.3335ZM68.3204 18.9502L67.8205 18.9421L67.8205 18.9442L68.3204 18.9502ZM68.3461 18.1097L68.8457 18.1279L68.8457 18.1279L68.3461 18.1097ZM68.7791 16.423L69.0851 16.8184L69.0851 16.8184L68.7791 16.423ZM69.4464 16.0999L69.4303 15.6001L69.3896 15.6014L69.3496 15.6093L69.4464 16.0999ZM79.3668 18.3461L79.6674 17.9465L79.6674 17.9465L79.3668 18.3461ZM80.5806 24.1898L80.1615 23.9172L80.1574 23.9236L80.5806 24.1898ZM79.4558 25.3256L79.7083 25.7571L79.7157 25.7528L79.7228 25.7483L79.4558 25.3256ZM77.2596 19.928L76.9478 20.319L76.9535 20.3234L77.2596 19.928ZM71.2249 18.5861L71.1689 18.0892L70.7707 18.1341L70.7278 18.5325L71.2249 18.5861ZM71.0773 19.9554L71.5734 20.0187L71.5745 20.009L71.0773 19.9554ZM70.703 22.2485L71.1932 22.3469L71.1932 22.3469L70.703 22.2485ZM70.3149 24.6486L69.8189 24.5853L69.739 25.2116L70.3669 25.1459L70.3149 24.6486ZM71.2962 24.6378L71.259 25.1364L71.2721 25.1374L71.2851 25.1377L71.2962 24.6378ZM71.976 24.6429L71.9942 24.1433L71.9755 24.1426L71.9569 24.1433L71.976 24.6429ZM73.8314 24.6076L73.8903 25.1041L73.9044 25.1024L73.9183 25.1L73.8314 24.6076ZM75.8988 24.191L76.0155 24.6773L76.0242 24.675L75.8988 24.191ZM77.4847 23.4952L77.7552 23.9157L77.7567 23.9147L77.4847 23.4952ZM75.514 26.7944C76.0107 27.942 76.5244 28.9768 77.0557 29.8972L77.9218 29.3973C77.4128 28.5155 76.916 27.5159 76.4318 26.3972L75.514 26.7944ZM77.0619 29.9077C77.6076 30.8022 78.3249 31.9073 79.2124 33.2214L80.0411 32.6617C79.1583 31.3545 78.4503 30.2634 77.9156 29.3869L77.0619 29.9077ZM79.2313 33.2475C79.2681 33.295 79.2655 33.3153 79.2636 33.3307L80.2555 33.4573C80.2946 33.1513 80.2035 32.8699 80.0223 32.6356L79.2313 33.2475ZM79.2636 33.3307C79.2608 33.3523 79.2525 33.4299 79.0398 33.5279L79.4582 34.4362C79.8624 34.25 80.1945 33.9355 80.2555 33.4573L79.2636 33.3307ZM79.0265 33.5343C78.8421 33.6259 78.6038 33.6678 78.2871 33.6274L78.1605 34.6194C78.6295 34.6792 79.0746 34.627 79.4714 34.4298L79.0265 33.5343ZM78.2871 33.6274C77.8742 33.5747 77.3988 33.3373 76.86 32.833L76.1766 33.563C76.8049 34.1512 77.4664 34.5307 78.1605 34.6194L78.2871 33.6274ZM76.8592 32.8322C76.3913 32.3961 75.9864 31.8386 75.6494 31.1496L74.7511 31.589C75.1336 32.3711 75.6074 33.0326 76.1774 33.5638L76.8592 32.8322ZM75.6494 31.1496C75.2983 30.4318 74.899 29.4964 74.4517 28.3393L73.5189 28.6999C73.9719 29.8715 74.3827 30.8359 74.7511 31.589L75.6494 31.1496ZM74.4499 28.3349C74.0958 27.4438 73.8754 26.901 73.7972 26.7314L72.8889 27.1497C72.9529 27.2885 73.1606 27.7984 73.5207 28.7042L74.4499 28.3349ZM73.2134 26.4576C72.5664 26.6314 71.525 26.6774 70.0466 26.5606L69.9678 27.5575C71.4717 27.6763 72.6542 27.6433 73.4728 27.4234L73.2134 26.4576ZM69.5112 26.9958C69.4306 27.6277 69.3787 28.4755 69.3535 29.5317L70.3532 29.5555C70.3781 28.5132 70.4289 27.7046 70.5032 27.1224L69.5112 26.9958ZM69.3536 29.53C69.324 30.6134 69.2788 31.3755 69.2207 31.8309L70.2126 31.9575C70.2775 31.4488 70.3235 30.6437 70.3532 29.5572L69.3536 29.53ZM69.2207 31.8309C69.2053 31.9514 69.1433 32.0723 68.9095 32.1884L69.3544 33.0839C69.8182 32.8536 70.1459 32.4798 70.2126 31.9575L69.2207 31.8309ZM68.8977 32.1944C68.6634 32.3187 68.4063 32.3661 68.1097 32.3282L67.9831 33.3202C68.4721 33.3826 68.9388 33.3046 69.3663 33.0779L68.8977 32.1944ZM68.1097 32.3282C67.8053 32.2894 67.6198 32.1544 67.4947 31.9026L66.5991 32.3475C66.8783 32.9094 67.3591 33.2405 67.9831 33.3202L68.1097 32.3282ZM67.5188 31.9598C67.357 31.4974 67.2774 30.9411 67.2937 30.2814L66.294 30.2567C66.2754 31.0079 66.3646 31.689 66.575 32.2902L67.5188 31.9598ZM67.2937 30.2814C67.3107 29.598 67.379 28.781 67.5007 27.8279L66.5087 27.7013C66.3842 28.6765 66.3121 29.5292 66.294 30.2567L67.2937 30.2814ZM67.5007 27.8279C67.6281 26.8298 67.8343 25.7024 68.1207 24.4445L67.1457 24.2225C66.8539 25.5039 66.6412 26.6639 66.5087 27.7013L67.5007 27.8279ZM68.1231 24.4338C68.4129 23.0171 68.6042 21.9552 68.6933 21.257L67.7014 21.1304C67.6173 21.7892 67.4325 22.8205 67.1434 24.2333L68.1231 24.4338ZM68.6933 21.257C68.7675 20.676 68.8089 19.9065 68.8204 18.9563L67.8205 18.9442C67.8092 19.8783 67.7685 20.6044 67.7014 21.1304L68.6933 21.257ZM68.8204 18.9584C68.8229 18.8009 68.8313 18.5253 68.8457 18.1279L67.8464 18.0916C67.832 18.4889 67.8232 18.7736 67.8205 18.9421L68.8204 18.9584ZM68.8457 18.1279C68.8597 17.7423 68.8865 17.3984 68.9252 17.0949L67.9333 16.9682C67.89 17.3075 67.8613 17.6823 67.8464 18.0916L68.8457 18.1279ZM68.9252 17.0949C68.9401 16.9779 68.9874 16.894 69.0851 16.8184L68.4732 16.0275C68.1682 16.2635 67.9822 16.5852 67.9333 16.9682L68.9252 17.0949ZM69.0851 16.8184C69.259 16.6839 69.4115 16.6164 69.5432 16.5904L69.3496 15.6093C69.0346 15.6715 68.7422 15.8194 68.4732 16.0275L69.0851 16.8184ZM69.4625 16.5996C70.9136 16.5529 72.3123 16.6159 73.6592 16.7878L73.7858 15.7959C72.383 15.6168 70.931 15.5518 69.4303 15.6001L69.4625 16.5996ZM73.6592 16.7878C75.9391 17.0789 77.7307 17.7412 79.0663 18.7457L79.6674 17.9465C78.1552 16.8092 76.184 16.102 73.7858 15.7959L73.6592 16.7878ZM79.0663 18.7457C80.3447 19.7073 80.8702 20.9578 80.6648 22.5674L81.6567 22.6941C81.9071 20.7326 81.2366 19.1268 79.6674 17.9465L79.0663 18.7457ZM80.6648 22.5674C80.604 23.0434 80.4382 23.4919 80.1615 23.9172L80.9998 24.4625C81.3552 23.916 81.5761 23.3252 81.6567 22.6941L80.6648 22.5674ZM80.1574 23.9236C79.8998 24.333 79.5774 24.6573 79.1887 24.9029L79.7228 25.7483C80.2421 25.4202 80.6696 24.9873 81.0038 24.4561L80.1574 23.9236ZM79.2032 24.894C78.0522 25.5677 76.9547 25.9636 75.9083 26.0999L76.0375 27.0916C77.2424 26.9346 78.4668 26.4837 79.7083 25.7571L79.2032 24.894ZM78.8548 22.2547C78.9921 21.179 78.5099 20.2635 77.5656 19.5326L76.9535 20.3234C77.6937 20.8963 77.9443 21.4898 77.8628 22.1281L78.8548 22.2547ZM77.5713 19.5371C76.6297 18.7863 75.267 18.3258 73.5454 18.106L73.4187 19.098C75.0539 19.3067 76.2095 19.7302 76.9478 20.3189L77.5713 19.5371ZM73.5454 18.106C72.7557 18.0052 71.9632 17.9997 71.1689 18.0892L71.2809 19.0829C71.9963 19.0023 72.7086 19.0073 73.4187 19.098L73.5454 18.106ZM70.7278 18.5325L70.5802 19.9018L71.5745 20.009L71.722 18.6397L70.7278 18.5325ZM70.5814 19.8921C70.4825 20.6665 70.3596 21.4191 70.2128 22.15L71.1932 22.3469C71.3449 21.5917 71.4716 20.8156 71.5733 20.0187L70.5814 19.8921ZM70.2128 22.15C70.0608 22.9062 69.9296 23.7181 69.8189 24.5853L70.8109 24.712C70.919 23.8651 71.0465 23.0769 71.1932 22.3469L70.2128 22.15ZM70.3669 25.1459C70.6474 25.1166 70.9446 25.113 71.259 25.1364L71.3333 24.1392C70.9647 24.1117 70.6077 24.1153 70.2629 24.1514L70.3669 25.1459ZM71.2851 25.1377C71.6259 25.1452 71.8679 25.1474 71.9951 25.1426L71.9569 24.1433C71.8652 24.1468 71.6541 24.1456 71.3072 24.1379L71.2851 25.1377ZM71.9579 25.1426C72.7617 25.1718 73.4101 25.161 73.8903 25.1041L73.7725 24.1111C73.3683 24.159 72.7798 24.1718 71.9942 24.1433L71.9579 25.1426ZM73.9183 25.1C74.7591 24.9516 75.4591 24.8108 76.0155 24.6772L75.7821 23.7048C75.2528 23.8319 74.5745 23.9688 73.7445 24.1152L73.9183 25.1ZM76.0242 24.675C76.6392 24.5157 77.2168 24.2621 77.7552 23.9157L77.2141 23.0747C76.7641 23.3643 76.2844 23.5746 75.7734 23.707L76.0242 24.675ZM77.7567 23.9147C78.3758 23.5133 78.7651 22.957 78.8548 22.2547L77.8628 22.1281C77.8157 22.4971 77.6223 22.8101 77.2126 23.0757L77.7567 23.9147Z" fill="#9A795A"/>
<path d="M97.0205 39.7108C97.1424 39.8709 97.212 40.0354 97.2293 40.2044C97.2628 40.3812 97.2201 40.5908 97.1011 40.8332C96.9504 41.1402 96.7062 41.3312 96.3687 41.4061C96.0552 41.4727 95.745 41.4307 95.438 41.28C95.0825 41.1055 94.7222 40.8183 94.357 40.4184C93.6505 39.5703 93.1267 38.3907 92.7857 36.8798C92.4688 35.3606 92.2081 33.2775 92.0037 30.6306C90.7337 30.8893 89.4713 31.0917 88.2166 31.2377C88.05 31.577 87.8637 31.9768 87.6577 32.4372C87.4759 32.8893 87.3334 33.2204 87.2303 33.4304C86.8025 34.3834 86.5132 35.0135 86.3625 35.3205C86.2277 35.5951 86.0079 35.8181 85.7032 35.9894C85.4065 36.1445 85.0804 36.1348 84.7249 35.9603C84.2079 35.7064 83.8759 35.4432 83.7291 35.1705C83.5901 34.8817 83.5757 34.5639 83.6859 34.2169C83.9533 33.3456 84.2694 32.5383 84.6343 31.795C85.0468 30.9548 85.7064 29.7747 86.6131 28.2547C87.488 26.7993 88.1119 25.692 88.4847 24.9325C88.6275 24.6417 88.8176 24.2137 89.055 23.6484C89.253 23.2042 89.4029 22.7765 89.5045 22.3652C89.6937 21.8164 89.8399 21.437 89.943 21.227C90.1969 20.7099 90.4924 20.3938 90.8297 20.2787C91.167 20.1635 91.5699 20.221 92.0385 20.451C92.3939 20.6255 92.6332 20.8733 92.7563 21.1945C92.9035 21.5073 92.9099 21.8414 92.7756 22.1965C92.1822 23.6096 91.703 24.6878 91.3381 25.431C91.1236 25.827 90.8057 26.3929 90.3844 27.1285C89.9872 27.8559 89.7248 28.3086 89.5973 28.4866C90.2974 28.4493 91.8042 28.0962 94.1178 27.4274C96.4554 26.7503 98.1698 26.1582 99.2609 25.6512L99.7545 25.4423C100.18 25.23 100.513 25.1028 100.754 25.0608C100.995 25.0188 101.269 25.0731 101.576 25.2238C101.883 25.3746 102.106 25.6144 102.246 25.9435C102.409 26.2643 102.423 26.562 102.288 26.8367C102.027 27.3699 101.486 27.7764 100.667 28.056C98.6437 28.7872 96.668 29.4214 94.7399 29.9586C94.8931 34.4253 95.6533 37.676 97.0205 39.7108Z" fill="#9A795A"/>
<path d="M97.0205 39.7108L96.6055 39.9897L96.6137 40.0019L96.6227 40.0137L97.0205 39.7108ZM97.2293 40.2044L96.732 40.2554L96.7341 40.2765L96.7381 40.2974L97.2293 40.2044ZM96.3687 41.4061L96.4727 41.8951L96.477 41.8942L96.3687 41.4061ZM94.357 40.4184L93.9728 40.7385L93.9801 40.7472L93.9878 40.7556L94.357 40.4184ZM92.7857 36.8798L92.2962 36.9819L92.298 36.9899L92.7857 36.8798ZM92.0037 30.6306L92.5022 30.5921L92.4587 30.0276L91.9039 30.1406L92.0037 30.6306ZM88.2166 31.2377L88.1588 30.741L87.8879 30.7725L87.7677 31.0173L88.2166 31.2377ZM87.6577 32.4372L87.2013 32.233L87.1974 32.2417L87.1939 32.2506L87.6577 32.4372ZM87.2303 33.4304L86.7814 33.2101L86.7776 33.2178L86.7741 33.2257L87.2303 33.4304ZM85.7032 35.9894L85.9349 36.4325L85.9416 36.429L85.9483 36.4252L85.7032 35.9894ZM83.7291 35.1705L83.2785 35.3873L83.2834 35.3976L83.2889 35.4077L83.7291 35.1705ZM83.6859 34.2169L84.1625 34.3683L84.1639 34.3636L83.6859 34.2169ZM86.6131 28.2547L86.1845 27.9971L86.1836 27.9986L86.6131 28.2547ZM89.055 23.6484L88.5982 23.4448L88.594 23.4548L89.055 23.6484ZM89.5045 22.3652L89.0318 22.2022L89.0245 22.2234L89.0191 22.2452L89.5045 22.3652ZM90.8297 20.2787L90.9913 20.7518L90.9913 20.7518L90.8297 20.2787ZM92.7563 21.1945L92.2894 21.3734L92.296 21.3906L92.3038 21.4073L92.7563 21.1945ZM92.7756 22.1965L93.2366 22.3902L93.2401 22.3818L93.2433 22.3734L92.7756 22.1965ZM91.3381 25.431L91.7777 25.6692L91.7825 25.6604L91.7869 25.6514L91.3381 25.431ZM90.3844 27.1285L89.9504 26.8799L89.9455 26.8888L90.3844 27.1285ZM89.5973 28.4866L89.1908 28.1955L88.585 29.0412L89.6239 28.9859L89.5973 28.4866ZM94.1178 27.4274L94.2566 27.9077L94.2569 27.9076L94.1178 27.4274ZM99.2609 25.6512L99.0661 25.1907L99.0581 25.1941L99.0502 25.1978L99.2609 25.6512ZM99.7545 25.4423L99.9493 25.9028L99.9638 25.8967L99.9779 25.8896L99.7545 25.4423ZM100.754 25.0608L100.84 25.5533L100.84 25.5533L100.754 25.0608ZM102.246 25.9435L101.785 26.1383L101.792 26.1546L101.8 26.1703L102.246 25.9435ZM100.667 28.056L100.505 27.5828L100.497 27.5858L100.667 28.056ZM94.7399 29.9586L94.6057 29.477L94.2267 29.5826L94.2402 29.9758L94.7399 29.9586ZM96.6227 40.0137C96.6993 40.1143 96.7256 40.1937 96.732 40.2554L97.7267 40.1534C97.6984 39.8772 97.5855 39.6275 97.4183 39.4079L96.6227 40.0137ZM96.7381 40.2974C96.7436 40.3266 96.7462 40.4214 96.6523 40.6129L97.5499 41.0536C97.6939 40.7602 97.7821 40.4359 97.7206 40.1114L96.7381 40.2974ZM96.6523 40.6129C96.5693 40.7818 96.4515 40.8755 96.2604 40.9179L96.477 41.8942C96.9609 41.7868 97.3314 41.4986 97.5499 41.0536L96.6523 40.6129ZM96.2646 40.917C96.0684 40.9587 95.872 40.9361 95.6583 40.8312L95.2176 41.7288C95.6179 41.9254 96.042 41.9867 96.4727 41.8951L96.2646 40.917ZM95.6583 40.8312C95.3755 40.6923 95.0637 40.4508 94.7262 40.0813L93.9878 40.7556C94.3807 41.1858 94.7895 41.5186 95.2176 41.7288L95.6583 40.8312ZM94.7412 40.0984C94.1016 39.3305 93.6037 38.2327 93.2734 36.7697L92.298 36.9899C92.6498 38.5487 93.1995 39.81 93.9728 40.7385L94.7412 40.0984ZM93.2752 36.7777C92.9646 35.2891 92.706 33.2304 92.5022 30.5921L91.5052 30.6691C91.7103 33.3247 91.9729 35.4321 92.2962 36.9819L93.2752 36.7777ZM91.9039 30.1406C90.6474 30.3966 89.3991 30.5967 88.1588 30.741L88.2743 31.7343C89.5436 31.5867 90.82 31.382 92.1036 31.1205L91.9039 30.1406ZM87.7677 31.0173C87.5978 31.3634 87.409 31.7689 87.2013 32.233L88.1142 32.6414C88.3184 32.1848 88.5021 31.7906 88.6654 31.458L87.7677 31.0173ZM87.1939 32.2506C87.0128 32.7007 86.876 33.0175 86.7814 33.2101L87.6791 33.6508C87.7908 33.4233 87.939 33.0779 88.1216 32.6238L87.1939 32.2506ZM86.7741 33.2257C86.3457 34.1801 86.06 34.8022 85.9137 35.1001L86.8113 35.5408C86.9665 35.2247 87.2593 34.5868 87.6864 33.6352L86.7741 33.2257ZM85.9137 35.1001C85.8295 35.2715 85.6877 35.4245 85.4582 35.5535L85.9483 36.4252C86.3281 36.2117 86.6258 35.9188 86.8113 35.5408L85.9137 35.1001ZM85.4716 35.5463C85.3429 35.6135 85.1874 35.6303 84.9453 35.5114L84.5046 36.4091C84.9734 36.6392 85.4701 36.6754 85.9349 36.4325L85.4716 35.5463ZM84.9453 35.5114C84.4525 35.2695 84.2396 35.064 84.1692 34.9334L83.2889 35.4077C83.5122 35.8223 83.9633 36.1433 84.5046 36.4091L84.9453 35.5114ZM84.1796 34.9537C84.1036 34.7957 84.0852 34.6115 84.1624 34.3682L83.2094 34.0656C83.0662 34.5162 83.0767 34.9678 83.2785 35.3873L84.1796 34.9537ZM84.1639 34.3636C84.4243 33.515 84.731 32.7326 85.0831 32.0154L84.1855 31.5747C83.8078 32.3439 83.4823 33.1761 83.2079 34.0702L84.1639 34.3636ZM85.0831 32.0154C85.4865 31.1937 86.1378 30.0275 87.0425 28.5108L86.1836 27.9986C85.275 29.5219 84.6071 30.7159 84.1855 31.5747L85.0831 32.0154ZM87.0416 28.5123C87.9181 27.0543 88.551 25.9321 88.9335 25.1529L88.0359 24.7122C87.6728 25.4518 87.0579 26.5444 86.1845 27.9971L87.0416 28.5123ZM88.9335 25.1529C89.0829 24.8487 89.2775 24.4099 89.516 23.8421L88.594 23.4548C88.3577 24.0175 88.1721 24.4347 88.0359 24.7122L88.9335 25.1529ZM89.5117 23.852C89.72 23.3847 89.8802 22.929 89.9899 22.4852L89.0191 22.2452C88.9255 22.624 88.786 23.0238 88.5983 23.4448L89.5117 23.852ZM89.9772 22.5282C90.1667 21.9787 90.304 21.6263 90.3919 21.4473L89.4942 21.0066C89.3758 21.2478 89.2208 21.6541 89.0318 22.2022L89.9772 22.5282ZM90.3919 21.4473C90.6218 20.979 90.838 20.8042 90.9913 20.7518L90.6681 19.8055C90.1469 19.9835 89.772 20.4408 89.4942 21.0066L90.3919 21.4473ZM90.9913 20.7518C91.1549 20.696 91.4134 20.7011 91.8181 20.8998L92.2588 20.0022C91.7264 19.7408 91.1791 19.631 90.6681 19.8055L90.9913 20.7518ZM91.8181 20.8998C92.0787 21.0278 92.2183 21.188 92.2894 21.3734L93.2232 21.0155C93.0481 20.5587 92.7092 20.2233 92.2588 20.0022L91.8181 20.8998ZM92.3038 21.4073C92.3875 21.585 92.3996 21.7774 92.3079 22.0197L93.2433 22.3734C93.4203 21.9053 93.4195 21.4297 93.2087 20.9816L92.3038 21.4073ZM92.3147 22.0029C91.7224 23.4132 91.2476 24.4807 90.8892 25.2107L91.7869 25.6514C92.1583 24.8949 92.642 23.8061 93.2366 22.3902L92.3147 22.0029ZM90.8984 25.1929C90.6868 25.5836 90.3712 26.1454 89.9505 26.88L90.8183 27.377C91.2401 26.6403 91.5604 26.0705 91.7777 25.6692L90.8984 25.1929ZM89.9455 26.8888C89.5434 27.6252 89.2967 28.0476 89.1908 28.1955L90.0038 28.7777C90.1529 28.5696 90.4309 28.0865 90.8232 27.3681L89.9455 26.8888ZM89.6239 28.9859C90.3925 28.945 91.9581 28.5722 94.2566 27.9077L93.9789 26.9471C91.6503 27.6203 90.2022 27.9537 89.5707 27.9873L89.6239 28.9859ZM94.2569 27.9076C96.5995 27.2291 98.3443 26.6285 99.4716 26.1046L99.0502 25.1978C97.9953 25.688 96.3113 26.2715 93.9786 26.9471L94.2569 27.9076ZM99.4558 26.1117L99.9493 25.9028L99.5596 24.9819L99.0661 25.1907L99.4558 26.1117ZM99.9779 25.8896C100.392 25.6826 100.672 25.5825 100.84 25.5533L100.668 24.5682C100.353 24.6231 99.9668 24.7773 99.531 24.9951L99.9779 25.8896ZM100.84 25.5533C100.943 25.5354 101.107 25.5505 101.356 25.6727L101.797 24.775C101.431 24.5957 101.048 24.5021 100.668 24.5682L100.84 25.5533ZM101.356 25.6727C101.55 25.7678 101.69 25.9147 101.785 26.1383L102.706 25.7486C102.522 25.3142 102.217 24.9813 101.797 24.775L101.356 25.6727ZM101.8 26.1703C101.906 26.3789 101.892 26.509 101.839 26.6164L102.737 27.0571C102.954 26.6151 102.912 26.1497 102.691 25.7166L101.8 26.1703ZM101.839 26.6164C101.658 26.9854 101.256 27.3265 100.505 27.5828L100.829 28.5292C101.716 28.2263 102.395 27.7545 102.737 27.0571L101.839 26.6164ZM100.497 27.5858C98.4847 28.313 96.5209 28.9433 94.6057 29.477L94.8741 30.4403C96.8151 29.8994 98.8027 29.2613 100.837 28.5263L100.497 27.5858ZM94.2402 29.9758C94.3943 34.4699 95.1587 37.8364 96.6055 39.9897L97.4355 39.432C96.1479 37.5157 95.3919 34.3807 95.2396 29.9415L94.2402 29.9758Z" fill="#9A795A"/>
<path d="M114.194 32.0946C113.55 32.962 112.561 34.1952 111.225 35.7943C109.937 37.3291 108.977 38.5222 108.346 39.3736C108.179 39.5985 107.85 40.0762 107.357 40.8068C107.139 41.068 106.888 41.2053 106.604 41.2188C106.332 41.2162 106.075 41.1256 105.834 40.9469C105.577 40.7562 105.392 40.5192 105.278 40.2358C105.165 39.9524 105.162 39.6884 105.268 39.4438C106.053 37.9837 107.124 36.338 108.482 34.5068L111.294 30.7659C111.735 30.1715 112.165 29.7433 112.584 29.481C113.03 29.2147 113.511 29.2721 114.025 29.6534C114.458 29.9752 114.672 30.358 114.667 30.8021C114.673 31.23 114.515 31.6609 114.194 32.0946ZM104.784 42.1104C105.877 42.9207 106.119 43.7354 105.511 44.5546C105.201 44.9723 104.779 45.2565 104.244 45.4073C103.736 45.554 103.282 45.4784 102.881 45.1805C102.399 44.8231 102.112 44.3866 102.022 43.871C101.943 43.3395 102.052 42.8729 102.35 42.4713C102.612 42.1179 102.979 41.892 103.451 41.7935C103.938 41.7069 104.383 41.8125 104.784 42.1104Z" fill="#9A795A"/>
<path d="M111.225 35.7943L111.608 36.1157L111.609 36.1148L111.225 35.7943ZM107.357 40.8068L107.741 41.1278L107.758 41.1078L107.772 41.0862L107.357 40.8068ZM106.604 41.2188L106.599 41.7188L106.613 41.7189L106.627 41.7182L106.604 41.2188ZM105.278 40.2358L104.814 40.4217L104.814 40.4217L105.278 40.2358ZM105.268 39.4438L104.828 39.2072L104.818 39.2252L104.81 39.2439L105.268 39.4438ZM108.482 34.5068L108.083 34.2063L108.081 34.2089L108.482 34.5068ZM111.294 30.7659L111.694 31.0663L111.696 31.0638L111.294 30.7659ZM112.584 29.481L112.328 29.0515L112.318 29.0573L112.584 29.481ZM114.667 30.8021L114.167 30.7957L114.167 30.8094L114.667 30.8021ZM104.244 45.4073L104.108 44.9261L104.105 44.927L104.244 45.4073ZM102.022 43.871L101.527 43.9444L101.529 43.9577L102.022 43.871ZM103.451 41.7935L103.363 41.3012L103.356 41.3025L103.348 41.304L103.451 41.7935ZM113.792 31.7967C113.157 32.6523 112.175 33.8767 110.841 35.4738L111.609 36.1148C112.946 34.5138 113.943 33.2717 114.595 32.3925L113.792 31.7967ZM110.842 35.4729C109.552 37.0099 108.585 38.2121 107.944 39.0757L108.747 39.6715C109.37 38.8323 110.322 37.6483 111.608 36.1157L110.842 35.4729ZM107.944 39.0757C107.77 39.3113 107.434 39.7988 106.943 40.5275L107.772 41.0862C108.266 40.3536 108.589 39.8856 108.747 39.6715L107.944 39.0757ZM106.974 40.4859C106.826 40.6629 106.697 40.7138 106.58 40.7194L106.627 41.7182C107.078 41.6968 107.452 41.473 107.741 41.1278L106.974 40.4859ZM106.608 40.7188C106.453 40.7174 106.297 40.6679 106.132 40.5453L105.536 41.3484C105.853 41.5833 106.21 41.7151 106.599 41.7188L106.608 40.7188ZM106.132 40.5453C105.946 40.407 105.82 40.2432 105.743 40.0499L104.814 40.4217C104.964 40.7952 105.209 41.1055 105.536 41.3484L106.132 40.5453ZM105.743 40.0499C105.671 39.8712 105.681 39.7477 105.727 39.6438L104.81 39.2439C104.642 39.6291 104.659 40.0335 104.814 40.4217L105.743 40.0499ZM105.709 39.6804C106.478 38.2478 107.535 36.6231 108.884 34.8047L108.081 34.2089C106.713 36.0529 105.627 37.7195 104.828 39.2072L105.709 39.6804ZM108.882 34.8072L111.694 31.0663L110.895 30.4654L108.083 34.2063L108.882 34.8072ZM111.696 31.0638C112.116 30.497 112.503 30.1217 112.849 29.9048L112.318 29.0573C111.827 29.3648 111.354 29.8461 110.893 30.468L111.696 31.0638ZM112.84 29.9105C112.976 29.8294 113.097 29.8062 113.219 29.8208C113.35 29.8364 113.518 29.9 113.727 30.055L114.323 29.2519C114.017 29.0256 113.688 28.8698 113.338 28.8279C112.98 28.785 112.638 28.8664 112.328 29.0516L112.84 29.9105ZM113.727 30.055C114.063 30.3044 114.17 30.5477 114.167 30.7957L115.167 30.8084C115.175 30.1684 114.854 29.6459 114.323 29.2519L113.727 30.055ZM114.167 30.8094C114.171 31.1016 114.066 31.4278 113.792 31.7967L114.595 32.3925C114.965 31.894 115.175 31.3584 115.167 30.7948L114.167 30.8094ZM104.486 42.512C104.994 42.8885 105.229 43.2137 105.306 43.4717C105.373 43.6972 105.341 43.9451 105.11 44.2567L105.913 44.8525C106.289 44.3449 106.44 43.7758 106.265 43.1866C106.099 42.6298 105.667 42.1426 105.082 41.7088L104.486 42.512ZM105.11 44.2567C104.87 44.5791 104.545 44.803 104.108 44.9261L104.379 45.8886C105.013 45.71 105.532 45.3654 105.913 44.8525L105.11 44.2567ZM104.105 44.927C103.738 45.0332 103.447 44.978 103.178 44.7789L102.583 45.5821C103.117 45.9789 103.735 46.0748 104.383 45.8876L104.105 44.927ZM103.178 44.7789C102.783 44.4857 102.579 44.1554 102.514 43.7844L101.529 43.9577C101.645 44.6178 102.014 45.1604 102.583 45.5821L103.178 44.7789ZM102.516 43.7977C102.455 43.3865 102.539 43.0557 102.752 42.7692L101.949 42.1734C101.565 42.69 101.43 43.2925 101.527 43.9444L102.516 43.7977ZM102.752 42.7692C102.934 42.5238 103.189 42.3589 103.553 42.2829L103.348 41.304C102.769 41.425 102.291 41.712 101.949 42.1734L102.752 42.7692ZM103.538 42.2858C103.889 42.2235 104.194 42.2952 104.486 42.512L105.082 41.7088C104.571 41.3299 103.988 41.1903 103.363 41.3012L103.538 42.2858Z" fill="#9A795A"/>
<g filter="url(#filter0_d)">
<circle cx="65" cy="100" r="61" fill="white"/>
<circle cx="65" cy="100" r="58.5" stroke="#9A795A" stroke-width="5"/>
</g>
<path d="M65 75.0001V128" stroke="#9A795A" stroke-width="5" stroke-linecap="round" stroke-linejoin="round"/>
<path d="M76.5833 85.0001H58.4583C56.215 85.0001 54.0636 85.8957 52.4774 87.4897C50.8911 89.0838 50 91.2458 50 93.5001C50 95.7545 50.8911 97.9165 52.4774 99.5105C54.0636 101.105 56.215 102 58.4583 102H70.5417C72.785 102 74.9364 102.896 76.5226 104.49C78.1089 106.084 79 108.246 79 110.5C79 112.754 78.1089 114.916 76.5226 116.511C74.9364 118.105 72.785 119 70.5417 119H50" stroke="#9A795A" stroke-width="5" stroke-linecap="round" stroke-linejoin="round"/>
<defs>
<filter id="filter0_d" x="0" y="39.0001" width="130" height="130" filterUnits="userSpaceOnUse" color-interpolation-filters="sRGB">
<feFlood flood-opacity="0" result="BackgroundImageFix"/>
<feColorMatrix in="SourceAlpha" type="matrix" values="0 0 0 0 0 0 0 0 0 0 0 0 0 0 0 0 0 0 127 0"/>
<feOffset dy="4"/>
<feGaussianBlur stdDeviation="2"/>
<feColorMatrix type="matrix" values="0 0 0 0 0 0 0 0 0 0 0 0 0 0 0 0 0 0 0.25 0"/>
<feBlend mode="normal" in2="BackgroundImageFix" result="effect1_dropShadow"/>
<feBlend mode="normal" in="SourceGraphic" in2="effect1_dropShadow" result="shape"/>
</filter>
</defs>
</svg>
